G04 (created by PCBNEW (2013-04-19 BZR 4011)-stable) date 7/6/2013 8:24:16 PM*
%MOIN*%
G04 Gerber Fmt 3.4, Leading zero omitted, Abs format*
%FSLAX34Y34*%
G01*
G70*
G90*
G04 APERTURE LIST*
%ADD10C,0.00393701*%
%ADD11R,0.055X0.055*%
%ADD12C,0.055*%
%ADD13C,0.07*%
%ADD14R,0.07X0.07*%
%ADD15C,0.133858*%
%ADD16C,0.0984252*%
%ADD17C,0.102362*%
%ADD18C,0.175*%
%ADD19C,0.16*%
%ADD20C,0.035*%
%ADD21C,0.035*%
%ADD22C,0.05*%
%ADD23C,0.01*%
G04 APERTURE END LIST*
G54D10*
G54D11*
X68250Y-16500D03*
G54D12*
X67250Y-16500D03*
X67250Y-17500D03*
G54D13*
X73000Y-33000D03*
X73000Y-34000D03*
G54D14*
X73000Y-35000D03*
G54D15*
X74456Y-29098D03*
X74446Y-38901D03*
G54D13*
X73000Y-51250D03*
X73000Y-52250D03*
G54D14*
X73000Y-53250D03*
G54D15*
X74456Y-47348D03*
X74446Y-57151D03*
G54D13*
X56250Y-61500D03*
X56250Y-62500D03*
G54D14*
X56250Y-63500D03*
G54D15*
X57706Y-57598D03*
X57696Y-67401D03*
G54D13*
X56250Y-24250D03*
X56250Y-25250D03*
G54D14*
X56250Y-26250D03*
G54D15*
X57706Y-20348D03*
X57696Y-30151D03*
G54D13*
X56250Y-42750D03*
X56250Y-43750D03*
G54D14*
X56250Y-44750D03*
G54D15*
X57706Y-38848D03*
X57696Y-48651D03*
G54D13*
X76000Y-21750D03*
X76000Y-20750D03*
G54D14*
X76000Y-19750D03*
G54D16*
X74250Y-68000D03*
X74250Y-70952D03*
X72281Y-68000D03*
X72281Y-70952D03*
X76218Y-68000D03*
X76218Y-70952D03*
X82242Y-68000D03*
X82242Y-70952D03*
G54D17*
X67250Y-70000D03*
X69218Y-70000D03*
X69218Y-70000D03*
X67250Y-70000D03*
X65281Y-70000D03*
X69500Y-12000D03*
X71468Y-12000D03*
X71468Y-12000D03*
X69500Y-12000D03*
X67531Y-12000D03*
X55265Y-12000D03*
X57234Y-12000D03*
X57234Y-12000D03*
X55265Y-12000D03*
X61515Y-12000D03*
X63484Y-12000D03*
X63484Y-12000D03*
X61515Y-12000D03*
X75265Y-12000D03*
X77234Y-12000D03*
X77234Y-12000D03*
X75265Y-12000D03*
X84250Y-57265D03*
X84250Y-59234D03*
X84250Y-59234D03*
X84250Y-57265D03*
X84250Y-62015D03*
X84250Y-63984D03*
X84250Y-63984D03*
X84250Y-62015D03*
G54D13*
X67500Y-63750D03*
X60500Y-63750D03*
X84000Y-35000D03*
X77000Y-35000D03*
X84250Y-53250D03*
X77250Y-53250D03*
X67250Y-26250D03*
X60250Y-26250D03*
X67500Y-44750D03*
X60500Y-44750D03*
G54D12*
X70750Y-16000D03*
X71750Y-16000D03*
X52750Y-63750D03*
X53750Y-63750D03*
X69250Y-35000D03*
X70250Y-35000D03*
X52750Y-26250D03*
X53750Y-26250D03*
X69000Y-53250D03*
X70000Y-53250D03*
X52750Y-44750D03*
X53750Y-44750D03*
X79000Y-17250D03*
X79000Y-18250D03*
X84750Y-68500D03*
X84750Y-69500D03*
X76000Y-16000D03*
X77000Y-16000D03*
X73250Y-16000D03*
X74250Y-16000D03*
X79000Y-22500D03*
X79000Y-21500D03*
G54D13*
X82000Y-32500D03*
G54D14*
X77000Y-32500D03*
G54D13*
X82250Y-50750D03*
G54D14*
X77250Y-50750D03*
G54D13*
X65500Y-42250D03*
G54D14*
X60500Y-42250D03*
G54D13*
X65500Y-61000D03*
G54D14*
X60500Y-61000D03*
G54D13*
X65250Y-23750D03*
G54D14*
X60250Y-23750D03*
G54D11*
X78500Y-65000D03*
G54D12*
X75500Y-65000D03*
G54D11*
X78500Y-62750D03*
G54D12*
X75500Y-62750D03*
G54D11*
X73750Y-65000D03*
G54D12*
X70750Y-65000D03*
G54D11*
X73750Y-62750D03*
G54D12*
X70750Y-62750D03*
G54D14*
X84226Y-13250D03*
G54D13*
X81263Y-13250D03*
G54D14*
X84000Y-19750D03*
G54D13*
X82000Y-19750D03*
G54D12*
X52750Y-24250D03*
X53750Y-24250D03*
X52750Y-42750D03*
X53750Y-42750D03*
X69000Y-51250D03*
X70000Y-51250D03*
X52750Y-61500D03*
X53750Y-61500D03*
X69250Y-33000D03*
X70250Y-33000D03*
G54D18*
X51500Y-10000D03*
X86500Y-10000D03*
X51500Y-72000D03*
X86500Y-72000D03*
G54D19*
X51500Y-34500D03*
X86500Y-34500D03*
G54D20*
X62678Y-43507D03*
G54D21*
X85061Y-60045D02*
X84250Y-59234D01*
X85061Y-68188D02*
X85061Y-60045D01*
X84750Y-68500D02*
X85061Y-68188D01*
G54D22*
X71328Y-70000D02*
X72281Y-70952D01*
X69218Y-70000D02*
X71328Y-70000D01*
X73146Y-70087D02*
X72281Y-70952D01*
X75353Y-70087D02*
X73146Y-70087D01*
X76218Y-70952D02*
X75353Y-70087D01*
X67281Y-68000D02*
X72281Y-68000D01*
X65281Y-70000D02*
X67281Y-68000D01*
X60970Y-26970D02*
X60250Y-26250D01*
X74529Y-26970D02*
X60970Y-26970D01*
X79000Y-22500D02*
X74529Y-26970D01*
X78500Y-62750D02*
X78500Y-62050D01*
X56250Y-63500D02*
X57025Y-63500D01*
X73000Y-59847D02*
X73000Y-53250D01*
X72417Y-59847D02*
X73000Y-59847D01*
X67814Y-64450D02*
X72417Y-59847D01*
X57975Y-64450D02*
X67814Y-64450D01*
X57025Y-63500D02*
X57975Y-64450D01*
X76297Y-59847D02*
X78500Y-62050D01*
X73000Y-59847D02*
X76297Y-59847D01*
X84226Y-13250D02*
X83451Y-13250D01*
X77500Y-17500D02*
X67250Y-17500D01*
X81049Y-13950D02*
X77500Y-17500D01*
X82751Y-13950D02*
X81049Y-13950D01*
X83451Y-13250D02*
X82751Y-13950D01*
X55543Y-25543D02*
X56250Y-26250D01*
X55543Y-23965D02*
X55543Y-25543D01*
X62009Y-17500D02*
X55543Y-23965D01*
X67250Y-17500D02*
X62009Y-17500D01*
G54D21*
X57234Y-12000D02*
X61515Y-12000D01*
X70000Y-51250D02*
X73000Y-51250D01*
X73500Y-50750D02*
X77250Y-50750D01*
X73000Y-51250D02*
X73500Y-50750D01*
X70250Y-33000D02*
X73000Y-33000D01*
X73500Y-32500D02*
X77000Y-32500D01*
X73000Y-33000D02*
X73500Y-32500D01*
X65500Y-61000D02*
X65500Y-62450D01*
X66200Y-62450D02*
X65500Y-62450D01*
X67500Y-63750D02*
X66200Y-62450D01*
X56300Y-62450D02*
X56250Y-62500D01*
X65500Y-62450D02*
X56300Y-62450D01*
X75007Y-69210D02*
X76218Y-68000D01*
X68039Y-69210D02*
X75007Y-69210D01*
X67250Y-70000D02*
X68039Y-69210D01*
X82250Y-50750D02*
X82250Y-52200D01*
X83200Y-52200D02*
X82250Y-52200D01*
X84250Y-53250D02*
X83200Y-52200D01*
X73050Y-52200D02*
X73000Y-52250D01*
X82250Y-52200D02*
X73050Y-52200D01*
X82000Y-32500D02*
X82000Y-33950D01*
X82950Y-33950D02*
X82000Y-33950D01*
X84000Y-35000D02*
X82950Y-33950D01*
X73050Y-33950D02*
X73000Y-34000D01*
X82000Y-33950D02*
X73050Y-33950D01*
X83694Y-69500D02*
X82242Y-70952D01*
X84750Y-69500D02*
X83694Y-69500D01*
X70250Y-12000D02*
X69500Y-12000D01*
X74250Y-16000D02*
X70250Y-12000D01*
X67531Y-12000D02*
X69500Y-12000D01*
X73750Y-65000D02*
X75500Y-65000D01*
X72000Y-12000D02*
X71468Y-12000D01*
X76000Y-16000D02*
X72000Y-12000D01*
X63242Y-47492D02*
X63242Y-45392D01*
X69000Y-53250D02*
X63242Y-47492D01*
X63242Y-41007D02*
X69250Y-35000D01*
X63242Y-45392D02*
X63242Y-41007D01*
X52185Y-63185D02*
X52750Y-63750D01*
X52185Y-46600D02*
X52185Y-63185D01*
X53392Y-45392D02*
X52185Y-46600D01*
X52750Y-44750D02*
X53392Y-45392D01*
X53392Y-45392D02*
X63242Y-45392D01*
X68313Y-15436D02*
X67250Y-16500D01*
X72686Y-15436D02*
X68313Y-15436D01*
X73250Y-16000D02*
X72686Y-15436D01*
X54368Y-24631D02*
X52750Y-26250D01*
X54368Y-22341D02*
X54368Y-24631D01*
X60210Y-16500D02*
X54368Y-22341D01*
X67250Y-16500D02*
X60210Y-16500D01*
X65250Y-23750D02*
X65250Y-25200D01*
X66200Y-25200D02*
X65250Y-25200D01*
X67250Y-26250D02*
X66200Y-25200D01*
X56300Y-25200D02*
X56250Y-25250D01*
X65250Y-25200D02*
X56300Y-25200D01*
X59050Y-24250D02*
X59550Y-23750D01*
X56250Y-24250D02*
X59050Y-24250D01*
X60250Y-23750D02*
X59550Y-23750D01*
X53750Y-42750D02*
X56250Y-42750D01*
X59300Y-42750D02*
X59800Y-42250D01*
X56250Y-42750D02*
X59300Y-42750D01*
X60500Y-42250D02*
X59800Y-42250D01*
X67500Y-44250D02*
X67500Y-44750D01*
X65500Y-42250D02*
X67500Y-44250D01*
X56492Y-43507D02*
X62678Y-43507D01*
X56250Y-43750D02*
X56492Y-43507D01*
X53750Y-61500D02*
X56250Y-61500D01*
X56750Y-61000D02*
X60500Y-61000D01*
X56250Y-61500D02*
X56750Y-61000D01*
G54D10*
G36*
X87470Y-73220D02*
X87218Y-73220D01*
X87218Y-72789D01*
X86500Y-72070D01*
X86429Y-72141D01*
X86429Y-72000D01*
X85710Y-71281D01*
X85556Y-71376D01*
X85486Y-71510D01*
X85486Y-68188D01*
X85486Y-60045D01*
X85482Y-60006D01*
X85478Y-59967D01*
X85478Y-59964D01*
X85477Y-59962D01*
X85466Y-59925D01*
X85455Y-59887D01*
X85454Y-59885D01*
X85453Y-59883D01*
X85435Y-59848D01*
X85417Y-59813D01*
X85416Y-59812D01*
X85415Y-59810D01*
X85390Y-59779D01*
X85365Y-59749D01*
X85362Y-59745D01*
X85362Y-59745D01*
X85362Y-59745D01*
X85361Y-59744D01*
X85015Y-59398D01*
X85015Y-57247D01*
X84997Y-57099D01*
X84950Y-56957D01*
X84897Y-56857D01*
X84850Y-56836D01*
X84850Y-53191D01*
X84827Y-53075D01*
X84826Y-53074D01*
X84826Y-13577D01*
X84826Y-12875D01*
X84816Y-12827D01*
X84798Y-12782D01*
X84771Y-12741D01*
X84736Y-12706D01*
X84695Y-12679D01*
X84650Y-12660D01*
X84602Y-12650D01*
X84553Y-12649D01*
X83851Y-12649D01*
X83803Y-12659D01*
X83758Y-12678D01*
X83717Y-12705D01*
X83682Y-12739D01*
X83675Y-12750D01*
X83451Y-12750D01*
X83405Y-12754D01*
X83359Y-12758D01*
X83356Y-12759D01*
X83354Y-12759D01*
X83310Y-12772D01*
X83265Y-12785D01*
X83263Y-12786D01*
X83260Y-12787D01*
X83220Y-12809D01*
X83179Y-12830D01*
X83177Y-12832D01*
X83174Y-12833D01*
X83138Y-12862D01*
X83102Y-12891D01*
X83099Y-12895D01*
X83099Y-12895D01*
X83099Y-12895D01*
X83097Y-12896D01*
X82544Y-13450D01*
X81831Y-13450D01*
X81859Y-13342D01*
X81866Y-13225D01*
X81849Y-13108D01*
X81811Y-12997D01*
X81779Y-12937D01*
X81679Y-12904D01*
X81608Y-12975D01*
X81608Y-12834D01*
X81576Y-12734D01*
X81470Y-12683D01*
X81356Y-12654D01*
X81238Y-12647D01*
X81122Y-12663D01*
X81011Y-12702D01*
X80951Y-12734D01*
X80918Y-12834D01*
X81263Y-13179D01*
X81608Y-12834D01*
X81608Y-12975D01*
X81334Y-13250D01*
X81340Y-13255D01*
X81269Y-13326D01*
X81263Y-13320D01*
X81258Y-13326D01*
X81187Y-13255D01*
X81193Y-13250D01*
X80847Y-12904D01*
X80748Y-12937D01*
X80697Y-13043D01*
X80668Y-13157D01*
X80661Y-13274D01*
X80677Y-13391D01*
X80716Y-13502D01*
X80745Y-13556D01*
X80737Y-13562D01*
X80701Y-13591D01*
X80697Y-13595D01*
X80697Y-13595D01*
X80697Y-13595D01*
X80696Y-13596D01*
X77996Y-16296D01*
X77996Y-11925D01*
X77967Y-11778D01*
X77910Y-11640D01*
X77827Y-11516D01*
X77722Y-11410D01*
X77598Y-11326D01*
X77460Y-11268D01*
X77314Y-11238D01*
X77164Y-11237D01*
X77018Y-11265D01*
X76879Y-11321D01*
X76754Y-11403D01*
X76647Y-11507D01*
X76563Y-11631D01*
X76504Y-11768D01*
X76473Y-11914D01*
X76471Y-12064D01*
X76498Y-12210D01*
X76553Y-12349D01*
X76634Y-12475D01*
X76738Y-12582D01*
X76860Y-12668D01*
X76997Y-12728D01*
X77143Y-12760D01*
X77292Y-12763D01*
X77440Y-12737D01*
X77579Y-12683D01*
X77705Y-12603D01*
X77813Y-12500D01*
X77899Y-12378D01*
X77960Y-12241D01*
X77993Y-12095D01*
X77996Y-11925D01*
X77996Y-16296D01*
X77292Y-17000D01*
X72041Y-17000D01*
X72041Y-16362D01*
X71750Y-16070D01*
X71458Y-16362D01*
X71481Y-16454D01*
X71575Y-16497D01*
X71675Y-16522D01*
X71777Y-16526D01*
X71879Y-16511D01*
X71976Y-16476D01*
X72018Y-16454D01*
X72041Y-16362D01*
X72041Y-17000D01*
X68635Y-17000D01*
X68642Y-16996D01*
X68683Y-16969D01*
X68718Y-16935D01*
X68745Y-16894D01*
X68764Y-16849D01*
X68774Y-16801D01*
X68775Y-16752D01*
X68775Y-16200D01*
X68765Y-16152D01*
X68746Y-16107D01*
X68719Y-16066D01*
X68685Y-16031D01*
X68644Y-16004D01*
X68599Y-15985D01*
X68551Y-15975D01*
X68502Y-15974D01*
X68376Y-15974D01*
X68489Y-15861D01*
X70242Y-15861D01*
X70225Y-15941D01*
X70224Y-16044D01*
X70242Y-16145D01*
X70280Y-16241D01*
X70336Y-16327D01*
X70408Y-16401D01*
X70492Y-16460D01*
X70586Y-16501D01*
X70687Y-16523D01*
X70790Y-16525D01*
X70891Y-16508D01*
X70987Y-16470D01*
X71074Y-16415D01*
X71149Y-16344D01*
X71208Y-16260D01*
X71250Y-16166D01*
X71251Y-16164D01*
X71273Y-16226D01*
X71295Y-16268D01*
X71387Y-16291D01*
X71679Y-16000D01*
X71673Y-15994D01*
X71744Y-15923D01*
X71750Y-15929D01*
X71755Y-15923D01*
X71826Y-15994D01*
X71820Y-16000D01*
X72112Y-16291D01*
X72204Y-16268D01*
X72247Y-16174D01*
X72272Y-16074D01*
X72276Y-15972D01*
X72261Y-15870D01*
X72258Y-15861D01*
X72510Y-15861D01*
X72731Y-16082D01*
X72742Y-16145D01*
X72780Y-16241D01*
X72836Y-16327D01*
X72908Y-16401D01*
X72992Y-16460D01*
X73086Y-16501D01*
X73187Y-16523D01*
X73290Y-16525D01*
X73391Y-16508D01*
X73487Y-16470D01*
X73574Y-16415D01*
X73649Y-16344D01*
X73708Y-16260D01*
X73750Y-16166D01*
X73750Y-16165D01*
X73780Y-16241D01*
X73836Y-16327D01*
X73908Y-16401D01*
X73992Y-16460D01*
X74086Y-16501D01*
X74187Y-16523D01*
X74290Y-16525D01*
X74391Y-16508D01*
X74487Y-16470D01*
X74574Y-16415D01*
X74649Y-16344D01*
X74708Y-16260D01*
X74750Y-16166D01*
X74773Y-16066D01*
X74775Y-15948D01*
X74755Y-15847D01*
X74715Y-15752D01*
X74658Y-15666D01*
X74586Y-15593D01*
X74500Y-15535D01*
X74405Y-15496D01*
X74331Y-15480D01*
X71601Y-12750D01*
X71674Y-12737D01*
X71813Y-12683D01*
X71939Y-12603D01*
X71971Y-12572D01*
X75481Y-16082D01*
X75492Y-16145D01*
X75530Y-16241D01*
X75586Y-16327D01*
X75658Y-16401D01*
X75742Y-16460D01*
X75836Y-16501D01*
X75937Y-16523D01*
X76040Y-16525D01*
X76141Y-16508D01*
X76237Y-16470D01*
X76324Y-16415D01*
X76399Y-16344D01*
X76458Y-16260D01*
X76500Y-16166D01*
X76500Y-16165D01*
X76530Y-16241D01*
X76586Y-16327D01*
X76658Y-16401D01*
X76742Y-16460D01*
X76836Y-16501D01*
X76937Y-16523D01*
X77040Y-16525D01*
X77141Y-16508D01*
X77237Y-16470D01*
X77324Y-16415D01*
X77399Y-16344D01*
X77458Y-16260D01*
X77500Y-16166D01*
X77523Y-16066D01*
X77525Y-15948D01*
X77505Y-15847D01*
X77465Y-15752D01*
X77408Y-15666D01*
X77336Y-15593D01*
X77250Y-15535D01*
X77155Y-15496D01*
X77055Y-15475D01*
X76952Y-15474D01*
X76851Y-15493D01*
X76755Y-15532D01*
X76669Y-15588D01*
X76595Y-15660D01*
X76537Y-15745D01*
X76499Y-15834D01*
X76465Y-15752D01*
X76408Y-15666D01*
X76336Y-15593D01*
X76250Y-15535D01*
X76155Y-15496D01*
X76081Y-15480D01*
X76031Y-15429D01*
X76031Y-11982D01*
X76012Y-11833D01*
X75966Y-11691D01*
X75913Y-11591D01*
X75796Y-11539D01*
X75726Y-11610D01*
X75726Y-11468D01*
X75674Y-11352D01*
X75540Y-11285D01*
X75396Y-11245D01*
X75247Y-11234D01*
X75099Y-11252D01*
X74957Y-11299D01*
X74857Y-11352D01*
X74805Y-11468D01*
X75265Y-11929D01*
X75726Y-11468D01*
X75726Y-11610D01*
X75336Y-12000D01*
X75796Y-12460D01*
X75913Y-12408D01*
X75980Y-12275D01*
X76019Y-12131D01*
X76031Y-11982D01*
X76031Y-15429D01*
X75726Y-15125D01*
X75726Y-12531D01*
X75265Y-12070D01*
X75195Y-12141D01*
X75195Y-12000D01*
X74734Y-11539D01*
X74618Y-11591D01*
X74551Y-11724D01*
X74511Y-11868D01*
X74500Y-12017D01*
X74518Y-12166D01*
X74565Y-12308D01*
X74618Y-12408D01*
X74734Y-12460D01*
X75195Y-12000D01*
X75195Y-12141D01*
X74805Y-12531D01*
X74857Y-12647D01*
X74990Y-12714D01*
X75134Y-12754D01*
X75283Y-12765D01*
X75432Y-12747D01*
X75573Y-12700D01*
X75674Y-12647D01*
X75726Y-12531D01*
X75726Y-15125D01*
X72300Y-11699D01*
X72270Y-11674D01*
X72240Y-11649D01*
X72238Y-11648D01*
X72236Y-11646D01*
X72201Y-11628D01*
X72167Y-11609D01*
X72165Y-11608D01*
X72163Y-11607D01*
X72125Y-11596D01*
X72111Y-11591D01*
X72061Y-11516D01*
X71956Y-11410D01*
X71832Y-11326D01*
X71694Y-11268D01*
X71548Y-11238D01*
X71399Y-11237D01*
X71252Y-11265D01*
X71113Y-11321D01*
X70988Y-11403D01*
X70882Y-11507D01*
X70797Y-11631D01*
X70738Y-11768D01*
X70717Y-11866D01*
X70550Y-11699D01*
X70520Y-11674D01*
X70490Y-11649D01*
X70488Y-11648D01*
X70486Y-11646D01*
X70451Y-11628D01*
X70417Y-11609D01*
X70415Y-11608D01*
X70413Y-11607D01*
X70375Y-11596D01*
X70338Y-11584D01*
X70336Y-11584D01*
X70334Y-11583D01*
X70294Y-11579D01*
X70255Y-11575D01*
X70251Y-11575D01*
X70251Y-11575D01*
X70251Y-11575D01*
X70250Y-11575D01*
X70132Y-11575D01*
X70093Y-11516D01*
X69987Y-11410D01*
X69864Y-11326D01*
X69726Y-11268D01*
X69580Y-11238D01*
X69430Y-11237D01*
X69283Y-11265D01*
X69145Y-11321D01*
X69020Y-11403D01*
X68913Y-11507D01*
X68867Y-11575D01*
X68163Y-11575D01*
X68124Y-11516D01*
X68019Y-11410D01*
X67895Y-11326D01*
X67757Y-11268D01*
X67611Y-11238D01*
X67462Y-11237D01*
X67315Y-11265D01*
X67176Y-11321D01*
X67051Y-11403D01*
X66945Y-11507D01*
X66860Y-11631D01*
X66801Y-11768D01*
X66770Y-11914D01*
X66768Y-12064D01*
X66795Y-12210D01*
X66850Y-12349D01*
X66931Y-12475D01*
X67035Y-12582D01*
X67158Y-12668D01*
X67294Y-12728D01*
X67440Y-12760D01*
X67590Y-12763D01*
X67737Y-12737D01*
X67876Y-12683D01*
X68002Y-12603D01*
X68110Y-12500D01*
X68164Y-12425D01*
X68867Y-12425D01*
X68900Y-12475D01*
X69003Y-12582D01*
X69126Y-12668D01*
X69263Y-12728D01*
X69409Y-12760D01*
X69558Y-12763D01*
X69705Y-12737D01*
X69845Y-12683D01*
X69971Y-12603D01*
X70079Y-12500D01*
X70108Y-12459D01*
X72660Y-15011D01*
X68313Y-15011D01*
X68274Y-15015D01*
X68235Y-15018D01*
X68233Y-15019D01*
X68230Y-15019D01*
X68193Y-15031D01*
X68155Y-15042D01*
X68153Y-15043D01*
X68151Y-15043D01*
X68116Y-15062D01*
X68081Y-15080D01*
X68080Y-15081D01*
X68078Y-15082D01*
X68047Y-15107D01*
X68017Y-15131D01*
X68013Y-15134D01*
X68013Y-15135D01*
X68013Y-15135D01*
X68012Y-15136D01*
X67167Y-15981D01*
X67101Y-15993D01*
X67005Y-16032D01*
X66940Y-16075D01*
X64246Y-16075D01*
X64246Y-11925D01*
X64217Y-11778D01*
X64160Y-11640D01*
X64077Y-11516D01*
X63972Y-11410D01*
X63848Y-11326D01*
X63710Y-11268D01*
X63564Y-11238D01*
X63414Y-11237D01*
X63268Y-11265D01*
X63129Y-11321D01*
X63004Y-11403D01*
X62897Y-11507D01*
X62813Y-11631D01*
X62754Y-11768D01*
X62723Y-11914D01*
X62721Y-12064D01*
X62748Y-12210D01*
X62803Y-12349D01*
X62884Y-12475D01*
X62988Y-12582D01*
X63110Y-12668D01*
X63247Y-12728D01*
X63393Y-12760D01*
X63542Y-12763D01*
X63690Y-12737D01*
X63829Y-12683D01*
X63955Y-12603D01*
X64063Y-12500D01*
X64149Y-12378D01*
X64210Y-12241D01*
X64243Y-12095D01*
X64246Y-11925D01*
X64246Y-16075D01*
X62277Y-16075D01*
X62277Y-11925D01*
X62248Y-11778D01*
X62191Y-11640D01*
X62108Y-11516D01*
X62003Y-11410D01*
X61879Y-11326D01*
X61742Y-11268D01*
X61595Y-11238D01*
X61446Y-11237D01*
X61299Y-11265D01*
X61161Y-11321D01*
X61036Y-11403D01*
X60929Y-11507D01*
X60883Y-11575D01*
X57866Y-11575D01*
X57827Y-11516D01*
X57722Y-11410D01*
X57598Y-11326D01*
X57460Y-11268D01*
X57314Y-11238D01*
X57164Y-11237D01*
X57018Y-11265D01*
X56879Y-11321D01*
X56754Y-11403D01*
X56647Y-11507D01*
X56563Y-11631D01*
X56504Y-11768D01*
X56473Y-11914D01*
X56471Y-12064D01*
X56498Y-12210D01*
X56553Y-12349D01*
X56634Y-12475D01*
X56738Y-12582D01*
X56860Y-12668D01*
X56997Y-12728D01*
X57143Y-12760D01*
X57292Y-12763D01*
X57440Y-12737D01*
X57579Y-12683D01*
X57705Y-12603D01*
X57813Y-12500D01*
X57866Y-12425D01*
X60883Y-12425D01*
X60915Y-12475D01*
X61019Y-12582D01*
X61142Y-12668D01*
X61279Y-12728D01*
X61425Y-12760D01*
X61574Y-12763D01*
X61721Y-12737D01*
X61860Y-12683D01*
X61987Y-12603D01*
X62095Y-12500D01*
X62181Y-12378D01*
X62242Y-12241D01*
X62275Y-12095D01*
X62277Y-11925D01*
X62277Y-16075D01*
X60210Y-16075D01*
X60170Y-16078D01*
X60131Y-16082D01*
X60129Y-16082D01*
X60127Y-16083D01*
X60089Y-16094D01*
X60052Y-16105D01*
X60050Y-16106D01*
X60048Y-16107D01*
X60013Y-16125D01*
X59978Y-16143D01*
X59976Y-16144D01*
X59974Y-16146D01*
X59944Y-16170D01*
X59913Y-16195D01*
X59910Y-16198D01*
X59910Y-16198D01*
X59910Y-16198D01*
X59909Y-16199D01*
X56031Y-20077D01*
X56031Y-11982D01*
X56012Y-11833D01*
X55966Y-11691D01*
X55913Y-11591D01*
X55796Y-11539D01*
X55726Y-11610D01*
X55726Y-11468D01*
X55674Y-11352D01*
X55540Y-11285D01*
X55396Y-11245D01*
X55247Y-11234D01*
X55099Y-11252D01*
X54957Y-11299D01*
X54857Y-11352D01*
X54805Y-11468D01*
X55265Y-11929D01*
X55726Y-11468D01*
X55726Y-11610D01*
X55336Y-12000D01*
X55796Y-12460D01*
X55913Y-12408D01*
X55980Y-12275D01*
X56019Y-12131D01*
X56031Y-11982D01*
X56031Y-20077D01*
X55726Y-20382D01*
X55726Y-12531D01*
X55265Y-12070D01*
X55195Y-12141D01*
X55195Y-12000D01*
X54734Y-11539D01*
X54618Y-11591D01*
X54551Y-11724D01*
X54511Y-11868D01*
X54500Y-12017D01*
X54518Y-12166D01*
X54565Y-12308D01*
X54618Y-12408D01*
X54734Y-12460D01*
X55195Y-12000D01*
X55195Y-12141D01*
X54805Y-12531D01*
X54857Y-12647D01*
X54990Y-12714D01*
X55134Y-12754D01*
X55283Y-12765D01*
X55432Y-12747D01*
X55573Y-12700D01*
X55674Y-12647D01*
X55726Y-12531D01*
X55726Y-20382D01*
X54068Y-22040D01*
X54043Y-22071D01*
X54018Y-22101D01*
X54017Y-22103D01*
X54015Y-22104D01*
X53997Y-22139D01*
X53978Y-22173D01*
X53977Y-22175D01*
X53976Y-22177D01*
X53964Y-22215D01*
X53953Y-22252D01*
X53952Y-22255D01*
X53952Y-22257D01*
X53948Y-22296D01*
X53943Y-22335D01*
X53943Y-22339D01*
X53943Y-22339D01*
X53943Y-22339D01*
X53943Y-22341D01*
X53943Y-23761D01*
X53905Y-23746D01*
X53805Y-23725D01*
X53702Y-23724D01*
X53601Y-23743D01*
X53505Y-23782D01*
X53419Y-23838D01*
X53345Y-23910D01*
X53287Y-23995D01*
X53249Y-24086D01*
X53226Y-24023D01*
X53204Y-23981D01*
X53112Y-23958D01*
X53041Y-24029D01*
X53041Y-23887D01*
X53018Y-23795D01*
X52924Y-23752D01*
X52824Y-23727D01*
X52722Y-23723D01*
X52630Y-23737D01*
X52630Y-9997D01*
X52608Y-9777D01*
X52544Y-9566D01*
X52443Y-9376D01*
X52289Y-9281D01*
X52218Y-9351D01*
X52218Y-9210D01*
X52123Y-9056D01*
X51928Y-8953D01*
X51716Y-8890D01*
X51497Y-8869D01*
X51277Y-8891D01*
X51066Y-8955D01*
X50876Y-9056D01*
X50781Y-9210D01*
X51500Y-9929D01*
X52218Y-9210D01*
X52218Y-9351D01*
X51570Y-10000D01*
X52289Y-10718D01*
X52443Y-10623D01*
X52546Y-10428D01*
X52609Y-10216D01*
X52630Y-9997D01*
X52630Y-23737D01*
X52620Y-23738D01*
X52523Y-23773D01*
X52481Y-23795D01*
X52458Y-23887D01*
X52750Y-24179D01*
X53041Y-23887D01*
X53041Y-24029D01*
X52820Y-24250D01*
X53112Y-24541D01*
X53204Y-24518D01*
X53247Y-24424D01*
X53250Y-24414D01*
X53280Y-24491D01*
X53336Y-24577D01*
X53408Y-24651D01*
X53492Y-24710D01*
X53586Y-24751D01*
X53636Y-24762D01*
X53041Y-25357D01*
X53041Y-24612D01*
X52750Y-24320D01*
X52679Y-24391D01*
X52679Y-24250D01*
X52387Y-23958D01*
X52295Y-23981D01*
X52252Y-24075D01*
X52227Y-24175D01*
X52223Y-24277D01*
X52238Y-24379D01*
X52273Y-24476D01*
X52295Y-24518D01*
X52387Y-24541D01*
X52679Y-24250D01*
X52679Y-24391D01*
X52458Y-24612D01*
X52481Y-24704D01*
X52575Y-24747D01*
X52675Y-24772D01*
X52777Y-24776D01*
X52879Y-24761D01*
X52976Y-24726D01*
X53018Y-24704D01*
X53041Y-24612D01*
X53041Y-25357D01*
X52667Y-25731D01*
X52601Y-25743D01*
X52505Y-25782D01*
X52419Y-25838D01*
X52345Y-25910D01*
X52287Y-25995D01*
X52247Y-26090D01*
X52225Y-26191D01*
X52224Y-26294D01*
X52242Y-26395D01*
X52280Y-26491D01*
X52336Y-26577D01*
X52408Y-26651D01*
X52492Y-26710D01*
X52586Y-26751D01*
X52687Y-26773D01*
X52790Y-26775D01*
X52891Y-26758D01*
X52987Y-26720D01*
X53074Y-26665D01*
X53149Y-26594D01*
X53208Y-26510D01*
X53250Y-26416D01*
X53250Y-26415D01*
X53280Y-26491D01*
X53336Y-26577D01*
X53408Y-26651D01*
X53492Y-26710D01*
X53586Y-26751D01*
X53687Y-26773D01*
X53790Y-26775D01*
X53891Y-26758D01*
X53987Y-26720D01*
X54074Y-26665D01*
X54149Y-26594D01*
X54208Y-26510D01*
X54250Y-26416D01*
X54273Y-26316D01*
X54275Y-26198D01*
X54255Y-26097D01*
X54215Y-26002D01*
X54158Y-25916D01*
X54086Y-25843D01*
X54000Y-25785D01*
X53905Y-25746D01*
X53863Y-25737D01*
X54669Y-24931D01*
X54694Y-24901D01*
X54719Y-24871D01*
X54720Y-24869D01*
X54721Y-24867D01*
X54740Y-24833D01*
X54759Y-24798D01*
X54760Y-24796D01*
X54761Y-24794D01*
X54772Y-24757D01*
X54784Y-24719D01*
X54784Y-24717D01*
X54785Y-24715D01*
X54789Y-24676D01*
X54793Y-24637D01*
X54793Y-24632D01*
X54793Y-24632D01*
X54793Y-24632D01*
X54793Y-24631D01*
X54793Y-22517D01*
X56801Y-20509D01*
X56818Y-20603D01*
X56885Y-20770D01*
X56982Y-20922D01*
X57107Y-21051D01*
X57256Y-21154D01*
X57421Y-21226D01*
X57547Y-21254D01*
X55190Y-23612D01*
X55160Y-23648D01*
X55131Y-23683D01*
X55130Y-23685D01*
X55128Y-23687D01*
X55106Y-23728D01*
X55084Y-23769D01*
X55083Y-23771D01*
X55082Y-23773D01*
X55068Y-23817D01*
X55054Y-23862D01*
X55054Y-23864D01*
X55053Y-23867D01*
X55049Y-23913D01*
X55043Y-23959D01*
X55043Y-23964D01*
X55043Y-23964D01*
X55043Y-23964D01*
X55043Y-23965D01*
X55043Y-25543D01*
X55048Y-25589D01*
X55052Y-25635D01*
X55053Y-25638D01*
X55053Y-25640D01*
X55066Y-25685D01*
X55079Y-25729D01*
X55080Y-25731D01*
X55081Y-25734D01*
X55103Y-25775D01*
X55124Y-25816D01*
X55126Y-25818D01*
X55127Y-25820D01*
X55156Y-25856D01*
X55185Y-25892D01*
X55189Y-25896D01*
X55189Y-25896D01*
X55189Y-25896D01*
X55190Y-25897D01*
X55649Y-26357D01*
X55649Y-26624D01*
X55659Y-26672D01*
X55678Y-26717D01*
X55705Y-26758D01*
X55739Y-26793D01*
X55780Y-26820D01*
X55825Y-26839D01*
X55873Y-26849D01*
X55922Y-26850D01*
X56624Y-26850D01*
X56672Y-26840D01*
X56717Y-26821D01*
X56758Y-26794D01*
X56793Y-26760D01*
X56820Y-26719D01*
X56839Y-26674D01*
X56849Y-26626D01*
X56850Y-26577D01*
X56850Y-25875D01*
X56840Y-25827D01*
X56821Y-25782D01*
X56794Y-25741D01*
X56760Y-25706D01*
X56719Y-25679D01*
X56684Y-25664D01*
X56706Y-25643D01*
X56719Y-25625D01*
X65250Y-25625D01*
X66023Y-25625D01*
X66649Y-26250D01*
X66649Y-26300D01*
X66670Y-26416D01*
X66691Y-26470D01*
X61177Y-26470D01*
X60838Y-26131D01*
X60827Y-26075D01*
X60782Y-25966D01*
X60717Y-25868D01*
X60634Y-25785D01*
X60536Y-25719D01*
X60428Y-25674D01*
X60313Y-25650D01*
X60195Y-25649D01*
X60079Y-25671D01*
X59970Y-25715D01*
X59872Y-25780D01*
X59788Y-25862D01*
X59721Y-25959D01*
X59675Y-26067D01*
X59650Y-26182D01*
X59649Y-26300D01*
X59670Y-26416D01*
X59713Y-26525D01*
X59777Y-26624D01*
X59859Y-26709D01*
X59955Y-26776D01*
X60063Y-26823D01*
X60131Y-26838D01*
X60616Y-27324D01*
X60652Y-27353D01*
X60688Y-27383D01*
X60690Y-27384D01*
X60692Y-27386D01*
X60733Y-27407D01*
X60773Y-27430D01*
X60776Y-27430D01*
X60778Y-27432D01*
X60822Y-27445D01*
X60866Y-27459D01*
X60869Y-27459D01*
X60871Y-27460D01*
X60917Y-27465D01*
X60963Y-27470D01*
X60968Y-27470D01*
X60968Y-27470D01*
X60968Y-27470D01*
X60970Y-27470D01*
X74529Y-27470D01*
X74575Y-27466D01*
X74621Y-27461D01*
X74623Y-27461D01*
X74626Y-27460D01*
X74670Y-27447D01*
X74715Y-27434D01*
X74717Y-27433D01*
X74720Y-27432D01*
X74760Y-27411D01*
X74801Y-27389D01*
X74803Y-27388D01*
X74806Y-27386D01*
X74841Y-27357D01*
X74878Y-27328D01*
X74881Y-27325D01*
X74881Y-27325D01*
X74881Y-27325D01*
X74883Y-27324D01*
X79235Y-22971D01*
X79237Y-22970D01*
X79324Y-22915D01*
X79399Y-22844D01*
X79458Y-22760D01*
X79500Y-22666D01*
X79523Y-22566D01*
X79525Y-22448D01*
X79505Y-22347D01*
X79465Y-22252D01*
X79408Y-22166D01*
X79336Y-22093D01*
X79250Y-22035D01*
X79164Y-21999D01*
X79237Y-21970D01*
X79324Y-21915D01*
X79399Y-21844D01*
X79458Y-21760D01*
X79500Y-21666D01*
X79523Y-21566D01*
X79525Y-21448D01*
X79505Y-21347D01*
X79465Y-21252D01*
X79408Y-21166D01*
X79336Y-21093D01*
X79291Y-21063D01*
X79291Y-18612D01*
X79000Y-18320D01*
X78929Y-18391D01*
X78929Y-18250D01*
X78637Y-17958D01*
X78545Y-17981D01*
X78502Y-18075D01*
X78477Y-18175D01*
X78473Y-18277D01*
X78488Y-18379D01*
X78523Y-18476D01*
X78545Y-18518D01*
X78637Y-18541D01*
X78929Y-18250D01*
X78929Y-18391D01*
X78708Y-18612D01*
X78731Y-18704D01*
X78825Y-18747D01*
X78925Y-18772D01*
X79027Y-18776D01*
X79129Y-18761D01*
X79226Y-18726D01*
X79268Y-18704D01*
X79291Y-18612D01*
X79291Y-21063D01*
X79250Y-21035D01*
X79155Y-20996D01*
X79055Y-20975D01*
X78952Y-20974D01*
X78851Y-20993D01*
X78755Y-21032D01*
X78669Y-21088D01*
X78595Y-21160D01*
X78537Y-21245D01*
X78497Y-21340D01*
X78475Y-21441D01*
X78474Y-21544D01*
X78492Y-21645D01*
X78530Y-21741D01*
X78586Y-21827D01*
X78658Y-21901D01*
X78742Y-21960D01*
X78834Y-22000D01*
X78755Y-22032D01*
X78669Y-22088D01*
X78595Y-22160D01*
X78537Y-22245D01*
X78530Y-22262D01*
X76602Y-24190D01*
X76602Y-20725D01*
X76600Y-20709D01*
X76586Y-20608D01*
X76547Y-20497D01*
X76515Y-20437D01*
X76415Y-20404D01*
X76461Y-20359D01*
X76436Y-20334D01*
X76467Y-20321D01*
X76508Y-20294D01*
X76543Y-20260D01*
X76570Y-20219D01*
X76589Y-20174D01*
X76599Y-20126D01*
X76600Y-20077D01*
X76600Y-19375D01*
X76590Y-19327D01*
X76571Y-19282D01*
X76544Y-19241D01*
X76510Y-19206D01*
X76469Y-19179D01*
X76424Y-19160D01*
X76376Y-19150D01*
X76327Y-19149D01*
X75625Y-19149D01*
X75577Y-19159D01*
X75532Y-19178D01*
X75491Y-19205D01*
X75456Y-19239D01*
X75429Y-19280D01*
X75410Y-19325D01*
X75400Y-19373D01*
X75399Y-19422D01*
X75399Y-20124D01*
X75409Y-20172D01*
X75428Y-20217D01*
X75455Y-20258D01*
X75489Y-20293D01*
X75530Y-20320D01*
X75563Y-20334D01*
X75538Y-20359D01*
X75584Y-20404D01*
X75484Y-20437D01*
X75433Y-20543D01*
X75404Y-20657D01*
X75397Y-20774D01*
X75413Y-20891D01*
X75452Y-21002D01*
X75484Y-21062D01*
X75584Y-21095D01*
X75929Y-20750D01*
X75923Y-20744D01*
X75994Y-20673D01*
X76000Y-20679D01*
X76005Y-20673D01*
X76076Y-20744D01*
X76070Y-20750D01*
X76415Y-21095D01*
X76515Y-21062D01*
X76566Y-20956D01*
X76595Y-20842D01*
X76602Y-20725D01*
X76602Y-24190D01*
X76600Y-24192D01*
X76600Y-21691D01*
X76577Y-21575D01*
X76532Y-21466D01*
X76467Y-21368D01*
X76384Y-21285D01*
X76320Y-21242D01*
X76345Y-21165D01*
X76000Y-20820D01*
X75929Y-20891D01*
X75654Y-21165D01*
X75679Y-21242D01*
X75622Y-21280D01*
X75538Y-21362D01*
X75471Y-21459D01*
X75425Y-21567D01*
X75400Y-21682D01*
X75399Y-21800D01*
X75420Y-21916D01*
X75463Y-22025D01*
X75527Y-22124D01*
X75609Y-22209D01*
X75705Y-22276D01*
X75813Y-22323D01*
X75928Y-22348D01*
X76046Y-22351D01*
X76162Y-22330D01*
X76271Y-22288D01*
X76371Y-22225D01*
X76456Y-22143D01*
X76524Y-22047D01*
X76572Y-21940D01*
X76598Y-21825D01*
X76600Y-21691D01*
X76600Y-24192D01*
X74322Y-26470D01*
X67808Y-26470D01*
X67822Y-26440D01*
X67848Y-26325D01*
X67850Y-26191D01*
X67827Y-26075D01*
X67782Y-25966D01*
X67717Y-25868D01*
X67634Y-25785D01*
X67536Y-25719D01*
X67428Y-25674D01*
X67313Y-25650D01*
X67251Y-25649D01*
X66500Y-24899D01*
X66470Y-24874D01*
X66440Y-24849D01*
X66438Y-24848D01*
X66436Y-24846D01*
X66401Y-24828D01*
X66367Y-24809D01*
X66365Y-24808D01*
X66363Y-24807D01*
X66325Y-24796D01*
X66288Y-24784D01*
X66286Y-24784D01*
X66284Y-24783D01*
X66244Y-24779D01*
X66205Y-24775D01*
X66201Y-24775D01*
X66201Y-24775D01*
X66201Y-24775D01*
X66200Y-24775D01*
X65675Y-24775D01*
X65675Y-24173D01*
X65706Y-24143D01*
X65774Y-24047D01*
X65822Y-23940D01*
X65848Y-23825D01*
X65850Y-23691D01*
X65827Y-23575D01*
X65782Y-23466D01*
X65717Y-23368D01*
X65634Y-23285D01*
X65536Y-23219D01*
X65428Y-23174D01*
X65313Y-23150D01*
X65195Y-23149D01*
X65079Y-23171D01*
X64970Y-23215D01*
X64872Y-23280D01*
X64788Y-23362D01*
X64721Y-23459D01*
X64675Y-23567D01*
X64650Y-23682D01*
X64649Y-23800D01*
X64670Y-23916D01*
X64713Y-24025D01*
X64777Y-24124D01*
X64825Y-24173D01*
X64825Y-24775D01*
X56618Y-24775D01*
X56581Y-24750D01*
X56621Y-24725D01*
X56673Y-24675D01*
X59050Y-24675D01*
X59089Y-24671D01*
X59128Y-24667D01*
X59130Y-24667D01*
X59132Y-24666D01*
X59170Y-24655D01*
X59207Y-24644D01*
X59209Y-24643D01*
X59211Y-24642D01*
X59246Y-24624D01*
X59281Y-24606D01*
X59283Y-24605D01*
X59285Y-24603D01*
X59315Y-24579D01*
X59346Y-24554D01*
X59349Y-24551D01*
X59349Y-24551D01*
X59349Y-24551D01*
X59350Y-24550D01*
X59680Y-24220D01*
X59705Y-24258D01*
X59739Y-24293D01*
X59780Y-24320D01*
X59825Y-24339D01*
X59873Y-24349D01*
X59922Y-24350D01*
X60624Y-24350D01*
X60672Y-24340D01*
X60717Y-24321D01*
X60758Y-24294D01*
X60793Y-24260D01*
X60820Y-24219D01*
X60839Y-24174D01*
X60849Y-24126D01*
X60850Y-24077D01*
X60850Y-23375D01*
X60840Y-23327D01*
X60821Y-23282D01*
X60794Y-23241D01*
X60760Y-23206D01*
X60719Y-23179D01*
X60674Y-23160D01*
X60626Y-23150D01*
X60577Y-23149D01*
X59875Y-23149D01*
X59827Y-23159D01*
X59782Y-23178D01*
X59741Y-23205D01*
X59706Y-23239D01*
X59679Y-23280D01*
X59660Y-23325D01*
X59550Y-23325D01*
X59510Y-23328D01*
X59471Y-23332D01*
X59469Y-23332D01*
X59467Y-23333D01*
X59429Y-23344D01*
X59392Y-23355D01*
X59390Y-23356D01*
X59388Y-23357D01*
X59353Y-23375D01*
X59318Y-23393D01*
X59316Y-23394D01*
X59314Y-23396D01*
X59284Y-23420D01*
X59253Y-23445D01*
X59250Y-23448D01*
X59250Y-23448D01*
X59250Y-23448D01*
X59249Y-23449D01*
X58873Y-23825D01*
X56673Y-23825D01*
X56634Y-23785D01*
X56536Y-23719D01*
X56508Y-23707D01*
X62216Y-18000D01*
X67083Y-18000D01*
X67086Y-18001D01*
X67187Y-18023D01*
X67290Y-18025D01*
X67391Y-18008D01*
X67412Y-18000D01*
X77500Y-18000D01*
X77545Y-17995D01*
X77591Y-17991D01*
X77594Y-17990D01*
X77597Y-17990D01*
X77641Y-17977D01*
X77685Y-17964D01*
X77688Y-17963D01*
X77690Y-17962D01*
X77731Y-17940D01*
X77772Y-17919D01*
X77774Y-17917D01*
X77776Y-17916D01*
X77812Y-17887D01*
X77848Y-17858D01*
X77852Y-17854D01*
X77852Y-17854D01*
X77852Y-17854D01*
X77853Y-17853D01*
X78475Y-17231D01*
X78474Y-17294D01*
X78492Y-17395D01*
X78530Y-17491D01*
X78586Y-17577D01*
X78658Y-17651D01*
X78742Y-17710D01*
X78835Y-17751D01*
X78773Y-17773D01*
X78731Y-17795D01*
X78708Y-17887D01*
X79000Y-18179D01*
X79291Y-17887D01*
X79268Y-17795D01*
X79174Y-17752D01*
X79163Y-17749D01*
X79237Y-17720D01*
X79324Y-17665D01*
X79399Y-17594D01*
X79458Y-17510D01*
X79500Y-17416D01*
X79523Y-17316D01*
X79525Y-17198D01*
X79505Y-17097D01*
X79465Y-17002D01*
X79408Y-16916D01*
X79336Y-16843D01*
X79250Y-16785D01*
X79155Y-16746D01*
X79055Y-16725D01*
X78982Y-16724D01*
X81256Y-14450D01*
X82751Y-14450D01*
X82797Y-14445D01*
X82843Y-14441D01*
X82845Y-14440D01*
X82848Y-14440D01*
X82892Y-14427D01*
X82936Y-14414D01*
X82939Y-14413D01*
X82941Y-14412D01*
X82982Y-14390D01*
X83023Y-14369D01*
X83025Y-14367D01*
X83027Y-14366D01*
X83063Y-14337D01*
X83099Y-14308D01*
X83103Y-14305D01*
X83103Y-14304D01*
X83103Y-14304D01*
X83104Y-14303D01*
X83658Y-13750D01*
X83675Y-13750D01*
X83681Y-13758D01*
X83716Y-13793D01*
X83756Y-13820D01*
X83802Y-13839D01*
X83850Y-13849D01*
X83899Y-13850D01*
X84600Y-13850D01*
X84648Y-13840D01*
X84694Y-13821D01*
X84735Y-13794D01*
X84769Y-13760D01*
X84797Y-13719D01*
X84816Y-13674D01*
X84826Y-13626D01*
X84826Y-13577D01*
X84826Y-53074D01*
X84782Y-52966D01*
X84717Y-52868D01*
X84634Y-52785D01*
X84600Y-52762D01*
X84600Y-20077D01*
X84600Y-19375D01*
X84590Y-19327D01*
X84571Y-19282D01*
X84544Y-19241D01*
X84510Y-19206D01*
X84469Y-19179D01*
X84424Y-19160D01*
X84376Y-19150D01*
X84327Y-19149D01*
X83625Y-19149D01*
X83577Y-19159D01*
X83532Y-19178D01*
X83491Y-19205D01*
X83456Y-19239D01*
X83429Y-19280D01*
X83410Y-19325D01*
X83400Y-19373D01*
X83399Y-19422D01*
X83399Y-20124D01*
X83409Y-20172D01*
X83428Y-20217D01*
X83455Y-20258D01*
X83489Y-20293D01*
X83530Y-20320D01*
X83575Y-20339D01*
X83623Y-20349D01*
X83672Y-20350D01*
X84374Y-20350D01*
X84422Y-20340D01*
X84467Y-20321D01*
X84508Y-20294D01*
X84543Y-20260D01*
X84570Y-20219D01*
X84589Y-20174D01*
X84599Y-20126D01*
X84600Y-20077D01*
X84600Y-52762D01*
X84600Y-52762D01*
X84600Y-34941D01*
X84577Y-34825D01*
X84532Y-34716D01*
X84467Y-34618D01*
X84384Y-34535D01*
X84286Y-34469D01*
X84178Y-34424D01*
X84063Y-34400D01*
X84001Y-34399D01*
X83250Y-33649D01*
X83220Y-33624D01*
X83190Y-33599D01*
X83188Y-33598D01*
X83186Y-33596D01*
X83151Y-33578D01*
X83117Y-33559D01*
X83115Y-33558D01*
X83113Y-33557D01*
X83075Y-33546D01*
X83038Y-33534D01*
X83036Y-33534D01*
X83034Y-33533D01*
X82994Y-33529D01*
X82955Y-33525D01*
X82951Y-33525D01*
X82951Y-33525D01*
X82951Y-33525D01*
X82950Y-33525D01*
X82602Y-33525D01*
X82602Y-19725D01*
X82586Y-19608D01*
X82547Y-19497D01*
X82515Y-19437D01*
X82415Y-19404D01*
X82345Y-19475D01*
X82345Y-19334D01*
X82312Y-19234D01*
X82206Y-19183D01*
X82092Y-19154D01*
X81975Y-19147D01*
X81858Y-19163D01*
X81747Y-19202D01*
X81687Y-19234D01*
X81654Y-19334D01*
X82000Y-19679D01*
X82345Y-19334D01*
X82345Y-19475D01*
X82070Y-19750D01*
X82415Y-20095D01*
X82515Y-20062D01*
X82566Y-19956D01*
X82595Y-19842D01*
X82602Y-19725D01*
X82602Y-33525D01*
X82425Y-33525D01*
X82425Y-32923D01*
X82456Y-32893D01*
X82524Y-32797D01*
X82572Y-32690D01*
X82598Y-32575D01*
X82600Y-32441D01*
X82577Y-32325D01*
X82532Y-32216D01*
X82467Y-32118D01*
X82384Y-32035D01*
X82345Y-32009D01*
X82345Y-20165D01*
X82000Y-19820D01*
X81929Y-19891D01*
X81929Y-19750D01*
X81584Y-19404D01*
X81484Y-19437D01*
X81433Y-19543D01*
X81404Y-19657D01*
X81397Y-19774D01*
X81413Y-19891D01*
X81452Y-20002D01*
X81484Y-20062D01*
X81584Y-20095D01*
X81929Y-19750D01*
X81929Y-19891D01*
X81654Y-20165D01*
X81687Y-20265D01*
X81793Y-20316D01*
X81907Y-20345D01*
X82024Y-20352D01*
X82141Y-20336D01*
X82252Y-20297D01*
X82312Y-20265D01*
X82345Y-20165D01*
X82345Y-32009D01*
X82286Y-31969D01*
X82178Y-31924D01*
X82063Y-31900D01*
X81945Y-31899D01*
X81829Y-31921D01*
X81720Y-31965D01*
X81622Y-32030D01*
X81538Y-32112D01*
X81471Y-32209D01*
X81425Y-32317D01*
X81400Y-32432D01*
X81399Y-32550D01*
X81420Y-32666D01*
X81463Y-32775D01*
X81527Y-32874D01*
X81575Y-32923D01*
X81575Y-33525D01*
X79526Y-33525D01*
X79526Y-18222D01*
X79511Y-18120D01*
X79476Y-18023D01*
X79454Y-17981D01*
X79362Y-17958D01*
X79070Y-18250D01*
X79362Y-18541D01*
X79454Y-18518D01*
X79497Y-18424D01*
X79522Y-18324D01*
X79526Y-18222D01*
X79526Y-33525D01*
X73368Y-33525D01*
X73331Y-33500D01*
X73371Y-33475D01*
X73456Y-33393D01*
X73524Y-33297D01*
X73572Y-33190D01*
X73598Y-33075D01*
X73599Y-33001D01*
X73676Y-32925D01*
X76410Y-32925D01*
X76428Y-32967D01*
X76455Y-33008D01*
X76489Y-33043D01*
X76530Y-33070D01*
X76575Y-33089D01*
X76623Y-33099D01*
X76672Y-33100D01*
X77374Y-33100D01*
X77422Y-33090D01*
X77467Y-33071D01*
X77508Y-33044D01*
X77543Y-33010D01*
X77570Y-32969D01*
X77589Y-32924D01*
X77599Y-32876D01*
X77600Y-32827D01*
X77600Y-32125D01*
X77590Y-32077D01*
X77571Y-32032D01*
X77544Y-31991D01*
X77510Y-31956D01*
X77469Y-31929D01*
X77424Y-31910D01*
X77376Y-31900D01*
X77327Y-31899D01*
X76625Y-31899D01*
X76577Y-31909D01*
X76532Y-31928D01*
X76491Y-31955D01*
X76456Y-31989D01*
X76429Y-32030D01*
X76410Y-32075D01*
X75376Y-32075D01*
X75376Y-29008D01*
X75341Y-28831D01*
X75272Y-28664D01*
X75172Y-28514D01*
X75045Y-28386D01*
X74896Y-28285D01*
X74729Y-28215D01*
X74553Y-28179D01*
X74372Y-28178D01*
X74195Y-28212D01*
X74028Y-28279D01*
X73877Y-28378D01*
X73749Y-28504D01*
X73647Y-28653D01*
X73576Y-28819D01*
X73538Y-28995D01*
X73536Y-29175D01*
X73568Y-29353D01*
X73635Y-29520D01*
X73732Y-29672D01*
X73857Y-29801D01*
X74006Y-29904D01*
X74171Y-29976D01*
X74347Y-30015D01*
X74527Y-30019D01*
X74705Y-29988D01*
X74873Y-29922D01*
X75025Y-29826D01*
X75155Y-29702D01*
X75259Y-29554D01*
X75333Y-29390D01*
X75373Y-29214D01*
X75376Y-29008D01*
X75376Y-32075D01*
X73500Y-32075D01*
X73460Y-32078D01*
X73421Y-32082D01*
X73419Y-32082D01*
X73417Y-32083D01*
X73379Y-32094D01*
X73342Y-32105D01*
X73340Y-32106D01*
X73338Y-32107D01*
X73303Y-32125D01*
X73268Y-32143D01*
X73266Y-32144D01*
X73264Y-32146D01*
X73234Y-32170D01*
X73203Y-32195D01*
X73200Y-32198D01*
X73200Y-32198D01*
X73200Y-32198D01*
X73199Y-32199D01*
X72999Y-32399D01*
X72945Y-32399D01*
X72829Y-32421D01*
X72720Y-32465D01*
X72622Y-32530D01*
X72576Y-32575D01*
X70558Y-32575D01*
X70500Y-32535D01*
X70405Y-32496D01*
X70305Y-32475D01*
X70202Y-32474D01*
X70101Y-32493D01*
X70005Y-32532D01*
X69919Y-32588D01*
X69845Y-32660D01*
X69787Y-32745D01*
X69749Y-32836D01*
X69726Y-32773D01*
X69704Y-32731D01*
X69612Y-32708D01*
X69541Y-32779D01*
X69541Y-32637D01*
X69518Y-32545D01*
X69424Y-32502D01*
X69324Y-32477D01*
X69222Y-32473D01*
X69120Y-32488D01*
X69023Y-32523D01*
X68981Y-32545D01*
X68958Y-32637D01*
X69250Y-32929D01*
X69541Y-32637D01*
X69541Y-32779D01*
X69320Y-33000D01*
X69612Y-33291D01*
X69704Y-33268D01*
X69747Y-33174D01*
X69750Y-33164D01*
X69780Y-33241D01*
X69836Y-33327D01*
X69908Y-33401D01*
X69992Y-33460D01*
X70086Y-33501D01*
X70187Y-33523D01*
X70290Y-33525D01*
X70391Y-33508D01*
X70487Y-33470D01*
X70560Y-33425D01*
X72576Y-33425D01*
X72609Y-33459D01*
X72668Y-33500D01*
X72622Y-33530D01*
X72538Y-33612D01*
X72471Y-33709D01*
X72425Y-33817D01*
X72400Y-33932D01*
X72399Y-34050D01*
X72420Y-34166D01*
X72463Y-34275D01*
X72527Y-34374D01*
X72565Y-34414D01*
X72532Y-34428D01*
X72491Y-34455D01*
X72456Y-34489D01*
X72429Y-34530D01*
X72410Y-34575D01*
X72400Y-34623D01*
X72399Y-34672D01*
X72399Y-35374D01*
X72409Y-35422D01*
X72428Y-35467D01*
X72455Y-35508D01*
X72489Y-35543D01*
X72530Y-35570D01*
X72575Y-35589D01*
X72623Y-35599D01*
X72672Y-35600D01*
X73374Y-35600D01*
X73422Y-35590D01*
X73467Y-35571D01*
X73508Y-35544D01*
X73543Y-35510D01*
X73570Y-35469D01*
X73589Y-35424D01*
X73599Y-35376D01*
X73600Y-35327D01*
X73600Y-34625D01*
X73590Y-34577D01*
X73571Y-34532D01*
X73544Y-34491D01*
X73510Y-34456D01*
X73469Y-34429D01*
X73434Y-34414D01*
X73456Y-34393D01*
X73469Y-34375D01*
X82000Y-34375D01*
X82773Y-34375D01*
X83399Y-35000D01*
X83399Y-35050D01*
X83420Y-35166D01*
X83463Y-35275D01*
X83527Y-35374D01*
X83609Y-35459D01*
X83705Y-35526D01*
X83813Y-35573D01*
X83928Y-35598D01*
X84046Y-35601D01*
X84162Y-35580D01*
X84271Y-35538D01*
X84371Y-35475D01*
X84456Y-35393D01*
X84524Y-35297D01*
X84572Y-35190D01*
X84598Y-35075D01*
X84600Y-34941D01*
X84600Y-52762D01*
X84536Y-52719D01*
X84428Y-52674D01*
X84313Y-52650D01*
X84251Y-52649D01*
X83500Y-51899D01*
X83470Y-51874D01*
X83440Y-51849D01*
X83438Y-51848D01*
X83436Y-51846D01*
X83401Y-51828D01*
X83367Y-51809D01*
X83365Y-51808D01*
X83363Y-51807D01*
X83325Y-51796D01*
X83288Y-51784D01*
X83286Y-51784D01*
X83284Y-51783D01*
X83244Y-51779D01*
X83205Y-51775D01*
X83201Y-51775D01*
X83201Y-51775D01*
X83201Y-51775D01*
X83200Y-51775D01*
X82675Y-51775D01*
X82675Y-51173D01*
X82706Y-51143D01*
X82774Y-51047D01*
X82822Y-50940D01*
X82848Y-50825D01*
X82850Y-50691D01*
X82827Y-50575D01*
X82782Y-50466D01*
X82717Y-50368D01*
X82634Y-50285D01*
X82536Y-50219D01*
X82428Y-50174D01*
X82313Y-50150D01*
X82195Y-50149D01*
X82079Y-50171D01*
X81970Y-50215D01*
X81872Y-50280D01*
X81788Y-50362D01*
X81721Y-50459D01*
X81675Y-50567D01*
X81650Y-50682D01*
X81649Y-50800D01*
X81670Y-50916D01*
X81713Y-51025D01*
X81777Y-51124D01*
X81825Y-51173D01*
X81825Y-51775D01*
X73368Y-51775D01*
X73331Y-51750D01*
X73371Y-51725D01*
X73456Y-51643D01*
X73524Y-51547D01*
X73572Y-51440D01*
X73598Y-51325D01*
X73599Y-51251D01*
X73676Y-51175D01*
X76660Y-51175D01*
X76678Y-51217D01*
X76705Y-51258D01*
X76739Y-51293D01*
X76780Y-51320D01*
X76825Y-51339D01*
X76873Y-51349D01*
X76922Y-51350D01*
X77624Y-51350D01*
X77672Y-51340D01*
X77717Y-51321D01*
X77758Y-51294D01*
X77793Y-51260D01*
X77820Y-51219D01*
X77839Y-51174D01*
X77849Y-51126D01*
X77850Y-51077D01*
X77850Y-50375D01*
X77840Y-50327D01*
X77821Y-50282D01*
X77794Y-50241D01*
X77760Y-50206D01*
X77719Y-50179D01*
X77674Y-50160D01*
X77626Y-50150D01*
X77600Y-50149D01*
X77600Y-34941D01*
X77577Y-34825D01*
X77532Y-34716D01*
X77467Y-34618D01*
X77384Y-34535D01*
X77286Y-34469D01*
X77178Y-34424D01*
X77063Y-34400D01*
X76945Y-34399D01*
X76829Y-34421D01*
X76720Y-34465D01*
X76622Y-34530D01*
X76538Y-34612D01*
X76471Y-34709D01*
X76425Y-34817D01*
X76400Y-34932D01*
X76399Y-35050D01*
X76420Y-35166D01*
X76463Y-35275D01*
X76527Y-35374D01*
X76609Y-35459D01*
X76705Y-35526D01*
X76813Y-35573D01*
X76928Y-35598D01*
X77046Y-35601D01*
X77162Y-35580D01*
X77271Y-35538D01*
X77371Y-35475D01*
X77456Y-35393D01*
X77524Y-35297D01*
X77572Y-35190D01*
X77598Y-35075D01*
X77600Y-34941D01*
X77600Y-50149D01*
X77577Y-50149D01*
X76875Y-50149D01*
X76827Y-50159D01*
X76782Y-50178D01*
X76741Y-50205D01*
X76706Y-50239D01*
X76679Y-50280D01*
X76660Y-50325D01*
X75376Y-50325D01*
X75376Y-47258D01*
X75366Y-47208D01*
X75366Y-38811D01*
X75331Y-38634D01*
X75262Y-38467D01*
X75162Y-38317D01*
X75035Y-38189D01*
X74886Y-38089D01*
X74720Y-38019D01*
X74543Y-37982D01*
X74363Y-37981D01*
X74186Y-38015D01*
X74018Y-38082D01*
X73868Y-38181D01*
X73739Y-38307D01*
X73637Y-38456D01*
X73566Y-38622D01*
X73528Y-38798D01*
X73526Y-38978D01*
X73558Y-39156D01*
X73625Y-39323D01*
X73722Y-39475D01*
X73848Y-39605D01*
X73996Y-39707D01*
X74161Y-39780D01*
X74337Y-39818D01*
X74517Y-39822D01*
X74695Y-39791D01*
X74863Y-39726D01*
X75015Y-39629D01*
X75146Y-39505D01*
X75250Y-39357D01*
X75323Y-39193D01*
X75363Y-39017D01*
X75366Y-38811D01*
X75366Y-47208D01*
X75341Y-47081D01*
X75272Y-46914D01*
X75172Y-46764D01*
X75045Y-46636D01*
X74896Y-46535D01*
X74729Y-46465D01*
X74553Y-46429D01*
X74372Y-46428D01*
X74195Y-46462D01*
X74028Y-46529D01*
X73877Y-46628D01*
X73749Y-46754D01*
X73647Y-46903D01*
X73576Y-47069D01*
X73538Y-47245D01*
X73536Y-47425D01*
X73568Y-47603D01*
X73635Y-47770D01*
X73732Y-47922D01*
X73857Y-48051D01*
X74006Y-48154D01*
X74171Y-48226D01*
X74347Y-48265D01*
X74527Y-48269D01*
X74705Y-48238D01*
X74873Y-48172D01*
X75025Y-48076D01*
X75155Y-47952D01*
X75259Y-47804D01*
X75333Y-47640D01*
X75373Y-47464D01*
X75376Y-47258D01*
X75376Y-50325D01*
X73500Y-50325D01*
X73460Y-50328D01*
X73421Y-50332D01*
X73419Y-50332D01*
X73417Y-50333D01*
X73379Y-50344D01*
X73342Y-50355D01*
X73340Y-50356D01*
X73338Y-50357D01*
X73303Y-50375D01*
X73268Y-50393D01*
X73266Y-50394D01*
X73264Y-50396D01*
X73234Y-50420D01*
X73203Y-50445D01*
X73200Y-50448D01*
X73200Y-50448D01*
X73200Y-50448D01*
X73199Y-50449D01*
X72999Y-50649D01*
X72945Y-50649D01*
X72829Y-50671D01*
X72720Y-50715D01*
X72622Y-50780D01*
X72576Y-50825D01*
X70775Y-50825D01*
X70775Y-34948D01*
X70755Y-34847D01*
X70715Y-34752D01*
X70658Y-34666D01*
X70586Y-34593D01*
X70500Y-34535D01*
X70405Y-34496D01*
X70305Y-34475D01*
X70202Y-34474D01*
X70101Y-34493D01*
X70005Y-34532D01*
X69919Y-34588D01*
X69845Y-34660D01*
X69787Y-34745D01*
X69749Y-34834D01*
X69715Y-34752D01*
X69658Y-34666D01*
X69586Y-34593D01*
X69541Y-34563D01*
X69541Y-33362D01*
X69250Y-33070D01*
X69179Y-33141D01*
X69179Y-33000D01*
X68887Y-32708D01*
X68795Y-32731D01*
X68752Y-32825D01*
X68727Y-32925D01*
X68723Y-33027D01*
X68738Y-33129D01*
X68773Y-33226D01*
X68795Y-33268D01*
X68887Y-33291D01*
X69179Y-33000D01*
X69179Y-33141D01*
X68958Y-33362D01*
X68981Y-33454D01*
X69075Y-33497D01*
X69175Y-33522D01*
X69277Y-33526D01*
X69379Y-33511D01*
X69476Y-33476D01*
X69518Y-33454D01*
X69541Y-33362D01*
X69541Y-34563D01*
X69500Y-34535D01*
X69405Y-34496D01*
X69305Y-34475D01*
X69202Y-34474D01*
X69101Y-34493D01*
X69005Y-34532D01*
X68919Y-34588D01*
X68845Y-34660D01*
X68787Y-34745D01*
X68747Y-34840D01*
X68730Y-34918D01*
X62942Y-40706D01*
X62917Y-40737D01*
X62892Y-40767D01*
X62891Y-40769D01*
X62889Y-40770D01*
X62871Y-40805D01*
X62852Y-40839D01*
X62851Y-40841D01*
X62850Y-40843D01*
X62838Y-40881D01*
X62827Y-40918D01*
X62826Y-40921D01*
X62826Y-40923D01*
X62822Y-40962D01*
X62817Y-41001D01*
X62817Y-41005D01*
X62817Y-41005D01*
X62817Y-41005D01*
X62817Y-41007D01*
X62817Y-43105D01*
X62805Y-43099D01*
X62723Y-43083D01*
X62640Y-43082D01*
X62638Y-43082D01*
X59561Y-43082D01*
X59565Y-43079D01*
X59596Y-43054D01*
X59599Y-43051D01*
X59599Y-43051D01*
X59599Y-43051D01*
X59600Y-43050D01*
X59930Y-42720D01*
X59955Y-42758D01*
X59989Y-42793D01*
X60030Y-42820D01*
X60075Y-42839D01*
X60123Y-42849D01*
X60172Y-42850D01*
X60874Y-42850D01*
X60922Y-42840D01*
X60967Y-42821D01*
X61008Y-42794D01*
X61043Y-42760D01*
X61070Y-42719D01*
X61089Y-42674D01*
X61099Y-42626D01*
X61100Y-42577D01*
X61100Y-41875D01*
X61090Y-41827D01*
X61071Y-41782D01*
X61044Y-41741D01*
X61010Y-41706D01*
X60969Y-41679D01*
X60924Y-41660D01*
X60876Y-41650D01*
X60827Y-41649D01*
X60125Y-41649D01*
X60077Y-41659D01*
X60032Y-41678D01*
X59991Y-41705D01*
X59956Y-41739D01*
X59929Y-41780D01*
X59910Y-41825D01*
X59800Y-41825D01*
X59760Y-41828D01*
X59721Y-41832D01*
X59719Y-41832D01*
X59717Y-41833D01*
X59679Y-41844D01*
X59642Y-41855D01*
X59640Y-41856D01*
X59638Y-41857D01*
X59603Y-41875D01*
X59568Y-41893D01*
X59566Y-41894D01*
X59564Y-41896D01*
X59534Y-41920D01*
X59503Y-41945D01*
X59500Y-41948D01*
X59500Y-41948D01*
X59500Y-41948D01*
X59499Y-41949D01*
X59123Y-42325D01*
X58626Y-42325D01*
X58626Y-38758D01*
X58616Y-38708D01*
X58616Y-30061D01*
X58581Y-29884D01*
X58512Y-29717D01*
X58412Y-29567D01*
X58285Y-29439D01*
X58136Y-29339D01*
X57970Y-29269D01*
X57793Y-29232D01*
X57613Y-29231D01*
X57436Y-29265D01*
X57268Y-29332D01*
X57118Y-29431D01*
X56989Y-29557D01*
X56887Y-29706D01*
X56816Y-29872D01*
X56778Y-30048D01*
X56776Y-30228D01*
X56808Y-30406D01*
X56875Y-30573D01*
X56972Y-30725D01*
X57098Y-30855D01*
X57246Y-30957D01*
X57411Y-31030D01*
X57587Y-31068D01*
X57767Y-31072D01*
X57945Y-31041D01*
X58113Y-30976D01*
X58265Y-30879D01*
X58396Y-30755D01*
X58500Y-30607D01*
X58573Y-30443D01*
X58613Y-30267D01*
X58616Y-30061D01*
X58616Y-38708D01*
X58591Y-38581D01*
X58522Y-38414D01*
X58422Y-38264D01*
X58295Y-38136D01*
X58146Y-38035D01*
X57979Y-37965D01*
X57803Y-37929D01*
X57622Y-37928D01*
X57445Y-37962D01*
X57278Y-38029D01*
X57127Y-38128D01*
X56999Y-38254D01*
X56897Y-38403D01*
X56826Y-38569D01*
X56788Y-38745D01*
X56786Y-38925D01*
X56818Y-39103D01*
X56885Y-39270D01*
X56982Y-39422D01*
X57107Y-39551D01*
X57256Y-39654D01*
X57421Y-39726D01*
X57597Y-39765D01*
X57777Y-39769D01*
X57955Y-39738D01*
X58123Y-39672D01*
X58275Y-39576D01*
X58405Y-39452D01*
X58509Y-39304D01*
X58583Y-39140D01*
X58623Y-38964D01*
X58626Y-38758D01*
X58626Y-42325D01*
X56673Y-42325D01*
X56634Y-42285D01*
X56536Y-42219D01*
X56428Y-42174D01*
X56313Y-42150D01*
X56195Y-42149D01*
X56079Y-42171D01*
X55970Y-42215D01*
X55872Y-42280D01*
X55826Y-42325D01*
X54058Y-42325D01*
X54000Y-42285D01*
X53905Y-42246D01*
X53805Y-42225D01*
X53702Y-42224D01*
X53601Y-42243D01*
X53505Y-42282D01*
X53419Y-42338D01*
X53345Y-42410D01*
X53287Y-42495D01*
X53249Y-42586D01*
X53226Y-42523D01*
X53204Y-42481D01*
X53112Y-42458D01*
X53041Y-42529D01*
X53041Y-42387D01*
X53018Y-42295D01*
X52924Y-42252D01*
X52824Y-42227D01*
X52722Y-42223D01*
X52620Y-42238D01*
X52555Y-42262D01*
X52555Y-34494D01*
X52533Y-34289D01*
X52473Y-34092D01*
X52382Y-33920D01*
X52236Y-33834D01*
X52218Y-33851D01*
X52218Y-10789D01*
X51500Y-10070D01*
X50781Y-10789D01*
X50876Y-10943D01*
X51071Y-11046D01*
X51283Y-11109D01*
X51502Y-11130D01*
X51722Y-11108D01*
X51933Y-11044D01*
X52123Y-10943D01*
X52218Y-10789D01*
X52218Y-33851D01*
X52165Y-33905D01*
X52165Y-33763D01*
X52079Y-33617D01*
X51896Y-33522D01*
X51699Y-33463D01*
X51494Y-33444D01*
X51289Y-33466D01*
X51092Y-33526D01*
X50920Y-33617D01*
X50834Y-33763D01*
X51500Y-34429D01*
X52165Y-33763D01*
X52165Y-33905D01*
X51570Y-34500D01*
X52236Y-35165D01*
X52382Y-35079D01*
X52477Y-34896D01*
X52536Y-34699D01*
X52555Y-34494D01*
X52555Y-42262D01*
X52523Y-42273D01*
X52481Y-42295D01*
X52458Y-42387D01*
X52750Y-42679D01*
X53041Y-42387D01*
X53041Y-42529D01*
X52820Y-42750D01*
X53112Y-43041D01*
X53204Y-43018D01*
X53247Y-42924D01*
X53250Y-42914D01*
X53280Y-42991D01*
X53336Y-43077D01*
X53408Y-43151D01*
X53492Y-43210D01*
X53586Y-43251D01*
X53687Y-43273D01*
X53790Y-43275D01*
X53891Y-43258D01*
X53987Y-43220D01*
X54060Y-43175D01*
X55826Y-43175D01*
X55859Y-43209D01*
X55918Y-43250D01*
X55872Y-43280D01*
X55788Y-43362D01*
X55721Y-43459D01*
X55675Y-43567D01*
X55650Y-43682D01*
X55649Y-43800D01*
X55670Y-43916D01*
X55713Y-44025D01*
X55777Y-44124D01*
X55815Y-44164D01*
X55782Y-44178D01*
X55741Y-44205D01*
X55706Y-44239D01*
X55679Y-44280D01*
X55660Y-44325D01*
X55650Y-44373D01*
X55649Y-44422D01*
X55649Y-44967D01*
X54227Y-44967D01*
X54250Y-44916D01*
X54273Y-44816D01*
X54275Y-44698D01*
X54255Y-44597D01*
X54215Y-44502D01*
X54158Y-44416D01*
X54086Y-44343D01*
X54000Y-44285D01*
X53905Y-44246D01*
X53805Y-44225D01*
X53702Y-44224D01*
X53601Y-44243D01*
X53505Y-44282D01*
X53419Y-44338D01*
X53345Y-44410D01*
X53287Y-44495D01*
X53249Y-44584D01*
X53215Y-44502D01*
X53158Y-44416D01*
X53086Y-44343D01*
X53041Y-44313D01*
X53041Y-43112D01*
X52750Y-42820D01*
X52679Y-42891D01*
X52679Y-42750D01*
X52387Y-42458D01*
X52295Y-42481D01*
X52252Y-42575D01*
X52227Y-42675D01*
X52223Y-42777D01*
X52238Y-42879D01*
X52273Y-42976D01*
X52295Y-43018D01*
X52387Y-43041D01*
X52679Y-42750D01*
X52679Y-42891D01*
X52458Y-43112D01*
X52481Y-43204D01*
X52575Y-43247D01*
X52675Y-43272D01*
X52777Y-43276D01*
X52879Y-43261D01*
X52976Y-43226D01*
X53018Y-43204D01*
X53041Y-43112D01*
X53041Y-44313D01*
X53000Y-44285D01*
X52905Y-44246D01*
X52805Y-44225D01*
X52702Y-44224D01*
X52601Y-44243D01*
X52505Y-44282D01*
X52419Y-44338D01*
X52345Y-44410D01*
X52287Y-44495D01*
X52247Y-44590D01*
X52225Y-44691D01*
X52224Y-44794D01*
X52242Y-44895D01*
X52280Y-44991D01*
X52336Y-45077D01*
X52408Y-45151D01*
X52492Y-45210D01*
X52586Y-45251D01*
X52668Y-45269D01*
X52791Y-45392D01*
X52165Y-46019D01*
X52165Y-35236D01*
X51500Y-34570D01*
X50834Y-35236D01*
X50920Y-35382D01*
X51103Y-35477D01*
X51300Y-35536D01*
X51505Y-35555D01*
X51710Y-35533D01*
X51907Y-35473D01*
X52079Y-35382D01*
X52165Y-35236D01*
X52165Y-46019D01*
X51884Y-46299D01*
X51860Y-46330D01*
X51834Y-46360D01*
X51833Y-46362D01*
X51832Y-46363D01*
X51813Y-46398D01*
X51794Y-46432D01*
X51794Y-46434D01*
X51793Y-46436D01*
X51781Y-46474D01*
X51769Y-46511D01*
X51769Y-46514D01*
X51768Y-46516D01*
X51764Y-46555D01*
X51760Y-46594D01*
X51760Y-46598D01*
X51760Y-46598D01*
X51760Y-46598D01*
X51760Y-46600D01*
X51760Y-63185D01*
X51764Y-63224D01*
X51767Y-63263D01*
X51768Y-63265D01*
X51768Y-63268D01*
X51779Y-63305D01*
X51790Y-63343D01*
X51791Y-63345D01*
X51792Y-63347D01*
X51810Y-63382D01*
X51829Y-63416D01*
X51830Y-63418D01*
X51831Y-63420D01*
X51856Y-63451D01*
X51880Y-63481D01*
X51883Y-63484D01*
X51883Y-63484D01*
X51883Y-63484D01*
X51884Y-63485D01*
X52231Y-63832D01*
X52242Y-63895D01*
X52280Y-63991D01*
X52336Y-64077D01*
X52408Y-64151D01*
X52492Y-64210D01*
X52586Y-64251D01*
X52687Y-64273D01*
X52790Y-64275D01*
X52891Y-64258D01*
X52987Y-64220D01*
X53074Y-64165D01*
X53149Y-64094D01*
X53208Y-64010D01*
X53250Y-63916D01*
X53250Y-63915D01*
X53280Y-63991D01*
X53336Y-64077D01*
X53408Y-64151D01*
X53492Y-64210D01*
X53586Y-64251D01*
X53687Y-64273D01*
X53790Y-64275D01*
X53891Y-64258D01*
X53987Y-64220D01*
X54074Y-64165D01*
X54149Y-64094D01*
X54208Y-64010D01*
X54250Y-63916D01*
X54273Y-63816D01*
X54275Y-63698D01*
X54255Y-63597D01*
X54215Y-63502D01*
X54158Y-63416D01*
X54086Y-63343D01*
X54000Y-63285D01*
X53905Y-63246D01*
X53805Y-63225D01*
X53702Y-63224D01*
X53601Y-63243D01*
X53505Y-63282D01*
X53419Y-63338D01*
X53345Y-63410D01*
X53287Y-63495D01*
X53249Y-63584D01*
X53215Y-63502D01*
X53158Y-63416D01*
X53086Y-63343D01*
X53000Y-63285D01*
X52905Y-63246D01*
X52831Y-63230D01*
X52610Y-63009D01*
X52610Y-62006D01*
X52675Y-62022D01*
X52777Y-62026D01*
X52879Y-62011D01*
X52976Y-61976D01*
X53018Y-61954D01*
X53041Y-61862D01*
X52750Y-61570D01*
X52744Y-61576D01*
X52673Y-61505D01*
X52679Y-61500D01*
X52673Y-61494D01*
X52744Y-61423D01*
X52750Y-61429D01*
X53041Y-61137D01*
X53018Y-61045D01*
X52924Y-61002D01*
X52824Y-60977D01*
X52722Y-60973D01*
X52620Y-60988D01*
X52610Y-60992D01*
X52610Y-46776D01*
X53568Y-45817D01*
X62817Y-45817D01*
X62817Y-47492D01*
X62821Y-47531D01*
X62825Y-47570D01*
X62825Y-47573D01*
X62825Y-47575D01*
X62837Y-47612D01*
X62848Y-47650D01*
X62849Y-47652D01*
X62849Y-47654D01*
X62868Y-47689D01*
X62886Y-47724D01*
X62887Y-47726D01*
X62888Y-47727D01*
X62913Y-47758D01*
X62938Y-47789D01*
X62941Y-47792D01*
X62941Y-47792D01*
X62941Y-47792D01*
X62942Y-47793D01*
X68481Y-53332D01*
X68492Y-53395D01*
X68530Y-53491D01*
X68586Y-53577D01*
X68658Y-53651D01*
X68742Y-53710D01*
X68836Y-53751D01*
X68937Y-53773D01*
X69040Y-53775D01*
X69141Y-53758D01*
X69237Y-53720D01*
X69324Y-53665D01*
X69399Y-53594D01*
X69458Y-53510D01*
X69500Y-53416D01*
X69500Y-53415D01*
X69530Y-53491D01*
X69586Y-53577D01*
X69658Y-53651D01*
X69742Y-53710D01*
X69836Y-53751D01*
X69937Y-53773D01*
X70040Y-53775D01*
X70141Y-53758D01*
X70237Y-53720D01*
X70324Y-53665D01*
X70399Y-53594D01*
X70458Y-53510D01*
X70500Y-53416D01*
X70523Y-53316D01*
X70525Y-53198D01*
X70505Y-53097D01*
X70465Y-53002D01*
X70408Y-52916D01*
X70336Y-52843D01*
X70250Y-52785D01*
X70155Y-52746D01*
X70055Y-52725D01*
X69952Y-52724D01*
X69851Y-52743D01*
X69755Y-52782D01*
X69669Y-52838D01*
X69595Y-52910D01*
X69537Y-52995D01*
X69499Y-53084D01*
X69465Y-53002D01*
X69408Y-52916D01*
X69336Y-52843D01*
X69291Y-52813D01*
X69291Y-51612D01*
X69000Y-51320D01*
X68929Y-51391D01*
X68929Y-51250D01*
X68637Y-50958D01*
X68545Y-50981D01*
X68502Y-51075D01*
X68477Y-51175D01*
X68473Y-51277D01*
X68488Y-51379D01*
X68523Y-51476D01*
X68545Y-51518D01*
X68637Y-51541D01*
X68929Y-51250D01*
X68929Y-51391D01*
X68708Y-51612D01*
X68731Y-51704D01*
X68825Y-51747D01*
X68925Y-51772D01*
X69027Y-51776D01*
X69129Y-51761D01*
X69226Y-51726D01*
X69268Y-51704D01*
X69291Y-51612D01*
X69291Y-52813D01*
X69250Y-52785D01*
X69155Y-52746D01*
X69081Y-52730D01*
X68100Y-51748D01*
X68100Y-44691D01*
X68077Y-44575D01*
X68032Y-44466D01*
X67967Y-44368D01*
X67925Y-44326D01*
X67925Y-44250D01*
X67921Y-44210D01*
X67917Y-44171D01*
X67917Y-44169D01*
X67916Y-44167D01*
X67905Y-44129D01*
X67894Y-44092D01*
X67893Y-44090D01*
X67892Y-44088D01*
X67874Y-44053D01*
X67856Y-44018D01*
X67855Y-44016D01*
X67853Y-44014D01*
X67829Y-43984D01*
X67804Y-43953D01*
X67801Y-43950D01*
X67801Y-43950D01*
X67801Y-43950D01*
X67800Y-43949D01*
X66099Y-42248D01*
X66100Y-42191D01*
X66077Y-42075D01*
X66032Y-41966D01*
X65967Y-41868D01*
X65884Y-41785D01*
X65786Y-41719D01*
X65678Y-41674D01*
X65563Y-41650D01*
X65445Y-41649D01*
X65329Y-41671D01*
X65220Y-41715D01*
X65122Y-41780D01*
X65038Y-41862D01*
X64971Y-41959D01*
X64925Y-42067D01*
X64900Y-42182D01*
X64899Y-42300D01*
X64920Y-42416D01*
X64963Y-42525D01*
X65027Y-42624D01*
X65109Y-42709D01*
X65205Y-42776D01*
X65313Y-42823D01*
X65428Y-42848D01*
X65499Y-42850D01*
X67027Y-44378D01*
X66971Y-44459D01*
X66925Y-44567D01*
X66900Y-44682D01*
X66899Y-44800D01*
X66920Y-44916D01*
X66963Y-45025D01*
X67027Y-45124D01*
X67109Y-45209D01*
X67205Y-45276D01*
X67313Y-45323D01*
X67428Y-45348D01*
X67546Y-45351D01*
X67662Y-45330D01*
X67771Y-45288D01*
X67871Y-45225D01*
X67956Y-45143D01*
X68024Y-45047D01*
X68072Y-44940D01*
X68098Y-44825D01*
X68100Y-44691D01*
X68100Y-51748D01*
X63667Y-47316D01*
X63667Y-45392D01*
X63667Y-41183D01*
X69332Y-35518D01*
X69391Y-35508D01*
X69487Y-35470D01*
X69574Y-35415D01*
X69649Y-35344D01*
X69708Y-35260D01*
X69750Y-35166D01*
X69750Y-35165D01*
X69780Y-35241D01*
X69836Y-35327D01*
X69908Y-35401D01*
X69992Y-35460D01*
X70086Y-35501D01*
X70187Y-35523D01*
X70290Y-35525D01*
X70391Y-35508D01*
X70487Y-35470D01*
X70574Y-35415D01*
X70649Y-35344D01*
X70708Y-35260D01*
X70750Y-35166D01*
X70773Y-35066D01*
X70775Y-34948D01*
X70775Y-50825D01*
X70308Y-50825D01*
X70250Y-50785D01*
X70155Y-50746D01*
X70055Y-50725D01*
X69952Y-50724D01*
X69851Y-50743D01*
X69755Y-50782D01*
X69669Y-50838D01*
X69595Y-50910D01*
X69537Y-50995D01*
X69499Y-51086D01*
X69476Y-51023D01*
X69454Y-50981D01*
X69362Y-50958D01*
X69291Y-51029D01*
X69291Y-50887D01*
X69268Y-50795D01*
X69174Y-50752D01*
X69074Y-50727D01*
X68972Y-50723D01*
X68870Y-50738D01*
X68773Y-50773D01*
X68731Y-50795D01*
X68708Y-50887D01*
X69000Y-51179D01*
X69291Y-50887D01*
X69291Y-51029D01*
X69070Y-51250D01*
X69362Y-51541D01*
X69454Y-51518D01*
X69497Y-51424D01*
X69500Y-51414D01*
X69530Y-51491D01*
X69586Y-51577D01*
X69658Y-51651D01*
X69742Y-51710D01*
X69836Y-51751D01*
X69937Y-51773D01*
X70040Y-51775D01*
X70141Y-51758D01*
X70237Y-51720D01*
X70310Y-51675D01*
X72576Y-51675D01*
X72609Y-51709D01*
X72668Y-51750D01*
X72622Y-51780D01*
X72538Y-51862D01*
X72471Y-51959D01*
X72425Y-52067D01*
X72400Y-52182D01*
X72399Y-52300D01*
X72420Y-52416D01*
X72463Y-52525D01*
X72527Y-52624D01*
X72565Y-52664D01*
X72532Y-52678D01*
X72491Y-52705D01*
X72456Y-52739D01*
X72429Y-52780D01*
X72410Y-52825D01*
X72400Y-52873D01*
X72399Y-52922D01*
X72399Y-53624D01*
X72409Y-53672D01*
X72428Y-53717D01*
X72455Y-53758D01*
X72489Y-53793D01*
X72500Y-53800D01*
X72500Y-59347D01*
X72417Y-59347D01*
X72371Y-59351D01*
X72325Y-59355D01*
X72323Y-59356D01*
X72320Y-59356D01*
X72276Y-59370D01*
X72232Y-59382D01*
X72229Y-59384D01*
X72227Y-59384D01*
X72186Y-59406D01*
X72145Y-59427D01*
X72143Y-59429D01*
X72141Y-59430D01*
X72105Y-59459D01*
X72069Y-59488D01*
X72065Y-59492D01*
X72065Y-59492D01*
X72065Y-59492D01*
X72064Y-59493D01*
X68049Y-63508D01*
X68032Y-63466D01*
X67967Y-63368D01*
X67884Y-63285D01*
X67786Y-63219D01*
X67678Y-63174D01*
X67563Y-63150D01*
X67501Y-63149D01*
X66500Y-62149D01*
X66470Y-62124D01*
X66440Y-62099D01*
X66438Y-62098D01*
X66436Y-62096D01*
X66401Y-62078D01*
X66367Y-62059D01*
X66365Y-62058D01*
X66363Y-62057D01*
X66325Y-62046D01*
X66288Y-62034D01*
X66286Y-62034D01*
X66284Y-62033D01*
X66244Y-62029D01*
X66205Y-62025D01*
X66201Y-62025D01*
X66201Y-62025D01*
X66201Y-62025D01*
X66200Y-62025D01*
X65925Y-62025D01*
X65925Y-61423D01*
X65956Y-61393D01*
X66024Y-61297D01*
X66072Y-61190D01*
X66098Y-61075D01*
X66100Y-60941D01*
X66077Y-60825D01*
X66032Y-60716D01*
X65967Y-60618D01*
X65884Y-60535D01*
X65786Y-60469D01*
X65678Y-60424D01*
X65563Y-60400D01*
X65445Y-60399D01*
X65329Y-60421D01*
X65220Y-60465D01*
X65122Y-60530D01*
X65038Y-60612D01*
X64971Y-60709D01*
X64925Y-60817D01*
X64900Y-60932D01*
X64899Y-61050D01*
X64920Y-61166D01*
X64963Y-61275D01*
X65027Y-61374D01*
X65075Y-61423D01*
X65075Y-62025D01*
X56618Y-62025D01*
X56581Y-62000D01*
X56621Y-61975D01*
X56706Y-61893D01*
X56774Y-61797D01*
X56822Y-61690D01*
X56848Y-61575D01*
X56849Y-61501D01*
X56926Y-61425D01*
X59910Y-61425D01*
X59928Y-61467D01*
X59955Y-61508D01*
X59989Y-61543D01*
X60030Y-61570D01*
X60075Y-61589D01*
X60123Y-61599D01*
X60172Y-61600D01*
X60874Y-61600D01*
X60922Y-61590D01*
X60967Y-61571D01*
X61008Y-61544D01*
X61043Y-61510D01*
X61070Y-61469D01*
X61089Y-61424D01*
X61099Y-61376D01*
X61100Y-61327D01*
X61100Y-60625D01*
X61090Y-60577D01*
X61071Y-60532D01*
X61044Y-60491D01*
X61010Y-60456D01*
X60969Y-60429D01*
X60924Y-60410D01*
X60876Y-60400D01*
X60827Y-60399D01*
X60125Y-60399D01*
X60077Y-60409D01*
X60032Y-60428D01*
X59991Y-60455D01*
X59956Y-60489D01*
X59929Y-60530D01*
X59910Y-60575D01*
X58626Y-60575D01*
X58626Y-57508D01*
X58616Y-57458D01*
X58616Y-48561D01*
X58581Y-48384D01*
X58512Y-48217D01*
X58412Y-48067D01*
X58285Y-47939D01*
X58136Y-47839D01*
X57970Y-47769D01*
X57793Y-47732D01*
X57613Y-47731D01*
X57436Y-47765D01*
X57268Y-47832D01*
X57118Y-47931D01*
X56989Y-48057D01*
X56887Y-48206D01*
X56816Y-48372D01*
X56778Y-48548D01*
X56776Y-48728D01*
X56808Y-48906D01*
X56875Y-49073D01*
X56972Y-49225D01*
X57098Y-49355D01*
X57246Y-49457D01*
X57411Y-49530D01*
X57587Y-49568D01*
X57767Y-49572D01*
X57945Y-49541D01*
X58113Y-49476D01*
X58265Y-49379D01*
X58396Y-49255D01*
X58500Y-49107D01*
X58573Y-48943D01*
X58613Y-48767D01*
X58616Y-48561D01*
X58616Y-57458D01*
X58591Y-57331D01*
X58522Y-57164D01*
X58422Y-57014D01*
X58295Y-56886D01*
X58146Y-56785D01*
X57979Y-56715D01*
X57803Y-56679D01*
X57622Y-56678D01*
X57445Y-56712D01*
X57278Y-56779D01*
X57127Y-56878D01*
X56999Y-57004D01*
X56897Y-57153D01*
X56826Y-57319D01*
X56788Y-57495D01*
X56786Y-57675D01*
X56818Y-57853D01*
X56885Y-58020D01*
X56982Y-58172D01*
X57107Y-58301D01*
X57256Y-58404D01*
X57421Y-58476D01*
X57597Y-58515D01*
X57777Y-58519D01*
X57955Y-58488D01*
X58123Y-58422D01*
X58275Y-58326D01*
X58405Y-58202D01*
X58509Y-58054D01*
X58583Y-57890D01*
X58623Y-57714D01*
X58626Y-57508D01*
X58626Y-60575D01*
X56750Y-60575D01*
X56710Y-60578D01*
X56671Y-60582D01*
X56669Y-60582D01*
X56667Y-60583D01*
X56629Y-60594D01*
X56592Y-60605D01*
X56590Y-60606D01*
X56588Y-60607D01*
X56553Y-60625D01*
X56518Y-60643D01*
X56516Y-60644D01*
X56514Y-60646D01*
X56484Y-60670D01*
X56453Y-60695D01*
X56450Y-60698D01*
X56450Y-60698D01*
X56450Y-60698D01*
X56449Y-60699D01*
X56249Y-60899D01*
X56195Y-60899D01*
X56079Y-60921D01*
X55970Y-60965D01*
X55872Y-61030D01*
X55826Y-61075D01*
X54058Y-61075D01*
X54000Y-61035D01*
X53905Y-60996D01*
X53805Y-60975D01*
X53702Y-60974D01*
X53601Y-60993D01*
X53505Y-61032D01*
X53419Y-61088D01*
X53345Y-61160D01*
X53287Y-61245D01*
X53249Y-61336D01*
X53226Y-61273D01*
X53204Y-61231D01*
X53112Y-61208D01*
X52820Y-61500D01*
X53112Y-61791D01*
X53204Y-61768D01*
X53247Y-61674D01*
X53250Y-61664D01*
X53280Y-61741D01*
X53336Y-61827D01*
X53408Y-61901D01*
X53492Y-61960D01*
X53586Y-62001D01*
X53687Y-62023D01*
X53790Y-62025D01*
X53891Y-62008D01*
X53987Y-61970D01*
X54060Y-61925D01*
X55826Y-61925D01*
X55859Y-61959D01*
X55918Y-62000D01*
X55872Y-62030D01*
X55788Y-62112D01*
X55721Y-62209D01*
X55675Y-62317D01*
X55650Y-62432D01*
X55649Y-62550D01*
X55670Y-62666D01*
X55713Y-62775D01*
X55777Y-62874D01*
X55815Y-62914D01*
X55782Y-62928D01*
X55741Y-62955D01*
X55706Y-62989D01*
X55679Y-63030D01*
X55660Y-63075D01*
X55650Y-63123D01*
X55649Y-63172D01*
X55649Y-63874D01*
X55659Y-63922D01*
X55678Y-63967D01*
X55705Y-64008D01*
X55739Y-64043D01*
X55780Y-64070D01*
X55825Y-64089D01*
X55873Y-64099D01*
X55922Y-64100D01*
X56624Y-64100D01*
X56672Y-64090D01*
X56717Y-64071D01*
X56758Y-64044D01*
X56793Y-64010D01*
X56800Y-64000D01*
X56817Y-64000D01*
X57621Y-64803D01*
X57657Y-64833D01*
X57692Y-64862D01*
X57694Y-64863D01*
X57697Y-64865D01*
X57737Y-64887D01*
X57778Y-64909D01*
X57780Y-64910D01*
X57783Y-64911D01*
X57827Y-64925D01*
X57871Y-64939D01*
X57873Y-64939D01*
X57876Y-64940D01*
X57922Y-64944D01*
X57968Y-64950D01*
X57973Y-64950D01*
X57973Y-64950D01*
X57973Y-64950D01*
X57975Y-64950D01*
X67814Y-64950D01*
X67860Y-64945D01*
X67906Y-64941D01*
X67909Y-64940D01*
X67911Y-64940D01*
X67956Y-64927D01*
X68000Y-64914D01*
X68002Y-64913D01*
X68005Y-64912D01*
X68046Y-64890D01*
X68087Y-64869D01*
X68089Y-64867D01*
X68091Y-64866D01*
X68127Y-64837D01*
X68163Y-64808D01*
X68167Y-64805D01*
X68167Y-64804D01*
X68167Y-64804D01*
X68168Y-64803D01*
X70224Y-62747D01*
X70223Y-62777D01*
X70238Y-62879D01*
X70273Y-62976D01*
X70295Y-63018D01*
X70387Y-63041D01*
X70679Y-62750D01*
X70673Y-62744D01*
X70744Y-62673D01*
X70750Y-62679D01*
X71041Y-62387D01*
X71018Y-62295D01*
X70924Y-62252D01*
X70824Y-62227D01*
X70747Y-62224D01*
X72624Y-60347D01*
X73000Y-60347D01*
X76090Y-60347D01*
X78000Y-62257D01*
X78000Y-62365D01*
X77985Y-62400D01*
X77975Y-62448D01*
X77974Y-62497D01*
X77974Y-63049D01*
X77984Y-63097D01*
X78003Y-63142D01*
X78030Y-63183D01*
X78064Y-63218D01*
X78105Y-63245D01*
X78150Y-63264D01*
X78198Y-63274D01*
X78247Y-63275D01*
X78799Y-63275D01*
X78847Y-63265D01*
X78892Y-63246D01*
X78933Y-63219D01*
X78968Y-63185D01*
X78995Y-63144D01*
X79014Y-63099D01*
X79024Y-63051D01*
X79025Y-63002D01*
X79025Y-62450D01*
X79015Y-62402D01*
X79000Y-62364D01*
X79000Y-62050D01*
X78995Y-62004D01*
X78991Y-61958D01*
X78990Y-61955D01*
X78990Y-61952D01*
X78977Y-61908D01*
X78964Y-61864D01*
X78963Y-61861D01*
X78962Y-61859D01*
X78940Y-61818D01*
X78919Y-61777D01*
X78917Y-61775D01*
X78916Y-61773D01*
X78887Y-61737D01*
X78858Y-61701D01*
X78854Y-61697D01*
X78854Y-61697D01*
X78854Y-61697D01*
X78853Y-61696D01*
X77850Y-60692D01*
X77850Y-53191D01*
X77827Y-53075D01*
X77782Y-52966D01*
X77717Y-52868D01*
X77634Y-52785D01*
X77536Y-52719D01*
X77428Y-52674D01*
X77313Y-52650D01*
X77195Y-52649D01*
X77079Y-52671D01*
X76970Y-52715D01*
X76872Y-52780D01*
X76788Y-52862D01*
X76721Y-52959D01*
X76675Y-53067D01*
X76650Y-53182D01*
X76649Y-53300D01*
X76670Y-53416D01*
X76713Y-53525D01*
X76777Y-53624D01*
X76859Y-53709D01*
X76955Y-53776D01*
X77063Y-53823D01*
X77178Y-53848D01*
X77296Y-53851D01*
X77412Y-53830D01*
X77521Y-53788D01*
X77621Y-53725D01*
X77706Y-53643D01*
X77774Y-53547D01*
X77822Y-53440D01*
X77848Y-53325D01*
X77850Y-53191D01*
X77850Y-60692D01*
X76650Y-59493D01*
X76614Y-59464D01*
X76579Y-59434D01*
X76577Y-59433D01*
X76575Y-59431D01*
X76534Y-59409D01*
X76494Y-59387D01*
X76491Y-59386D01*
X76489Y-59385D01*
X76445Y-59372D01*
X76401Y-59358D01*
X76398Y-59357D01*
X76395Y-59356D01*
X76350Y-59352D01*
X76304Y-59347D01*
X76298Y-59347D01*
X76298Y-59347D01*
X76298Y-59347D01*
X76297Y-59347D01*
X75366Y-59347D01*
X75366Y-57061D01*
X75331Y-56884D01*
X75262Y-56717D01*
X75162Y-56567D01*
X75035Y-56439D01*
X74886Y-56339D01*
X74720Y-56269D01*
X74543Y-56232D01*
X74363Y-56231D01*
X74186Y-56265D01*
X74018Y-56332D01*
X73868Y-56431D01*
X73739Y-56557D01*
X73637Y-56706D01*
X73566Y-56872D01*
X73528Y-57048D01*
X73526Y-57228D01*
X73558Y-57406D01*
X73625Y-57573D01*
X73722Y-57725D01*
X73848Y-57855D01*
X73996Y-57957D01*
X74161Y-58030D01*
X74337Y-58068D01*
X74517Y-58072D01*
X74695Y-58041D01*
X74863Y-57976D01*
X75015Y-57879D01*
X75146Y-57755D01*
X75250Y-57607D01*
X75323Y-57443D01*
X75363Y-57267D01*
X75366Y-57061D01*
X75366Y-59347D01*
X73500Y-59347D01*
X73500Y-53800D01*
X73508Y-53794D01*
X73543Y-53760D01*
X73570Y-53719D01*
X73589Y-53674D01*
X73599Y-53626D01*
X73600Y-53577D01*
X73600Y-52875D01*
X73590Y-52827D01*
X73571Y-52782D01*
X73544Y-52741D01*
X73510Y-52706D01*
X73469Y-52679D01*
X73434Y-52664D01*
X73456Y-52643D01*
X73469Y-52625D01*
X82250Y-52625D01*
X83023Y-52625D01*
X83649Y-53250D01*
X83649Y-53300D01*
X83670Y-53416D01*
X83713Y-53525D01*
X83777Y-53624D01*
X83859Y-53709D01*
X83955Y-53776D01*
X84063Y-53823D01*
X84178Y-53848D01*
X84296Y-53851D01*
X84412Y-53830D01*
X84521Y-53788D01*
X84621Y-53725D01*
X84706Y-53643D01*
X84774Y-53547D01*
X84822Y-53440D01*
X84848Y-53325D01*
X84850Y-53191D01*
X84850Y-56836D01*
X84781Y-56805D01*
X84710Y-56875D01*
X84710Y-56734D01*
X84658Y-56618D01*
X84525Y-56551D01*
X84381Y-56511D01*
X84232Y-56500D01*
X84083Y-56518D01*
X83941Y-56565D01*
X83841Y-56618D01*
X83789Y-56734D01*
X84250Y-57195D01*
X84710Y-56734D01*
X84710Y-56875D01*
X84320Y-57265D01*
X84781Y-57726D01*
X84897Y-57674D01*
X84964Y-57540D01*
X85004Y-57396D01*
X85015Y-57247D01*
X85015Y-59398D01*
X84997Y-59381D01*
X85009Y-59330D01*
X85011Y-59159D01*
X84982Y-59012D01*
X84925Y-58874D01*
X84843Y-58750D01*
X84737Y-58644D01*
X84710Y-58625D01*
X84710Y-57796D01*
X84250Y-57336D01*
X84179Y-57407D01*
X84179Y-57265D01*
X83718Y-56805D01*
X83602Y-56857D01*
X83535Y-56990D01*
X83495Y-57134D01*
X83484Y-57283D01*
X83502Y-57432D01*
X83549Y-57573D01*
X83602Y-57674D01*
X83718Y-57726D01*
X84179Y-57265D01*
X84179Y-57407D01*
X83789Y-57796D01*
X83841Y-57913D01*
X83974Y-57980D01*
X84118Y-58019D01*
X84267Y-58031D01*
X84416Y-58012D01*
X84558Y-57966D01*
X84658Y-57913D01*
X84710Y-57796D01*
X84710Y-58625D01*
X84614Y-58560D01*
X84476Y-58502D01*
X84330Y-58472D01*
X84180Y-58471D01*
X84033Y-58499D01*
X83895Y-58555D01*
X83770Y-58637D01*
X83663Y-58742D01*
X83579Y-58865D01*
X83520Y-59002D01*
X83489Y-59148D01*
X83487Y-59298D01*
X83514Y-59445D01*
X83569Y-59584D01*
X83650Y-59709D01*
X83753Y-59817D01*
X83876Y-59902D01*
X84013Y-59962D01*
X84159Y-59994D01*
X84308Y-59997D01*
X84396Y-59981D01*
X84636Y-60221D01*
X84636Y-61357D01*
X84614Y-61342D01*
X84476Y-61284D01*
X84330Y-61254D01*
X84180Y-61253D01*
X84033Y-61281D01*
X83895Y-61337D01*
X83770Y-61419D01*
X83663Y-61523D01*
X83579Y-61646D01*
X83520Y-61784D01*
X83489Y-61930D01*
X83487Y-62079D01*
X83514Y-62226D01*
X83569Y-62365D01*
X83650Y-62491D01*
X83753Y-62598D01*
X83876Y-62683D01*
X84013Y-62743D01*
X84159Y-62775D01*
X84308Y-62778D01*
X84455Y-62753D01*
X84595Y-62699D01*
X84636Y-62673D01*
X84636Y-63325D01*
X84525Y-63269D01*
X84381Y-63230D01*
X84232Y-63218D01*
X84083Y-63237D01*
X83941Y-63283D01*
X83841Y-63336D01*
X83789Y-63453D01*
X84250Y-63913D01*
X84255Y-63907D01*
X84326Y-63978D01*
X84320Y-63984D01*
X84326Y-63989D01*
X84255Y-64060D01*
X84250Y-64054D01*
X84179Y-64125D01*
X84179Y-63984D01*
X83718Y-63523D01*
X83602Y-63575D01*
X83535Y-63709D01*
X83495Y-63853D01*
X83484Y-64002D01*
X83502Y-64150D01*
X83549Y-64292D01*
X83602Y-64392D01*
X83718Y-64444D01*
X84179Y-63984D01*
X84179Y-64125D01*
X83789Y-64515D01*
X83841Y-64631D01*
X83974Y-64698D01*
X84118Y-64738D01*
X84267Y-64749D01*
X84416Y-64731D01*
X84558Y-64684D01*
X84636Y-64643D01*
X84636Y-67987D01*
X84601Y-67993D01*
X84505Y-68032D01*
X84419Y-68088D01*
X84345Y-68160D01*
X84287Y-68245D01*
X84247Y-68340D01*
X84225Y-68441D01*
X84224Y-68544D01*
X84242Y-68645D01*
X84280Y-68741D01*
X84336Y-68827D01*
X84408Y-68901D01*
X84492Y-68960D01*
X84584Y-69000D01*
X84505Y-69032D01*
X84440Y-69075D01*
X83694Y-69075D01*
X83655Y-69078D01*
X83616Y-69082D01*
X83614Y-69082D01*
X83612Y-69083D01*
X83574Y-69094D01*
X83537Y-69105D01*
X83535Y-69106D01*
X83532Y-69107D01*
X83498Y-69125D01*
X83463Y-69143D01*
X83461Y-69144D01*
X83459Y-69146D01*
X83429Y-69170D01*
X83398Y-69195D01*
X83395Y-69198D01*
X83395Y-69198D01*
X83395Y-69198D01*
X83394Y-69199D01*
X82984Y-69609D01*
X82984Y-67927D01*
X82956Y-67784D01*
X82900Y-67649D01*
X82820Y-67528D01*
X82717Y-67425D01*
X82596Y-67344D01*
X82462Y-67287D01*
X82320Y-67258D01*
X82174Y-67257D01*
X82031Y-67284D01*
X81896Y-67339D01*
X81774Y-67418D01*
X81670Y-67520D01*
X81588Y-67640D01*
X81531Y-67774D01*
X81501Y-67916D01*
X81499Y-68062D01*
X81525Y-68205D01*
X81578Y-68340D01*
X81657Y-68463D01*
X81758Y-68567D01*
X81878Y-68650D01*
X82011Y-68709D01*
X82153Y-68740D01*
X82299Y-68743D01*
X82442Y-68718D01*
X82578Y-68665D01*
X82701Y-68587D01*
X82806Y-68487D01*
X82890Y-68368D01*
X82949Y-68235D01*
X82981Y-68093D01*
X82984Y-67927D01*
X82984Y-69609D01*
X82372Y-70221D01*
X82320Y-70211D01*
X82174Y-70210D01*
X82031Y-70237D01*
X81896Y-70291D01*
X81774Y-70371D01*
X81670Y-70473D01*
X81588Y-70593D01*
X81531Y-70727D01*
X81501Y-70869D01*
X81499Y-71015D01*
X81525Y-71158D01*
X81578Y-71293D01*
X81657Y-71415D01*
X81758Y-71520D01*
X81878Y-71603D01*
X82011Y-71661D01*
X82153Y-71693D01*
X82299Y-71696D01*
X82442Y-71671D01*
X82578Y-71618D01*
X82701Y-71540D01*
X82806Y-71440D01*
X82890Y-71321D01*
X82949Y-71188D01*
X82981Y-71046D01*
X82984Y-70879D01*
X82972Y-70822D01*
X83870Y-69925D01*
X84441Y-69925D01*
X84492Y-69960D01*
X84586Y-70001D01*
X84687Y-70023D01*
X84790Y-70025D01*
X84891Y-70008D01*
X84987Y-69970D01*
X85074Y-69915D01*
X85149Y-69844D01*
X85208Y-69760D01*
X85250Y-69666D01*
X85273Y-69566D01*
X85275Y-69448D01*
X85255Y-69347D01*
X85215Y-69252D01*
X85158Y-69166D01*
X85086Y-69093D01*
X85000Y-69035D01*
X84914Y-68999D01*
X84987Y-68970D01*
X85074Y-68915D01*
X85149Y-68844D01*
X85208Y-68760D01*
X85250Y-68666D01*
X85269Y-68581D01*
X85361Y-68489D01*
X85386Y-68459D01*
X85411Y-68429D01*
X85412Y-68427D01*
X85414Y-68425D01*
X85432Y-68390D01*
X85451Y-68356D01*
X85452Y-68354D01*
X85453Y-68352D01*
X85464Y-68314D01*
X85476Y-68277D01*
X85477Y-68275D01*
X85477Y-68272D01*
X85481Y-68233D01*
X85486Y-68194D01*
X85486Y-68190D01*
X85486Y-68190D01*
X85486Y-68190D01*
X85486Y-68188D01*
X85486Y-71510D01*
X85453Y-71571D01*
X85390Y-71783D01*
X85369Y-72002D01*
X85391Y-72222D01*
X85455Y-72433D01*
X85556Y-72623D01*
X85710Y-72718D01*
X86429Y-72000D01*
X86429Y-72141D01*
X85781Y-72789D01*
X85876Y-72943D01*
X86071Y-73046D01*
X86283Y-73109D01*
X86502Y-73130D01*
X86722Y-73108D01*
X86933Y-73044D01*
X87123Y-72943D01*
X87218Y-72789D01*
X87218Y-73220D01*
X79025Y-73220D01*
X79025Y-65252D01*
X79025Y-64700D01*
X79015Y-64652D01*
X78996Y-64607D01*
X78969Y-64566D01*
X78935Y-64531D01*
X78894Y-64504D01*
X78849Y-64485D01*
X78801Y-64475D01*
X78752Y-64474D01*
X78200Y-64474D01*
X78152Y-64484D01*
X78107Y-64503D01*
X78066Y-64530D01*
X78031Y-64564D01*
X78004Y-64605D01*
X77985Y-64650D01*
X77975Y-64698D01*
X77974Y-64747D01*
X77974Y-65299D01*
X77984Y-65347D01*
X78003Y-65392D01*
X78030Y-65433D01*
X78064Y-65468D01*
X78105Y-65495D01*
X78150Y-65514D01*
X78198Y-65524D01*
X78247Y-65525D01*
X78799Y-65525D01*
X78847Y-65515D01*
X78892Y-65496D01*
X78933Y-65469D01*
X78968Y-65435D01*
X78995Y-65394D01*
X79014Y-65349D01*
X79024Y-65301D01*
X79025Y-65252D01*
X79025Y-73220D01*
X76960Y-73220D01*
X76960Y-70879D01*
X76932Y-70737D01*
X76876Y-70602D01*
X76796Y-70481D01*
X76693Y-70378D01*
X76573Y-70296D01*
X76439Y-70240D01*
X76296Y-70211D01*
X76183Y-70210D01*
X75706Y-69734D01*
X75671Y-69704D01*
X75635Y-69675D01*
X75633Y-69673D01*
X75631Y-69672D01*
X75590Y-69650D01*
X75550Y-69628D01*
X75547Y-69627D01*
X75545Y-69625D01*
X75501Y-69612D01*
X75457Y-69598D01*
X75454Y-69598D01*
X75452Y-69597D01*
X75406Y-69592D01*
X75360Y-69587D01*
X75355Y-69587D01*
X75355Y-69587D01*
X75355Y-69587D01*
X75353Y-69587D01*
X75199Y-69587D01*
X75204Y-69585D01*
X75239Y-69566D01*
X75241Y-69565D01*
X75243Y-69564D01*
X75273Y-69539D01*
X75304Y-69515D01*
X75307Y-69512D01*
X75307Y-69512D01*
X75307Y-69512D01*
X75308Y-69511D01*
X76088Y-68731D01*
X76130Y-68740D01*
X76275Y-68743D01*
X76419Y-68718D01*
X76554Y-68665D01*
X76677Y-68587D01*
X76783Y-68487D01*
X76866Y-68368D01*
X76926Y-68235D01*
X76958Y-68093D01*
X76960Y-67927D01*
X76932Y-67784D01*
X76876Y-67649D01*
X76796Y-67528D01*
X76693Y-67425D01*
X76573Y-67344D01*
X76439Y-67287D01*
X76296Y-67258D01*
X76150Y-67257D01*
X76025Y-67281D01*
X76025Y-64948D01*
X76025Y-62698D01*
X76005Y-62597D01*
X75965Y-62502D01*
X75908Y-62416D01*
X75836Y-62343D01*
X75750Y-62285D01*
X75655Y-62246D01*
X75555Y-62225D01*
X75452Y-62224D01*
X75351Y-62243D01*
X75255Y-62282D01*
X75169Y-62338D01*
X75095Y-62410D01*
X75037Y-62495D01*
X74997Y-62590D01*
X74975Y-62691D01*
X74974Y-62794D01*
X74992Y-62895D01*
X75030Y-62991D01*
X75086Y-63077D01*
X75158Y-63151D01*
X75242Y-63210D01*
X75336Y-63251D01*
X75437Y-63273D01*
X75540Y-63275D01*
X75641Y-63258D01*
X75737Y-63220D01*
X75824Y-63165D01*
X75899Y-63094D01*
X75958Y-63010D01*
X76000Y-62916D01*
X76023Y-62816D01*
X76025Y-62698D01*
X76025Y-64948D01*
X76005Y-64847D01*
X75965Y-64752D01*
X75908Y-64666D01*
X75836Y-64593D01*
X75750Y-64535D01*
X75655Y-64496D01*
X75555Y-64475D01*
X75452Y-64474D01*
X75351Y-64493D01*
X75255Y-64532D01*
X75190Y-64575D01*
X74275Y-64575D01*
X74275Y-63002D01*
X74275Y-62450D01*
X74265Y-62402D01*
X74246Y-62357D01*
X74219Y-62316D01*
X74185Y-62281D01*
X74144Y-62254D01*
X74099Y-62235D01*
X74051Y-62225D01*
X74002Y-62224D01*
X73450Y-62224D01*
X73402Y-62234D01*
X73357Y-62253D01*
X73316Y-62280D01*
X73281Y-62314D01*
X73254Y-62355D01*
X73235Y-62400D01*
X73225Y-62448D01*
X73224Y-62497D01*
X73224Y-63049D01*
X73234Y-63097D01*
X73253Y-63142D01*
X73280Y-63183D01*
X73314Y-63218D01*
X73355Y-63245D01*
X73400Y-63264D01*
X73448Y-63274D01*
X73497Y-63275D01*
X74049Y-63275D01*
X74097Y-63265D01*
X74142Y-63246D01*
X74183Y-63219D01*
X74218Y-63185D01*
X74245Y-63144D01*
X74264Y-63099D01*
X74274Y-63051D01*
X74275Y-63002D01*
X74275Y-64575D01*
X74225Y-64575D01*
X74219Y-64566D01*
X74185Y-64531D01*
X74144Y-64504D01*
X74099Y-64485D01*
X74051Y-64475D01*
X74002Y-64474D01*
X73450Y-64474D01*
X73402Y-64484D01*
X73357Y-64503D01*
X73316Y-64530D01*
X73281Y-64564D01*
X73254Y-64605D01*
X73235Y-64650D01*
X73225Y-64698D01*
X73224Y-64747D01*
X73224Y-65299D01*
X73234Y-65347D01*
X73253Y-65392D01*
X73280Y-65433D01*
X73314Y-65468D01*
X73355Y-65495D01*
X73400Y-65514D01*
X73448Y-65524D01*
X73497Y-65525D01*
X74049Y-65525D01*
X74097Y-65515D01*
X74142Y-65496D01*
X74183Y-65469D01*
X74218Y-65435D01*
X74225Y-65425D01*
X75191Y-65425D01*
X75242Y-65460D01*
X75336Y-65501D01*
X75437Y-65523D01*
X75540Y-65525D01*
X75641Y-65508D01*
X75737Y-65470D01*
X75824Y-65415D01*
X75899Y-65344D01*
X75958Y-65260D01*
X76000Y-65166D01*
X76023Y-65066D01*
X76025Y-64948D01*
X76025Y-67281D01*
X76007Y-67284D01*
X75873Y-67339D01*
X75751Y-67418D01*
X75647Y-67520D01*
X75565Y-67640D01*
X75507Y-67774D01*
X75477Y-67916D01*
X75475Y-68062D01*
X75487Y-68129D01*
X74992Y-68625D01*
X74992Y-67927D01*
X74963Y-67784D01*
X74908Y-67649D01*
X74827Y-67528D01*
X74725Y-67425D01*
X74604Y-67344D01*
X74470Y-67287D01*
X74327Y-67258D01*
X74182Y-67257D01*
X74039Y-67284D01*
X73904Y-67339D01*
X73782Y-67418D01*
X73678Y-67520D01*
X73596Y-67640D01*
X73539Y-67774D01*
X73508Y-67916D01*
X73506Y-68062D01*
X73533Y-68205D01*
X73586Y-68340D01*
X73665Y-68463D01*
X73766Y-68567D01*
X73886Y-68650D01*
X74019Y-68709D01*
X74161Y-68740D01*
X74307Y-68743D01*
X74450Y-68718D01*
X74586Y-68665D01*
X74709Y-68587D01*
X74814Y-68487D01*
X74898Y-68368D01*
X74957Y-68235D01*
X74989Y-68093D01*
X74992Y-67927D01*
X74992Y-68625D01*
X74831Y-68785D01*
X73023Y-68785D01*
X73023Y-67927D01*
X72995Y-67784D01*
X72939Y-67649D01*
X72859Y-67528D01*
X72756Y-67425D01*
X72636Y-67344D01*
X72502Y-67287D01*
X72359Y-67258D01*
X72213Y-67257D01*
X72070Y-67284D01*
X71936Y-67339D01*
X71814Y-67418D01*
X71731Y-67500D01*
X71276Y-67500D01*
X71276Y-64972D01*
X71276Y-62722D01*
X71261Y-62620D01*
X71226Y-62523D01*
X71204Y-62481D01*
X71112Y-62458D01*
X70820Y-62750D01*
X71112Y-63041D01*
X71204Y-63018D01*
X71247Y-62924D01*
X71272Y-62824D01*
X71276Y-62722D01*
X71276Y-64972D01*
X71261Y-64870D01*
X71226Y-64773D01*
X71204Y-64731D01*
X71112Y-64708D01*
X71041Y-64779D01*
X71041Y-64637D01*
X71041Y-63112D01*
X70750Y-62820D01*
X70458Y-63112D01*
X70481Y-63204D01*
X70575Y-63247D01*
X70675Y-63272D01*
X70777Y-63276D01*
X70879Y-63261D01*
X70976Y-63226D01*
X71018Y-63204D01*
X71041Y-63112D01*
X71041Y-64637D01*
X71018Y-64545D01*
X70924Y-64502D01*
X70824Y-64477D01*
X70722Y-64473D01*
X70620Y-64488D01*
X70523Y-64523D01*
X70481Y-64545D01*
X70458Y-64637D01*
X70750Y-64929D01*
X71041Y-64637D01*
X71041Y-64779D01*
X70820Y-65000D01*
X71112Y-65291D01*
X71204Y-65268D01*
X71247Y-65174D01*
X71272Y-65074D01*
X71276Y-64972D01*
X71276Y-67500D01*
X71041Y-67500D01*
X71041Y-65362D01*
X70750Y-65070D01*
X70679Y-65141D01*
X70679Y-65000D01*
X70387Y-64708D01*
X70295Y-64731D01*
X70252Y-64825D01*
X70227Y-64925D01*
X70223Y-65027D01*
X70238Y-65129D01*
X70273Y-65226D01*
X70295Y-65268D01*
X70387Y-65291D01*
X70679Y-65000D01*
X70679Y-65141D01*
X70458Y-65362D01*
X70481Y-65454D01*
X70575Y-65497D01*
X70675Y-65522D01*
X70777Y-65526D01*
X70879Y-65511D01*
X70976Y-65476D01*
X71018Y-65454D01*
X71041Y-65362D01*
X71041Y-67500D01*
X67281Y-67500D01*
X67235Y-67504D01*
X67189Y-67508D01*
X67186Y-67509D01*
X67184Y-67509D01*
X67140Y-67522D01*
X67095Y-67535D01*
X67093Y-67536D01*
X67090Y-67537D01*
X67050Y-67559D01*
X67009Y-67580D01*
X67007Y-67582D01*
X67004Y-67583D01*
X66969Y-67612D01*
X66932Y-67641D01*
X66929Y-67645D01*
X66929Y-67645D01*
X66929Y-67645D01*
X66927Y-67646D01*
X65335Y-69238D01*
X65212Y-69237D01*
X65065Y-69265D01*
X64926Y-69321D01*
X64801Y-69403D01*
X64695Y-69507D01*
X64610Y-69631D01*
X64551Y-69768D01*
X64520Y-69914D01*
X64518Y-70064D01*
X64545Y-70210D01*
X64600Y-70349D01*
X64681Y-70475D01*
X64785Y-70582D01*
X64908Y-70668D01*
X65044Y-70728D01*
X65190Y-70760D01*
X65340Y-70763D01*
X65487Y-70737D01*
X65626Y-70683D01*
X65752Y-70603D01*
X65860Y-70500D01*
X65947Y-70378D01*
X66007Y-70241D01*
X66040Y-70095D01*
X66043Y-69945D01*
X67488Y-68500D01*
X71732Y-68500D01*
X71798Y-68567D01*
X71917Y-68650D01*
X72051Y-68709D01*
X72193Y-68740D01*
X72338Y-68743D01*
X72482Y-68718D01*
X72617Y-68665D01*
X72740Y-68587D01*
X72845Y-68487D01*
X72929Y-68368D01*
X72989Y-68235D01*
X73021Y-68093D01*
X73023Y-67927D01*
X73023Y-68785D01*
X68039Y-68785D01*
X68000Y-68789D01*
X67961Y-68792D01*
X67959Y-68793D01*
X67956Y-68793D01*
X67919Y-68804D01*
X67881Y-68815D01*
X67879Y-68816D01*
X67877Y-68817D01*
X67842Y-68836D01*
X67808Y-68854D01*
X67806Y-68855D01*
X67804Y-68856D01*
X67773Y-68881D01*
X67743Y-68905D01*
X67740Y-68908D01*
X67740Y-68908D01*
X67739Y-68909D01*
X67738Y-68909D01*
X67396Y-69252D01*
X67330Y-69238D01*
X67180Y-69237D01*
X67033Y-69265D01*
X66895Y-69321D01*
X66770Y-69403D01*
X66663Y-69507D01*
X66579Y-69631D01*
X66520Y-69768D01*
X66489Y-69914D01*
X66487Y-70064D01*
X66514Y-70210D01*
X66569Y-70349D01*
X66650Y-70475D01*
X66753Y-70582D01*
X66876Y-70668D01*
X67013Y-70728D01*
X67159Y-70760D01*
X67308Y-70763D01*
X67455Y-70737D01*
X67595Y-70683D01*
X67721Y-70603D01*
X67829Y-70500D01*
X67915Y-70378D01*
X67976Y-70241D01*
X68009Y-70095D01*
X68011Y-69925D01*
X67997Y-69853D01*
X68215Y-69635D01*
X68545Y-69635D01*
X68488Y-69768D01*
X68457Y-69914D01*
X68455Y-70064D01*
X68482Y-70210D01*
X68537Y-70349D01*
X68618Y-70475D01*
X68722Y-70582D01*
X68845Y-70668D01*
X68981Y-70728D01*
X69127Y-70760D01*
X69277Y-70763D01*
X69424Y-70737D01*
X69563Y-70683D01*
X69689Y-70603D01*
X69797Y-70500D01*
X69798Y-70500D01*
X71121Y-70500D01*
X71539Y-70918D01*
X71538Y-71015D01*
X71564Y-71158D01*
X71618Y-71293D01*
X71697Y-71415D01*
X71798Y-71520D01*
X71917Y-71603D01*
X72051Y-71661D01*
X72193Y-71693D01*
X72338Y-71696D01*
X72482Y-71671D01*
X72617Y-71618D01*
X72740Y-71540D01*
X72845Y-71440D01*
X72929Y-71321D01*
X72989Y-71188D01*
X73021Y-71046D01*
X73023Y-70918D01*
X73353Y-70587D01*
X73600Y-70587D01*
X73596Y-70593D01*
X73539Y-70727D01*
X73508Y-70869D01*
X73506Y-71015D01*
X73533Y-71158D01*
X73586Y-71293D01*
X73665Y-71415D01*
X73766Y-71520D01*
X73886Y-71603D01*
X74019Y-71661D01*
X74161Y-71693D01*
X74307Y-71696D01*
X74450Y-71671D01*
X74586Y-71618D01*
X74709Y-71540D01*
X74814Y-71440D01*
X74898Y-71321D01*
X74957Y-71188D01*
X74989Y-71046D01*
X74992Y-70879D01*
X74963Y-70737D01*
X74908Y-70602D01*
X74898Y-70587D01*
X75146Y-70587D01*
X75476Y-70918D01*
X75475Y-71015D01*
X75501Y-71158D01*
X75555Y-71293D01*
X75634Y-71415D01*
X75735Y-71520D01*
X75854Y-71603D01*
X75988Y-71661D01*
X76130Y-71693D01*
X76275Y-71696D01*
X76419Y-71671D01*
X76554Y-71618D01*
X76677Y-71540D01*
X76783Y-71440D01*
X76866Y-71321D01*
X76926Y-71188D01*
X76958Y-71046D01*
X76960Y-70879D01*
X76960Y-73220D01*
X58616Y-73220D01*
X58616Y-67311D01*
X58581Y-67134D01*
X58512Y-66967D01*
X58412Y-66817D01*
X58285Y-66689D01*
X58136Y-66589D01*
X57970Y-66519D01*
X57793Y-66482D01*
X57613Y-66481D01*
X57436Y-66515D01*
X57268Y-66582D01*
X57118Y-66681D01*
X56989Y-66807D01*
X56887Y-66956D01*
X56816Y-67122D01*
X56778Y-67298D01*
X56776Y-67478D01*
X56808Y-67656D01*
X56875Y-67823D01*
X56972Y-67975D01*
X57098Y-68105D01*
X57246Y-68207D01*
X57411Y-68280D01*
X57587Y-68318D01*
X57767Y-68322D01*
X57945Y-68291D01*
X58113Y-68226D01*
X58265Y-68129D01*
X58396Y-68005D01*
X58500Y-67857D01*
X58573Y-67693D01*
X58613Y-67517D01*
X58616Y-67311D01*
X58616Y-73220D01*
X52630Y-73220D01*
X52630Y-71997D01*
X52608Y-71777D01*
X52544Y-71566D01*
X52443Y-71376D01*
X52289Y-71281D01*
X52218Y-71351D01*
X52218Y-71210D01*
X52123Y-71056D01*
X51928Y-70953D01*
X51716Y-70890D01*
X51497Y-70869D01*
X51277Y-70891D01*
X51066Y-70955D01*
X50876Y-71056D01*
X50781Y-71210D01*
X51500Y-71929D01*
X52218Y-71210D01*
X52218Y-71351D01*
X51570Y-72000D01*
X52289Y-72718D01*
X52443Y-72623D01*
X52546Y-72428D01*
X52609Y-72216D01*
X52630Y-71997D01*
X52630Y-73220D01*
X52218Y-73220D01*
X52218Y-72789D01*
X51500Y-72070D01*
X50781Y-72789D01*
X50876Y-72943D01*
X51071Y-73046D01*
X51283Y-73109D01*
X51502Y-73130D01*
X51722Y-73108D01*
X51933Y-73044D01*
X52123Y-72943D01*
X52218Y-72789D01*
X52218Y-73220D01*
X50529Y-73220D01*
X50529Y-72571D01*
X50556Y-72623D01*
X50710Y-72718D01*
X51429Y-72000D01*
X50710Y-71281D01*
X50556Y-71376D01*
X50529Y-71428D01*
X50529Y-34912D01*
X50617Y-35079D01*
X50763Y-35165D01*
X51429Y-34500D01*
X50763Y-33834D01*
X50617Y-33920D01*
X50529Y-34089D01*
X50529Y-10571D01*
X50556Y-10623D01*
X50710Y-10718D01*
X51429Y-10000D01*
X50710Y-9281D01*
X50556Y-9376D01*
X50529Y-9428D01*
X50529Y-8779D01*
X87470Y-8779D01*
X87470Y-9428D01*
X87443Y-9376D01*
X87289Y-9281D01*
X87218Y-9351D01*
X87218Y-9210D01*
X87123Y-9056D01*
X86928Y-8953D01*
X86716Y-8890D01*
X86497Y-8869D01*
X86277Y-8891D01*
X86066Y-8955D01*
X85876Y-9056D01*
X85781Y-9210D01*
X86500Y-9929D01*
X87218Y-9210D01*
X87218Y-9351D01*
X86570Y-10000D01*
X87289Y-10718D01*
X87443Y-10623D01*
X87470Y-10571D01*
X87470Y-34087D01*
X87382Y-33920D01*
X87236Y-33834D01*
X87218Y-33851D01*
X87218Y-10789D01*
X86500Y-10070D01*
X86429Y-10141D01*
X86429Y-10000D01*
X85710Y-9281D01*
X85556Y-9376D01*
X85453Y-9571D01*
X85390Y-9783D01*
X85369Y-10002D01*
X85391Y-10222D01*
X85455Y-10433D01*
X85556Y-10623D01*
X85710Y-10718D01*
X86429Y-10000D01*
X86429Y-10141D01*
X85781Y-10789D01*
X85876Y-10943D01*
X86071Y-11046D01*
X86283Y-11109D01*
X86502Y-11130D01*
X86722Y-11108D01*
X86933Y-11044D01*
X87123Y-10943D01*
X87218Y-10789D01*
X87218Y-33851D01*
X87165Y-33905D01*
X87165Y-33763D01*
X87079Y-33617D01*
X86896Y-33522D01*
X86699Y-33463D01*
X86494Y-33444D01*
X86289Y-33466D01*
X86092Y-33526D01*
X85920Y-33617D01*
X85834Y-33763D01*
X86500Y-34429D01*
X87165Y-33763D01*
X87165Y-33905D01*
X86570Y-34500D01*
X87236Y-35165D01*
X87382Y-35079D01*
X87470Y-34910D01*
X87470Y-71428D01*
X87443Y-71376D01*
X87289Y-71281D01*
X87218Y-71351D01*
X87218Y-71210D01*
X87165Y-71124D01*
X87165Y-35236D01*
X86500Y-34570D01*
X86429Y-34641D01*
X86429Y-34500D01*
X85763Y-33834D01*
X85617Y-33920D01*
X85522Y-34103D01*
X85463Y-34300D01*
X85444Y-34505D01*
X85466Y-34710D01*
X85526Y-34907D01*
X85617Y-35079D01*
X85763Y-35165D01*
X86429Y-34500D01*
X86429Y-34641D01*
X85834Y-35236D01*
X85920Y-35382D01*
X86103Y-35477D01*
X86300Y-35536D01*
X86505Y-35555D01*
X86710Y-35533D01*
X86907Y-35473D01*
X87079Y-35382D01*
X87165Y-35236D01*
X87165Y-71124D01*
X87123Y-71056D01*
X86928Y-70953D01*
X86716Y-70890D01*
X86497Y-70869D01*
X86277Y-70891D01*
X86066Y-70955D01*
X85876Y-71056D01*
X85781Y-71210D01*
X86500Y-71929D01*
X87218Y-71210D01*
X87218Y-71351D01*
X86570Y-72000D01*
X87289Y-72718D01*
X87443Y-72623D01*
X87470Y-72571D01*
X87470Y-73220D01*
X87470Y-73220D01*
G37*
G54D23*
X87470Y-73220D02*
X87218Y-73220D01*
X87218Y-72789D01*
X86500Y-72070D01*
X86429Y-72141D01*
X86429Y-72000D01*
X85710Y-71281D01*
X85556Y-71376D01*
X85486Y-71510D01*
X85486Y-68188D01*
X85486Y-60045D01*
X85482Y-60006D01*
X85478Y-59967D01*
X85478Y-59964D01*
X85477Y-59962D01*
X85466Y-59925D01*
X85455Y-59887D01*
X85454Y-59885D01*
X85453Y-59883D01*
X85435Y-59848D01*
X85417Y-59813D01*
X85416Y-59812D01*
X85415Y-59810D01*
X85390Y-59779D01*
X85365Y-59749D01*
X85362Y-59745D01*
X85362Y-59745D01*
X85362Y-59745D01*
X85361Y-59744D01*
X85015Y-59398D01*
X85015Y-57247D01*
X84997Y-57099D01*
X84950Y-56957D01*
X84897Y-56857D01*
X84850Y-56836D01*
X84850Y-53191D01*
X84827Y-53075D01*
X84826Y-53074D01*
X84826Y-13577D01*
X84826Y-12875D01*
X84816Y-12827D01*
X84798Y-12782D01*
X84771Y-12741D01*
X84736Y-12706D01*
X84695Y-12679D01*
X84650Y-12660D01*
X84602Y-12650D01*
X84553Y-12649D01*
X83851Y-12649D01*
X83803Y-12659D01*
X83758Y-12678D01*
X83717Y-12705D01*
X83682Y-12739D01*
X83675Y-12750D01*
X83451Y-12750D01*
X83405Y-12754D01*
X83359Y-12758D01*
X83356Y-12759D01*
X83354Y-12759D01*
X83310Y-12772D01*
X83265Y-12785D01*
X83263Y-12786D01*
X83260Y-12787D01*
X83220Y-12809D01*
X83179Y-12830D01*
X83177Y-12832D01*
X83174Y-12833D01*
X83138Y-12862D01*
X83102Y-12891D01*
X83099Y-12895D01*
X83099Y-12895D01*
X83099Y-12895D01*
X83097Y-12896D01*
X82544Y-13450D01*
X81831Y-13450D01*
X81859Y-13342D01*
X81866Y-13225D01*
X81849Y-13108D01*
X81811Y-12997D01*
X81779Y-12937D01*
X81679Y-12904D01*
X81608Y-12975D01*
X81608Y-12834D01*
X81576Y-12734D01*
X81470Y-12683D01*
X81356Y-12654D01*
X81238Y-12647D01*
X81122Y-12663D01*
X81011Y-12702D01*
X80951Y-12734D01*
X80918Y-12834D01*
X81263Y-13179D01*
X81608Y-12834D01*
X81608Y-12975D01*
X81334Y-13250D01*
X81340Y-13255D01*
X81269Y-13326D01*
X81263Y-13320D01*
X81258Y-13326D01*
X81187Y-13255D01*
X81193Y-13250D01*
X80847Y-12904D01*
X80748Y-12937D01*
X80697Y-13043D01*
X80668Y-13157D01*
X80661Y-13274D01*
X80677Y-13391D01*
X80716Y-13502D01*
X80745Y-13556D01*
X80737Y-13562D01*
X80701Y-13591D01*
X80697Y-13595D01*
X80697Y-13595D01*
X80697Y-13595D01*
X80696Y-13596D01*
X77996Y-16296D01*
X77996Y-11925D01*
X77967Y-11778D01*
X77910Y-11640D01*
X77827Y-11516D01*
X77722Y-11410D01*
X77598Y-11326D01*
X77460Y-11268D01*
X77314Y-11238D01*
X77164Y-11237D01*
X77018Y-11265D01*
X76879Y-11321D01*
X76754Y-11403D01*
X76647Y-11507D01*
X76563Y-11631D01*
X76504Y-11768D01*
X76473Y-11914D01*
X76471Y-12064D01*
X76498Y-12210D01*
X76553Y-12349D01*
X76634Y-12475D01*
X76738Y-12582D01*
X76860Y-12668D01*
X76997Y-12728D01*
X77143Y-12760D01*
X77292Y-12763D01*
X77440Y-12737D01*
X77579Y-12683D01*
X77705Y-12603D01*
X77813Y-12500D01*
X77899Y-12378D01*
X77960Y-12241D01*
X77993Y-12095D01*
X77996Y-11925D01*
X77996Y-16296D01*
X77292Y-17000D01*
X72041Y-17000D01*
X72041Y-16362D01*
X71750Y-16070D01*
X71458Y-16362D01*
X71481Y-16454D01*
X71575Y-16497D01*
X71675Y-16522D01*
X71777Y-16526D01*
X71879Y-16511D01*
X71976Y-16476D01*
X72018Y-16454D01*
X72041Y-16362D01*
X72041Y-17000D01*
X68635Y-17000D01*
X68642Y-16996D01*
X68683Y-16969D01*
X68718Y-16935D01*
X68745Y-16894D01*
X68764Y-16849D01*
X68774Y-16801D01*
X68775Y-16752D01*
X68775Y-16200D01*
X68765Y-16152D01*
X68746Y-16107D01*
X68719Y-16066D01*
X68685Y-16031D01*
X68644Y-16004D01*
X68599Y-15985D01*
X68551Y-15975D01*
X68502Y-15974D01*
X68376Y-15974D01*
X68489Y-15861D01*
X70242Y-15861D01*
X70225Y-15941D01*
X70224Y-16044D01*
X70242Y-16145D01*
X70280Y-16241D01*
X70336Y-16327D01*
X70408Y-16401D01*
X70492Y-16460D01*
X70586Y-16501D01*
X70687Y-16523D01*
X70790Y-16525D01*
X70891Y-16508D01*
X70987Y-16470D01*
X71074Y-16415D01*
X71149Y-16344D01*
X71208Y-16260D01*
X71250Y-16166D01*
X71251Y-16164D01*
X71273Y-16226D01*
X71295Y-16268D01*
X71387Y-16291D01*
X71679Y-16000D01*
X71673Y-15994D01*
X71744Y-15923D01*
X71750Y-15929D01*
X71755Y-15923D01*
X71826Y-15994D01*
X71820Y-16000D01*
X72112Y-16291D01*
X72204Y-16268D01*
X72247Y-16174D01*
X72272Y-16074D01*
X72276Y-15972D01*
X72261Y-15870D01*
X72258Y-15861D01*
X72510Y-15861D01*
X72731Y-16082D01*
X72742Y-16145D01*
X72780Y-16241D01*
X72836Y-16327D01*
X72908Y-16401D01*
X72992Y-16460D01*
X73086Y-16501D01*
X73187Y-16523D01*
X73290Y-16525D01*
X73391Y-16508D01*
X73487Y-16470D01*
X73574Y-16415D01*
X73649Y-16344D01*
X73708Y-16260D01*
X73750Y-16166D01*
X73750Y-16165D01*
X73780Y-16241D01*
X73836Y-16327D01*
X73908Y-16401D01*
X73992Y-16460D01*
X74086Y-16501D01*
X74187Y-16523D01*
X74290Y-16525D01*
X74391Y-16508D01*
X74487Y-16470D01*
X74574Y-16415D01*
X74649Y-16344D01*
X74708Y-16260D01*
X74750Y-16166D01*
X74773Y-16066D01*
X74775Y-15948D01*
X74755Y-15847D01*
X74715Y-15752D01*
X74658Y-15666D01*
X74586Y-15593D01*
X74500Y-15535D01*
X74405Y-15496D01*
X74331Y-15480D01*
X71601Y-12750D01*
X71674Y-12737D01*
X71813Y-12683D01*
X71939Y-12603D01*
X71971Y-12572D01*
X75481Y-16082D01*
X75492Y-16145D01*
X75530Y-16241D01*
X75586Y-16327D01*
X75658Y-16401D01*
X75742Y-16460D01*
X75836Y-16501D01*
X75937Y-16523D01*
X76040Y-16525D01*
X76141Y-16508D01*
X76237Y-16470D01*
X76324Y-16415D01*
X76399Y-16344D01*
X76458Y-16260D01*
X76500Y-16166D01*
X76500Y-16165D01*
X76530Y-16241D01*
X76586Y-16327D01*
X76658Y-16401D01*
X76742Y-16460D01*
X76836Y-16501D01*
X76937Y-16523D01*
X77040Y-16525D01*
X77141Y-16508D01*
X77237Y-16470D01*
X77324Y-16415D01*
X77399Y-16344D01*
X77458Y-16260D01*
X77500Y-16166D01*
X77523Y-16066D01*
X77525Y-15948D01*
X77505Y-15847D01*
X77465Y-15752D01*
X77408Y-15666D01*
X77336Y-15593D01*
X77250Y-15535D01*
X77155Y-15496D01*
X77055Y-15475D01*
X76952Y-15474D01*
X76851Y-15493D01*
X76755Y-15532D01*
X76669Y-15588D01*
X76595Y-15660D01*
X76537Y-15745D01*
X76499Y-15834D01*
X76465Y-15752D01*
X76408Y-15666D01*
X76336Y-15593D01*
X76250Y-15535D01*
X76155Y-15496D01*
X76081Y-15480D01*
X76031Y-15429D01*
X76031Y-11982D01*
X76012Y-11833D01*
X75966Y-11691D01*
X75913Y-11591D01*
X75796Y-11539D01*
X75726Y-11610D01*
X75726Y-11468D01*
X75674Y-11352D01*
X75540Y-11285D01*
X75396Y-11245D01*
X75247Y-11234D01*
X75099Y-11252D01*
X74957Y-11299D01*
X74857Y-11352D01*
X74805Y-11468D01*
X75265Y-11929D01*
X75726Y-11468D01*
X75726Y-11610D01*
X75336Y-12000D01*
X75796Y-12460D01*
X75913Y-12408D01*
X75980Y-12275D01*
X76019Y-12131D01*
X76031Y-11982D01*
X76031Y-15429D01*
X75726Y-15125D01*
X75726Y-12531D01*
X75265Y-12070D01*
X75195Y-12141D01*
X75195Y-12000D01*
X74734Y-11539D01*
X74618Y-11591D01*
X74551Y-11724D01*
X74511Y-11868D01*
X74500Y-12017D01*
X74518Y-12166D01*
X74565Y-12308D01*
X74618Y-12408D01*
X74734Y-12460D01*
X75195Y-12000D01*
X75195Y-12141D01*
X74805Y-12531D01*
X74857Y-12647D01*
X74990Y-12714D01*
X75134Y-12754D01*
X75283Y-12765D01*
X75432Y-12747D01*
X75573Y-12700D01*
X75674Y-12647D01*
X75726Y-12531D01*
X75726Y-15125D01*
X72300Y-11699D01*
X72270Y-11674D01*
X72240Y-11649D01*
X72238Y-11648D01*
X72236Y-11646D01*
X72201Y-11628D01*
X72167Y-11609D01*
X72165Y-11608D01*
X72163Y-11607D01*
X72125Y-11596D01*
X72111Y-11591D01*
X72061Y-11516D01*
X71956Y-11410D01*
X71832Y-11326D01*
X71694Y-11268D01*
X71548Y-11238D01*
X71399Y-11237D01*
X71252Y-11265D01*
X71113Y-11321D01*
X70988Y-11403D01*
X70882Y-11507D01*
X70797Y-11631D01*
X70738Y-11768D01*
X70717Y-11866D01*
X70550Y-11699D01*
X70520Y-11674D01*
X70490Y-11649D01*
X70488Y-11648D01*
X70486Y-11646D01*
X70451Y-11628D01*
X70417Y-11609D01*
X70415Y-11608D01*
X70413Y-11607D01*
X70375Y-11596D01*
X70338Y-11584D01*
X70336Y-11584D01*
X70334Y-11583D01*
X70294Y-11579D01*
X70255Y-11575D01*
X70251Y-11575D01*
X70251Y-11575D01*
X70251Y-11575D01*
X70250Y-11575D01*
X70132Y-11575D01*
X70093Y-11516D01*
X69987Y-11410D01*
X69864Y-11326D01*
X69726Y-11268D01*
X69580Y-11238D01*
X69430Y-11237D01*
X69283Y-11265D01*
X69145Y-11321D01*
X69020Y-11403D01*
X68913Y-11507D01*
X68867Y-11575D01*
X68163Y-11575D01*
X68124Y-11516D01*
X68019Y-11410D01*
X67895Y-11326D01*
X67757Y-11268D01*
X67611Y-11238D01*
X67462Y-11237D01*
X67315Y-11265D01*
X67176Y-11321D01*
X67051Y-11403D01*
X66945Y-11507D01*
X66860Y-11631D01*
X66801Y-11768D01*
X66770Y-11914D01*
X66768Y-12064D01*
X66795Y-12210D01*
X66850Y-12349D01*
X66931Y-12475D01*
X67035Y-12582D01*
X67158Y-12668D01*
X67294Y-12728D01*
X67440Y-12760D01*
X67590Y-12763D01*
X67737Y-12737D01*
X67876Y-12683D01*
X68002Y-12603D01*
X68110Y-12500D01*
X68164Y-12425D01*
X68867Y-12425D01*
X68900Y-12475D01*
X69003Y-12582D01*
X69126Y-12668D01*
X69263Y-12728D01*
X69409Y-12760D01*
X69558Y-12763D01*
X69705Y-12737D01*
X69845Y-12683D01*
X69971Y-12603D01*
X70079Y-12500D01*
X70108Y-12459D01*
X72660Y-15011D01*
X68313Y-15011D01*
X68274Y-15015D01*
X68235Y-15018D01*
X68233Y-15019D01*
X68230Y-15019D01*
X68193Y-15031D01*
X68155Y-15042D01*
X68153Y-15043D01*
X68151Y-15043D01*
X68116Y-15062D01*
X68081Y-15080D01*
X68080Y-15081D01*
X68078Y-15082D01*
X68047Y-15107D01*
X68017Y-15131D01*
X68013Y-15134D01*
X68013Y-15135D01*
X68013Y-15135D01*
X68012Y-15136D01*
X67167Y-15981D01*
X67101Y-15993D01*
X67005Y-16032D01*
X66940Y-16075D01*
X64246Y-16075D01*
X64246Y-11925D01*
X64217Y-11778D01*
X64160Y-11640D01*
X64077Y-11516D01*
X63972Y-11410D01*
X63848Y-11326D01*
X63710Y-11268D01*
X63564Y-11238D01*
X63414Y-11237D01*
X63268Y-11265D01*
X63129Y-11321D01*
X63004Y-11403D01*
X62897Y-11507D01*
X62813Y-11631D01*
X62754Y-11768D01*
X62723Y-11914D01*
X62721Y-12064D01*
X62748Y-12210D01*
X62803Y-12349D01*
X62884Y-12475D01*
X62988Y-12582D01*
X63110Y-12668D01*
X63247Y-12728D01*
X63393Y-12760D01*
X63542Y-12763D01*
X63690Y-12737D01*
X63829Y-12683D01*
X63955Y-12603D01*
X64063Y-12500D01*
X64149Y-12378D01*
X64210Y-12241D01*
X64243Y-12095D01*
X64246Y-11925D01*
X64246Y-16075D01*
X62277Y-16075D01*
X62277Y-11925D01*
X62248Y-11778D01*
X62191Y-11640D01*
X62108Y-11516D01*
X62003Y-11410D01*
X61879Y-11326D01*
X61742Y-11268D01*
X61595Y-11238D01*
X61446Y-11237D01*
X61299Y-11265D01*
X61161Y-11321D01*
X61036Y-11403D01*
X60929Y-11507D01*
X60883Y-11575D01*
X57866Y-11575D01*
X57827Y-11516D01*
X57722Y-11410D01*
X57598Y-11326D01*
X57460Y-11268D01*
X57314Y-11238D01*
X57164Y-11237D01*
X57018Y-11265D01*
X56879Y-11321D01*
X56754Y-11403D01*
X56647Y-11507D01*
X56563Y-11631D01*
X56504Y-11768D01*
X56473Y-11914D01*
X56471Y-12064D01*
X56498Y-12210D01*
X56553Y-12349D01*
X56634Y-12475D01*
X56738Y-12582D01*
X56860Y-12668D01*
X56997Y-12728D01*
X57143Y-12760D01*
X57292Y-12763D01*
X57440Y-12737D01*
X57579Y-12683D01*
X57705Y-12603D01*
X57813Y-12500D01*
X57866Y-12425D01*
X60883Y-12425D01*
X60915Y-12475D01*
X61019Y-12582D01*
X61142Y-12668D01*
X61279Y-12728D01*
X61425Y-12760D01*
X61574Y-12763D01*
X61721Y-12737D01*
X61860Y-12683D01*
X61987Y-12603D01*
X62095Y-12500D01*
X62181Y-12378D01*
X62242Y-12241D01*
X62275Y-12095D01*
X62277Y-11925D01*
X62277Y-16075D01*
X60210Y-16075D01*
X60170Y-16078D01*
X60131Y-16082D01*
X60129Y-16082D01*
X60127Y-16083D01*
X60089Y-16094D01*
X60052Y-16105D01*
X60050Y-16106D01*
X60048Y-16107D01*
X60013Y-16125D01*
X59978Y-16143D01*
X59976Y-16144D01*
X59974Y-16146D01*
X59944Y-16170D01*
X59913Y-16195D01*
X59910Y-16198D01*
X59910Y-16198D01*
X59910Y-16198D01*
X59909Y-16199D01*
X56031Y-20077D01*
X56031Y-11982D01*
X56012Y-11833D01*
X55966Y-11691D01*
X55913Y-11591D01*
X55796Y-11539D01*
X55726Y-11610D01*
X55726Y-11468D01*
X55674Y-11352D01*
X55540Y-11285D01*
X55396Y-11245D01*
X55247Y-11234D01*
X55099Y-11252D01*
X54957Y-11299D01*
X54857Y-11352D01*
X54805Y-11468D01*
X55265Y-11929D01*
X55726Y-11468D01*
X55726Y-11610D01*
X55336Y-12000D01*
X55796Y-12460D01*
X55913Y-12408D01*
X55980Y-12275D01*
X56019Y-12131D01*
X56031Y-11982D01*
X56031Y-20077D01*
X55726Y-20382D01*
X55726Y-12531D01*
X55265Y-12070D01*
X55195Y-12141D01*
X55195Y-12000D01*
X54734Y-11539D01*
X54618Y-11591D01*
X54551Y-11724D01*
X54511Y-11868D01*
X54500Y-12017D01*
X54518Y-12166D01*
X54565Y-12308D01*
X54618Y-12408D01*
X54734Y-12460D01*
X55195Y-12000D01*
X55195Y-12141D01*
X54805Y-12531D01*
X54857Y-12647D01*
X54990Y-12714D01*
X55134Y-12754D01*
X55283Y-12765D01*
X55432Y-12747D01*
X55573Y-12700D01*
X55674Y-12647D01*
X55726Y-12531D01*
X55726Y-20382D01*
X54068Y-22040D01*
X54043Y-22071D01*
X54018Y-22101D01*
X54017Y-22103D01*
X54015Y-22104D01*
X53997Y-22139D01*
X53978Y-22173D01*
X53977Y-22175D01*
X53976Y-22177D01*
X53964Y-22215D01*
X53953Y-22252D01*
X53952Y-22255D01*
X53952Y-22257D01*
X53948Y-22296D01*
X53943Y-22335D01*
X53943Y-22339D01*
X53943Y-22339D01*
X53943Y-22339D01*
X53943Y-22341D01*
X53943Y-23761D01*
X53905Y-23746D01*
X53805Y-23725D01*
X53702Y-23724D01*
X53601Y-23743D01*
X53505Y-23782D01*
X53419Y-23838D01*
X53345Y-23910D01*
X53287Y-23995D01*
X53249Y-24086D01*
X53226Y-24023D01*
X53204Y-23981D01*
X53112Y-23958D01*
X53041Y-24029D01*
X53041Y-23887D01*
X53018Y-23795D01*
X52924Y-23752D01*
X52824Y-23727D01*
X52722Y-23723D01*
X52630Y-23737D01*
X52630Y-9997D01*
X52608Y-9777D01*
X52544Y-9566D01*
X52443Y-9376D01*
X52289Y-9281D01*
X52218Y-9351D01*
X52218Y-9210D01*
X52123Y-9056D01*
X51928Y-8953D01*
X51716Y-8890D01*
X51497Y-8869D01*
X51277Y-8891D01*
X51066Y-8955D01*
X50876Y-9056D01*
X50781Y-9210D01*
X51500Y-9929D01*
X52218Y-9210D01*
X52218Y-9351D01*
X51570Y-10000D01*
X52289Y-10718D01*
X52443Y-10623D01*
X52546Y-10428D01*
X52609Y-10216D01*
X52630Y-9997D01*
X52630Y-23737D01*
X52620Y-23738D01*
X52523Y-23773D01*
X52481Y-23795D01*
X52458Y-23887D01*
X52750Y-24179D01*
X53041Y-23887D01*
X53041Y-24029D01*
X52820Y-24250D01*
X53112Y-24541D01*
X53204Y-24518D01*
X53247Y-24424D01*
X53250Y-24414D01*
X53280Y-24491D01*
X53336Y-24577D01*
X53408Y-24651D01*
X53492Y-24710D01*
X53586Y-24751D01*
X53636Y-24762D01*
X53041Y-25357D01*
X53041Y-24612D01*
X52750Y-24320D01*
X52679Y-24391D01*
X52679Y-24250D01*
X52387Y-23958D01*
X52295Y-23981D01*
X52252Y-24075D01*
X52227Y-24175D01*
X52223Y-24277D01*
X52238Y-24379D01*
X52273Y-24476D01*
X52295Y-24518D01*
X52387Y-24541D01*
X52679Y-24250D01*
X52679Y-24391D01*
X52458Y-24612D01*
X52481Y-24704D01*
X52575Y-24747D01*
X52675Y-24772D01*
X52777Y-24776D01*
X52879Y-24761D01*
X52976Y-24726D01*
X53018Y-24704D01*
X53041Y-24612D01*
X53041Y-25357D01*
X52667Y-25731D01*
X52601Y-25743D01*
X52505Y-25782D01*
X52419Y-25838D01*
X52345Y-25910D01*
X52287Y-25995D01*
X52247Y-26090D01*
X52225Y-26191D01*
X52224Y-26294D01*
X52242Y-26395D01*
X52280Y-26491D01*
X52336Y-26577D01*
X52408Y-26651D01*
X52492Y-26710D01*
X52586Y-26751D01*
X52687Y-26773D01*
X52790Y-26775D01*
X52891Y-26758D01*
X52987Y-26720D01*
X53074Y-26665D01*
X53149Y-26594D01*
X53208Y-26510D01*
X53250Y-26416D01*
X53250Y-26415D01*
X53280Y-26491D01*
X53336Y-26577D01*
X53408Y-26651D01*
X53492Y-26710D01*
X53586Y-26751D01*
X53687Y-26773D01*
X53790Y-26775D01*
X53891Y-26758D01*
X53987Y-26720D01*
X54074Y-26665D01*
X54149Y-26594D01*
X54208Y-26510D01*
X54250Y-26416D01*
X54273Y-26316D01*
X54275Y-26198D01*
X54255Y-26097D01*
X54215Y-26002D01*
X54158Y-25916D01*
X54086Y-25843D01*
X54000Y-25785D01*
X53905Y-25746D01*
X53863Y-25737D01*
X54669Y-24931D01*
X54694Y-24901D01*
X54719Y-24871D01*
X54720Y-24869D01*
X54721Y-24867D01*
X54740Y-24833D01*
X54759Y-24798D01*
X54760Y-24796D01*
X54761Y-24794D01*
X54772Y-24757D01*
X54784Y-24719D01*
X54784Y-24717D01*
X54785Y-24715D01*
X54789Y-24676D01*
X54793Y-24637D01*
X54793Y-24632D01*
X54793Y-24632D01*
X54793Y-24632D01*
X54793Y-24631D01*
X54793Y-22517D01*
X56801Y-20509D01*
X56818Y-20603D01*
X56885Y-20770D01*
X56982Y-20922D01*
X57107Y-21051D01*
X57256Y-21154D01*
X57421Y-21226D01*
X57547Y-21254D01*
X55190Y-23612D01*
X55160Y-23648D01*
X55131Y-23683D01*
X55130Y-23685D01*
X55128Y-23687D01*
X55106Y-23728D01*
X55084Y-23769D01*
X55083Y-23771D01*
X55082Y-23773D01*
X55068Y-23817D01*
X55054Y-23862D01*
X55054Y-23864D01*
X55053Y-23867D01*
X55049Y-23913D01*
X55043Y-23959D01*
X55043Y-23964D01*
X55043Y-23964D01*
X55043Y-23964D01*
X55043Y-23965D01*
X55043Y-25543D01*
X55048Y-25589D01*
X55052Y-25635D01*
X55053Y-25638D01*
X55053Y-25640D01*
X55066Y-25685D01*
X55079Y-25729D01*
X55080Y-25731D01*
X55081Y-25734D01*
X55103Y-25775D01*
X55124Y-25816D01*
X55126Y-25818D01*
X55127Y-25820D01*
X55156Y-25856D01*
X55185Y-25892D01*
X55189Y-25896D01*
X55189Y-25896D01*
X55189Y-25896D01*
X55190Y-25897D01*
X55649Y-26357D01*
X55649Y-26624D01*
X55659Y-26672D01*
X55678Y-26717D01*
X55705Y-26758D01*
X55739Y-26793D01*
X55780Y-26820D01*
X55825Y-26839D01*
X55873Y-26849D01*
X55922Y-26850D01*
X56624Y-26850D01*
X56672Y-26840D01*
X56717Y-26821D01*
X56758Y-26794D01*
X56793Y-26760D01*
X56820Y-26719D01*
X56839Y-26674D01*
X56849Y-26626D01*
X56850Y-26577D01*
X56850Y-25875D01*
X56840Y-25827D01*
X56821Y-25782D01*
X56794Y-25741D01*
X56760Y-25706D01*
X56719Y-25679D01*
X56684Y-25664D01*
X56706Y-25643D01*
X56719Y-25625D01*
X65250Y-25625D01*
X66023Y-25625D01*
X66649Y-26250D01*
X66649Y-26300D01*
X66670Y-26416D01*
X66691Y-26470D01*
X61177Y-26470D01*
X60838Y-26131D01*
X60827Y-26075D01*
X60782Y-25966D01*
X60717Y-25868D01*
X60634Y-25785D01*
X60536Y-25719D01*
X60428Y-25674D01*
X60313Y-25650D01*
X60195Y-25649D01*
X60079Y-25671D01*
X59970Y-25715D01*
X59872Y-25780D01*
X59788Y-25862D01*
X59721Y-25959D01*
X59675Y-26067D01*
X59650Y-26182D01*
X59649Y-26300D01*
X59670Y-26416D01*
X59713Y-26525D01*
X59777Y-26624D01*
X59859Y-26709D01*
X59955Y-26776D01*
X60063Y-26823D01*
X60131Y-26838D01*
X60616Y-27324D01*
X60652Y-27353D01*
X60688Y-27383D01*
X60690Y-27384D01*
X60692Y-27386D01*
X60733Y-27407D01*
X60773Y-27430D01*
X60776Y-27430D01*
X60778Y-27432D01*
X60822Y-27445D01*
X60866Y-27459D01*
X60869Y-27459D01*
X60871Y-27460D01*
X60917Y-27465D01*
X60963Y-27470D01*
X60968Y-27470D01*
X60968Y-27470D01*
X60968Y-27470D01*
X60970Y-27470D01*
X74529Y-27470D01*
X74575Y-27466D01*
X74621Y-27461D01*
X74623Y-27461D01*
X74626Y-27460D01*
X74670Y-27447D01*
X74715Y-27434D01*
X74717Y-27433D01*
X74720Y-27432D01*
X74760Y-27411D01*
X74801Y-27389D01*
X74803Y-27388D01*
X74806Y-27386D01*
X74841Y-27357D01*
X74878Y-27328D01*
X74881Y-27325D01*
X74881Y-27325D01*
X74881Y-27325D01*
X74883Y-27324D01*
X79235Y-22971D01*
X79237Y-22970D01*
X79324Y-22915D01*
X79399Y-22844D01*
X79458Y-22760D01*
X79500Y-22666D01*
X79523Y-22566D01*
X79525Y-22448D01*
X79505Y-22347D01*
X79465Y-22252D01*
X79408Y-22166D01*
X79336Y-22093D01*
X79250Y-22035D01*
X79164Y-21999D01*
X79237Y-21970D01*
X79324Y-21915D01*
X79399Y-21844D01*
X79458Y-21760D01*
X79500Y-21666D01*
X79523Y-21566D01*
X79525Y-21448D01*
X79505Y-21347D01*
X79465Y-21252D01*
X79408Y-21166D01*
X79336Y-21093D01*
X79291Y-21063D01*
X79291Y-18612D01*
X79000Y-18320D01*
X78929Y-18391D01*
X78929Y-18250D01*
X78637Y-17958D01*
X78545Y-17981D01*
X78502Y-18075D01*
X78477Y-18175D01*
X78473Y-18277D01*
X78488Y-18379D01*
X78523Y-18476D01*
X78545Y-18518D01*
X78637Y-18541D01*
X78929Y-18250D01*
X78929Y-18391D01*
X78708Y-18612D01*
X78731Y-18704D01*
X78825Y-18747D01*
X78925Y-18772D01*
X79027Y-18776D01*
X79129Y-18761D01*
X79226Y-18726D01*
X79268Y-18704D01*
X79291Y-18612D01*
X79291Y-21063D01*
X79250Y-21035D01*
X79155Y-20996D01*
X79055Y-20975D01*
X78952Y-20974D01*
X78851Y-20993D01*
X78755Y-21032D01*
X78669Y-21088D01*
X78595Y-21160D01*
X78537Y-21245D01*
X78497Y-21340D01*
X78475Y-21441D01*
X78474Y-21544D01*
X78492Y-21645D01*
X78530Y-21741D01*
X78586Y-21827D01*
X78658Y-21901D01*
X78742Y-21960D01*
X78834Y-22000D01*
X78755Y-22032D01*
X78669Y-22088D01*
X78595Y-22160D01*
X78537Y-22245D01*
X78530Y-22262D01*
X76602Y-24190D01*
X76602Y-20725D01*
X76600Y-20709D01*
X76586Y-20608D01*
X76547Y-20497D01*
X76515Y-20437D01*
X76415Y-20404D01*
X76461Y-20359D01*
X76436Y-20334D01*
X76467Y-20321D01*
X76508Y-20294D01*
X76543Y-20260D01*
X76570Y-20219D01*
X76589Y-20174D01*
X76599Y-20126D01*
X76600Y-20077D01*
X76600Y-19375D01*
X76590Y-19327D01*
X76571Y-19282D01*
X76544Y-19241D01*
X76510Y-19206D01*
X76469Y-19179D01*
X76424Y-19160D01*
X76376Y-19150D01*
X76327Y-19149D01*
X75625Y-19149D01*
X75577Y-19159D01*
X75532Y-19178D01*
X75491Y-19205D01*
X75456Y-19239D01*
X75429Y-19280D01*
X75410Y-19325D01*
X75400Y-19373D01*
X75399Y-19422D01*
X75399Y-20124D01*
X75409Y-20172D01*
X75428Y-20217D01*
X75455Y-20258D01*
X75489Y-20293D01*
X75530Y-20320D01*
X75563Y-20334D01*
X75538Y-20359D01*
X75584Y-20404D01*
X75484Y-20437D01*
X75433Y-20543D01*
X75404Y-20657D01*
X75397Y-20774D01*
X75413Y-20891D01*
X75452Y-21002D01*
X75484Y-21062D01*
X75584Y-21095D01*
X75929Y-20750D01*
X75923Y-20744D01*
X75994Y-20673D01*
X76000Y-20679D01*
X76005Y-20673D01*
X76076Y-20744D01*
X76070Y-20750D01*
X76415Y-21095D01*
X76515Y-21062D01*
X76566Y-20956D01*
X76595Y-20842D01*
X76602Y-20725D01*
X76602Y-24190D01*
X76600Y-24192D01*
X76600Y-21691D01*
X76577Y-21575D01*
X76532Y-21466D01*
X76467Y-21368D01*
X76384Y-21285D01*
X76320Y-21242D01*
X76345Y-21165D01*
X76000Y-20820D01*
X75929Y-20891D01*
X75654Y-21165D01*
X75679Y-21242D01*
X75622Y-21280D01*
X75538Y-21362D01*
X75471Y-21459D01*
X75425Y-21567D01*
X75400Y-21682D01*
X75399Y-21800D01*
X75420Y-21916D01*
X75463Y-22025D01*
X75527Y-22124D01*
X75609Y-22209D01*
X75705Y-22276D01*
X75813Y-22323D01*
X75928Y-22348D01*
X76046Y-22351D01*
X76162Y-22330D01*
X76271Y-22288D01*
X76371Y-22225D01*
X76456Y-22143D01*
X76524Y-22047D01*
X76572Y-21940D01*
X76598Y-21825D01*
X76600Y-21691D01*
X76600Y-24192D01*
X74322Y-26470D01*
X67808Y-26470D01*
X67822Y-26440D01*
X67848Y-26325D01*
X67850Y-26191D01*
X67827Y-26075D01*
X67782Y-25966D01*
X67717Y-25868D01*
X67634Y-25785D01*
X67536Y-25719D01*
X67428Y-25674D01*
X67313Y-25650D01*
X67251Y-25649D01*
X66500Y-24899D01*
X66470Y-24874D01*
X66440Y-24849D01*
X66438Y-24848D01*
X66436Y-24846D01*
X66401Y-24828D01*
X66367Y-24809D01*
X66365Y-24808D01*
X66363Y-24807D01*
X66325Y-24796D01*
X66288Y-24784D01*
X66286Y-24784D01*
X66284Y-24783D01*
X66244Y-24779D01*
X66205Y-24775D01*
X66201Y-24775D01*
X66201Y-24775D01*
X66201Y-24775D01*
X66200Y-24775D01*
X65675Y-24775D01*
X65675Y-24173D01*
X65706Y-24143D01*
X65774Y-24047D01*
X65822Y-23940D01*
X65848Y-23825D01*
X65850Y-23691D01*
X65827Y-23575D01*
X65782Y-23466D01*
X65717Y-23368D01*
X65634Y-23285D01*
X65536Y-23219D01*
X65428Y-23174D01*
X65313Y-23150D01*
X65195Y-23149D01*
X65079Y-23171D01*
X64970Y-23215D01*
X64872Y-23280D01*
X64788Y-23362D01*
X64721Y-23459D01*
X64675Y-23567D01*
X64650Y-23682D01*
X64649Y-23800D01*
X64670Y-23916D01*
X64713Y-24025D01*
X64777Y-24124D01*
X64825Y-24173D01*
X64825Y-24775D01*
X56618Y-24775D01*
X56581Y-24750D01*
X56621Y-24725D01*
X56673Y-24675D01*
X59050Y-24675D01*
X59089Y-24671D01*
X59128Y-24667D01*
X59130Y-24667D01*
X59132Y-24666D01*
X59170Y-24655D01*
X59207Y-24644D01*
X59209Y-24643D01*
X59211Y-24642D01*
X59246Y-24624D01*
X59281Y-24606D01*
X59283Y-24605D01*
X59285Y-24603D01*
X59315Y-24579D01*
X59346Y-24554D01*
X59349Y-24551D01*
X59349Y-24551D01*
X59349Y-24551D01*
X59350Y-24550D01*
X59680Y-24220D01*
X59705Y-24258D01*
X59739Y-24293D01*
X59780Y-24320D01*
X59825Y-24339D01*
X59873Y-24349D01*
X59922Y-24350D01*
X60624Y-24350D01*
X60672Y-24340D01*
X60717Y-24321D01*
X60758Y-24294D01*
X60793Y-24260D01*
X60820Y-24219D01*
X60839Y-24174D01*
X60849Y-24126D01*
X60850Y-24077D01*
X60850Y-23375D01*
X60840Y-23327D01*
X60821Y-23282D01*
X60794Y-23241D01*
X60760Y-23206D01*
X60719Y-23179D01*
X60674Y-23160D01*
X60626Y-23150D01*
X60577Y-23149D01*
X59875Y-23149D01*
X59827Y-23159D01*
X59782Y-23178D01*
X59741Y-23205D01*
X59706Y-23239D01*
X59679Y-23280D01*
X59660Y-23325D01*
X59550Y-23325D01*
X59510Y-23328D01*
X59471Y-23332D01*
X59469Y-23332D01*
X59467Y-23333D01*
X59429Y-23344D01*
X59392Y-23355D01*
X59390Y-23356D01*
X59388Y-23357D01*
X59353Y-23375D01*
X59318Y-23393D01*
X59316Y-23394D01*
X59314Y-23396D01*
X59284Y-23420D01*
X59253Y-23445D01*
X59250Y-23448D01*
X59250Y-23448D01*
X59250Y-23448D01*
X59249Y-23449D01*
X58873Y-23825D01*
X56673Y-23825D01*
X56634Y-23785D01*
X56536Y-23719D01*
X56508Y-23707D01*
X62216Y-18000D01*
X67083Y-18000D01*
X67086Y-18001D01*
X67187Y-18023D01*
X67290Y-18025D01*
X67391Y-18008D01*
X67412Y-18000D01*
X77500Y-18000D01*
X77545Y-17995D01*
X77591Y-17991D01*
X77594Y-17990D01*
X77597Y-17990D01*
X77641Y-17977D01*
X77685Y-17964D01*
X77688Y-17963D01*
X77690Y-17962D01*
X77731Y-17940D01*
X77772Y-17919D01*
X77774Y-17917D01*
X77776Y-17916D01*
X77812Y-17887D01*
X77848Y-17858D01*
X77852Y-17854D01*
X77852Y-17854D01*
X77852Y-17854D01*
X77853Y-17853D01*
X78475Y-17231D01*
X78474Y-17294D01*
X78492Y-17395D01*
X78530Y-17491D01*
X78586Y-17577D01*
X78658Y-17651D01*
X78742Y-17710D01*
X78835Y-17751D01*
X78773Y-17773D01*
X78731Y-17795D01*
X78708Y-17887D01*
X79000Y-18179D01*
X79291Y-17887D01*
X79268Y-17795D01*
X79174Y-17752D01*
X79163Y-17749D01*
X79237Y-17720D01*
X79324Y-17665D01*
X79399Y-17594D01*
X79458Y-17510D01*
X79500Y-17416D01*
X79523Y-17316D01*
X79525Y-17198D01*
X79505Y-17097D01*
X79465Y-17002D01*
X79408Y-16916D01*
X79336Y-16843D01*
X79250Y-16785D01*
X79155Y-16746D01*
X79055Y-16725D01*
X78982Y-16724D01*
X81256Y-14450D01*
X82751Y-14450D01*
X82797Y-14445D01*
X82843Y-14441D01*
X82845Y-14440D01*
X82848Y-14440D01*
X82892Y-14427D01*
X82936Y-14414D01*
X82939Y-14413D01*
X82941Y-14412D01*
X82982Y-14390D01*
X83023Y-14369D01*
X83025Y-14367D01*
X83027Y-14366D01*
X83063Y-14337D01*
X83099Y-14308D01*
X83103Y-14305D01*
X83103Y-14304D01*
X83103Y-14304D01*
X83104Y-14303D01*
X83658Y-13750D01*
X83675Y-13750D01*
X83681Y-13758D01*
X83716Y-13793D01*
X83756Y-13820D01*
X83802Y-13839D01*
X83850Y-13849D01*
X83899Y-13850D01*
X84600Y-13850D01*
X84648Y-13840D01*
X84694Y-13821D01*
X84735Y-13794D01*
X84769Y-13760D01*
X84797Y-13719D01*
X84816Y-13674D01*
X84826Y-13626D01*
X84826Y-13577D01*
X84826Y-53074D01*
X84782Y-52966D01*
X84717Y-52868D01*
X84634Y-52785D01*
X84600Y-52762D01*
X84600Y-20077D01*
X84600Y-19375D01*
X84590Y-19327D01*
X84571Y-19282D01*
X84544Y-19241D01*
X84510Y-19206D01*
X84469Y-19179D01*
X84424Y-19160D01*
X84376Y-19150D01*
X84327Y-19149D01*
X83625Y-19149D01*
X83577Y-19159D01*
X83532Y-19178D01*
X83491Y-19205D01*
X83456Y-19239D01*
X83429Y-19280D01*
X83410Y-19325D01*
X83400Y-19373D01*
X83399Y-19422D01*
X83399Y-20124D01*
X83409Y-20172D01*
X83428Y-20217D01*
X83455Y-20258D01*
X83489Y-20293D01*
X83530Y-20320D01*
X83575Y-20339D01*
X83623Y-20349D01*
X83672Y-20350D01*
X84374Y-20350D01*
X84422Y-20340D01*
X84467Y-20321D01*
X84508Y-20294D01*
X84543Y-20260D01*
X84570Y-20219D01*
X84589Y-20174D01*
X84599Y-20126D01*
X84600Y-20077D01*
X84600Y-52762D01*
X84600Y-52762D01*
X84600Y-34941D01*
X84577Y-34825D01*
X84532Y-34716D01*
X84467Y-34618D01*
X84384Y-34535D01*
X84286Y-34469D01*
X84178Y-34424D01*
X84063Y-34400D01*
X84001Y-34399D01*
X83250Y-33649D01*
X83220Y-33624D01*
X83190Y-33599D01*
X83188Y-33598D01*
X83186Y-33596D01*
X83151Y-33578D01*
X83117Y-33559D01*
X83115Y-33558D01*
X83113Y-33557D01*
X83075Y-33546D01*
X83038Y-33534D01*
X83036Y-33534D01*
X83034Y-33533D01*
X82994Y-33529D01*
X82955Y-33525D01*
X82951Y-33525D01*
X82951Y-33525D01*
X82951Y-33525D01*
X82950Y-33525D01*
X82602Y-33525D01*
X82602Y-19725D01*
X82586Y-19608D01*
X82547Y-19497D01*
X82515Y-19437D01*
X82415Y-19404D01*
X82345Y-19475D01*
X82345Y-19334D01*
X82312Y-19234D01*
X82206Y-19183D01*
X82092Y-19154D01*
X81975Y-19147D01*
X81858Y-19163D01*
X81747Y-19202D01*
X81687Y-19234D01*
X81654Y-19334D01*
X82000Y-19679D01*
X82345Y-19334D01*
X82345Y-19475D01*
X82070Y-19750D01*
X82415Y-20095D01*
X82515Y-20062D01*
X82566Y-19956D01*
X82595Y-19842D01*
X82602Y-19725D01*
X82602Y-33525D01*
X82425Y-33525D01*
X82425Y-32923D01*
X82456Y-32893D01*
X82524Y-32797D01*
X82572Y-32690D01*
X82598Y-32575D01*
X82600Y-32441D01*
X82577Y-32325D01*
X82532Y-32216D01*
X82467Y-32118D01*
X82384Y-32035D01*
X82345Y-32009D01*
X82345Y-20165D01*
X82000Y-19820D01*
X81929Y-19891D01*
X81929Y-19750D01*
X81584Y-19404D01*
X81484Y-19437D01*
X81433Y-19543D01*
X81404Y-19657D01*
X81397Y-19774D01*
X81413Y-19891D01*
X81452Y-20002D01*
X81484Y-20062D01*
X81584Y-20095D01*
X81929Y-19750D01*
X81929Y-19891D01*
X81654Y-20165D01*
X81687Y-20265D01*
X81793Y-20316D01*
X81907Y-20345D01*
X82024Y-20352D01*
X82141Y-20336D01*
X82252Y-20297D01*
X82312Y-20265D01*
X82345Y-20165D01*
X82345Y-32009D01*
X82286Y-31969D01*
X82178Y-31924D01*
X82063Y-31900D01*
X81945Y-31899D01*
X81829Y-31921D01*
X81720Y-31965D01*
X81622Y-32030D01*
X81538Y-32112D01*
X81471Y-32209D01*
X81425Y-32317D01*
X81400Y-32432D01*
X81399Y-32550D01*
X81420Y-32666D01*
X81463Y-32775D01*
X81527Y-32874D01*
X81575Y-32923D01*
X81575Y-33525D01*
X79526Y-33525D01*
X79526Y-18222D01*
X79511Y-18120D01*
X79476Y-18023D01*
X79454Y-17981D01*
X79362Y-17958D01*
X79070Y-18250D01*
X79362Y-18541D01*
X79454Y-18518D01*
X79497Y-18424D01*
X79522Y-18324D01*
X79526Y-18222D01*
X79526Y-33525D01*
X73368Y-33525D01*
X73331Y-33500D01*
X73371Y-33475D01*
X73456Y-33393D01*
X73524Y-33297D01*
X73572Y-33190D01*
X73598Y-33075D01*
X73599Y-33001D01*
X73676Y-32925D01*
X76410Y-32925D01*
X76428Y-32967D01*
X76455Y-33008D01*
X76489Y-33043D01*
X76530Y-33070D01*
X76575Y-33089D01*
X76623Y-33099D01*
X76672Y-33100D01*
X77374Y-33100D01*
X77422Y-33090D01*
X77467Y-33071D01*
X77508Y-33044D01*
X77543Y-33010D01*
X77570Y-32969D01*
X77589Y-32924D01*
X77599Y-32876D01*
X77600Y-32827D01*
X77600Y-32125D01*
X77590Y-32077D01*
X77571Y-32032D01*
X77544Y-31991D01*
X77510Y-31956D01*
X77469Y-31929D01*
X77424Y-31910D01*
X77376Y-31900D01*
X77327Y-31899D01*
X76625Y-31899D01*
X76577Y-31909D01*
X76532Y-31928D01*
X76491Y-31955D01*
X76456Y-31989D01*
X76429Y-32030D01*
X76410Y-32075D01*
X75376Y-32075D01*
X75376Y-29008D01*
X75341Y-28831D01*
X75272Y-28664D01*
X75172Y-28514D01*
X75045Y-28386D01*
X74896Y-28285D01*
X74729Y-28215D01*
X74553Y-28179D01*
X74372Y-28178D01*
X74195Y-28212D01*
X74028Y-28279D01*
X73877Y-28378D01*
X73749Y-28504D01*
X73647Y-28653D01*
X73576Y-28819D01*
X73538Y-28995D01*
X73536Y-29175D01*
X73568Y-29353D01*
X73635Y-29520D01*
X73732Y-29672D01*
X73857Y-29801D01*
X74006Y-29904D01*
X74171Y-29976D01*
X74347Y-30015D01*
X74527Y-30019D01*
X74705Y-29988D01*
X74873Y-29922D01*
X75025Y-29826D01*
X75155Y-29702D01*
X75259Y-29554D01*
X75333Y-29390D01*
X75373Y-29214D01*
X75376Y-29008D01*
X75376Y-32075D01*
X73500Y-32075D01*
X73460Y-32078D01*
X73421Y-32082D01*
X73419Y-32082D01*
X73417Y-32083D01*
X73379Y-32094D01*
X73342Y-32105D01*
X73340Y-32106D01*
X73338Y-32107D01*
X73303Y-32125D01*
X73268Y-32143D01*
X73266Y-32144D01*
X73264Y-32146D01*
X73234Y-32170D01*
X73203Y-32195D01*
X73200Y-32198D01*
X73200Y-32198D01*
X73200Y-32198D01*
X73199Y-32199D01*
X72999Y-32399D01*
X72945Y-32399D01*
X72829Y-32421D01*
X72720Y-32465D01*
X72622Y-32530D01*
X72576Y-32575D01*
X70558Y-32575D01*
X70500Y-32535D01*
X70405Y-32496D01*
X70305Y-32475D01*
X70202Y-32474D01*
X70101Y-32493D01*
X70005Y-32532D01*
X69919Y-32588D01*
X69845Y-32660D01*
X69787Y-32745D01*
X69749Y-32836D01*
X69726Y-32773D01*
X69704Y-32731D01*
X69612Y-32708D01*
X69541Y-32779D01*
X69541Y-32637D01*
X69518Y-32545D01*
X69424Y-32502D01*
X69324Y-32477D01*
X69222Y-32473D01*
X69120Y-32488D01*
X69023Y-32523D01*
X68981Y-32545D01*
X68958Y-32637D01*
X69250Y-32929D01*
X69541Y-32637D01*
X69541Y-32779D01*
X69320Y-33000D01*
X69612Y-33291D01*
X69704Y-33268D01*
X69747Y-33174D01*
X69750Y-33164D01*
X69780Y-33241D01*
X69836Y-33327D01*
X69908Y-33401D01*
X69992Y-33460D01*
X70086Y-33501D01*
X70187Y-33523D01*
X70290Y-33525D01*
X70391Y-33508D01*
X70487Y-33470D01*
X70560Y-33425D01*
X72576Y-33425D01*
X72609Y-33459D01*
X72668Y-33500D01*
X72622Y-33530D01*
X72538Y-33612D01*
X72471Y-33709D01*
X72425Y-33817D01*
X72400Y-33932D01*
X72399Y-34050D01*
X72420Y-34166D01*
X72463Y-34275D01*
X72527Y-34374D01*
X72565Y-34414D01*
X72532Y-34428D01*
X72491Y-34455D01*
X72456Y-34489D01*
X72429Y-34530D01*
X72410Y-34575D01*
X72400Y-34623D01*
X72399Y-34672D01*
X72399Y-35374D01*
X72409Y-35422D01*
X72428Y-35467D01*
X72455Y-35508D01*
X72489Y-35543D01*
X72530Y-35570D01*
X72575Y-35589D01*
X72623Y-35599D01*
X72672Y-35600D01*
X73374Y-35600D01*
X73422Y-35590D01*
X73467Y-35571D01*
X73508Y-35544D01*
X73543Y-35510D01*
X73570Y-35469D01*
X73589Y-35424D01*
X73599Y-35376D01*
X73600Y-35327D01*
X73600Y-34625D01*
X73590Y-34577D01*
X73571Y-34532D01*
X73544Y-34491D01*
X73510Y-34456D01*
X73469Y-34429D01*
X73434Y-34414D01*
X73456Y-34393D01*
X73469Y-34375D01*
X82000Y-34375D01*
X82773Y-34375D01*
X83399Y-35000D01*
X83399Y-35050D01*
X83420Y-35166D01*
X83463Y-35275D01*
X83527Y-35374D01*
X83609Y-35459D01*
X83705Y-35526D01*
X83813Y-35573D01*
X83928Y-35598D01*
X84046Y-35601D01*
X84162Y-35580D01*
X84271Y-35538D01*
X84371Y-35475D01*
X84456Y-35393D01*
X84524Y-35297D01*
X84572Y-35190D01*
X84598Y-35075D01*
X84600Y-34941D01*
X84600Y-52762D01*
X84536Y-52719D01*
X84428Y-52674D01*
X84313Y-52650D01*
X84251Y-52649D01*
X83500Y-51899D01*
X83470Y-51874D01*
X83440Y-51849D01*
X83438Y-51848D01*
X83436Y-51846D01*
X83401Y-51828D01*
X83367Y-51809D01*
X83365Y-51808D01*
X83363Y-51807D01*
X83325Y-51796D01*
X83288Y-51784D01*
X83286Y-51784D01*
X83284Y-51783D01*
X83244Y-51779D01*
X83205Y-51775D01*
X83201Y-51775D01*
X83201Y-51775D01*
X83201Y-51775D01*
X83200Y-51775D01*
X82675Y-51775D01*
X82675Y-51173D01*
X82706Y-51143D01*
X82774Y-51047D01*
X82822Y-50940D01*
X82848Y-50825D01*
X82850Y-50691D01*
X82827Y-50575D01*
X82782Y-50466D01*
X82717Y-50368D01*
X82634Y-50285D01*
X82536Y-50219D01*
X82428Y-50174D01*
X82313Y-50150D01*
X82195Y-50149D01*
X82079Y-50171D01*
X81970Y-50215D01*
X81872Y-50280D01*
X81788Y-50362D01*
X81721Y-50459D01*
X81675Y-50567D01*
X81650Y-50682D01*
X81649Y-50800D01*
X81670Y-50916D01*
X81713Y-51025D01*
X81777Y-51124D01*
X81825Y-51173D01*
X81825Y-51775D01*
X73368Y-51775D01*
X73331Y-51750D01*
X73371Y-51725D01*
X73456Y-51643D01*
X73524Y-51547D01*
X73572Y-51440D01*
X73598Y-51325D01*
X73599Y-51251D01*
X73676Y-51175D01*
X76660Y-51175D01*
X76678Y-51217D01*
X76705Y-51258D01*
X76739Y-51293D01*
X76780Y-51320D01*
X76825Y-51339D01*
X76873Y-51349D01*
X76922Y-51350D01*
X77624Y-51350D01*
X77672Y-51340D01*
X77717Y-51321D01*
X77758Y-51294D01*
X77793Y-51260D01*
X77820Y-51219D01*
X77839Y-51174D01*
X77849Y-51126D01*
X77850Y-51077D01*
X77850Y-50375D01*
X77840Y-50327D01*
X77821Y-50282D01*
X77794Y-50241D01*
X77760Y-50206D01*
X77719Y-50179D01*
X77674Y-50160D01*
X77626Y-50150D01*
X77600Y-50149D01*
X77600Y-34941D01*
X77577Y-34825D01*
X77532Y-34716D01*
X77467Y-34618D01*
X77384Y-34535D01*
X77286Y-34469D01*
X77178Y-34424D01*
X77063Y-34400D01*
X76945Y-34399D01*
X76829Y-34421D01*
X76720Y-34465D01*
X76622Y-34530D01*
X76538Y-34612D01*
X76471Y-34709D01*
X76425Y-34817D01*
X76400Y-34932D01*
X76399Y-35050D01*
X76420Y-35166D01*
X76463Y-35275D01*
X76527Y-35374D01*
X76609Y-35459D01*
X76705Y-35526D01*
X76813Y-35573D01*
X76928Y-35598D01*
X77046Y-35601D01*
X77162Y-35580D01*
X77271Y-35538D01*
X77371Y-35475D01*
X77456Y-35393D01*
X77524Y-35297D01*
X77572Y-35190D01*
X77598Y-35075D01*
X77600Y-34941D01*
X77600Y-50149D01*
X77577Y-50149D01*
X76875Y-50149D01*
X76827Y-50159D01*
X76782Y-50178D01*
X76741Y-50205D01*
X76706Y-50239D01*
X76679Y-50280D01*
X76660Y-50325D01*
X75376Y-50325D01*
X75376Y-47258D01*
X75366Y-47208D01*
X75366Y-38811D01*
X75331Y-38634D01*
X75262Y-38467D01*
X75162Y-38317D01*
X75035Y-38189D01*
X74886Y-38089D01*
X74720Y-38019D01*
X74543Y-37982D01*
X74363Y-37981D01*
X74186Y-38015D01*
X74018Y-38082D01*
X73868Y-38181D01*
X73739Y-38307D01*
X73637Y-38456D01*
X73566Y-38622D01*
X73528Y-38798D01*
X73526Y-38978D01*
X73558Y-39156D01*
X73625Y-39323D01*
X73722Y-39475D01*
X73848Y-39605D01*
X73996Y-39707D01*
X74161Y-39780D01*
X74337Y-39818D01*
X74517Y-39822D01*
X74695Y-39791D01*
X74863Y-39726D01*
X75015Y-39629D01*
X75146Y-39505D01*
X75250Y-39357D01*
X75323Y-39193D01*
X75363Y-39017D01*
X75366Y-38811D01*
X75366Y-47208D01*
X75341Y-47081D01*
X75272Y-46914D01*
X75172Y-46764D01*
X75045Y-46636D01*
X74896Y-46535D01*
X74729Y-46465D01*
X74553Y-46429D01*
X74372Y-46428D01*
X74195Y-46462D01*
X74028Y-46529D01*
X73877Y-46628D01*
X73749Y-46754D01*
X73647Y-46903D01*
X73576Y-47069D01*
X73538Y-47245D01*
X73536Y-47425D01*
X73568Y-47603D01*
X73635Y-47770D01*
X73732Y-47922D01*
X73857Y-48051D01*
X74006Y-48154D01*
X74171Y-48226D01*
X74347Y-48265D01*
X74527Y-48269D01*
X74705Y-48238D01*
X74873Y-48172D01*
X75025Y-48076D01*
X75155Y-47952D01*
X75259Y-47804D01*
X75333Y-47640D01*
X75373Y-47464D01*
X75376Y-47258D01*
X75376Y-50325D01*
X73500Y-50325D01*
X73460Y-50328D01*
X73421Y-50332D01*
X73419Y-50332D01*
X73417Y-50333D01*
X73379Y-50344D01*
X73342Y-50355D01*
X73340Y-50356D01*
X73338Y-50357D01*
X73303Y-50375D01*
X73268Y-50393D01*
X73266Y-50394D01*
X73264Y-50396D01*
X73234Y-50420D01*
X73203Y-50445D01*
X73200Y-50448D01*
X73200Y-50448D01*
X73200Y-50448D01*
X73199Y-50449D01*
X72999Y-50649D01*
X72945Y-50649D01*
X72829Y-50671D01*
X72720Y-50715D01*
X72622Y-50780D01*
X72576Y-50825D01*
X70775Y-50825D01*
X70775Y-34948D01*
X70755Y-34847D01*
X70715Y-34752D01*
X70658Y-34666D01*
X70586Y-34593D01*
X70500Y-34535D01*
X70405Y-34496D01*
X70305Y-34475D01*
X70202Y-34474D01*
X70101Y-34493D01*
X70005Y-34532D01*
X69919Y-34588D01*
X69845Y-34660D01*
X69787Y-34745D01*
X69749Y-34834D01*
X69715Y-34752D01*
X69658Y-34666D01*
X69586Y-34593D01*
X69541Y-34563D01*
X69541Y-33362D01*
X69250Y-33070D01*
X69179Y-33141D01*
X69179Y-33000D01*
X68887Y-32708D01*
X68795Y-32731D01*
X68752Y-32825D01*
X68727Y-32925D01*
X68723Y-33027D01*
X68738Y-33129D01*
X68773Y-33226D01*
X68795Y-33268D01*
X68887Y-33291D01*
X69179Y-33000D01*
X69179Y-33141D01*
X68958Y-33362D01*
X68981Y-33454D01*
X69075Y-33497D01*
X69175Y-33522D01*
X69277Y-33526D01*
X69379Y-33511D01*
X69476Y-33476D01*
X69518Y-33454D01*
X69541Y-33362D01*
X69541Y-34563D01*
X69500Y-34535D01*
X69405Y-34496D01*
X69305Y-34475D01*
X69202Y-34474D01*
X69101Y-34493D01*
X69005Y-34532D01*
X68919Y-34588D01*
X68845Y-34660D01*
X68787Y-34745D01*
X68747Y-34840D01*
X68730Y-34918D01*
X62942Y-40706D01*
X62917Y-40737D01*
X62892Y-40767D01*
X62891Y-40769D01*
X62889Y-40770D01*
X62871Y-40805D01*
X62852Y-40839D01*
X62851Y-40841D01*
X62850Y-40843D01*
X62838Y-40881D01*
X62827Y-40918D01*
X62826Y-40921D01*
X62826Y-40923D01*
X62822Y-40962D01*
X62817Y-41001D01*
X62817Y-41005D01*
X62817Y-41005D01*
X62817Y-41005D01*
X62817Y-41007D01*
X62817Y-43105D01*
X62805Y-43099D01*
X62723Y-43083D01*
X62640Y-43082D01*
X62638Y-43082D01*
X59561Y-43082D01*
X59565Y-43079D01*
X59596Y-43054D01*
X59599Y-43051D01*
X59599Y-43051D01*
X59599Y-43051D01*
X59600Y-43050D01*
X59930Y-42720D01*
X59955Y-42758D01*
X59989Y-42793D01*
X60030Y-42820D01*
X60075Y-42839D01*
X60123Y-42849D01*
X60172Y-42850D01*
X60874Y-42850D01*
X60922Y-42840D01*
X60967Y-42821D01*
X61008Y-42794D01*
X61043Y-42760D01*
X61070Y-42719D01*
X61089Y-42674D01*
X61099Y-42626D01*
X61100Y-42577D01*
X61100Y-41875D01*
X61090Y-41827D01*
X61071Y-41782D01*
X61044Y-41741D01*
X61010Y-41706D01*
X60969Y-41679D01*
X60924Y-41660D01*
X60876Y-41650D01*
X60827Y-41649D01*
X60125Y-41649D01*
X60077Y-41659D01*
X60032Y-41678D01*
X59991Y-41705D01*
X59956Y-41739D01*
X59929Y-41780D01*
X59910Y-41825D01*
X59800Y-41825D01*
X59760Y-41828D01*
X59721Y-41832D01*
X59719Y-41832D01*
X59717Y-41833D01*
X59679Y-41844D01*
X59642Y-41855D01*
X59640Y-41856D01*
X59638Y-41857D01*
X59603Y-41875D01*
X59568Y-41893D01*
X59566Y-41894D01*
X59564Y-41896D01*
X59534Y-41920D01*
X59503Y-41945D01*
X59500Y-41948D01*
X59500Y-41948D01*
X59500Y-41948D01*
X59499Y-41949D01*
X59123Y-42325D01*
X58626Y-42325D01*
X58626Y-38758D01*
X58616Y-38708D01*
X58616Y-30061D01*
X58581Y-29884D01*
X58512Y-29717D01*
X58412Y-29567D01*
X58285Y-29439D01*
X58136Y-29339D01*
X57970Y-29269D01*
X57793Y-29232D01*
X57613Y-29231D01*
X57436Y-29265D01*
X57268Y-29332D01*
X57118Y-29431D01*
X56989Y-29557D01*
X56887Y-29706D01*
X56816Y-29872D01*
X56778Y-30048D01*
X56776Y-30228D01*
X56808Y-30406D01*
X56875Y-30573D01*
X56972Y-30725D01*
X57098Y-30855D01*
X57246Y-30957D01*
X57411Y-31030D01*
X57587Y-31068D01*
X57767Y-31072D01*
X57945Y-31041D01*
X58113Y-30976D01*
X58265Y-30879D01*
X58396Y-30755D01*
X58500Y-30607D01*
X58573Y-30443D01*
X58613Y-30267D01*
X58616Y-30061D01*
X58616Y-38708D01*
X58591Y-38581D01*
X58522Y-38414D01*
X58422Y-38264D01*
X58295Y-38136D01*
X58146Y-38035D01*
X57979Y-37965D01*
X57803Y-37929D01*
X57622Y-37928D01*
X57445Y-37962D01*
X57278Y-38029D01*
X57127Y-38128D01*
X56999Y-38254D01*
X56897Y-38403D01*
X56826Y-38569D01*
X56788Y-38745D01*
X56786Y-38925D01*
X56818Y-39103D01*
X56885Y-39270D01*
X56982Y-39422D01*
X57107Y-39551D01*
X57256Y-39654D01*
X57421Y-39726D01*
X57597Y-39765D01*
X57777Y-39769D01*
X57955Y-39738D01*
X58123Y-39672D01*
X58275Y-39576D01*
X58405Y-39452D01*
X58509Y-39304D01*
X58583Y-39140D01*
X58623Y-38964D01*
X58626Y-38758D01*
X58626Y-42325D01*
X56673Y-42325D01*
X56634Y-42285D01*
X56536Y-42219D01*
X56428Y-42174D01*
X56313Y-42150D01*
X56195Y-42149D01*
X56079Y-42171D01*
X55970Y-42215D01*
X55872Y-42280D01*
X55826Y-42325D01*
X54058Y-42325D01*
X54000Y-42285D01*
X53905Y-42246D01*
X53805Y-42225D01*
X53702Y-42224D01*
X53601Y-42243D01*
X53505Y-42282D01*
X53419Y-42338D01*
X53345Y-42410D01*
X53287Y-42495D01*
X53249Y-42586D01*
X53226Y-42523D01*
X53204Y-42481D01*
X53112Y-42458D01*
X53041Y-42529D01*
X53041Y-42387D01*
X53018Y-42295D01*
X52924Y-42252D01*
X52824Y-42227D01*
X52722Y-42223D01*
X52620Y-42238D01*
X52555Y-42262D01*
X52555Y-34494D01*
X52533Y-34289D01*
X52473Y-34092D01*
X52382Y-33920D01*
X52236Y-33834D01*
X52218Y-33851D01*
X52218Y-10789D01*
X51500Y-10070D01*
X50781Y-10789D01*
X50876Y-10943D01*
X51071Y-11046D01*
X51283Y-11109D01*
X51502Y-11130D01*
X51722Y-11108D01*
X51933Y-11044D01*
X52123Y-10943D01*
X52218Y-10789D01*
X52218Y-33851D01*
X52165Y-33905D01*
X52165Y-33763D01*
X52079Y-33617D01*
X51896Y-33522D01*
X51699Y-33463D01*
X51494Y-33444D01*
X51289Y-33466D01*
X51092Y-33526D01*
X50920Y-33617D01*
X50834Y-33763D01*
X51500Y-34429D01*
X52165Y-33763D01*
X52165Y-33905D01*
X51570Y-34500D01*
X52236Y-35165D01*
X52382Y-35079D01*
X52477Y-34896D01*
X52536Y-34699D01*
X52555Y-34494D01*
X52555Y-42262D01*
X52523Y-42273D01*
X52481Y-42295D01*
X52458Y-42387D01*
X52750Y-42679D01*
X53041Y-42387D01*
X53041Y-42529D01*
X52820Y-42750D01*
X53112Y-43041D01*
X53204Y-43018D01*
X53247Y-42924D01*
X53250Y-42914D01*
X53280Y-42991D01*
X53336Y-43077D01*
X53408Y-43151D01*
X53492Y-43210D01*
X53586Y-43251D01*
X53687Y-43273D01*
X53790Y-43275D01*
X53891Y-43258D01*
X53987Y-43220D01*
X54060Y-43175D01*
X55826Y-43175D01*
X55859Y-43209D01*
X55918Y-43250D01*
X55872Y-43280D01*
X55788Y-43362D01*
X55721Y-43459D01*
X55675Y-43567D01*
X55650Y-43682D01*
X55649Y-43800D01*
X55670Y-43916D01*
X55713Y-44025D01*
X55777Y-44124D01*
X55815Y-44164D01*
X55782Y-44178D01*
X55741Y-44205D01*
X55706Y-44239D01*
X55679Y-44280D01*
X55660Y-44325D01*
X55650Y-44373D01*
X55649Y-44422D01*
X55649Y-44967D01*
X54227Y-44967D01*
X54250Y-44916D01*
X54273Y-44816D01*
X54275Y-44698D01*
X54255Y-44597D01*
X54215Y-44502D01*
X54158Y-44416D01*
X54086Y-44343D01*
X54000Y-44285D01*
X53905Y-44246D01*
X53805Y-44225D01*
X53702Y-44224D01*
X53601Y-44243D01*
X53505Y-44282D01*
X53419Y-44338D01*
X53345Y-44410D01*
X53287Y-44495D01*
X53249Y-44584D01*
X53215Y-44502D01*
X53158Y-44416D01*
X53086Y-44343D01*
X53041Y-44313D01*
X53041Y-43112D01*
X52750Y-42820D01*
X52679Y-42891D01*
X52679Y-42750D01*
X52387Y-42458D01*
X52295Y-42481D01*
X52252Y-42575D01*
X52227Y-42675D01*
X52223Y-42777D01*
X52238Y-42879D01*
X52273Y-42976D01*
X52295Y-43018D01*
X52387Y-43041D01*
X52679Y-42750D01*
X52679Y-42891D01*
X52458Y-43112D01*
X52481Y-43204D01*
X52575Y-43247D01*
X52675Y-43272D01*
X52777Y-43276D01*
X52879Y-43261D01*
X52976Y-43226D01*
X53018Y-43204D01*
X53041Y-43112D01*
X53041Y-44313D01*
X53000Y-44285D01*
X52905Y-44246D01*
X52805Y-44225D01*
X52702Y-44224D01*
X52601Y-44243D01*
X52505Y-44282D01*
X52419Y-44338D01*
X52345Y-44410D01*
X52287Y-44495D01*
X52247Y-44590D01*
X52225Y-44691D01*
X52224Y-44794D01*
X52242Y-44895D01*
X52280Y-44991D01*
X52336Y-45077D01*
X52408Y-45151D01*
X52492Y-45210D01*
X52586Y-45251D01*
X52668Y-45269D01*
X52791Y-45392D01*
X52165Y-46019D01*
X52165Y-35236D01*
X51500Y-34570D01*
X50834Y-35236D01*
X50920Y-35382D01*
X51103Y-35477D01*
X51300Y-35536D01*
X51505Y-35555D01*
X51710Y-35533D01*
X51907Y-35473D01*
X52079Y-35382D01*
X52165Y-35236D01*
X52165Y-46019D01*
X51884Y-46299D01*
X51860Y-46330D01*
X51834Y-46360D01*
X51833Y-46362D01*
X51832Y-46363D01*
X51813Y-46398D01*
X51794Y-46432D01*
X51794Y-46434D01*
X51793Y-46436D01*
X51781Y-46474D01*
X51769Y-46511D01*
X51769Y-46514D01*
X51768Y-46516D01*
X51764Y-46555D01*
X51760Y-46594D01*
X51760Y-46598D01*
X51760Y-46598D01*
X51760Y-46598D01*
X51760Y-46600D01*
X51760Y-63185D01*
X51764Y-63224D01*
X51767Y-63263D01*
X51768Y-63265D01*
X51768Y-63268D01*
X51779Y-63305D01*
X51790Y-63343D01*
X51791Y-63345D01*
X51792Y-63347D01*
X51810Y-63382D01*
X51829Y-63416D01*
X51830Y-63418D01*
X51831Y-63420D01*
X51856Y-63451D01*
X51880Y-63481D01*
X51883Y-63484D01*
X51883Y-63484D01*
X51883Y-63484D01*
X51884Y-63485D01*
X52231Y-63832D01*
X52242Y-63895D01*
X52280Y-63991D01*
X52336Y-64077D01*
X52408Y-64151D01*
X52492Y-64210D01*
X52586Y-64251D01*
X52687Y-64273D01*
X52790Y-64275D01*
X52891Y-64258D01*
X52987Y-64220D01*
X53074Y-64165D01*
X53149Y-64094D01*
X53208Y-64010D01*
X53250Y-63916D01*
X53250Y-63915D01*
X53280Y-63991D01*
X53336Y-64077D01*
X53408Y-64151D01*
X53492Y-64210D01*
X53586Y-64251D01*
X53687Y-64273D01*
X53790Y-64275D01*
X53891Y-64258D01*
X53987Y-64220D01*
X54074Y-64165D01*
X54149Y-64094D01*
X54208Y-64010D01*
X54250Y-63916D01*
X54273Y-63816D01*
X54275Y-63698D01*
X54255Y-63597D01*
X54215Y-63502D01*
X54158Y-63416D01*
X54086Y-63343D01*
X54000Y-63285D01*
X53905Y-63246D01*
X53805Y-63225D01*
X53702Y-63224D01*
X53601Y-63243D01*
X53505Y-63282D01*
X53419Y-63338D01*
X53345Y-63410D01*
X53287Y-63495D01*
X53249Y-63584D01*
X53215Y-63502D01*
X53158Y-63416D01*
X53086Y-63343D01*
X53000Y-63285D01*
X52905Y-63246D01*
X52831Y-63230D01*
X52610Y-63009D01*
X52610Y-62006D01*
X52675Y-62022D01*
X52777Y-62026D01*
X52879Y-62011D01*
X52976Y-61976D01*
X53018Y-61954D01*
X53041Y-61862D01*
X52750Y-61570D01*
X52744Y-61576D01*
X52673Y-61505D01*
X52679Y-61500D01*
X52673Y-61494D01*
X52744Y-61423D01*
X52750Y-61429D01*
X53041Y-61137D01*
X53018Y-61045D01*
X52924Y-61002D01*
X52824Y-60977D01*
X52722Y-60973D01*
X52620Y-60988D01*
X52610Y-60992D01*
X52610Y-46776D01*
X53568Y-45817D01*
X62817Y-45817D01*
X62817Y-47492D01*
X62821Y-47531D01*
X62825Y-47570D01*
X62825Y-47573D01*
X62825Y-47575D01*
X62837Y-47612D01*
X62848Y-47650D01*
X62849Y-47652D01*
X62849Y-47654D01*
X62868Y-47689D01*
X62886Y-47724D01*
X62887Y-47726D01*
X62888Y-47727D01*
X62913Y-47758D01*
X62938Y-47789D01*
X62941Y-47792D01*
X62941Y-47792D01*
X62941Y-47792D01*
X62942Y-47793D01*
X68481Y-53332D01*
X68492Y-53395D01*
X68530Y-53491D01*
X68586Y-53577D01*
X68658Y-53651D01*
X68742Y-53710D01*
X68836Y-53751D01*
X68937Y-53773D01*
X69040Y-53775D01*
X69141Y-53758D01*
X69237Y-53720D01*
X69324Y-53665D01*
X69399Y-53594D01*
X69458Y-53510D01*
X69500Y-53416D01*
X69500Y-53415D01*
X69530Y-53491D01*
X69586Y-53577D01*
X69658Y-53651D01*
X69742Y-53710D01*
X69836Y-53751D01*
X69937Y-53773D01*
X70040Y-53775D01*
X70141Y-53758D01*
X70237Y-53720D01*
X70324Y-53665D01*
X70399Y-53594D01*
X70458Y-53510D01*
X70500Y-53416D01*
X70523Y-53316D01*
X70525Y-53198D01*
X70505Y-53097D01*
X70465Y-53002D01*
X70408Y-52916D01*
X70336Y-52843D01*
X70250Y-52785D01*
X70155Y-52746D01*
X70055Y-52725D01*
X69952Y-52724D01*
X69851Y-52743D01*
X69755Y-52782D01*
X69669Y-52838D01*
X69595Y-52910D01*
X69537Y-52995D01*
X69499Y-53084D01*
X69465Y-53002D01*
X69408Y-52916D01*
X69336Y-52843D01*
X69291Y-52813D01*
X69291Y-51612D01*
X69000Y-51320D01*
X68929Y-51391D01*
X68929Y-51250D01*
X68637Y-50958D01*
X68545Y-50981D01*
X68502Y-51075D01*
X68477Y-51175D01*
X68473Y-51277D01*
X68488Y-51379D01*
X68523Y-51476D01*
X68545Y-51518D01*
X68637Y-51541D01*
X68929Y-51250D01*
X68929Y-51391D01*
X68708Y-51612D01*
X68731Y-51704D01*
X68825Y-51747D01*
X68925Y-51772D01*
X69027Y-51776D01*
X69129Y-51761D01*
X69226Y-51726D01*
X69268Y-51704D01*
X69291Y-51612D01*
X69291Y-52813D01*
X69250Y-52785D01*
X69155Y-52746D01*
X69081Y-52730D01*
X68100Y-51748D01*
X68100Y-44691D01*
X68077Y-44575D01*
X68032Y-44466D01*
X67967Y-44368D01*
X67925Y-44326D01*
X67925Y-44250D01*
X67921Y-44210D01*
X67917Y-44171D01*
X67917Y-44169D01*
X67916Y-44167D01*
X67905Y-44129D01*
X67894Y-44092D01*
X67893Y-44090D01*
X67892Y-44088D01*
X67874Y-44053D01*
X67856Y-44018D01*
X67855Y-44016D01*
X67853Y-44014D01*
X67829Y-43984D01*
X67804Y-43953D01*
X67801Y-43950D01*
X67801Y-43950D01*
X67801Y-43950D01*
X67800Y-43949D01*
X66099Y-42248D01*
X66100Y-42191D01*
X66077Y-42075D01*
X66032Y-41966D01*
X65967Y-41868D01*
X65884Y-41785D01*
X65786Y-41719D01*
X65678Y-41674D01*
X65563Y-41650D01*
X65445Y-41649D01*
X65329Y-41671D01*
X65220Y-41715D01*
X65122Y-41780D01*
X65038Y-41862D01*
X64971Y-41959D01*
X64925Y-42067D01*
X64900Y-42182D01*
X64899Y-42300D01*
X64920Y-42416D01*
X64963Y-42525D01*
X65027Y-42624D01*
X65109Y-42709D01*
X65205Y-42776D01*
X65313Y-42823D01*
X65428Y-42848D01*
X65499Y-42850D01*
X67027Y-44378D01*
X66971Y-44459D01*
X66925Y-44567D01*
X66900Y-44682D01*
X66899Y-44800D01*
X66920Y-44916D01*
X66963Y-45025D01*
X67027Y-45124D01*
X67109Y-45209D01*
X67205Y-45276D01*
X67313Y-45323D01*
X67428Y-45348D01*
X67546Y-45351D01*
X67662Y-45330D01*
X67771Y-45288D01*
X67871Y-45225D01*
X67956Y-45143D01*
X68024Y-45047D01*
X68072Y-44940D01*
X68098Y-44825D01*
X68100Y-44691D01*
X68100Y-51748D01*
X63667Y-47316D01*
X63667Y-45392D01*
X63667Y-41183D01*
X69332Y-35518D01*
X69391Y-35508D01*
X69487Y-35470D01*
X69574Y-35415D01*
X69649Y-35344D01*
X69708Y-35260D01*
X69750Y-35166D01*
X69750Y-35165D01*
X69780Y-35241D01*
X69836Y-35327D01*
X69908Y-35401D01*
X69992Y-35460D01*
X70086Y-35501D01*
X70187Y-35523D01*
X70290Y-35525D01*
X70391Y-35508D01*
X70487Y-35470D01*
X70574Y-35415D01*
X70649Y-35344D01*
X70708Y-35260D01*
X70750Y-35166D01*
X70773Y-35066D01*
X70775Y-34948D01*
X70775Y-50825D01*
X70308Y-50825D01*
X70250Y-50785D01*
X70155Y-50746D01*
X70055Y-50725D01*
X69952Y-50724D01*
X69851Y-50743D01*
X69755Y-50782D01*
X69669Y-50838D01*
X69595Y-50910D01*
X69537Y-50995D01*
X69499Y-51086D01*
X69476Y-51023D01*
X69454Y-50981D01*
X69362Y-50958D01*
X69291Y-51029D01*
X69291Y-50887D01*
X69268Y-50795D01*
X69174Y-50752D01*
X69074Y-50727D01*
X68972Y-50723D01*
X68870Y-50738D01*
X68773Y-50773D01*
X68731Y-50795D01*
X68708Y-50887D01*
X69000Y-51179D01*
X69291Y-50887D01*
X69291Y-51029D01*
X69070Y-51250D01*
X69362Y-51541D01*
X69454Y-51518D01*
X69497Y-51424D01*
X69500Y-51414D01*
X69530Y-51491D01*
X69586Y-51577D01*
X69658Y-51651D01*
X69742Y-51710D01*
X69836Y-51751D01*
X69937Y-51773D01*
X70040Y-51775D01*
X70141Y-51758D01*
X70237Y-51720D01*
X70310Y-51675D01*
X72576Y-51675D01*
X72609Y-51709D01*
X72668Y-51750D01*
X72622Y-51780D01*
X72538Y-51862D01*
X72471Y-51959D01*
X72425Y-52067D01*
X72400Y-52182D01*
X72399Y-52300D01*
X72420Y-52416D01*
X72463Y-52525D01*
X72527Y-52624D01*
X72565Y-52664D01*
X72532Y-52678D01*
X72491Y-52705D01*
X72456Y-52739D01*
X72429Y-52780D01*
X72410Y-52825D01*
X72400Y-52873D01*
X72399Y-52922D01*
X72399Y-53624D01*
X72409Y-53672D01*
X72428Y-53717D01*
X72455Y-53758D01*
X72489Y-53793D01*
X72500Y-53800D01*
X72500Y-59347D01*
X72417Y-59347D01*
X72371Y-59351D01*
X72325Y-59355D01*
X72323Y-59356D01*
X72320Y-59356D01*
X72276Y-59370D01*
X72232Y-59382D01*
X72229Y-59384D01*
X72227Y-59384D01*
X72186Y-59406D01*
X72145Y-59427D01*
X72143Y-59429D01*
X72141Y-59430D01*
X72105Y-59459D01*
X72069Y-59488D01*
X72065Y-59492D01*
X72065Y-59492D01*
X72065Y-59492D01*
X72064Y-59493D01*
X68049Y-63508D01*
X68032Y-63466D01*
X67967Y-63368D01*
X67884Y-63285D01*
X67786Y-63219D01*
X67678Y-63174D01*
X67563Y-63150D01*
X67501Y-63149D01*
X66500Y-62149D01*
X66470Y-62124D01*
X66440Y-62099D01*
X66438Y-62098D01*
X66436Y-62096D01*
X66401Y-62078D01*
X66367Y-62059D01*
X66365Y-62058D01*
X66363Y-62057D01*
X66325Y-62046D01*
X66288Y-62034D01*
X66286Y-62034D01*
X66284Y-62033D01*
X66244Y-62029D01*
X66205Y-62025D01*
X66201Y-62025D01*
X66201Y-62025D01*
X66201Y-62025D01*
X66200Y-62025D01*
X65925Y-62025D01*
X65925Y-61423D01*
X65956Y-61393D01*
X66024Y-61297D01*
X66072Y-61190D01*
X66098Y-61075D01*
X66100Y-60941D01*
X66077Y-60825D01*
X66032Y-60716D01*
X65967Y-60618D01*
X65884Y-60535D01*
X65786Y-60469D01*
X65678Y-60424D01*
X65563Y-60400D01*
X65445Y-60399D01*
X65329Y-60421D01*
X65220Y-60465D01*
X65122Y-60530D01*
X65038Y-60612D01*
X64971Y-60709D01*
X64925Y-60817D01*
X64900Y-60932D01*
X64899Y-61050D01*
X64920Y-61166D01*
X64963Y-61275D01*
X65027Y-61374D01*
X65075Y-61423D01*
X65075Y-62025D01*
X56618Y-62025D01*
X56581Y-62000D01*
X56621Y-61975D01*
X56706Y-61893D01*
X56774Y-61797D01*
X56822Y-61690D01*
X56848Y-61575D01*
X56849Y-61501D01*
X56926Y-61425D01*
X59910Y-61425D01*
X59928Y-61467D01*
X59955Y-61508D01*
X59989Y-61543D01*
X60030Y-61570D01*
X60075Y-61589D01*
X60123Y-61599D01*
X60172Y-61600D01*
X60874Y-61600D01*
X60922Y-61590D01*
X60967Y-61571D01*
X61008Y-61544D01*
X61043Y-61510D01*
X61070Y-61469D01*
X61089Y-61424D01*
X61099Y-61376D01*
X61100Y-61327D01*
X61100Y-60625D01*
X61090Y-60577D01*
X61071Y-60532D01*
X61044Y-60491D01*
X61010Y-60456D01*
X60969Y-60429D01*
X60924Y-60410D01*
X60876Y-60400D01*
X60827Y-60399D01*
X60125Y-60399D01*
X60077Y-60409D01*
X60032Y-60428D01*
X59991Y-60455D01*
X59956Y-60489D01*
X59929Y-60530D01*
X59910Y-60575D01*
X58626Y-60575D01*
X58626Y-57508D01*
X58616Y-57458D01*
X58616Y-48561D01*
X58581Y-48384D01*
X58512Y-48217D01*
X58412Y-48067D01*
X58285Y-47939D01*
X58136Y-47839D01*
X57970Y-47769D01*
X57793Y-47732D01*
X57613Y-47731D01*
X57436Y-47765D01*
X57268Y-47832D01*
X57118Y-47931D01*
X56989Y-48057D01*
X56887Y-48206D01*
X56816Y-48372D01*
X56778Y-48548D01*
X56776Y-48728D01*
X56808Y-48906D01*
X56875Y-49073D01*
X56972Y-49225D01*
X57098Y-49355D01*
X57246Y-49457D01*
X57411Y-49530D01*
X57587Y-49568D01*
X57767Y-49572D01*
X57945Y-49541D01*
X58113Y-49476D01*
X58265Y-49379D01*
X58396Y-49255D01*
X58500Y-49107D01*
X58573Y-48943D01*
X58613Y-48767D01*
X58616Y-48561D01*
X58616Y-57458D01*
X58591Y-57331D01*
X58522Y-57164D01*
X58422Y-57014D01*
X58295Y-56886D01*
X58146Y-56785D01*
X57979Y-56715D01*
X57803Y-56679D01*
X57622Y-56678D01*
X57445Y-56712D01*
X57278Y-56779D01*
X57127Y-56878D01*
X56999Y-57004D01*
X56897Y-57153D01*
X56826Y-57319D01*
X56788Y-57495D01*
X56786Y-57675D01*
X56818Y-57853D01*
X56885Y-58020D01*
X56982Y-58172D01*
X57107Y-58301D01*
X57256Y-58404D01*
X57421Y-58476D01*
X57597Y-58515D01*
X57777Y-58519D01*
X57955Y-58488D01*
X58123Y-58422D01*
X58275Y-58326D01*
X58405Y-58202D01*
X58509Y-58054D01*
X58583Y-57890D01*
X58623Y-57714D01*
X58626Y-57508D01*
X58626Y-60575D01*
X56750Y-60575D01*
X56710Y-60578D01*
X56671Y-60582D01*
X56669Y-60582D01*
X56667Y-60583D01*
X56629Y-60594D01*
X56592Y-60605D01*
X56590Y-60606D01*
X56588Y-60607D01*
X56553Y-60625D01*
X56518Y-60643D01*
X56516Y-60644D01*
X56514Y-60646D01*
X56484Y-60670D01*
X56453Y-60695D01*
X56450Y-60698D01*
X56450Y-60698D01*
X56450Y-60698D01*
X56449Y-60699D01*
X56249Y-60899D01*
X56195Y-60899D01*
X56079Y-60921D01*
X55970Y-60965D01*
X55872Y-61030D01*
X55826Y-61075D01*
X54058Y-61075D01*
X54000Y-61035D01*
X53905Y-60996D01*
X53805Y-60975D01*
X53702Y-60974D01*
X53601Y-60993D01*
X53505Y-61032D01*
X53419Y-61088D01*
X53345Y-61160D01*
X53287Y-61245D01*
X53249Y-61336D01*
X53226Y-61273D01*
X53204Y-61231D01*
X53112Y-61208D01*
X52820Y-61500D01*
X53112Y-61791D01*
X53204Y-61768D01*
X53247Y-61674D01*
X53250Y-61664D01*
X53280Y-61741D01*
X53336Y-61827D01*
X53408Y-61901D01*
X53492Y-61960D01*
X53586Y-62001D01*
X53687Y-62023D01*
X53790Y-62025D01*
X53891Y-62008D01*
X53987Y-61970D01*
X54060Y-61925D01*
X55826Y-61925D01*
X55859Y-61959D01*
X55918Y-62000D01*
X55872Y-62030D01*
X55788Y-62112D01*
X55721Y-62209D01*
X55675Y-62317D01*
X55650Y-62432D01*
X55649Y-62550D01*
X55670Y-62666D01*
X55713Y-62775D01*
X55777Y-62874D01*
X55815Y-62914D01*
X55782Y-62928D01*
X55741Y-62955D01*
X55706Y-62989D01*
X55679Y-63030D01*
X55660Y-63075D01*
X55650Y-63123D01*
X55649Y-63172D01*
X55649Y-63874D01*
X55659Y-63922D01*
X55678Y-63967D01*
X55705Y-64008D01*
X55739Y-64043D01*
X55780Y-64070D01*
X55825Y-64089D01*
X55873Y-64099D01*
X55922Y-64100D01*
X56624Y-64100D01*
X56672Y-64090D01*
X56717Y-64071D01*
X56758Y-64044D01*
X56793Y-64010D01*
X56800Y-64000D01*
X56817Y-64000D01*
X57621Y-64803D01*
X57657Y-64833D01*
X57692Y-64862D01*
X57694Y-64863D01*
X57697Y-64865D01*
X57737Y-64887D01*
X57778Y-64909D01*
X57780Y-64910D01*
X57783Y-64911D01*
X57827Y-64925D01*
X57871Y-64939D01*
X57873Y-64939D01*
X57876Y-64940D01*
X57922Y-64944D01*
X57968Y-64950D01*
X57973Y-64950D01*
X57973Y-64950D01*
X57973Y-64950D01*
X57975Y-64950D01*
X67814Y-64950D01*
X67860Y-64945D01*
X67906Y-64941D01*
X67909Y-64940D01*
X67911Y-64940D01*
X67956Y-64927D01*
X68000Y-64914D01*
X68002Y-64913D01*
X68005Y-64912D01*
X68046Y-64890D01*
X68087Y-64869D01*
X68089Y-64867D01*
X68091Y-64866D01*
X68127Y-64837D01*
X68163Y-64808D01*
X68167Y-64805D01*
X68167Y-64804D01*
X68167Y-64804D01*
X68168Y-64803D01*
X70224Y-62747D01*
X70223Y-62777D01*
X70238Y-62879D01*
X70273Y-62976D01*
X70295Y-63018D01*
X70387Y-63041D01*
X70679Y-62750D01*
X70673Y-62744D01*
X70744Y-62673D01*
X70750Y-62679D01*
X71041Y-62387D01*
X71018Y-62295D01*
X70924Y-62252D01*
X70824Y-62227D01*
X70747Y-62224D01*
X72624Y-60347D01*
X73000Y-60347D01*
X76090Y-60347D01*
X78000Y-62257D01*
X78000Y-62365D01*
X77985Y-62400D01*
X77975Y-62448D01*
X77974Y-62497D01*
X77974Y-63049D01*
X77984Y-63097D01*
X78003Y-63142D01*
X78030Y-63183D01*
X78064Y-63218D01*
X78105Y-63245D01*
X78150Y-63264D01*
X78198Y-63274D01*
X78247Y-63275D01*
X78799Y-63275D01*
X78847Y-63265D01*
X78892Y-63246D01*
X78933Y-63219D01*
X78968Y-63185D01*
X78995Y-63144D01*
X79014Y-63099D01*
X79024Y-63051D01*
X79025Y-63002D01*
X79025Y-62450D01*
X79015Y-62402D01*
X79000Y-62364D01*
X79000Y-62050D01*
X78995Y-62004D01*
X78991Y-61958D01*
X78990Y-61955D01*
X78990Y-61952D01*
X78977Y-61908D01*
X78964Y-61864D01*
X78963Y-61861D01*
X78962Y-61859D01*
X78940Y-61818D01*
X78919Y-61777D01*
X78917Y-61775D01*
X78916Y-61773D01*
X78887Y-61737D01*
X78858Y-61701D01*
X78854Y-61697D01*
X78854Y-61697D01*
X78854Y-61697D01*
X78853Y-61696D01*
X77850Y-60692D01*
X77850Y-53191D01*
X77827Y-53075D01*
X77782Y-52966D01*
X77717Y-52868D01*
X77634Y-52785D01*
X77536Y-52719D01*
X77428Y-52674D01*
X77313Y-52650D01*
X77195Y-52649D01*
X77079Y-52671D01*
X76970Y-52715D01*
X76872Y-52780D01*
X76788Y-52862D01*
X76721Y-52959D01*
X76675Y-53067D01*
X76650Y-53182D01*
X76649Y-53300D01*
X76670Y-53416D01*
X76713Y-53525D01*
X76777Y-53624D01*
X76859Y-53709D01*
X76955Y-53776D01*
X77063Y-53823D01*
X77178Y-53848D01*
X77296Y-53851D01*
X77412Y-53830D01*
X77521Y-53788D01*
X77621Y-53725D01*
X77706Y-53643D01*
X77774Y-53547D01*
X77822Y-53440D01*
X77848Y-53325D01*
X77850Y-53191D01*
X77850Y-60692D01*
X76650Y-59493D01*
X76614Y-59464D01*
X76579Y-59434D01*
X76577Y-59433D01*
X76575Y-59431D01*
X76534Y-59409D01*
X76494Y-59387D01*
X76491Y-59386D01*
X76489Y-59385D01*
X76445Y-59372D01*
X76401Y-59358D01*
X76398Y-59357D01*
X76395Y-59356D01*
X76350Y-59352D01*
X76304Y-59347D01*
X76298Y-59347D01*
X76298Y-59347D01*
X76298Y-59347D01*
X76297Y-59347D01*
X75366Y-59347D01*
X75366Y-57061D01*
X75331Y-56884D01*
X75262Y-56717D01*
X75162Y-56567D01*
X75035Y-56439D01*
X74886Y-56339D01*
X74720Y-56269D01*
X74543Y-56232D01*
X74363Y-56231D01*
X74186Y-56265D01*
X74018Y-56332D01*
X73868Y-56431D01*
X73739Y-56557D01*
X73637Y-56706D01*
X73566Y-56872D01*
X73528Y-57048D01*
X73526Y-57228D01*
X73558Y-57406D01*
X73625Y-57573D01*
X73722Y-57725D01*
X73848Y-57855D01*
X73996Y-57957D01*
X74161Y-58030D01*
X74337Y-58068D01*
X74517Y-58072D01*
X74695Y-58041D01*
X74863Y-57976D01*
X75015Y-57879D01*
X75146Y-57755D01*
X75250Y-57607D01*
X75323Y-57443D01*
X75363Y-57267D01*
X75366Y-57061D01*
X75366Y-59347D01*
X73500Y-59347D01*
X73500Y-53800D01*
X73508Y-53794D01*
X73543Y-53760D01*
X73570Y-53719D01*
X73589Y-53674D01*
X73599Y-53626D01*
X73600Y-53577D01*
X73600Y-52875D01*
X73590Y-52827D01*
X73571Y-52782D01*
X73544Y-52741D01*
X73510Y-52706D01*
X73469Y-52679D01*
X73434Y-52664D01*
X73456Y-52643D01*
X73469Y-52625D01*
X82250Y-52625D01*
X83023Y-52625D01*
X83649Y-53250D01*
X83649Y-53300D01*
X83670Y-53416D01*
X83713Y-53525D01*
X83777Y-53624D01*
X83859Y-53709D01*
X83955Y-53776D01*
X84063Y-53823D01*
X84178Y-53848D01*
X84296Y-53851D01*
X84412Y-53830D01*
X84521Y-53788D01*
X84621Y-53725D01*
X84706Y-53643D01*
X84774Y-53547D01*
X84822Y-53440D01*
X84848Y-53325D01*
X84850Y-53191D01*
X84850Y-56836D01*
X84781Y-56805D01*
X84710Y-56875D01*
X84710Y-56734D01*
X84658Y-56618D01*
X84525Y-56551D01*
X84381Y-56511D01*
X84232Y-56500D01*
X84083Y-56518D01*
X83941Y-56565D01*
X83841Y-56618D01*
X83789Y-56734D01*
X84250Y-57195D01*
X84710Y-56734D01*
X84710Y-56875D01*
X84320Y-57265D01*
X84781Y-57726D01*
X84897Y-57674D01*
X84964Y-57540D01*
X85004Y-57396D01*
X85015Y-57247D01*
X85015Y-59398D01*
X84997Y-59381D01*
X85009Y-59330D01*
X85011Y-59159D01*
X84982Y-59012D01*
X84925Y-58874D01*
X84843Y-58750D01*
X84737Y-58644D01*
X84710Y-58625D01*
X84710Y-57796D01*
X84250Y-57336D01*
X84179Y-57407D01*
X84179Y-57265D01*
X83718Y-56805D01*
X83602Y-56857D01*
X83535Y-56990D01*
X83495Y-57134D01*
X83484Y-57283D01*
X83502Y-57432D01*
X83549Y-57573D01*
X83602Y-57674D01*
X83718Y-57726D01*
X84179Y-57265D01*
X84179Y-57407D01*
X83789Y-57796D01*
X83841Y-57913D01*
X83974Y-57980D01*
X84118Y-58019D01*
X84267Y-58031D01*
X84416Y-58012D01*
X84558Y-57966D01*
X84658Y-57913D01*
X84710Y-57796D01*
X84710Y-58625D01*
X84614Y-58560D01*
X84476Y-58502D01*
X84330Y-58472D01*
X84180Y-58471D01*
X84033Y-58499D01*
X83895Y-58555D01*
X83770Y-58637D01*
X83663Y-58742D01*
X83579Y-58865D01*
X83520Y-59002D01*
X83489Y-59148D01*
X83487Y-59298D01*
X83514Y-59445D01*
X83569Y-59584D01*
X83650Y-59709D01*
X83753Y-59817D01*
X83876Y-59902D01*
X84013Y-59962D01*
X84159Y-59994D01*
X84308Y-59997D01*
X84396Y-59981D01*
X84636Y-60221D01*
X84636Y-61357D01*
X84614Y-61342D01*
X84476Y-61284D01*
X84330Y-61254D01*
X84180Y-61253D01*
X84033Y-61281D01*
X83895Y-61337D01*
X83770Y-61419D01*
X83663Y-61523D01*
X83579Y-61646D01*
X83520Y-61784D01*
X83489Y-61930D01*
X83487Y-62079D01*
X83514Y-62226D01*
X83569Y-62365D01*
X83650Y-62491D01*
X83753Y-62598D01*
X83876Y-62683D01*
X84013Y-62743D01*
X84159Y-62775D01*
X84308Y-62778D01*
X84455Y-62753D01*
X84595Y-62699D01*
X84636Y-62673D01*
X84636Y-63325D01*
X84525Y-63269D01*
X84381Y-63230D01*
X84232Y-63218D01*
X84083Y-63237D01*
X83941Y-63283D01*
X83841Y-63336D01*
X83789Y-63453D01*
X84250Y-63913D01*
X84255Y-63907D01*
X84326Y-63978D01*
X84320Y-63984D01*
X84326Y-63989D01*
X84255Y-64060D01*
X84250Y-64054D01*
X84179Y-64125D01*
X84179Y-63984D01*
X83718Y-63523D01*
X83602Y-63575D01*
X83535Y-63709D01*
X83495Y-63853D01*
X83484Y-64002D01*
X83502Y-64150D01*
X83549Y-64292D01*
X83602Y-64392D01*
X83718Y-64444D01*
X84179Y-63984D01*
X84179Y-64125D01*
X83789Y-64515D01*
X83841Y-64631D01*
X83974Y-64698D01*
X84118Y-64738D01*
X84267Y-64749D01*
X84416Y-64731D01*
X84558Y-64684D01*
X84636Y-64643D01*
X84636Y-67987D01*
X84601Y-67993D01*
X84505Y-68032D01*
X84419Y-68088D01*
X84345Y-68160D01*
X84287Y-68245D01*
X84247Y-68340D01*
X84225Y-68441D01*
X84224Y-68544D01*
X84242Y-68645D01*
X84280Y-68741D01*
X84336Y-68827D01*
X84408Y-68901D01*
X84492Y-68960D01*
X84584Y-69000D01*
X84505Y-69032D01*
X84440Y-69075D01*
X83694Y-69075D01*
X83655Y-69078D01*
X83616Y-69082D01*
X83614Y-69082D01*
X83612Y-69083D01*
X83574Y-69094D01*
X83537Y-69105D01*
X83535Y-69106D01*
X83532Y-69107D01*
X83498Y-69125D01*
X83463Y-69143D01*
X83461Y-69144D01*
X83459Y-69146D01*
X83429Y-69170D01*
X83398Y-69195D01*
X83395Y-69198D01*
X83395Y-69198D01*
X83395Y-69198D01*
X83394Y-69199D01*
X82984Y-69609D01*
X82984Y-67927D01*
X82956Y-67784D01*
X82900Y-67649D01*
X82820Y-67528D01*
X82717Y-67425D01*
X82596Y-67344D01*
X82462Y-67287D01*
X82320Y-67258D01*
X82174Y-67257D01*
X82031Y-67284D01*
X81896Y-67339D01*
X81774Y-67418D01*
X81670Y-67520D01*
X81588Y-67640D01*
X81531Y-67774D01*
X81501Y-67916D01*
X81499Y-68062D01*
X81525Y-68205D01*
X81578Y-68340D01*
X81657Y-68463D01*
X81758Y-68567D01*
X81878Y-68650D01*
X82011Y-68709D01*
X82153Y-68740D01*
X82299Y-68743D01*
X82442Y-68718D01*
X82578Y-68665D01*
X82701Y-68587D01*
X82806Y-68487D01*
X82890Y-68368D01*
X82949Y-68235D01*
X82981Y-68093D01*
X82984Y-67927D01*
X82984Y-69609D01*
X82372Y-70221D01*
X82320Y-70211D01*
X82174Y-70210D01*
X82031Y-70237D01*
X81896Y-70291D01*
X81774Y-70371D01*
X81670Y-70473D01*
X81588Y-70593D01*
X81531Y-70727D01*
X81501Y-70869D01*
X81499Y-71015D01*
X81525Y-71158D01*
X81578Y-71293D01*
X81657Y-71415D01*
X81758Y-71520D01*
X81878Y-71603D01*
X82011Y-71661D01*
X82153Y-71693D01*
X82299Y-71696D01*
X82442Y-71671D01*
X82578Y-71618D01*
X82701Y-71540D01*
X82806Y-71440D01*
X82890Y-71321D01*
X82949Y-71188D01*
X82981Y-71046D01*
X82984Y-70879D01*
X82972Y-70822D01*
X83870Y-69925D01*
X84441Y-69925D01*
X84492Y-69960D01*
X84586Y-70001D01*
X84687Y-70023D01*
X84790Y-70025D01*
X84891Y-70008D01*
X84987Y-69970D01*
X85074Y-69915D01*
X85149Y-69844D01*
X85208Y-69760D01*
X85250Y-69666D01*
X85273Y-69566D01*
X85275Y-69448D01*
X85255Y-69347D01*
X85215Y-69252D01*
X85158Y-69166D01*
X85086Y-69093D01*
X85000Y-69035D01*
X84914Y-68999D01*
X84987Y-68970D01*
X85074Y-68915D01*
X85149Y-68844D01*
X85208Y-68760D01*
X85250Y-68666D01*
X85269Y-68581D01*
X85361Y-68489D01*
X85386Y-68459D01*
X85411Y-68429D01*
X85412Y-68427D01*
X85414Y-68425D01*
X85432Y-68390D01*
X85451Y-68356D01*
X85452Y-68354D01*
X85453Y-68352D01*
X85464Y-68314D01*
X85476Y-68277D01*
X85477Y-68275D01*
X85477Y-68272D01*
X85481Y-68233D01*
X85486Y-68194D01*
X85486Y-68190D01*
X85486Y-68190D01*
X85486Y-68190D01*
X85486Y-68188D01*
X85486Y-71510D01*
X85453Y-71571D01*
X85390Y-71783D01*
X85369Y-72002D01*
X85391Y-72222D01*
X85455Y-72433D01*
X85556Y-72623D01*
X85710Y-72718D01*
X86429Y-72000D01*
X86429Y-72141D01*
X85781Y-72789D01*
X85876Y-72943D01*
X86071Y-73046D01*
X86283Y-73109D01*
X86502Y-73130D01*
X86722Y-73108D01*
X86933Y-73044D01*
X87123Y-72943D01*
X87218Y-72789D01*
X87218Y-73220D01*
X79025Y-73220D01*
X79025Y-65252D01*
X79025Y-64700D01*
X79015Y-64652D01*
X78996Y-64607D01*
X78969Y-64566D01*
X78935Y-64531D01*
X78894Y-64504D01*
X78849Y-64485D01*
X78801Y-64475D01*
X78752Y-64474D01*
X78200Y-64474D01*
X78152Y-64484D01*
X78107Y-64503D01*
X78066Y-64530D01*
X78031Y-64564D01*
X78004Y-64605D01*
X77985Y-64650D01*
X77975Y-64698D01*
X77974Y-64747D01*
X77974Y-65299D01*
X77984Y-65347D01*
X78003Y-65392D01*
X78030Y-65433D01*
X78064Y-65468D01*
X78105Y-65495D01*
X78150Y-65514D01*
X78198Y-65524D01*
X78247Y-65525D01*
X78799Y-65525D01*
X78847Y-65515D01*
X78892Y-65496D01*
X78933Y-65469D01*
X78968Y-65435D01*
X78995Y-65394D01*
X79014Y-65349D01*
X79024Y-65301D01*
X79025Y-65252D01*
X79025Y-73220D01*
X76960Y-73220D01*
X76960Y-70879D01*
X76932Y-70737D01*
X76876Y-70602D01*
X76796Y-70481D01*
X76693Y-70378D01*
X76573Y-70296D01*
X76439Y-70240D01*
X76296Y-70211D01*
X76183Y-70210D01*
X75706Y-69734D01*
X75671Y-69704D01*
X75635Y-69675D01*
X75633Y-69673D01*
X75631Y-69672D01*
X75590Y-69650D01*
X75550Y-69628D01*
X75547Y-69627D01*
X75545Y-69625D01*
X75501Y-69612D01*
X75457Y-69598D01*
X75454Y-69598D01*
X75452Y-69597D01*
X75406Y-69592D01*
X75360Y-69587D01*
X75355Y-69587D01*
X75355Y-69587D01*
X75355Y-69587D01*
X75353Y-69587D01*
X75199Y-69587D01*
X75204Y-69585D01*
X75239Y-69566D01*
X75241Y-69565D01*
X75243Y-69564D01*
X75273Y-69539D01*
X75304Y-69515D01*
X75307Y-69512D01*
X75307Y-69512D01*
X75307Y-69512D01*
X75308Y-69511D01*
X76088Y-68731D01*
X76130Y-68740D01*
X76275Y-68743D01*
X76419Y-68718D01*
X76554Y-68665D01*
X76677Y-68587D01*
X76783Y-68487D01*
X76866Y-68368D01*
X76926Y-68235D01*
X76958Y-68093D01*
X76960Y-67927D01*
X76932Y-67784D01*
X76876Y-67649D01*
X76796Y-67528D01*
X76693Y-67425D01*
X76573Y-67344D01*
X76439Y-67287D01*
X76296Y-67258D01*
X76150Y-67257D01*
X76025Y-67281D01*
X76025Y-64948D01*
X76025Y-62698D01*
X76005Y-62597D01*
X75965Y-62502D01*
X75908Y-62416D01*
X75836Y-62343D01*
X75750Y-62285D01*
X75655Y-62246D01*
X75555Y-62225D01*
X75452Y-62224D01*
X75351Y-62243D01*
X75255Y-62282D01*
X75169Y-62338D01*
X75095Y-62410D01*
X75037Y-62495D01*
X74997Y-62590D01*
X74975Y-62691D01*
X74974Y-62794D01*
X74992Y-62895D01*
X75030Y-62991D01*
X75086Y-63077D01*
X75158Y-63151D01*
X75242Y-63210D01*
X75336Y-63251D01*
X75437Y-63273D01*
X75540Y-63275D01*
X75641Y-63258D01*
X75737Y-63220D01*
X75824Y-63165D01*
X75899Y-63094D01*
X75958Y-63010D01*
X76000Y-62916D01*
X76023Y-62816D01*
X76025Y-62698D01*
X76025Y-64948D01*
X76005Y-64847D01*
X75965Y-64752D01*
X75908Y-64666D01*
X75836Y-64593D01*
X75750Y-64535D01*
X75655Y-64496D01*
X75555Y-64475D01*
X75452Y-64474D01*
X75351Y-64493D01*
X75255Y-64532D01*
X75190Y-64575D01*
X74275Y-64575D01*
X74275Y-63002D01*
X74275Y-62450D01*
X74265Y-62402D01*
X74246Y-62357D01*
X74219Y-62316D01*
X74185Y-62281D01*
X74144Y-62254D01*
X74099Y-62235D01*
X74051Y-62225D01*
X74002Y-62224D01*
X73450Y-62224D01*
X73402Y-62234D01*
X73357Y-62253D01*
X73316Y-62280D01*
X73281Y-62314D01*
X73254Y-62355D01*
X73235Y-62400D01*
X73225Y-62448D01*
X73224Y-62497D01*
X73224Y-63049D01*
X73234Y-63097D01*
X73253Y-63142D01*
X73280Y-63183D01*
X73314Y-63218D01*
X73355Y-63245D01*
X73400Y-63264D01*
X73448Y-63274D01*
X73497Y-63275D01*
X74049Y-63275D01*
X74097Y-63265D01*
X74142Y-63246D01*
X74183Y-63219D01*
X74218Y-63185D01*
X74245Y-63144D01*
X74264Y-63099D01*
X74274Y-63051D01*
X74275Y-63002D01*
X74275Y-64575D01*
X74225Y-64575D01*
X74219Y-64566D01*
X74185Y-64531D01*
X74144Y-64504D01*
X74099Y-64485D01*
X74051Y-64475D01*
X74002Y-64474D01*
X73450Y-64474D01*
X73402Y-64484D01*
X73357Y-64503D01*
X73316Y-64530D01*
X73281Y-64564D01*
X73254Y-64605D01*
X73235Y-64650D01*
X73225Y-64698D01*
X73224Y-64747D01*
X73224Y-65299D01*
X73234Y-65347D01*
X73253Y-65392D01*
X73280Y-65433D01*
X73314Y-65468D01*
X73355Y-65495D01*
X73400Y-65514D01*
X73448Y-65524D01*
X73497Y-65525D01*
X74049Y-65525D01*
X74097Y-65515D01*
X74142Y-65496D01*
X74183Y-65469D01*
X74218Y-65435D01*
X74225Y-65425D01*
X75191Y-65425D01*
X75242Y-65460D01*
X75336Y-65501D01*
X75437Y-65523D01*
X75540Y-65525D01*
X75641Y-65508D01*
X75737Y-65470D01*
X75824Y-65415D01*
X75899Y-65344D01*
X75958Y-65260D01*
X76000Y-65166D01*
X76023Y-65066D01*
X76025Y-64948D01*
X76025Y-67281D01*
X76007Y-67284D01*
X75873Y-67339D01*
X75751Y-67418D01*
X75647Y-67520D01*
X75565Y-67640D01*
X75507Y-67774D01*
X75477Y-67916D01*
X75475Y-68062D01*
X75487Y-68129D01*
X74992Y-68625D01*
X74992Y-67927D01*
X74963Y-67784D01*
X74908Y-67649D01*
X74827Y-67528D01*
X74725Y-67425D01*
X74604Y-67344D01*
X74470Y-67287D01*
X74327Y-67258D01*
X74182Y-67257D01*
X74039Y-67284D01*
X73904Y-67339D01*
X73782Y-67418D01*
X73678Y-67520D01*
X73596Y-67640D01*
X73539Y-67774D01*
X73508Y-67916D01*
X73506Y-68062D01*
X73533Y-68205D01*
X73586Y-68340D01*
X73665Y-68463D01*
X73766Y-68567D01*
X73886Y-68650D01*
X74019Y-68709D01*
X74161Y-68740D01*
X74307Y-68743D01*
X74450Y-68718D01*
X74586Y-68665D01*
X74709Y-68587D01*
X74814Y-68487D01*
X74898Y-68368D01*
X74957Y-68235D01*
X74989Y-68093D01*
X74992Y-67927D01*
X74992Y-68625D01*
X74831Y-68785D01*
X73023Y-68785D01*
X73023Y-67927D01*
X72995Y-67784D01*
X72939Y-67649D01*
X72859Y-67528D01*
X72756Y-67425D01*
X72636Y-67344D01*
X72502Y-67287D01*
X72359Y-67258D01*
X72213Y-67257D01*
X72070Y-67284D01*
X71936Y-67339D01*
X71814Y-67418D01*
X71731Y-67500D01*
X71276Y-67500D01*
X71276Y-64972D01*
X71276Y-62722D01*
X71261Y-62620D01*
X71226Y-62523D01*
X71204Y-62481D01*
X71112Y-62458D01*
X70820Y-62750D01*
X71112Y-63041D01*
X71204Y-63018D01*
X71247Y-62924D01*
X71272Y-62824D01*
X71276Y-62722D01*
X71276Y-64972D01*
X71261Y-64870D01*
X71226Y-64773D01*
X71204Y-64731D01*
X71112Y-64708D01*
X71041Y-64779D01*
X71041Y-64637D01*
X71041Y-63112D01*
X70750Y-62820D01*
X70458Y-63112D01*
X70481Y-63204D01*
X70575Y-63247D01*
X70675Y-63272D01*
X70777Y-63276D01*
X70879Y-63261D01*
X70976Y-63226D01*
X71018Y-63204D01*
X71041Y-63112D01*
X71041Y-64637D01*
X71018Y-64545D01*
X70924Y-64502D01*
X70824Y-64477D01*
X70722Y-64473D01*
X70620Y-64488D01*
X70523Y-64523D01*
X70481Y-64545D01*
X70458Y-64637D01*
X70750Y-64929D01*
X71041Y-64637D01*
X71041Y-64779D01*
X70820Y-65000D01*
X71112Y-65291D01*
X71204Y-65268D01*
X71247Y-65174D01*
X71272Y-65074D01*
X71276Y-64972D01*
X71276Y-67500D01*
X71041Y-67500D01*
X71041Y-65362D01*
X70750Y-65070D01*
X70679Y-65141D01*
X70679Y-65000D01*
X70387Y-64708D01*
X70295Y-64731D01*
X70252Y-64825D01*
X70227Y-64925D01*
X70223Y-65027D01*
X70238Y-65129D01*
X70273Y-65226D01*
X70295Y-65268D01*
X70387Y-65291D01*
X70679Y-65000D01*
X70679Y-65141D01*
X70458Y-65362D01*
X70481Y-65454D01*
X70575Y-65497D01*
X70675Y-65522D01*
X70777Y-65526D01*
X70879Y-65511D01*
X70976Y-65476D01*
X71018Y-65454D01*
X71041Y-65362D01*
X71041Y-67500D01*
X67281Y-67500D01*
X67235Y-67504D01*
X67189Y-67508D01*
X67186Y-67509D01*
X67184Y-67509D01*
X67140Y-67522D01*
X67095Y-67535D01*
X67093Y-67536D01*
X67090Y-67537D01*
X67050Y-67559D01*
X67009Y-67580D01*
X67007Y-67582D01*
X67004Y-67583D01*
X66969Y-67612D01*
X66932Y-67641D01*
X66929Y-67645D01*
X66929Y-67645D01*
X66929Y-67645D01*
X66927Y-67646D01*
X65335Y-69238D01*
X65212Y-69237D01*
X65065Y-69265D01*
X64926Y-69321D01*
X64801Y-69403D01*
X64695Y-69507D01*
X64610Y-69631D01*
X64551Y-69768D01*
X64520Y-69914D01*
X64518Y-70064D01*
X64545Y-70210D01*
X64600Y-70349D01*
X64681Y-70475D01*
X64785Y-70582D01*
X64908Y-70668D01*
X65044Y-70728D01*
X65190Y-70760D01*
X65340Y-70763D01*
X65487Y-70737D01*
X65626Y-70683D01*
X65752Y-70603D01*
X65860Y-70500D01*
X65947Y-70378D01*
X66007Y-70241D01*
X66040Y-70095D01*
X66043Y-69945D01*
X67488Y-68500D01*
X71732Y-68500D01*
X71798Y-68567D01*
X71917Y-68650D01*
X72051Y-68709D01*
X72193Y-68740D01*
X72338Y-68743D01*
X72482Y-68718D01*
X72617Y-68665D01*
X72740Y-68587D01*
X72845Y-68487D01*
X72929Y-68368D01*
X72989Y-68235D01*
X73021Y-68093D01*
X73023Y-67927D01*
X73023Y-68785D01*
X68039Y-68785D01*
X68000Y-68789D01*
X67961Y-68792D01*
X67959Y-68793D01*
X67956Y-68793D01*
X67919Y-68804D01*
X67881Y-68815D01*
X67879Y-68816D01*
X67877Y-68817D01*
X67842Y-68836D01*
X67808Y-68854D01*
X67806Y-68855D01*
X67804Y-68856D01*
X67773Y-68881D01*
X67743Y-68905D01*
X67740Y-68908D01*
X67740Y-68908D01*
X67739Y-68909D01*
X67738Y-68909D01*
X67396Y-69252D01*
X67330Y-69238D01*
X67180Y-69237D01*
X67033Y-69265D01*
X66895Y-69321D01*
X66770Y-69403D01*
X66663Y-69507D01*
X66579Y-69631D01*
X66520Y-69768D01*
X66489Y-69914D01*
X66487Y-70064D01*
X66514Y-70210D01*
X66569Y-70349D01*
X66650Y-70475D01*
X66753Y-70582D01*
X66876Y-70668D01*
X67013Y-70728D01*
X67159Y-70760D01*
X67308Y-70763D01*
X67455Y-70737D01*
X67595Y-70683D01*
X67721Y-70603D01*
X67829Y-70500D01*
X67915Y-70378D01*
X67976Y-70241D01*
X68009Y-70095D01*
X68011Y-69925D01*
X67997Y-69853D01*
X68215Y-69635D01*
X68545Y-69635D01*
X68488Y-69768D01*
X68457Y-69914D01*
X68455Y-70064D01*
X68482Y-70210D01*
X68537Y-70349D01*
X68618Y-70475D01*
X68722Y-70582D01*
X68845Y-70668D01*
X68981Y-70728D01*
X69127Y-70760D01*
X69277Y-70763D01*
X69424Y-70737D01*
X69563Y-70683D01*
X69689Y-70603D01*
X69797Y-70500D01*
X69798Y-70500D01*
X71121Y-70500D01*
X71539Y-70918D01*
X71538Y-71015D01*
X71564Y-71158D01*
X71618Y-71293D01*
X71697Y-71415D01*
X71798Y-71520D01*
X71917Y-71603D01*
X72051Y-71661D01*
X72193Y-71693D01*
X72338Y-71696D01*
X72482Y-71671D01*
X72617Y-71618D01*
X72740Y-71540D01*
X72845Y-71440D01*
X72929Y-71321D01*
X72989Y-71188D01*
X73021Y-71046D01*
X73023Y-70918D01*
X73353Y-70587D01*
X73600Y-70587D01*
X73596Y-70593D01*
X73539Y-70727D01*
X73508Y-70869D01*
X73506Y-71015D01*
X73533Y-71158D01*
X73586Y-71293D01*
X73665Y-71415D01*
X73766Y-71520D01*
X73886Y-71603D01*
X74019Y-71661D01*
X74161Y-71693D01*
X74307Y-71696D01*
X74450Y-71671D01*
X74586Y-71618D01*
X74709Y-71540D01*
X74814Y-71440D01*
X74898Y-71321D01*
X74957Y-71188D01*
X74989Y-71046D01*
X74992Y-70879D01*
X74963Y-70737D01*
X74908Y-70602D01*
X74898Y-70587D01*
X75146Y-70587D01*
X75476Y-70918D01*
X75475Y-71015D01*
X75501Y-71158D01*
X75555Y-71293D01*
X75634Y-71415D01*
X75735Y-71520D01*
X75854Y-71603D01*
X75988Y-71661D01*
X76130Y-71693D01*
X76275Y-71696D01*
X76419Y-71671D01*
X76554Y-71618D01*
X76677Y-71540D01*
X76783Y-71440D01*
X76866Y-71321D01*
X76926Y-71188D01*
X76958Y-71046D01*
X76960Y-70879D01*
X76960Y-73220D01*
X58616Y-73220D01*
X58616Y-67311D01*
X58581Y-67134D01*
X58512Y-66967D01*
X58412Y-66817D01*
X58285Y-66689D01*
X58136Y-66589D01*
X57970Y-66519D01*
X57793Y-66482D01*
X57613Y-66481D01*
X57436Y-66515D01*
X57268Y-66582D01*
X57118Y-66681D01*
X56989Y-66807D01*
X56887Y-66956D01*
X56816Y-67122D01*
X56778Y-67298D01*
X56776Y-67478D01*
X56808Y-67656D01*
X56875Y-67823D01*
X56972Y-67975D01*
X57098Y-68105D01*
X57246Y-68207D01*
X57411Y-68280D01*
X57587Y-68318D01*
X57767Y-68322D01*
X57945Y-68291D01*
X58113Y-68226D01*
X58265Y-68129D01*
X58396Y-68005D01*
X58500Y-67857D01*
X58573Y-67693D01*
X58613Y-67517D01*
X58616Y-67311D01*
X58616Y-73220D01*
X52630Y-73220D01*
X52630Y-71997D01*
X52608Y-71777D01*
X52544Y-71566D01*
X52443Y-71376D01*
X52289Y-71281D01*
X52218Y-71351D01*
X52218Y-71210D01*
X52123Y-71056D01*
X51928Y-70953D01*
X51716Y-70890D01*
X51497Y-70869D01*
X51277Y-70891D01*
X51066Y-70955D01*
X50876Y-71056D01*
X50781Y-71210D01*
X51500Y-71929D01*
X52218Y-71210D01*
X52218Y-71351D01*
X51570Y-72000D01*
X52289Y-72718D01*
X52443Y-72623D01*
X52546Y-72428D01*
X52609Y-72216D01*
X52630Y-71997D01*
X52630Y-73220D01*
X52218Y-73220D01*
X52218Y-72789D01*
X51500Y-72070D01*
X50781Y-72789D01*
X50876Y-72943D01*
X51071Y-73046D01*
X51283Y-73109D01*
X51502Y-73130D01*
X51722Y-73108D01*
X51933Y-73044D01*
X52123Y-72943D01*
X52218Y-72789D01*
X52218Y-73220D01*
X50529Y-73220D01*
X50529Y-72571D01*
X50556Y-72623D01*
X50710Y-72718D01*
X51429Y-72000D01*
X50710Y-71281D01*
X50556Y-71376D01*
X50529Y-71428D01*
X50529Y-34912D01*
X50617Y-35079D01*
X50763Y-35165D01*
X51429Y-34500D01*
X50763Y-33834D01*
X50617Y-33920D01*
X50529Y-34089D01*
X50529Y-10571D01*
X50556Y-10623D01*
X50710Y-10718D01*
X51429Y-10000D01*
X50710Y-9281D01*
X50556Y-9376D01*
X50529Y-9428D01*
X50529Y-8779D01*
X87470Y-8779D01*
X87470Y-9428D01*
X87443Y-9376D01*
X87289Y-9281D01*
X87218Y-9351D01*
X87218Y-9210D01*
X87123Y-9056D01*
X86928Y-8953D01*
X86716Y-8890D01*
X86497Y-8869D01*
X86277Y-8891D01*
X86066Y-8955D01*
X85876Y-9056D01*
X85781Y-9210D01*
X86500Y-9929D01*
X87218Y-9210D01*
X87218Y-9351D01*
X86570Y-10000D01*
X87289Y-10718D01*
X87443Y-10623D01*
X87470Y-10571D01*
X87470Y-34087D01*
X87382Y-33920D01*
X87236Y-33834D01*
X87218Y-33851D01*
X87218Y-10789D01*
X86500Y-10070D01*
X86429Y-10141D01*
X86429Y-10000D01*
X85710Y-9281D01*
X85556Y-9376D01*
X85453Y-9571D01*
X85390Y-9783D01*
X85369Y-10002D01*
X85391Y-10222D01*
X85455Y-10433D01*
X85556Y-10623D01*
X85710Y-10718D01*
X86429Y-10000D01*
X86429Y-10141D01*
X85781Y-10789D01*
X85876Y-10943D01*
X86071Y-11046D01*
X86283Y-11109D01*
X86502Y-11130D01*
X86722Y-11108D01*
X86933Y-11044D01*
X87123Y-10943D01*
X87218Y-10789D01*
X87218Y-33851D01*
X87165Y-33905D01*
X87165Y-33763D01*
X87079Y-33617D01*
X86896Y-33522D01*
X86699Y-33463D01*
X86494Y-33444D01*
X86289Y-33466D01*
X86092Y-33526D01*
X85920Y-33617D01*
X85834Y-33763D01*
X86500Y-34429D01*
X87165Y-33763D01*
X87165Y-33905D01*
X86570Y-34500D01*
X87236Y-35165D01*
X87382Y-35079D01*
X87470Y-34910D01*
X87470Y-71428D01*
X87443Y-71376D01*
X87289Y-71281D01*
X87218Y-71351D01*
X87218Y-71210D01*
X87165Y-71124D01*
X87165Y-35236D01*
X86500Y-34570D01*
X86429Y-34641D01*
X86429Y-34500D01*
X85763Y-33834D01*
X85617Y-33920D01*
X85522Y-34103D01*
X85463Y-34300D01*
X85444Y-34505D01*
X85466Y-34710D01*
X85526Y-34907D01*
X85617Y-35079D01*
X85763Y-35165D01*
X86429Y-34500D01*
X86429Y-34641D01*
X85834Y-35236D01*
X85920Y-35382D01*
X86103Y-35477D01*
X86300Y-35536D01*
X86505Y-35555D01*
X86710Y-35533D01*
X86907Y-35473D01*
X87079Y-35382D01*
X87165Y-35236D01*
X87165Y-71124D01*
X87123Y-71056D01*
X86928Y-70953D01*
X86716Y-70890D01*
X86497Y-70869D01*
X86277Y-70891D01*
X86066Y-70955D01*
X85876Y-71056D01*
X85781Y-71210D01*
X86500Y-71929D01*
X87218Y-71210D01*
X87218Y-71351D01*
X86570Y-72000D01*
X87289Y-72718D01*
X87443Y-72623D01*
X87470Y-72571D01*
X87470Y-73220D01*
M02*
