G04 (created by PCBNEW (2013-mar-13)-testing) date Thu 01 Aug 2013 10:49:39 PM PDT*
%MOIN*%
G04 Gerber Fmt 3.4, Leading zero omitted, Abs format*
%FSLAX34Y34*%
G01*
G70*
G90*
G04 APERTURE LIST*
%ADD10C,0.003937*%
%ADD11C,0.011811*%
%ADD12C,0.012000*%
%ADD13C,0.005906*%
%ADD14C,0.015000*%
%ADD15C,0.006000*%
%ADD16C,0.009843*%
%ADD17C,0.010000*%
%ADD18C,0.008000*%
G04 APERTURE END LIST*
G54D10*
G54D11*
X57689Y-32667D02*
X57492Y-32385D01*
X57352Y-32667D02*
X57352Y-32076D01*
X57577Y-32076D01*
X57633Y-32104D01*
X57661Y-32132D01*
X57689Y-32189D01*
X57689Y-32273D01*
X57661Y-32329D01*
X57633Y-32357D01*
X57577Y-32385D01*
X57352Y-32385D01*
X58027Y-32667D02*
X57970Y-32639D01*
X57942Y-32610D01*
X57914Y-32554D01*
X57914Y-32385D01*
X57942Y-32329D01*
X57970Y-32301D01*
X58027Y-32273D01*
X58111Y-32273D01*
X58167Y-32301D01*
X58195Y-32329D01*
X58223Y-32385D01*
X58223Y-32554D01*
X58195Y-32610D01*
X58167Y-32639D01*
X58111Y-32667D01*
X58027Y-32667D01*
X58477Y-32667D02*
X58477Y-32076D01*
X58477Y-32301D02*
X58533Y-32273D01*
X58645Y-32273D01*
X58702Y-32301D01*
X58730Y-32329D01*
X58758Y-32385D01*
X58758Y-32554D01*
X58730Y-32610D01*
X58702Y-32639D01*
X58645Y-32667D01*
X58533Y-32667D01*
X58477Y-32639D01*
X59236Y-32639D02*
X59180Y-32667D01*
X59067Y-32667D01*
X59011Y-32639D01*
X58983Y-32582D01*
X58983Y-32357D01*
X59011Y-32301D01*
X59067Y-32273D01*
X59180Y-32273D01*
X59236Y-32301D01*
X59264Y-32357D01*
X59264Y-32414D01*
X58983Y-32470D01*
X59517Y-32667D02*
X59517Y-32273D01*
X59517Y-32385D02*
X59545Y-32329D01*
X59573Y-32301D01*
X59630Y-32273D01*
X59686Y-32273D01*
X59798Y-32273D02*
X60023Y-32273D01*
X59883Y-32076D02*
X59883Y-32582D01*
X59911Y-32639D01*
X59967Y-32667D01*
X60023Y-32667D01*
X60951Y-32667D02*
X60670Y-32667D01*
X60670Y-32076D01*
X61148Y-32667D02*
X61148Y-32273D01*
X61148Y-32076D02*
X61120Y-32104D01*
X61148Y-32132D01*
X61176Y-32104D01*
X61148Y-32076D01*
X61148Y-32132D01*
X61654Y-32639D02*
X61598Y-32667D01*
X61486Y-32667D01*
X61429Y-32639D01*
X61401Y-32582D01*
X61401Y-32357D01*
X61429Y-32301D01*
X61486Y-32273D01*
X61598Y-32273D01*
X61654Y-32301D01*
X61682Y-32357D01*
X61682Y-32414D01*
X61401Y-32470D01*
X61907Y-32639D02*
X61964Y-32667D01*
X62076Y-32667D01*
X62132Y-32639D01*
X62160Y-32582D01*
X62160Y-32554D01*
X62132Y-32498D01*
X62076Y-32470D01*
X61992Y-32470D01*
X61935Y-32442D01*
X61907Y-32385D01*
X61907Y-32357D01*
X61935Y-32301D01*
X61992Y-32273D01*
X62076Y-32273D01*
X62132Y-32301D01*
X62639Y-32639D02*
X62582Y-32667D01*
X62470Y-32667D01*
X62414Y-32639D01*
X62385Y-32582D01*
X62385Y-32357D01*
X62414Y-32301D01*
X62470Y-32273D01*
X62582Y-32273D01*
X62639Y-32301D01*
X62667Y-32357D01*
X62667Y-32414D01*
X62385Y-32470D01*
X62920Y-32273D02*
X62920Y-32667D01*
X62920Y-32329D02*
X62948Y-32301D01*
X63004Y-32273D01*
X63088Y-32273D01*
X63145Y-32301D01*
X63173Y-32357D01*
X63173Y-32667D01*
X63370Y-32273D02*
X63595Y-32273D01*
X63454Y-32667D02*
X63454Y-32160D01*
X63482Y-32104D01*
X63538Y-32076D01*
X63595Y-32076D01*
X64016Y-32639D02*
X63960Y-32667D01*
X63848Y-32667D01*
X63792Y-32639D01*
X63763Y-32582D01*
X63763Y-32357D01*
X63792Y-32301D01*
X63848Y-32273D01*
X63960Y-32273D01*
X64016Y-32301D01*
X64045Y-32357D01*
X64045Y-32414D01*
X63763Y-32470D01*
X64382Y-32667D02*
X64326Y-32639D01*
X64298Y-32582D01*
X64298Y-32076D01*
X64860Y-32667D02*
X64860Y-32076D01*
X64860Y-32639D02*
X64804Y-32667D01*
X64691Y-32667D01*
X64635Y-32639D01*
X64607Y-32610D01*
X64579Y-32554D01*
X64579Y-32385D01*
X64607Y-32329D01*
X64635Y-32301D01*
X64691Y-32273D01*
X64804Y-32273D01*
X64860Y-32301D01*
X65563Y-32498D02*
X65844Y-32498D01*
X65507Y-32667D02*
X65704Y-32076D01*
X65901Y-32667D01*
X66097Y-32667D02*
X66097Y-32076D01*
X66435Y-32667D02*
X66182Y-32329D01*
X66435Y-32076D02*
X66097Y-32414D01*
X66941Y-32076D02*
X66829Y-32076D01*
X66772Y-32104D01*
X66744Y-32132D01*
X66688Y-32217D01*
X66660Y-32329D01*
X66660Y-32554D01*
X66688Y-32610D01*
X66716Y-32639D01*
X66772Y-32667D01*
X66885Y-32667D01*
X66941Y-32639D01*
X66969Y-32610D01*
X66997Y-32554D01*
X66997Y-32414D01*
X66969Y-32357D01*
X66941Y-32329D01*
X66885Y-32301D01*
X66772Y-32301D01*
X66716Y-32329D01*
X66688Y-32357D01*
X66660Y-32414D01*
X67532Y-32667D02*
X67250Y-32667D01*
X67250Y-32076D01*
X37408Y-32667D02*
X37408Y-32076D01*
X37408Y-32357D02*
X37746Y-32357D01*
X37746Y-32667D02*
X37746Y-32076D01*
X38027Y-32667D02*
X38027Y-32273D01*
X38027Y-32076D02*
X37999Y-32104D01*
X38027Y-32132D01*
X38055Y-32104D01*
X38027Y-32076D01*
X38027Y-32132D01*
X38561Y-32273D02*
X38561Y-32751D01*
X38533Y-32807D01*
X38505Y-32835D01*
X38449Y-32864D01*
X38365Y-32864D01*
X38308Y-32835D01*
X38561Y-32639D02*
X38505Y-32667D01*
X38393Y-32667D01*
X38336Y-32639D01*
X38308Y-32610D01*
X38280Y-32554D01*
X38280Y-32385D01*
X38308Y-32329D01*
X38336Y-32301D01*
X38393Y-32273D01*
X38505Y-32273D01*
X38561Y-32301D01*
X38843Y-32667D02*
X38843Y-32076D01*
X39096Y-32667D02*
X39096Y-32357D01*
X39068Y-32301D01*
X39011Y-32273D01*
X38927Y-32273D01*
X38871Y-32301D01*
X38843Y-32329D01*
X39377Y-32442D02*
X39827Y-32442D01*
X40024Y-32076D02*
X40221Y-32667D01*
X40417Y-32076D01*
X40699Y-32667D02*
X40642Y-32639D01*
X40614Y-32610D01*
X40586Y-32554D01*
X40586Y-32385D01*
X40614Y-32329D01*
X40642Y-32301D01*
X40699Y-32273D01*
X40783Y-32273D01*
X40839Y-32301D01*
X40867Y-32329D01*
X40895Y-32385D01*
X40895Y-32554D01*
X40867Y-32610D01*
X40839Y-32639D01*
X40783Y-32667D01*
X40699Y-32667D01*
X41233Y-32667D02*
X41177Y-32639D01*
X41149Y-32582D01*
X41149Y-32076D01*
X41374Y-32273D02*
X41598Y-32273D01*
X41458Y-32076D02*
X41458Y-32582D01*
X41486Y-32639D01*
X41542Y-32667D01*
X41598Y-32667D01*
X42048Y-32667D02*
X42048Y-32357D01*
X42020Y-32301D01*
X41964Y-32273D01*
X41852Y-32273D01*
X41795Y-32301D01*
X42048Y-32639D02*
X41992Y-32667D01*
X41852Y-32667D01*
X41795Y-32639D01*
X41767Y-32582D01*
X41767Y-32526D01*
X41795Y-32470D01*
X41852Y-32442D01*
X41992Y-32442D01*
X42048Y-32414D01*
X42583Y-32273D02*
X42583Y-32751D01*
X42555Y-32807D01*
X42526Y-32835D01*
X42470Y-32864D01*
X42386Y-32864D01*
X42330Y-32835D01*
X42583Y-32639D02*
X42526Y-32667D01*
X42414Y-32667D01*
X42358Y-32639D01*
X42330Y-32610D01*
X42302Y-32554D01*
X42302Y-32385D01*
X42330Y-32329D01*
X42358Y-32301D01*
X42414Y-32273D01*
X42526Y-32273D01*
X42583Y-32301D01*
X43089Y-32639D02*
X43033Y-32667D01*
X42920Y-32667D01*
X42864Y-32639D01*
X42836Y-32582D01*
X42836Y-32357D01*
X42864Y-32301D01*
X42920Y-32273D01*
X43033Y-32273D01*
X43089Y-32301D01*
X43117Y-32357D01*
X43117Y-32414D01*
X42836Y-32470D01*
X43792Y-32498D02*
X44073Y-32498D01*
X43736Y-32667D02*
X43933Y-32076D01*
X44129Y-32667D01*
X44579Y-32667D02*
X44579Y-32076D01*
X44579Y-32639D02*
X44523Y-32667D01*
X44411Y-32667D01*
X44354Y-32639D01*
X44326Y-32610D01*
X44298Y-32554D01*
X44298Y-32385D01*
X44326Y-32329D01*
X44354Y-32301D01*
X44411Y-32273D01*
X44523Y-32273D01*
X44579Y-32301D01*
X44861Y-32273D02*
X44861Y-32779D01*
X44832Y-32835D01*
X44776Y-32864D01*
X44748Y-32864D01*
X44861Y-32076D02*
X44832Y-32104D01*
X44861Y-32132D01*
X44889Y-32104D01*
X44861Y-32076D01*
X44861Y-32132D01*
X45395Y-32273D02*
X45395Y-32667D01*
X45142Y-32273D02*
X45142Y-32582D01*
X45170Y-32639D01*
X45226Y-32667D01*
X45311Y-32667D01*
X45367Y-32639D01*
X45395Y-32610D01*
X45648Y-32639D02*
X45704Y-32667D01*
X45817Y-32667D01*
X45873Y-32639D01*
X45901Y-32582D01*
X45901Y-32554D01*
X45873Y-32498D01*
X45817Y-32470D01*
X45732Y-32470D01*
X45676Y-32442D01*
X45648Y-32385D01*
X45648Y-32357D01*
X45676Y-32301D01*
X45732Y-32273D01*
X45817Y-32273D01*
X45873Y-32301D01*
X46070Y-32273D02*
X46295Y-32273D01*
X46154Y-32076D02*
X46154Y-32582D01*
X46182Y-32639D01*
X46239Y-32667D01*
X46295Y-32667D01*
X46745Y-32667D02*
X46745Y-32357D01*
X46717Y-32301D01*
X46660Y-32273D01*
X46548Y-32273D01*
X46492Y-32301D01*
X46745Y-32639D02*
X46688Y-32667D01*
X46548Y-32667D01*
X46492Y-32639D01*
X46464Y-32582D01*
X46464Y-32526D01*
X46492Y-32470D01*
X46548Y-32442D01*
X46688Y-32442D01*
X46745Y-32414D01*
X47026Y-32667D02*
X47026Y-32076D01*
X47026Y-32301D02*
X47082Y-32273D01*
X47195Y-32273D01*
X47251Y-32301D01*
X47279Y-32329D01*
X47307Y-32385D01*
X47307Y-32554D01*
X47279Y-32610D01*
X47251Y-32639D01*
X47195Y-32667D01*
X47082Y-32667D01*
X47026Y-32639D01*
X47645Y-32667D02*
X47588Y-32639D01*
X47560Y-32582D01*
X47560Y-32076D01*
X48095Y-32639D02*
X48038Y-32667D01*
X47926Y-32667D01*
X47870Y-32639D01*
X47841Y-32582D01*
X47841Y-32357D01*
X47870Y-32301D01*
X47926Y-32273D01*
X48038Y-32273D01*
X48095Y-32301D01*
X48123Y-32357D01*
X48123Y-32414D01*
X47841Y-32470D01*
X49023Y-32357D02*
X49107Y-32385D01*
X49135Y-32414D01*
X49163Y-32470D01*
X49163Y-32554D01*
X49135Y-32610D01*
X49107Y-32639D01*
X49051Y-32667D01*
X48826Y-32667D01*
X48826Y-32076D01*
X49023Y-32076D01*
X49079Y-32104D01*
X49107Y-32132D01*
X49135Y-32189D01*
X49135Y-32245D01*
X49107Y-32301D01*
X49079Y-32329D01*
X49023Y-32357D01*
X48826Y-32357D01*
X49641Y-32639D02*
X49585Y-32667D01*
X49473Y-32667D01*
X49416Y-32639D01*
X49388Y-32582D01*
X49388Y-32357D01*
X49416Y-32301D01*
X49473Y-32273D01*
X49585Y-32273D01*
X49641Y-32301D01*
X49669Y-32357D01*
X49669Y-32414D01*
X49388Y-32470D01*
X49922Y-32273D02*
X49922Y-32667D01*
X49922Y-32329D02*
X49951Y-32301D01*
X50007Y-32273D01*
X50091Y-32273D01*
X50147Y-32301D01*
X50176Y-32357D01*
X50176Y-32667D01*
X50710Y-32639D02*
X50654Y-32667D01*
X50541Y-32667D01*
X50485Y-32639D01*
X50457Y-32610D01*
X50429Y-32554D01*
X50429Y-32385D01*
X50457Y-32329D01*
X50485Y-32301D01*
X50541Y-32273D01*
X50654Y-32273D01*
X50710Y-32301D01*
X50963Y-32667D02*
X50963Y-32076D01*
X51216Y-32667D02*
X51216Y-32357D01*
X51188Y-32301D01*
X51132Y-32273D01*
X51047Y-32273D01*
X50991Y-32301D01*
X50963Y-32329D01*
X51919Y-32639D02*
X52003Y-32667D01*
X52144Y-32667D01*
X52200Y-32639D01*
X52228Y-32610D01*
X52257Y-32554D01*
X52257Y-32498D01*
X52228Y-32442D01*
X52200Y-32414D01*
X52144Y-32385D01*
X52032Y-32357D01*
X51975Y-32329D01*
X51947Y-32301D01*
X51919Y-32245D01*
X51919Y-32189D01*
X51947Y-32132D01*
X51975Y-32104D01*
X52032Y-32076D01*
X52172Y-32076D01*
X52257Y-32104D01*
X52763Y-32273D02*
X52763Y-32667D01*
X52510Y-32273D02*
X52510Y-32582D01*
X52538Y-32639D01*
X52594Y-32667D01*
X52678Y-32667D01*
X52735Y-32639D01*
X52763Y-32610D01*
X53044Y-32273D02*
X53044Y-32864D01*
X53044Y-32301D02*
X53100Y-32273D01*
X53213Y-32273D01*
X53269Y-32301D01*
X53297Y-32329D01*
X53325Y-32385D01*
X53325Y-32554D01*
X53297Y-32610D01*
X53269Y-32639D01*
X53213Y-32667D01*
X53100Y-32667D01*
X53044Y-32639D01*
X53578Y-32273D02*
X53578Y-32864D01*
X53578Y-32301D02*
X53634Y-32273D01*
X53747Y-32273D01*
X53803Y-32301D01*
X53831Y-32329D01*
X53859Y-32385D01*
X53859Y-32554D01*
X53831Y-32610D01*
X53803Y-32639D01*
X53747Y-32667D01*
X53634Y-32667D01*
X53578Y-32639D01*
X54197Y-32667D02*
X54141Y-32639D01*
X54113Y-32582D01*
X54113Y-32076D01*
X54366Y-32273D02*
X54506Y-32667D01*
X54647Y-32273D02*
X54506Y-32667D01*
X54450Y-32807D01*
X54422Y-32835D01*
X54366Y-32864D01*
G54D12*
X70380Y-23500D02*
X68400Y-23500D01*
X68400Y-23500D02*
X68400Y-22500D01*
X68400Y-22500D02*
X70400Y-22500D01*
X70400Y-22500D02*
X70400Y-23500D01*
X70400Y-23250D02*
X70150Y-23500D01*
X53980Y-23500D02*
X52000Y-23500D01*
X52000Y-23500D02*
X52000Y-22500D01*
X52000Y-22500D02*
X54000Y-22500D01*
X54000Y-22500D02*
X54000Y-23500D01*
X54000Y-23250D02*
X53750Y-23500D01*
X37580Y-23500D02*
X35600Y-23500D01*
X35600Y-23500D02*
X35600Y-22500D01*
X35600Y-22500D02*
X37600Y-22500D01*
X37600Y-22500D02*
X37600Y-23500D01*
X37600Y-23250D02*
X37350Y-23500D01*
X61980Y-42700D02*
X60000Y-42700D01*
X60000Y-42700D02*
X60000Y-41700D01*
X60000Y-41700D02*
X62000Y-41700D01*
X62000Y-41700D02*
X62000Y-42700D01*
X62000Y-42450D02*
X61750Y-42700D01*
X45580Y-42700D02*
X43600Y-42700D01*
X43600Y-42700D02*
X43600Y-41700D01*
X43600Y-41700D02*
X45600Y-41700D01*
X45600Y-41700D02*
X45600Y-42700D01*
X45600Y-42450D02*
X45350Y-42700D01*
G54D13*
X51549Y-59600D02*
G75*
G03X51549Y-59600I-3149J0D01*
G74*
G01*
G54D12*
X49995Y-53400D02*
G75*
G03X49995Y-53400I-2195J0D01*
G74*
G01*
X36980Y-33900D02*
X35000Y-33900D01*
X35000Y-33900D02*
X35000Y-32900D01*
X35000Y-32900D02*
X37000Y-32900D01*
X37000Y-32900D02*
X37000Y-33900D01*
X37000Y-33650D02*
X36750Y-33900D01*
X36980Y-39500D02*
X35000Y-39500D01*
X35000Y-39500D02*
X35000Y-38500D01*
X35000Y-38500D02*
X37000Y-38500D01*
X37000Y-38500D02*
X37000Y-39500D01*
X37000Y-39250D02*
X36750Y-39500D01*
G54D14*
X69900Y-25000D02*
X68900Y-25000D01*
X70459Y-25000D02*
G75*
G03X70459Y-25000I-559J0D01*
G74*
G01*
X53500Y-25000D02*
X52500Y-25000D01*
X54059Y-25000D02*
G75*
G03X54059Y-25000I-559J0D01*
G74*
G01*
X37100Y-25000D02*
X36100Y-25000D01*
X37659Y-25000D02*
G75*
G03X37659Y-25000I-559J0D01*
G74*
G01*
X61500Y-44000D02*
X60500Y-44000D01*
X62059Y-44000D02*
G75*
G03X62059Y-44000I-559J0D01*
G74*
G01*
X45100Y-44200D02*
X44100Y-44200D01*
X45659Y-44200D02*
G75*
G03X45659Y-44200I-559J0D01*
G74*
G01*
G54D15*
X82500Y-54600D02*
X83500Y-54600D01*
X83500Y-54600D02*
X83500Y-56600D01*
X83500Y-56600D02*
X82500Y-56600D01*
X82500Y-56600D02*
X82500Y-54600D01*
G54D14*
X80300Y-51000D02*
X79300Y-51000D01*
X80859Y-51000D02*
G75*
G03X80859Y-51000I-559J0D01*
G74*
G01*
G54D13*
X39462Y-60176D02*
X39462Y-48247D01*
X39462Y-48247D02*
X44384Y-48247D01*
X44384Y-48247D02*
X44384Y-60176D01*
X44384Y-60176D02*
X39462Y-60176D01*
X38847Y-49568D02*
X34870Y-49568D01*
X38847Y-45631D02*
X38847Y-49568D01*
X34831Y-45631D02*
X38847Y-45631D01*
X34831Y-49568D02*
X34831Y-45631D01*
X34831Y-49568D02*
X34831Y-45631D01*
X34831Y-45631D02*
X38847Y-45631D01*
X38847Y-45631D02*
X38847Y-49568D01*
X38847Y-49568D02*
X34870Y-49568D01*
X34831Y-52015D02*
X34831Y-50047D01*
X34831Y-50047D02*
X38847Y-50047D01*
X38847Y-50047D02*
X38847Y-52015D01*
X38847Y-55952D02*
X34870Y-55952D01*
X38847Y-52015D02*
X38847Y-55952D01*
X34831Y-55952D02*
X34831Y-52015D01*
X34831Y-55952D02*
X34831Y-52015D01*
X38847Y-52015D02*
X38847Y-55952D01*
X38847Y-55952D02*
X34870Y-55952D01*
X83647Y-49368D02*
X79670Y-49368D01*
X83647Y-45431D02*
X83647Y-49368D01*
X79631Y-45431D02*
X83647Y-45431D01*
X79631Y-49368D02*
X79631Y-45431D01*
X79631Y-49368D02*
X79631Y-45431D01*
X79631Y-45431D02*
X83647Y-45431D01*
X83647Y-45431D02*
X83647Y-49368D01*
X83647Y-49368D02*
X79670Y-49368D01*
X83647Y-41768D02*
X79670Y-41768D01*
X83647Y-37831D02*
X83647Y-41768D01*
X79631Y-37831D02*
X83647Y-37831D01*
X79631Y-41768D02*
X79631Y-37831D01*
X79631Y-41768D02*
X79631Y-37831D01*
X79631Y-37831D02*
X83647Y-37831D01*
X83647Y-37831D02*
X83647Y-41768D01*
X83647Y-41768D02*
X79670Y-41768D01*
X83647Y-37368D02*
X79670Y-37368D01*
X83647Y-33431D02*
X83647Y-37368D01*
X79631Y-33431D02*
X83647Y-33431D01*
X79631Y-37368D02*
X79631Y-33431D01*
X79631Y-37368D02*
X79631Y-33431D01*
X79631Y-33431D02*
X83647Y-33431D01*
X83647Y-33431D02*
X83647Y-37368D01*
X83647Y-37368D02*
X79670Y-37368D01*
G54D14*
X36700Y-15200D02*
G75*
G03X36700Y-15200I-900J0D01*
G74*
G01*
X83500Y-15200D02*
G75*
G03X83500Y-15200I-900J0D01*
G74*
G01*
X36700Y-62000D02*
G75*
G03X36700Y-62000I-900J0D01*
G74*
G01*
X83500Y-62000D02*
G75*
G03X83500Y-62000I-900J0D01*
G74*
G01*
X83500Y-43600D02*
G75*
G03X83500Y-43600I-900J0D01*
G74*
G01*
X36700Y-43600D02*
G75*
G03X36700Y-43600I-900J0D01*
G74*
G01*
G54D13*
X70856Y-26146D02*
X70856Y-31067D01*
X70856Y-31067D02*
X80856Y-31067D01*
X80856Y-31067D02*
X80856Y-26146D01*
X80856Y-26146D02*
X76171Y-26146D01*
X76171Y-26146D02*
X76171Y-19453D01*
X76171Y-19453D02*
X80856Y-19453D01*
X80856Y-19453D02*
X80856Y-14532D01*
X80856Y-14532D02*
X70856Y-14532D01*
X70856Y-14532D02*
X70856Y-19453D01*
X70856Y-19453D02*
X75541Y-19453D01*
X75541Y-19453D02*
X75541Y-26146D01*
X75502Y-26146D02*
X70817Y-26146D01*
G54D14*
X75150Y-20800D02*
X75400Y-20800D01*
X75400Y-20800D02*
X75400Y-24800D01*
X75400Y-24800D02*
X75150Y-24800D01*
X73650Y-20800D02*
X75150Y-20800D01*
X75150Y-20800D02*
X75150Y-24800D01*
X75150Y-24800D02*
X73650Y-24800D01*
X73650Y-24800D02*
X73650Y-20800D01*
G54D13*
X54456Y-26146D02*
X54456Y-31067D01*
X54456Y-31067D02*
X64456Y-31067D01*
X64456Y-31067D02*
X64456Y-26146D01*
X64456Y-26146D02*
X59771Y-26146D01*
X59771Y-26146D02*
X59771Y-19453D01*
X59771Y-19453D02*
X64456Y-19453D01*
X64456Y-19453D02*
X64456Y-14532D01*
X64456Y-14532D02*
X54456Y-14532D01*
X54456Y-14532D02*
X54456Y-19453D01*
X54456Y-19453D02*
X59141Y-19453D01*
X59141Y-19453D02*
X59141Y-26146D01*
X59102Y-26146D02*
X54417Y-26146D01*
G54D14*
X58750Y-20800D02*
X59000Y-20800D01*
X59000Y-20800D02*
X59000Y-24800D01*
X59000Y-24800D02*
X58750Y-24800D01*
X57250Y-20800D02*
X58750Y-20800D01*
X58750Y-20800D02*
X58750Y-24800D01*
X58750Y-24800D02*
X57250Y-24800D01*
X57250Y-24800D02*
X57250Y-20800D01*
G54D13*
X38056Y-26146D02*
X38056Y-31067D01*
X38056Y-31067D02*
X48056Y-31067D01*
X48056Y-31067D02*
X48056Y-26146D01*
X48056Y-26146D02*
X43371Y-26146D01*
X43371Y-26146D02*
X43371Y-19453D01*
X43371Y-19453D02*
X48056Y-19453D01*
X48056Y-19453D02*
X48056Y-14532D01*
X48056Y-14532D02*
X38056Y-14532D01*
X38056Y-14532D02*
X38056Y-19453D01*
X38056Y-19453D02*
X42741Y-19453D01*
X42741Y-19453D02*
X42741Y-26146D01*
X42702Y-26146D02*
X38017Y-26146D01*
G54D14*
X42350Y-20800D02*
X42600Y-20800D01*
X42600Y-20800D02*
X42600Y-24800D01*
X42600Y-24800D02*
X42350Y-24800D01*
X40850Y-20800D02*
X42350Y-20800D01*
X42350Y-20800D02*
X42350Y-24800D01*
X42350Y-24800D02*
X40850Y-24800D01*
X40850Y-24800D02*
X40850Y-20800D01*
G54D13*
X62456Y-45146D02*
X62456Y-50067D01*
X62456Y-50067D02*
X72456Y-50067D01*
X72456Y-50067D02*
X72456Y-45146D01*
X72456Y-45146D02*
X67771Y-45146D01*
X67771Y-45146D02*
X67771Y-38453D01*
X67771Y-38453D02*
X72456Y-38453D01*
X72456Y-38453D02*
X72456Y-33532D01*
X72456Y-33532D02*
X62456Y-33532D01*
X62456Y-33532D02*
X62456Y-38453D01*
X62456Y-38453D02*
X67141Y-38453D01*
X67141Y-38453D02*
X67141Y-45146D01*
X67102Y-45146D02*
X62417Y-45146D01*
G54D14*
X66750Y-39800D02*
X67000Y-39800D01*
X67000Y-39800D02*
X67000Y-43800D01*
X67000Y-43800D02*
X66750Y-43800D01*
X65250Y-39800D02*
X66750Y-39800D01*
X66750Y-39800D02*
X66750Y-43800D01*
X66750Y-43800D02*
X65250Y-43800D01*
X65250Y-43800D02*
X65250Y-39800D01*
G54D13*
X46256Y-45146D02*
X46256Y-50067D01*
X46256Y-50067D02*
X56256Y-50067D01*
X56256Y-50067D02*
X56256Y-45146D01*
X56256Y-45146D02*
X51571Y-45146D01*
X51571Y-45146D02*
X51571Y-38453D01*
X51571Y-38453D02*
X56256Y-38453D01*
X56256Y-38453D02*
X56256Y-33532D01*
X56256Y-33532D02*
X46256Y-33532D01*
X46256Y-33532D02*
X46256Y-38453D01*
X46256Y-38453D02*
X50941Y-38453D01*
X50941Y-38453D02*
X50941Y-45146D01*
X50902Y-45146D02*
X46217Y-45146D01*
G54D14*
X50550Y-39800D02*
X50800Y-39800D01*
X50800Y-39800D02*
X50800Y-43800D01*
X50800Y-43800D02*
X50550Y-43800D01*
X49050Y-39800D02*
X50550Y-39800D01*
X50550Y-39800D02*
X50550Y-43800D01*
X50550Y-43800D02*
X49050Y-43800D01*
X49050Y-43800D02*
X49050Y-39800D01*
X65800Y-58350D02*
X65800Y-58600D01*
X65800Y-58600D02*
X61800Y-58600D01*
X61800Y-58600D02*
X61800Y-58350D01*
X65800Y-56850D02*
X65800Y-58350D01*
X65800Y-58350D02*
X61800Y-58350D01*
X61800Y-58350D02*
X61800Y-56850D01*
X61800Y-56850D02*
X65800Y-56850D01*
X68900Y-21000D02*
X69900Y-21000D01*
X69459Y-21000D02*
G75*
G03X69459Y-21000I-559J0D01*
G74*
G01*
G54D16*
X83712Y-21796D02*
G75*
G03X83712Y-21796I-1112J0D01*
G74*
G01*
G54D14*
X52500Y-21000D02*
X53500Y-21000D01*
X53059Y-21000D02*
G75*
G03X53059Y-21000I-559J0D01*
G74*
G01*
G54D16*
X66912Y-21796D02*
G75*
G03X66912Y-21796I-1112J0D01*
G74*
G01*
G54D14*
X36100Y-21000D02*
X37100Y-21000D01*
X36659Y-21000D02*
G75*
G03X36659Y-21000I-559J0D01*
G74*
G01*
G54D16*
X50512Y-21796D02*
G75*
G03X50512Y-21796I-1112J0D01*
G74*
G01*
G54D14*
X60500Y-40200D02*
X61500Y-40200D01*
X61059Y-40200D02*
G75*
G03X61059Y-40200I-559J0D01*
G74*
G01*
G54D16*
X74912Y-40796D02*
G75*
G03X74912Y-40796I-1112J0D01*
G74*
G01*
G54D14*
X44100Y-40200D02*
X45100Y-40200D01*
X44659Y-40200D02*
G75*
G03X44659Y-40200I-559J0D01*
G74*
G01*
G54D16*
X58712Y-40796D02*
G75*
G03X58712Y-40796I-1112J0D01*
G74*
G01*
G54D14*
X41700Y-61400D02*
X42700Y-61400D01*
X42259Y-61400D02*
G75*
G03X42259Y-61400I-559J0D01*
G74*
G01*
X83000Y-52900D02*
X83000Y-53900D01*
X83559Y-52900D02*
G75*
G03X83559Y-52900I-559J0D01*
G74*
G01*
X77000Y-53300D02*
X77000Y-54300D01*
X77559Y-53300D02*
G75*
G03X77559Y-53300I-559J0D01*
G74*
G01*
X62800Y-55300D02*
X62800Y-54300D01*
X63359Y-55300D02*
G75*
G03X63359Y-55300I-559J0D01*
G74*
G01*
X60200Y-55300D02*
X60200Y-54300D01*
X60759Y-55300D02*
G75*
G03X60759Y-55300I-559J0D01*
G74*
G01*
X58800Y-55300D02*
X58800Y-54300D01*
X59359Y-55300D02*
G75*
G03X59359Y-55300I-559J0D01*
G74*
G01*
X69000Y-54100D02*
X69000Y-55100D01*
X69559Y-54100D02*
G75*
G03X69559Y-54100I-559J0D01*
G74*
G01*
X69000Y-56100D02*
X69000Y-57100D01*
X69559Y-56100D02*
G75*
G03X69559Y-56100I-559J0D01*
G74*
G01*
X77800Y-40900D02*
X77800Y-41900D01*
X78359Y-40900D02*
G75*
G03X78359Y-40900I-559J0D01*
G74*
G01*
X77700Y-38800D02*
X78700Y-38800D01*
X78259Y-38800D02*
G75*
G03X78259Y-38800I-559J0D01*
G74*
G01*
G54D13*
X54815Y-62968D02*
X52847Y-62968D01*
X52847Y-62968D02*
X52847Y-58952D01*
X52847Y-58952D02*
X54815Y-58952D01*
X58752Y-58952D02*
X58752Y-62929D01*
X54815Y-58952D02*
X58752Y-58952D01*
X58752Y-62968D02*
X54815Y-62968D01*
X58752Y-62968D02*
X54815Y-62968D01*
X54815Y-58952D02*
X58752Y-58952D01*
X58752Y-58952D02*
X58752Y-62929D01*
X70815Y-62968D02*
X68847Y-62968D01*
X68847Y-62968D02*
X68847Y-58952D01*
X68847Y-58952D02*
X70815Y-58952D01*
X74752Y-58952D02*
X74752Y-62929D01*
X70815Y-58952D02*
X74752Y-58952D01*
X74752Y-62968D02*
X70815Y-62968D01*
X74752Y-62968D02*
X70815Y-62968D01*
X70815Y-58952D02*
X74752Y-58952D01*
X74752Y-58952D02*
X74752Y-62929D01*
X34752Y-56431D02*
X38729Y-56431D01*
X34752Y-60368D02*
X34752Y-56431D01*
X38768Y-60368D02*
X34752Y-60368D01*
X38768Y-56431D02*
X38768Y-60368D01*
X38768Y-56431D02*
X38768Y-60368D01*
X38768Y-60368D02*
X34752Y-60368D01*
X34752Y-60368D02*
X34752Y-56431D01*
X34752Y-56431D02*
X38729Y-56431D01*
G54D12*
X58900Y-52800D02*
X60400Y-51300D01*
X60400Y-51300D02*
X60400Y-50800D01*
X60400Y-50800D02*
X59900Y-50300D01*
X59900Y-50300D02*
X58900Y-50300D01*
X58900Y-50300D02*
X57900Y-51300D01*
X57900Y-51300D02*
X57900Y-52300D01*
X57900Y-52300D02*
X58400Y-52800D01*
X58400Y-52800D02*
X58900Y-52800D01*
G54D17*
X80300Y-52800D02*
X80300Y-53300D01*
X80300Y-53300D02*
X79300Y-53300D01*
X79300Y-53300D02*
X79300Y-52800D01*
X80800Y-52800D02*
X80800Y-56800D01*
X80800Y-56800D02*
X78800Y-56800D01*
X78800Y-56800D02*
X78800Y-52800D01*
X78800Y-52800D02*
X80800Y-52800D01*
X73900Y-52800D02*
X73900Y-53300D01*
X73900Y-53300D02*
X72900Y-53300D01*
X72900Y-53300D02*
X72900Y-52800D01*
X74400Y-52800D02*
X74400Y-56800D01*
X74400Y-56800D02*
X72400Y-56800D01*
X72400Y-56800D02*
X72400Y-52800D01*
X72400Y-52800D02*
X74400Y-52800D01*
G54D14*
X52200Y-52300D02*
X52200Y-53300D01*
X52759Y-52300D02*
G75*
G03X52759Y-52300I-559J0D01*
G74*
G01*
X41200Y-39900D02*
X41200Y-40900D01*
X41759Y-39900D02*
G75*
G03X41759Y-39900I-559J0D01*
G74*
G01*
X38800Y-40900D02*
X38800Y-39900D01*
X39359Y-40900D02*
G75*
G03X39359Y-40900I-559J0D01*
G74*
G01*
X41200Y-42700D02*
X41200Y-43700D01*
X41759Y-42700D02*
G75*
G03X41759Y-42700I-559J0D01*
G74*
G01*
X38800Y-43700D02*
X38800Y-42700D01*
X39359Y-43700D02*
G75*
G03X39359Y-43700I-559J0D01*
G74*
G01*
X53800Y-56100D02*
X53800Y-55100D01*
X54359Y-56100D02*
G75*
G03X54359Y-56100I-559J0D01*
G74*
G01*
X52200Y-55100D02*
X52200Y-56100D01*
X52759Y-55100D02*
G75*
G03X52759Y-55100I-559J0D01*
G74*
G01*
X53800Y-53300D02*
X53800Y-52300D01*
X54359Y-53300D02*
G75*
G03X54359Y-53300I-559J0D01*
G74*
G01*
G54D12*
X65700Y-56000D02*
X67200Y-54500D01*
X67200Y-54500D02*
X67200Y-54000D01*
X67200Y-54000D02*
X66700Y-53500D01*
X66700Y-53500D02*
X65700Y-53500D01*
X65700Y-53500D02*
X64700Y-54500D01*
X64700Y-54500D02*
X64700Y-55500D01*
X64700Y-55500D02*
X65200Y-56000D01*
X65200Y-56000D02*
X65700Y-56000D01*
X36000Y-35400D02*
X38000Y-35400D01*
X36000Y-36400D02*
X38000Y-36400D01*
X36000Y-37400D02*
X38000Y-37400D01*
X38000Y-34900D02*
X38000Y-38400D01*
X38000Y-38400D02*
X44000Y-38400D01*
X44000Y-38400D02*
X44000Y-34400D01*
X38000Y-34900D02*
X38000Y-34400D01*
X41000Y-37900D02*
X41000Y-34400D01*
X41000Y-37900D02*
X41000Y-38400D01*
X38000Y-34400D02*
X44000Y-34400D01*
G54D18*
X69233Y-24042D02*
X69214Y-24061D01*
X69157Y-24080D01*
X69119Y-24080D01*
X69061Y-24061D01*
X69023Y-24023D01*
X69004Y-23985D01*
X68985Y-23909D01*
X68985Y-23852D01*
X69004Y-23776D01*
X69023Y-23738D01*
X69061Y-23700D01*
X69119Y-23680D01*
X69157Y-23680D01*
X69214Y-23700D01*
X69233Y-23719D01*
X69614Y-24080D02*
X69385Y-24080D01*
X69500Y-24080D02*
X69500Y-23680D01*
X69461Y-23738D01*
X69423Y-23776D01*
X69385Y-23795D01*
X52833Y-24042D02*
X52814Y-24061D01*
X52757Y-24080D01*
X52719Y-24080D01*
X52661Y-24061D01*
X52623Y-24023D01*
X52604Y-23985D01*
X52585Y-23909D01*
X52585Y-23852D01*
X52604Y-23776D01*
X52623Y-23738D01*
X52661Y-23700D01*
X52719Y-23680D01*
X52757Y-23680D01*
X52814Y-23700D01*
X52833Y-23719D01*
X52985Y-23719D02*
X53004Y-23700D01*
X53042Y-23680D01*
X53138Y-23680D01*
X53176Y-23700D01*
X53195Y-23719D01*
X53214Y-23757D01*
X53214Y-23795D01*
X53195Y-23852D01*
X52966Y-24080D01*
X53214Y-24080D01*
X36433Y-24042D02*
X36414Y-24061D01*
X36357Y-24080D01*
X36319Y-24080D01*
X36261Y-24061D01*
X36223Y-24023D01*
X36204Y-23985D01*
X36185Y-23909D01*
X36185Y-23852D01*
X36204Y-23776D01*
X36223Y-23738D01*
X36261Y-23700D01*
X36319Y-23680D01*
X36357Y-23680D01*
X36414Y-23700D01*
X36433Y-23719D01*
X36566Y-23680D02*
X36814Y-23680D01*
X36680Y-23833D01*
X36738Y-23833D01*
X36776Y-23852D01*
X36795Y-23871D01*
X36814Y-23909D01*
X36814Y-24004D01*
X36795Y-24042D01*
X36776Y-24061D01*
X36738Y-24080D01*
X36623Y-24080D01*
X36585Y-24061D01*
X36566Y-24042D01*
X60833Y-43242D02*
X60814Y-43261D01*
X60757Y-43280D01*
X60719Y-43280D01*
X60661Y-43261D01*
X60623Y-43223D01*
X60604Y-43185D01*
X60585Y-43109D01*
X60585Y-43052D01*
X60604Y-42976D01*
X60623Y-42938D01*
X60661Y-42900D01*
X60719Y-42880D01*
X60757Y-42880D01*
X60814Y-42900D01*
X60833Y-42919D01*
X61176Y-43014D02*
X61176Y-43280D01*
X61080Y-42861D02*
X60985Y-43147D01*
X61233Y-43147D01*
X44433Y-43242D02*
X44414Y-43261D01*
X44357Y-43280D01*
X44319Y-43280D01*
X44261Y-43261D01*
X44223Y-43223D01*
X44204Y-43185D01*
X44185Y-43109D01*
X44185Y-43052D01*
X44204Y-42976D01*
X44223Y-42938D01*
X44261Y-42900D01*
X44319Y-42880D01*
X44357Y-42880D01*
X44414Y-42900D01*
X44433Y-42919D01*
X44795Y-42880D02*
X44604Y-42880D01*
X44585Y-43071D01*
X44604Y-43052D01*
X44642Y-43033D01*
X44738Y-43033D01*
X44776Y-43052D01*
X44795Y-43071D01*
X44814Y-43109D01*
X44814Y-43204D01*
X44795Y-43242D01*
X44776Y-43261D01*
X44738Y-43280D01*
X44642Y-43280D01*
X44604Y-43261D01*
X44585Y-43242D01*
G54D17*
X47578Y-59683D02*
X47602Y-59707D01*
X47626Y-59778D01*
X47626Y-59826D01*
X47602Y-59897D01*
X47554Y-59945D01*
X47507Y-59969D01*
X47411Y-59992D01*
X47340Y-59992D01*
X47245Y-59969D01*
X47197Y-59945D01*
X47150Y-59897D01*
X47126Y-59826D01*
X47126Y-59778D01*
X47150Y-59707D01*
X47173Y-59683D01*
X47126Y-59254D02*
X47126Y-59350D01*
X47150Y-59397D01*
X47173Y-59421D01*
X47245Y-59469D01*
X47340Y-59492D01*
X47530Y-59492D01*
X47578Y-59469D01*
X47602Y-59445D01*
X47626Y-59397D01*
X47626Y-59302D01*
X47602Y-59254D01*
X47578Y-59230D01*
X47530Y-59207D01*
X47411Y-59207D01*
X47364Y-59230D01*
X47340Y-59254D01*
X47316Y-59302D01*
X47316Y-59397D01*
X47340Y-59445D01*
X47364Y-59469D01*
X47411Y-59492D01*
X49292Y-59969D02*
X49626Y-59969D01*
X49102Y-60088D02*
X49459Y-60207D01*
X49459Y-59897D01*
X49126Y-59754D02*
X49126Y-59421D01*
X49626Y-59635D01*
X49292Y-59016D02*
X49626Y-59016D01*
X49292Y-59230D02*
X49554Y-59230D01*
X49602Y-59207D01*
X49626Y-59159D01*
X49626Y-59088D01*
X49602Y-59040D01*
X49578Y-59016D01*
X46978Y-53483D02*
X47002Y-53507D01*
X47026Y-53578D01*
X47026Y-53626D01*
X47002Y-53697D01*
X46954Y-53745D01*
X46907Y-53769D01*
X46811Y-53792D01*
X46740Y-53792D01*
X46645Y-53769D01*
X46597Y-53745D01*
X46550Y-53697D01*
X46526Y-53626D01*
X46526Y-53578D01*
X46550Y-53507D01*
X46573Y-53483D01*
X46526Y-53316D02*
X46526Y-52983D01*
X47026Y-53197D01*
X49026Y-53721D02*
X49026Y-54007D01*
X49026Y-53864D02*
X48526Y-53864D01*
X48597Y-53911D01*
X48645Y-53959D01*
X48669Y-54007D01*
X48526Y-53411D02*
X48526Y-53364D01*
X48550Y-53316D01*
X48573Y-53292D01*
X48621Y-53269D01*
X48716Y-53245D01*
X48835Y-53245D01*
X48930Y-53269D01*
X48978Y-53292D01*
X49002Y-53316D01*
X49026Y-53364D01*
X49026Y-53411D01*
X49002Y-53459D01*
X48978Y-53483D01*
X48930Y-53507D01*
X48835Y-53530D01*
X48716Y-53530D01*
X48621Y-53507D01*
X48573Y-53483D01*
X48550Y-53459D01*
X48526Y-53411D01*
X48692Y-52816D02*
X49026Y-52816D01*
X48692Y-53030D02*
X48954Y-53030D01*
X49002Y-53007D01*
X49026Y-52959D01*
X49026Y-52888D01*
X49002Y-52840D01*
X48978Y-52816D01*
G54D18*
X35933Y-34542D02*
X35914Y-34561D01*
X35857Y-34580D01*
X35819Y-34580D01*
X35761Y-34561D01*
X35723Y-34523D01*
X35704Y-34485D01*
X35685Y-34409D01*
X35685Y-34352D01*
X35704Y-34276D01*
X35723Y-34238D01*
X35761Y-34200D01*
X35819Y-34180D01*
X35857Y-34180D01*
X35914Y-34200D01*
X35933Y-34219D01*
X36161Y-34352D02*
X36123Y-34333D01*
X36104Y-34314D01*
X36085Y-34276D01*
X36085Y-34257D01*
X36104Y-34219D01*
X36123Y-34200D01*
X36161Y-34180D01*
X36238Y-34180D01*
X36276Y-34200D01*
X36295Y-34219D01*
X36314Y-34257D01*
X36314Y-34276D01*
X36295Y-34314D01*
X36276Y-34333D01*
X36238Y-34352D01*
X36161Y-34352D01*
X36123Y-34371D01*
X36104Y-34390D01*
X36085Y-34428D01*
X36085Y-34504D01*
X36104Y-34542D01*
X36123Y-34561D01*
X36161Y-34580D01*
X36238Y-34580D01*
X36276Y-34561D01*
X36295Y-34542D01*
X36314Y-34504D01*
X36314Y-34428D01*
X36295Y-34390D01*
X36276Y-34371D01*
X36238Y-34352D01*
X35933Y-40342D02*
X35914Y-40361D01*
X35857Y-40380D01*
X35819Y-40380D01*
X35761Y-40361D01*
X35723Y-40323D01*
X35704Y-40285D01*
X35685Y-40209D01*
X35685Y-40152D01*
X35704Y-40076D01*
X35723Y-40038D01*
X35761Y-40000D01*
X35819Y-39980D01*
X35857Y-39980D01*
X35914Y-40000D01*
X35933Y-40019D01*
X36123Y-40380D02*
X36200Y-40380D01*
X36238Y-40361D01*
X36257Y-40342D01*
X36295Y-40285D01*
X36314Y-40209D01*
X36314Y-40057D01*
X36295Y-40019D01*
X36276Y-40000D01*
X36238Y-39980D01*
X36161Y-39980D01*
X36123Y-40000D01*
X36104Y-40019D01*
X36085Y-40057D01*
X36085Y-40152D01*
X36104Y-40190D01*
X36123Y-40209D01*
X36161Y-40228D01*
X36238Y-40228D01*
X36276Y-40209D01*
X36295Y-40190D01*
X36314Y-40152D01*
X69630Y-26248D02*
X69630Y-25698D01*
X69750Y-25698D01*
X69821Y-25725D01*
X69869Y-25777D01*
X69892Y-25829D01*
X69916Y-25934D01*
X69916Y-26013D01*
X69892Y-26117D01*
X69869Y-26170D01*
X69821Y-26222D01*
X69750Y-26248D01*
X69630Y-26248D01*
X70392Y-26248D02*
X70107Y-26248D01*
X70250Y-26248D02*
X70250Y-25698D01*
X70202Y-25777D01*
X70154Y-25829D01*
X70107Y-25855D01*
X53030Y-26248D02*
X53030Y-25698D01*
X53150Y-25698D01*
X53221Y-25725D01*
X53269Y-25777D01*
X53292Y-25829D01*
X53316Y-25934D01*
X53316Y-26013D01*
X53292Y-26117D01*
X53269Y-26170D01*
X53221Y-26222D01*
X53150Y-26248D01*
X53030Y-26248D01*
X53507Y-25751D02*
X53530Y-25725D01*
X53578Y-25698D01*
X53697Y-25698D01*
X53745Y-25725D01*
X53769Y-25751D01*
X53792Y-25803D01*
X53792Y-25855D01*
X53769Y-25934D01*
X53483Y-26248D01*
X53792Y-26248D01*
X36630Y-26248D02*
X36630Y-25698D01*
X36750Y-25698D01*
X36821Y-25725D01*
X36869Y-25777D01*
X36892Y-25829D01*
X36916Y-25934D01*
X36916Y-26013D01*
X36892Y-26117D01*
X36869Y-26170D01*
X36821Y-26222D01*
X36750Y-26248D01*
X36630Y-26248D01*
X37083Y-25698D02*
X37392Y-25698D01*
X37226Y-25908D01*
X37297Y-25908D01*
X37345Y-25934D01*
X37369Y-25960D01*
X37392Y-26013D01*
X37392Y-26144D01*
X37369Y-26196D01*
X37345Y-26222D01*
X37297Y-26248D01*
X37154Y-26248D01*
X37107Y-26222D01*
X37083Y-26196D01*
X61230Y-45248D02*
X61230Y-44698D01*
X61350Y-44698D01*
X61421Y-44725D01*
X61469Y-44777D01*
X61492Y-44829D01*
X61516Y-44934D01*
X61516Y-45013D01*
X61492Y-45117D01*
X61469Y-45170D01*
X61421Y-45222D01*
X61350Y-45248D01*
X61230Y-45248D01*
X61945Y-44882D02*
X61945Y-45248D01*
X61826Y-44672D02*
X61707Y-45065D01*
X62016Y-45065D01*
X44830Y-45448D02*
X44830Y-44898D01*
X44950Y-44898D01*
X45021Y-44925D01*
X45069Y-44977D01*
X45092Y-45029D01*
X45116Y-45134D01*
X45116Y-45213D01*
X45092Y-45317D01*
X45069Y-45370D01*
X45021Y-45422D01*
X44950Y-45448D01*
X44830Y-45448D01*
X45569Y-44898D02*
X45330Y-44898D01*
X45307Y-45160D01*
X45330Y-45134D01*
X45378Y-45108D01*
X45497Y-45108D01*
X45545Y-45134D01*
X45569Y-45160D01*
X45592Y-45213D01*
X45592Y-45344D01*
X45569Y-45396D01*
X45545Y-45422D01*
X45497Y-45448D01*
X45378Y-45448D01*
X45330Y-45422D01*
X45307Y-45396D01*
G54D15*
X83885Y-55964D02*
X83585Y-55964D01*
X83585Y-55892D01*
X83600Y-55850D01*
X83628Y-55821D01*
X83657Y-55807D01*
X83714Y-55792D01*
X83757Y-55792D01*
X83814Y-55807D01*
X83842Y-55821D01*
X83871Y-55850D01*
X83885Y-55892D01*
X83885Y-55964D01*
X83885Y-55507D02*
X83885Y-55678D01*
X83885Y-55592D02*
X83585Y-55592D01*
X83628Y-55621D01*
X83657Y-55650D01*
X83671Y-55678D01*
X83585Y-55321D02*
X83585Y-55292D01*
X83600Y-55264D01*
X83614Y-55250D01*
X83642Y-55235D01*
X83700Y-55221D01*
X83771Y-55221D01*
X83828Y-55235D01*
X83857Y-55250D01*
X83871Y-55264D01*
X83885Y-55292D01*
X83885Y-55321D01*
X83871Y-55350D01*
X83857Y-55364D01*
X83828Y-55378D01*
X83771Y-55392D01*
X83700Y-55392D01*
X83642Y-55378D01*
X83614Y-55364D01*
X83600Y-55350D01*
X83585Y-55321D01*
G54D18*
X79592Y-50248D02*
X79592Y-49698D01*
X79711Y-49698D01*
X79783Y-49725D01*
X79830Y-49777D01*
X79854Y-49829D01*
X79878Y-49934D01*
X79878Y-50013D01*
X79854Y-50117D01*
X79830Y-50170D01*
X79783Y-50222D01*
X79711Y-50248D01*
X79592Y-50248D01*
X80354Y-50248D02*
X80069Y-50248D01*
X80211Y-50248D02*
X80211Y-49698D01*
X80164Y-49777D01*
X80116Y-49829D01*
X80069Y-49855D01*
X80830Y-50248D02*
X80545Y-50248D01*
X80688Y-50248D02*
X80688Y-49698D01*
X80640Y-49777D01*
X80592Y-49829D01*
X80545Y-49855D01*
G54D13*
X42397Y-51529D02*
X42003Y-51529D01*
X42397Y-51304D02*
X42172Y-51473D01*
X42003Y-51304D02*
X42228Y-51529D01*
X42397Y-50930D02*
X42397Y-51155D01*
X42397Y-51042D02*
X42003Y-51042D01*
X42059Y-51080D01*
X42097Y-51117D01*
X42115Y-51155D01*
X41727Y-52279D02*
X41540Y-52411D01*
X41727Y-52504D02*
X41334Y-52504D01*
X41334Y-52354D01*
X41352Y-52317D01*
X41371Y-52298D01*
X41408Y-52279D01*
X41465Y-52279D01*
X41502Y-52298D01*
X41521Y-52317D01*
X41540Y-52354D01*
X41540Y-52504D01*
X41521Y-52111D02*
X41521Y-51979D01*
X41727Y-51923D02*
X41727Y-52111D01*
X41334Y-52111D01*
X41334Y-51923D01*
X41727Y-51567D02*
X41727Y-51754D01*
X41334Y-51754D01*
X41615Y-51454D02*
X41615Y-51267D01*
X41727Y-51492D02*
X41334Y-51361D01*
X41727Y-51229D01*
X41540Y-51023D02*
X41727Y-51023D01*
X41334Y-51155D02*
X41540Y-51023D01*
X41334Y-50892D01*
X41765Y-50855D02*
X41765Y-50555D01*
X41371Y-50480D02*
X41352Y-50461D01*
X41334Y-50423D01*
X41334Y-50330D01*
X41352Y-50292D01*
X41371Y-50273D01*
X41408Y-50255D01*
X41446Y-50255D01*
X41502Y-50273D01*
X41727Y-50498D01*
X41727Y-50255D01*
X41727Y-49861D02*
X41540Y-49992D01*
X41727Y-50086D02*
X41334Y-50086D01*
X41334Y-49936D01*
X41352Y-49898D01*
X41371Y-49880D01*
X41408Y-49861D01*
X41465Y-49861D01*
X41502Y-49880D01*
X41521Y-49898D01*
X41540Y-49936D01*
X41540Y-50086D01*
X41334Y-49748D02*
X41334Y-49523D01*
X41727Y-49636D02*
X41334Y-49636D01*
X38277Y-47890D02*
X37883Y-47890D01*
X37883Y-47740D01*
X37902Y-47703D01*
X37921Y-47684D01*
X37958Y-47665D01*
X38014Y-47665D01*
X38052Y-47684D01*
X38071Y-47703D01*
X38089Y-47740D01*
X38089Y-47890D01*
X38277Y-47290D02*
X38277Y-47515D01*
X38277Y-47403D02*
X37883Y-47403D01*
X37939Y-47440D01*
X37977Y-47478D01*
X37996Y-47515D01*
X35560Y-48659D02*
X35560Y-48884D01*
X35560Y-48771D02*
X35167Y-48771D01*
X35223Y-48809D01*
X35260Y-48846D01*
X35279Y-48884D01*
X35204Y-48509D02*
X35185Y-48490D01*
X35167Y-48453D01*
X35167Y-48359D01*
X35185Y-48321D01*
X35204Y-48303D01*
X35242Y-48284D01*
X35279Y-48284D01*
X35335Y-48303D01*
X35560Y-48528D01*
X35560Y-48284D01*
X35167Y-48171D02*
X35560Y-48040D01*
X35167Y-47909D01*
X35448Y-47796D02*
X35448Y-47609D01*
X35560Y-47834D02*
X35167Y-47703D01*
X35560Y-47571D01*
X35523Y-47215D02*
X35542Y-47234D01*
X35560Y-47290D01*
X35560Y-47328D01*
X35542Y-47384D01*
X35504Y-47421D01*
X35467Y-47440D01*
X35392Y-47459D01*
X35335Y-47459D01*
X35260Y-47440D01*
X35223Y-47421D01*
X35185Y-47384D01*
X35167Y-47328D01*
X35167Y-47290D01*
X35185Y-47234D01*
X35204Y-47215D01*
X35598Y-47140D02*
X35598Y-46840D01*
X35560Y-46746D02*
X35167Y-46746D01*
X35560Y-46559D02*
X35167Y-46559D01*
X35560Y-46334D01*
X35167Y-46334D01*
X38277Y-53290D02*
X37883Y-53290D01*
X37883Y-53140D01*
X37902Y-53103D01*
X37921Y-53084D01*
X37958Y-53065D01*
X38014Y-53065D01*
X38052Y-53084D01*
X38071Y-53103D01*
X38089Y-53140D01*
X38089Y-53290D01*
X37921Y-52915D02*
X37902Y-52896D01*
X37883Y-52859D01*
X37883Y-52765D01*
X37902Y-52728D01*
X37921Y-52709D01*
X37958Y-52690D01*
X37996Y-52690D01*
X38052Y-52709D01*
X38277Y-52934D01*
X38277Y-52690D01*
X35560Y-53731D02*
X35167Y-53731D01*
X35354Y-53731D02*
X35354Y-53506D01*
X35560Y-53506D02*
X35167Y-53506D01*
X35167Y-53374D02*
X35560Y-53243D01*
X35167Y-53112D01*
X35598Y-53074D02*
X35598Y-52775D01*
X35560Y-52681D02*
X35167Y-52681D01*
X35560Y-52493D02*
X35167Y-52493D01*
X35560Y-52268D01*
X35167Y-52268D01*
X83077Y-47690D02*
X82683Y-47690D01*
X82683Y-47540D01*
X82702Y-47503D01*
X82721Y-47484D01*
X82758Y-47465D01*
X82814Y-47465D01*
X82852Y-47484D01*
X82871Y-47503D01*
X82889Y-47540D01*
X82889Y-47690D01*
X82683Y-47334D02*
X82683Y-47090D01*
X82833Y-47221D01*
X82833Y-47165D01*
X82852Y-47128D01*
X82871Y-47109D01*
X82908Y-47090D01*
X83002Y-47090D01*
X83039Y-47109D01*
X83058Y-47128D01*
X83077Y-47165D01*
X83077Y-47278D01*
X83058Y-47315D01*
X83039Y-47334D01*
X80360Y-48393D02*
X79967Y-48393D01*
X80154Y-48393D02*
X80154Y-48168D01*
X80360Y-48168D02*
X79967Y-48168D01*
X79967Y-48037D02*
X80360Y-47906D01*
X79967Y-47774D01*
X80398Y-47737D02*
X80398Y-47437D01*
X79967Y-47268D02*
X79967Y-47193D01*
X79985Y-47156D01*
X80023Y-47118D01*
X80098Y-47100D01*
X80229Y-47100D01*
X80304Y-47118D01*
X80342Y-47156D01*
X80360Y-47193D01*
X80360Y-47268D01*
X80342Y-47306D01*
X80304Y-47343D01*
X80229Y-47362D01*
X80098Y-47362D01*
X80023Y-47343D01*
X79985Y-47306D01*
X79967Y-47268D01*
X79967Y-46931D02*
X80285Y-46931D01*
X80323Y-46912D01*
X80342Y-46893D01*
X80360Y-46856D01*
X80360Y-46781D01*
X80342Y-46743D01*
X80323Y-46725D01*
X80285Y-46706D01*
X79967Y-46706D01*
X79967Y-46575D02*
X79967Y-46350D01*
X80360Y-46462D02*
X79967Y-46462D01*
X83077Y-40090D02*
X82683Y-40090D01*
X82683Y-39940D01*
X82702Y-39903D01*
X82721Y-39884D01*
X82758Y-39865D01*
X82814Y-39865D01*
X82852Y-39884D01*
X82871Y-39903D01*
X82889Y-39940D01*
X82889Y-40090D01*
X82814Y-39528D02*
X83077Y-39528D01*
X82664Y-39621D02*
X82946Y-39715D01*
X82946Y-39471D01*
X80342Y-40981D02*
X80360Y-40924D01*
X80360Y-40831D01*
X80342Y-40793D01*
X80323Y-40774D01*
X80285Y-40756D01*
X80248Y-40756D01*
X80210Y-40774D01*
X80192Y-40793D01*
X80173Y-40831D01*
X80154Y-40906D01*
X80135Y-40943D01*
X80117Y-40962D01*
X80079Y-40981D01*
X80042Y-40981D01*
X80004Y-40962D01*
X79985Y-40943D01*
X79967Y-40906D01*
X79967Y-40812D01*
X79985Y-40756D01*
X80154Y-40587D02*
X80154Y-40456D01*
X80360Y-40399D02*
X80360Y-40587D01*
X79967Y-40587D01*
X79967Y-40399D01*
X80360Y-40231D02*
X79967Y-40231D01*
X80360Y-40006D01*
X79967Y-40006D01*
X80342Y-39837D02*
X80360Y-39781D01*
X80360Y-39687D01*
X80342Y-39650D01*
X80323Y-39631D01*
X80285Y-39612D01*
X80248Y-39612D01*
X80210Y-39631D01*
X80192Y-39650D01*
X80173Y-39687D01*
X80154Y-39762D01*
X80135Y-39800D01*
X80117Y-39818D01*
X80079Y-39837D01*
X80042Y-39837D01*
X80004Y-39818D01*
X79985Y-39800D01*
X79967Y-39762D01*
X79967Y-39668D01*
X79985Y-39612D01*
X80154Y-39443D02*
X80154Y-39312D01*
X80360Y-39256D02*
X80360Y-39443D01*
X79967Y-39443D01*
X79967Y-39256D01*
X80398Y-39181D02*
X80398Y-38881D01*
X79967Y-38843D02*
X80360Y-38712D01*
X79967Y-38581D01*
X83077Y-35690D02*
X82683Y-35690D01*
X82683Y-35540D01*
X82702Y-35503D01*
X82721Y-35484D01*
X82758Y-35465D01*
X82814Y-35465D01*
X82852Y-35484D01*
X82871Y-35503D01*
X82889Y-35540D01*
X82889Y-35690D01*
X82683Y-35109D02*
X82683Y-35296D01*
X82871Y-35315D01*
X82852Y-35296D01*
X82833Y-35259D01*
X82833Y-35165D01*
X82852Y-35128D01*
X82871Y-35109D01*
X82908Y-35090D01*
X83002Y-35090D01*
X83039Y-35109D01*
X83058Y-35128D01*
X83077Y-35165D01*
X83077Y-35259D01*
X83058Y-35296D01*
X83039Y-35315D01*
X80342Y-36506D02*
X80360Y-36449D01*
X80360Y-36356D01*
X80342Y-36318D01*
X80323Y-36299D01*
X80285Y-36281D01*
X80248Y-36281D01*
X80210Y-36299D01*
X80192Y-36318D01*
X80173Y-36356D01*
X80154Y-36431D01*
X80135Y-36468D01*
X80117Y-36487D01*
X80079Y-36506D01*
X80042Y-36506D01*
X80004Y-36487D01*
X79985Y-36468D01*
X79967Y-36431D01*
X79967Y-36337D01*
X79985Y-36281D01*
X80154Y-36112D02*
X80154Y-35981D01*
X80360Y-35924D02*
X80360Y-36112D01*
X79967Y-36112D01*
X79967Y-35924D01*
X80360Y-35756D02*
X79967Y-35756D01*
X80360Y-35531D01*
X79967Y-35531D01*
X80342Y-35362D02*
X80360Y-35306D01*
X80360Y-35212D01*
X80342Y-35175D01*
X80323Y-35156D01*
X80285Y-35137D01*
X80248Y-35137D01*
X80210Y-35156D01*
X80192Y-35175D01*
X80173Y-35212D01*
X80154Y-35287D01*
X80135Y-35325D01*
X80117Y-35343D01*
X80079Y-35362D01*
X80042Y-35362D01*
X80004Y-35343D01*
X79985Y-35325D01*
X79967Y-35287D01*
X79967Y-35193D01*
X79985Y-35137D01*
X80154Y-34968D02*
X80154Y-34837D01*
X80360Y-34781D02*
X80360Y-34968D01*
X79967Y-34968D01*
X79967Y-34781D01*
X80398Y-34706D02*
X80398Y-34406D01*
X80360Y-34312D02*
X79967Y-34312D01*
G54D17*
X35504Y-14180D02*
X35504Y-13780D01*
X35657Y-13780D01*
X35695Y-13800D01*
X35714Y-13819D01*
X35733Y-13857D01*
X35733Y-13914D01*
X35714Y-13952D01*
X35695Y-13971D01*
X35657Y-13990D01*
X35504Y-13990D01*
X36076Y-13780D02*
X36000Y-13780D01*
X35961Y-13800D01*
X35942Y-13819D01*
X35904Y-13876D01*
X35885Y-13952D01*
X35885Y-14104D01*
X35904Y-14142D01*
X35923Y-14161D01*
X35961Y-14180D01*
X36038Y-14180D01*
X36076Y-14161D01*
X36095Y-14142D01*
X36114Y-14104D01*
X36114Y-14009D01*
X36095Y-13971D01*
X36076Y-13952D01*
X36038Y-13933D01*
X35961Y-13933D01*
X35923Y-13952D01*
X35904Y-13971D01*
X35885Y-14009D01*
X82304Y-14180D02*
X82304Y-13780D01*
X82457Y-13780D01*
X82495Y-13800D01*
X82514Y-13819D01*
X82533Y-13857D01*
X82533Y-13914D01*
X82514Y-13952D01*
X82495Y-13971D01*
X82457Y-13990D01*
X82304Y-13990D01*
X82666Y-13780D02*
X82933Y-13780D01*
X82761Y-14180D01*
X35504Y-60980D02*
X35504Y-60580D01*
X35657Y-60580D01*
X35695Y-60600D01*
X35714Y-60619D01*
X35733Y-60657D01*
X35733Y-60714D01*
X35714Y-60752D01*
X35695Y-60771D01*
X35657Y-60790D01*
X35504Y-60790D01*
X35961Y-60752D02*
X35923Y-60733D01*
X35904Y-60714D01*
X35885Y-60676D01*
X35885Y-60657D01*
X35904Y-60619D01*
X35923Y-60600D01*
X35961Y-60580D01*
X36038Y-60580D01*
X36076Y-60600D01*
X36095Y-60619D01*
X36114Y-60657D01*
X36114Y-60676D01*
X36095Y-60714D01*
X36076Y-60733D01*
X36038Y-60752D01*
X35961Y-60752D01*
X35923Y-60771D01*
X35904Y-60790D01*
X35885Y-60828D01*
X35885Y-60904D01*
X35904Y-60942D01*
X35923Y-60961D01*
X35961Y-60980D01*
X36038Y-60980D01*
X36076Y-60961D01*
X36095Y-60942D01*
X36114Y-60904D01*
X36114Y-60828D01*
X36095Y-60790D01*
X36076Y-60771D01*
X36038Y-60752D01*
X82304Y-60980D02*
X82304Y-60580D01*
X82457Y-60580D01*
X82495Y-60600D01*
X82514Y-60619D01*
X82533Y-60657D01*
X82533Y-60714D01*
X82514Y-60752D01*
X82495Y-60771D01*
X82457Y-60790D01*
X82304Y-60790D01*
X82723Y-60980D02*
X82800Y-60980D01*
X82838Y-60961D01*
X82857Y-60942D01*
X82895Y-60885D01*
X82914Y-60809D01*
X82914Y-60657D01*
X82895Y-60619D01*
X82876Y-60600D01*
X82838Y-60580D01*
X82761Y-60580D01*
X82723Y-60600D01*
X82704Y-60619D01*
X82685Y-60657D01*
X82685Y-60752D01*
X82704Y-60790D01*
X82723Y-60809D01*
X82761Y-60828D01*
X82838Y-60828D01*
X82876Y-60809D01*
X82895Y-60790D01*
X82914Y-60752D01*
X82114Y-42580D02*
X82114Y-42180D01*
X82266Y-42180D01*
X82304Y-42200D01*
X82323Y-42219D01*
X82342Y-42257D01*
X82342Y-42314D01*
X82323Y-42352D01*
X82304Y-42371D01*
X82266Y-42390D01*
X82114Y-42390D01*
X82723Y-42580D02*
X82495Y-42580D01*
X82609Y-42580D02*
X82609Y-42180D01*
X82571Y-42238D01*
X82533Y-42276D01*
X82495Y-42295D01*
X82971Y-42180D02*
X83009Y-42180D01*
X83047Y-42200D01*
X83066Y-42219D01*
X83085Y-42257D01*
X83104Y-42333D01*
X83104Y-42428D01*
X83085Y-42504D01*
X83066Y-42542D01*
X83047Y-42561D01*
X83009Y-42580D01*
X82971Y-42580D01*
X82933Y-42561D01*
X82914Y-42542D01*
X82895Y-42504D01*
X82876Y-42428D01*
X82876Y-42333D01*
X82895Y-42257D01*
X82914Y-42219D01*
X82933Y-42200D01*
X82971Y-42180D01*
X35314Y-42580D02*
X35314Y-42180D01*
X35466Y-42180D01*
X35504Y-42200D01*
X35523Y-42219D01*
X35542Y-42257D01*
X35542Y-42314D01*
X35523Y-42352D01*
X35504Y-42371D01*
X35466Y-42390D01*
X35314Y-42390D01*
X35923Y-42580D02*
X35695Y-42580D01*
X35809Y-42580D02*
X35809Y-42180D01*
X35771Y-42238D01*
X35733Y-42276D01*
X35695Y-42295D01*
X36304Y-42580D02*
X36076Y-42580D01*
X36190Y-42580D02*
X36190Y-42180D01*
X36152Y-42238D01*
X36114Y-42276D01*
X36076Y-42295D01*
G54D18*
X73478Y-22838D02*
X73450Y-22876D01*
X73392Y-22914D01*
X73307Y-22971D01*
X73278Y-23009D01*
X73278Y-23047D01*
X73421Y-23028D02*
X73392Y-23066D01*
X73335Y-23104D01*
X73221Y-23123D01*
X73021Y-23123D01*
X72907Y-23104D01*
X72850Y-23066D01*
X72821Y-23028D01*
X72821Y-22952D01*
X72850Y-22914D01*
X72907Y-22876D01*
X73021Y-22857D01*
X73221Y-22857D01*
X73335Y-22876D01*
X73392Y-22914D01*
X73421Y-22952D01*
X73421Y-23028D01*
X73421Y-22476D02*
X73421Y-22704D01*
X73421Y-22590D02*
X72821Y-22590D01*
X72907Y-22628D01*
X72964Y-22666D01*
X72992Y-22704D01*
X73707Y-20571D02*
X73707Y-19971D01*
X74126Y-20571D02*
X73992Y-20285D01*
X73897Y-20571D02*
X73897Y-19971D01*
X74050Y-19971D01*
X74088Y-20000D01*
X74107Y-20028D01*
X74126Y-20085D01*
X74126Y-20171D01*
X74107Y-20228D01*
X74088Y-20257D01*
X74050Y-20285D01*
X73897Y-20285D01*
X74430Y-20257D02*
X74297Y-20257D01*
X74297Y-20571D02*
X74297Y-19971D01*
X74488Y-19971D01*
X74602Y-19971D02*
X74869Y-19971D01*
X74697Y-20571D01*
X75192Y-20171D02*
X75192Y-20571D01*
X75097Y-19942D02*
X75002Y-20371D01*
X75250Y-20371D01*
X75478Y-19971D02*
X75516Y-19971D01*
X75554Y-20000D01*
X75573Y-20028D01*
X75592Y-20085D01*
X75611Y-20200D01*
X75611Y-20342D01*
X75592Y-20457D01*
X75573Y-20514D01*
X75554Y-20542D01*
X75516Y-20571D01*
X75478Y-20571D01*
X75440Y-20542D01*
X75421Y-20514D01*
X75402Y-20457D01*
X75383Y-20342D01*
X75383Y-20200D01*
X75402Y-20085D01*
X75421Y-20028D01*
X75440Y-20000D01*
X75478Y-19971D01*
X57078Y-22838D02*
X57050Y-22876D01*
X56992Y-22914D01*
X56907Y-22971D01*
X56878Y-23009D01*
X56878Y-23047D01*
X57021Y-23028D02*
X56992Y-23066D01*
X56935Y-23104D01*
X56821Y-23123D01*
X56621Y-23123D01*
X56507Y-23104D01*
X56450Y-23066D01*
X56421Y-23028D01*
X56421Y-22952D01*
X56450Y-22914D01*
X56507Y-22876D01*
X56621Y-22857D01*
X56821Y-22857D01*
X56935Y-22876D01*
X56992Y-22914D01*
X57021Y-22952D01*
X57021Y-23028D01*
X56478Y-22704D02*
X56450Y-22685D01*
X56421Y-22647D01*
X56421Y-22552D01*
X56450Y-22514D01*
X56478Y-22495D01*
X56535Y-22476D01*
X56592Y-22476D01*
X56678Y-22495D01*
X57021Y-22723D01*
X57021Y-22476D01*
X57307Y-20571D02*
X57307Y-19971D01*
X57726Y-20571D02*
X57592Y-20285D01*
X57497Y-20571D02*
X57497Y-19971D01*
X57650Y-19971D01*
X57688Y-20000D01*
X57707Y-20028D01*
X57726Y-20085D01*
X57726Y-20171D01*
X57707Y-20228D01*
X57688Y-20257D01*
X57650Y-20285D01*
X57497Y-20285D01*
X58030Y-20257D02*
X57897Y-20257D01*
X57897Y-20571D02*
X57897Y-19971D01*
X58088Y-19971D01*
X58202Y-19971D02*
X58469Y-19971D01*
X58297Y-20571D01*
X58792Y-20171D02*
X58792Y-20571D01*
X58697Y-19942D02*
X58602Y-20371D01*
X58850Y-20371D01*
X59078Y-19971D02*
X59116Y-19971D01*
X59154Y-20000D01*
X59173Y-20028D01*
X59192Y-20085D01*
X59211Y-20200D01*
X59211Y-20342D01*
X59192Y-20457D01*
X59173Y-20514D01*
X59154Y-20542D01*
X59116Y-20571D01*
X59078Y-20571D01*
X59040Y-20542D01*
X59021Y-20514D01*
X59002Y-20457D01*
X58983Y-20342D01*
X58983Y-20200D01*
X59002Y-20085D01*
X59021Y-20028D01*
X59040Y-20000D01*
X59078Y-19971D01*
X40678Y-22838D02*
X40650Y-22876D01*
X40592Y-22914D01*
X40507Y-22971D01*
X40478Y-23009D01*
X40478Y-23047D01*
X40621Y-23028D02*
X40592Y-23066D01*
X40535Y-23104D01*
X40421Y-23123D01*
X40221Y-23123D01*
X40107Y-23104D01*
X40050Y-23066D01*
X40021Y-23028D01*
X40021Y-22952D01*
X40050Y-22914D01*
X40107Y-22876D01*
X40221Y-22857D01*
X40421Y-22857D01*
X40535Y-22876D01*
X40592Y-22914D01*
X40621Y-22952D01*
X40621Y-23028D01*
X40021Y-22723D02*
X40021Y-22476D01*
X40250Y-22609D01*
X40250Y-22552D01*
X40278Y-22514D01*
X40307Y-22495D01*
X40364Y-22476D01*
X40507Y-22476D01*
X40564Y-22495D01*
X40592Y-22514D01*
X40621Y-22552D01*
X40621Y-22666D01*
X40592Y-22704D01*
X40564Y-22723D01*
X40907Y-20571D02*
X40907Y-19971D01*
X41326Y-20571D02*
X41192Y-20285D01*
X41097Y-20571D02*
X41097Y-19971D01*
X41250Y-19971D01*
X41288Y-20000D01*
X41307Y-20028D01*
X41326Y-20085D01*
X41326Y-20171D01*
X41307Y-20228D01*
X41288Y-20257D01*
X41250Y-20285D01*
X41097Y-20285D01*
X41630Y-20257D02*
X41497Y-20257D01*
X41497Y-20571D02*
X41497Y-19971D01*
X41688Y-19971D01*
X41802Y-19971D02*
X42069Y-19971D01*
X41897Y-20571D01*
X42392Y-20171D02*
X42392Y-20571D01*
X42297Y-19942D02*
X42202Y-20371D01*
X42450Y-20371D01*
X42678Y-19971D02*
X42716Y-19971D01*
X42754Y-20000D01*
X42773Y-20028D01*
X42792Y-20085D01*
X42811Y-20200D01*
X42811Y-20342D01*
X42792Y-20457D01*
X42773Y-20514D01*
X42754Y-20542D01*
X42716Y-20571D01*
X42678Y-20571D01*
X42640Y-20542D01*
X42621Y-20514D01*
X42602Y-20457D01*
X42583Y-20342D01*
X42583Y-20200D01*
X42602Y-20085D01*
X42621Y-20028D01*
X42640Y-20000D01*
X42678Y-19971D01*
X65078Y-41838D02*
X65050Y-41876D01*
X64992Y-41914D01*
X64907Y-41971D01*
X64878Y-42009D01*
X64878Y-42047D01*
X65021Y-42028D02*
X64992Y-42066D01*
X64935Y-42104D01*
X64821Y-42123D01*
X64621Y-42123D01*
X64507Y-42104D01*
X64450Y-42066D01*
X64421Y-42028D01*
X64421Y-41952D01*
X64450Y-41914D01*
X64507Y-41876D01*
X64621Y-41857D01*
X64821Y-41857D01*
X64935Y-41876D01*
X64992Y-41914D01*
X65021Y-41952D01*
X65021Y-42028D01*
X64621Y-41514D02*
X65021Y-41514D01*
X64392Y-41609D02*
X64821Y-41704D01*
X64821Y-41457D01*
X65307Y-39571D02*
X65307Y-38971D01*
X65726Y-39571D02*
X65592Y-39285D01*
X65497Y-39571D02*
X65497Y-38971D01*
X65650Y-38971D01*
X65688Y-39000D01*
X65707Y-39028D01*
X65726Y-39085D01*
X65726Y-39171D01*
X65707Y-39228D01*
X65688Y-39257D01*
X65650Y-39285D01*
X65497Y-39285D01*
X66030Y-39257D02*
X65897Y-39257D01*
X65897Y-39571D02*
X65897Y-38971D01*
X66088Y-38971D01*
X66202Y-38971D02*
X66469Y-38971D01*
X66297Y-39571D01*
X66792Y-39171D02*
X66792Y-39571D01*
X66697Y-38942D02*
X66602Y-39371D01*
X66850Y-39371D01*
X67078Y-38971D02*
X67116Y-38971D01*
X67154Y-39000D01*
X67173Y-39028D01*
X67192Y-39085D01*
X67211Y-39200D01*
X67211Y-39342D01*
X67192Y-39457D01*
X67173Y-39514D01*
X67154Y-39542D01*
X67116Y-39571D01*
X67078Y-39571D01*
X67040Y-39542D01*
X67021Y-39514D01*
X67002Y-39457D01*
X66983Y-39342D01*
X66983Y-39200D01*
X67002Y-39085D01*
X67021Y-39028D01*
X67040Y-39000D01*
X67078Y-38971D01*
X48878Y-41838D02*
X48850Y-41876D01*
X48792Y-41914D01*
X48707Y-41971D01*
X48678Y-42009D01*
X48678Y-42047D01*
X48821Y-42028D02*
X48792Y-42066D01*
X48735Y-42104D01*
X48621Y-42123D01*
X48421Y-42123D01*
X48307Y-42104D01*
X48250Y-42066D01*
X48221Y-42028D01*
X48221Y-41952D01*
X48250Y-41914D01*
X48307Y-41876D01*
X48421Y-41857D01*
X48621Y-41857D01*
X48735Y-41876D01*
X48792Y-41914D01*
X48821Y-41952D01*
X48821Y-42028D01*
X48221Y-41495D02*
X48221Y-41685D01*
X48507Y-41704D01*
X48478Y-41685D01*
X48450Y-41647D01*
X48450Y-41552D01*
X48478Y-41514D01*
X48507Y-41495D01*
X48564Y-41476D01*
X48707Y-41476D01*
X48764Y-41495D01*
X48792Y-41514D01*
X48821Y-41552D01*
X48821Y-41647D01*
X48792Y-41685D01*
X48764Y-41704D01*
X49107Y-39571D02*
X49107Y-38971D01*
X49526Y-39571D02*
X49392Y-39285D01*
X49297Y-39571D02*
X49297Y-38971D01*
X49450Y-38971D01*
X49488Y-39000D01*
X49507Y-39028D01*
X49526Y-39085D01*
X49526Y-39171D01*
X49507Y-39228D01*
X49488Y-39257D01*
X49450Y-39285D01*
X49297Y-39285D01*
X49830Y-39257D02*
X49697Y-39257D01*
X49697Y-39571D02*
X49697Y-38971D01*
X49888Y-38971D01*
X50002Y-38971D02*
X50269Y-38971D01*
X50097Y-39571D01*
X50592Y-39171D02*
X50592Y-39571D01*
X50497Y-38942D02*
X50402Y-39371D01*
X50650Y-39371D01*
X50878Y-38971D02*
X50916Y-38971D01*
X50954Y-39000D01*
X50973Y-39028D01*
X50992Y-39085D01*
X51011Y-39200D01*
X51011Y-39342D01*
X50992Y-39457D01*
X50973Y-39514D01*
X50954Y-39542D01*
X50916Y-39571D01*
X50878Y-39571D01*
X50840Y-39542D01*
X50821Y-39514D01*
X50802Y-39457D01*
X50783Y-39342D01*
X50783Y-39200D01*
X50802Y-39085D01*
X50821Y-39028D01*
X50840Y-39000D01*
X50878Y-38971D01*
X63761Y-56678D02*
X63723Y-56650D01*
X63685Y-56592D01*
X63628Y-56507D01*
X63590Y-56478D01*
X63552Y-56478D01*
X63571Y-56621D02*
X63533Y-56592D01*
X63495Y-56535D01*
X63476Y-56421D01*
X63476Y-56221D01*
X63495Y-56107D01*
X63533Y-56050D01*
X63571Y-56021D01*
X63647Y-56021D01*
X63685Y-56050D01*
X63723Y-56107D01*
X63742Y-56221D01*
X63742Y-56421D01*
X63723Y-56535D01*
X63685Y-56592D01*
X63647Y-56621D01*
X63571Y-56621D01*
X63971Y-56278D02*
X63933Y-56250D01*
X63914Y-56221D01*
X63895Y-56164D01*
X63895Y-56135D01*
X63914Y-56078D01*
X63933Y-56050D01*
X63971Y-56021D01*
X64047Y-56021D01*
X64085Y-56050D01*
X64104Y-56078D01*
X64123Y-56135D01*
X64123Y-56164D01*
X64104Y-56221D01*
X64085Y-56250D01*
X64047Y-56278D01*
X63971Y-56278D01*
X63933Y-56307D01*
X63914Y-56335D01*
X63895Y-56392D01*
X63895Y-56507D01*
X63914Y-56564D01*
X63933Y-56592D01*
X63971Y-56621D01*
X64047Y-56621D01*
X64085Y-56592D01*
X64104Y-56564D01*
X64123Y-56507D01*
X64123Y-56392D01*
X64104Y-56335D01*
X64085Y-56307D01*
X64047Y-56278D01*
X65971Y-58640D02*
X65971Y-58411D01*
X66571Y-58526D02*
X65971Y-58526D01*
X66571Y-58278D02*
X65971Y-58278D01*
X66571Y-58088D02*
X65971Y-58088D01*
X65971Y-57935D01*
X66000Y-57897D01*
X66028Y-57878D01*
X66085Y-57859D01*
X66171Y-57859D01*
X66228Y-57878D01*
X66257Y-57897D01*
X66285Y-57935D01*
X66285Y-58088D01*
X65971Y-57497D02*
X65971Y-57688D01*
X66257Y-57707D01*
X66228Y-57688D01*
X66200Y-57649D01*
X66200Y-57554D01*
X66228Y-57516D01*
X66257Y-57497D01*
X66314Y-57478D01*
X66457Y-57478D01*
X66514Y-57497D01*
X66542Y-57516D01*
X66571Y-57554D01*
X66571Y-57649D01*
X66542Y-57688D01*
X66514Y-57707D01*
X65971Y-57230D02*
X65971Y-57192D01*
X66000Y-57154D01*
X66028Y-57135D01*
X66085Y-57116D01*
X66200Y-57097D01*
X66342Y-57097D01*
X66457Y-57116D01*
X66514Y-57135D01*
X66542Y-57154D01*
X66571Y-57192D01*
X66571Y-57230D01*
X66542Y-57269D01*
X66514Y-57288D01*
X66457Y-57307D01*
X66342Y-57326D01*
X66200Y-57326D01*
X66085Y-57307D01*
X66028Y-57288D01*
X66000Y-57269D01*
X65971Y-57230D01*
X68916Y-22248D02*
X68750Y-21986D01*
X68630Y-22248D02*
X68630Y-21698D01*
X68821Y-21698D01*
X68869Y-21725D01*
X68892Y-21751D01*
X68916Y-21803D01*
X68916Y-21882D01*
X68892Y-21934D01*
X68869Y-21960D01*
X68821Y-21986D01*
X68630Y-21986D01*
X69392Y-22248D02*
X69107Y-22248D01*
X69250Y-22248D02*
X69250Y-21698D01*
X69202Y-21777D01*
X69154Y-21829D01*
X69107Y-21855D01*
X81933Y-23542D02*
X81671Y-23709D01*
X81933Y-23828D02*
X81383Y-23828D01*
X81383Y-23638D01*
X81409Y-23590D01*
X81435Y-23566D01*
X81488Y-23542D01*
X81566Y-23542D01*
X81619Y-23566D01*
X81645Y-23590D01*
X81671Y-23638D01*
X81671Y-23828D01*
X81435Y-23352D02*
X81409Y-23328D01*
X81383Y-23280D01*
X81383Y-23161D01*
X81409Y-23114D01*
X81435Y-23090D01*
X81488Y-23066D01*
X81540Y-23066D01*
X81619Y-23090D01*
X81933Y-23376D01*
X81933Y-23066D01*
X52516Y-22248D02*
X52350Y-21986D01*
X52230Y-22248D02*
X52230Y-21698D01*
X52421Y-21698D01*
X52469Y-21725D01*
X52492Y-21751D01*
X52516Y-21803D01*
X52516Y-21882D01*
X52492Y-21934D01*
X52469Y-21960D01*
X52421Y-21986D01*
X52230Y-21986D01*
X52683Y-21698D02*
X52992Y-21698D01*
X52826Y-21908D01*
X52897Y-21908D01*
X52945Y-21934D01*
X52969Y-21960D01*
X52992Y-22013D01*
X52992Y-22144D01*
X52969Y-22196D01*
X52945Y-22222D01*
X52897Y-22248D01*
X52754Y-22248D01*
X52707Y-22222D01*
X52683Y-22196D01*
X65133Y-23542D02*
X64871Y-23709D01*
X65133Y-23828D02*
X64583Y-23828D01*
X64583Y-23638D01*
X64609Y-23590D01*
X64635Y-23566D01*
X64688Y-23542D01*
X64766Y-23542D01*
X64819Y-23566D01*
X64845Y-23590D01*
X64871Y-23638D01*
X64871Y-23828D01*
X64766Y-23114D02*
X65133Y-23114D01*
X64557Y-23233D02*
X64950Y-23352D01*
X64950Y-23042D01*
X36116Y-22248D02*
X35950Y-21986D01*
X35830Y-22248D02*
X35830Y-21698D01*
X36021Y-21698D01*
X36069Y-21725D01*
X36092Y-21751D01*
X36116Y-21803D01*
X36116Y-21882D01*
X36092Y-21934D01*
X36069Y-21960D01*
X36021Y-21986D01*
X35830Y-21986D01*
X36569Y-21698D02*
X36330Y-21698D01*
X36307Y-21960D01*
X36330Y-21934D01*
X36378Y-21908D01*
X36497Y-21908D01*
X36545Y-21934D01*
X36569Y-21960D01*
X36592Y-22013D01*
X36592Y-22144D01*
X36569Y-22196D01*
X36545Y-22222D01*
X36497Y-22248D01*
X36378Y-22248D01*
X36330Y-22222D01*
X36307Y-22196D01*
X48733Y-23542D02*
X48471Y-23709D01*
X48733Y-23828D02*
X48183Y-23828D01*
X48183Y-23638D01*
X48209Y-23590D01*
X48235Y-23566D01*
X48288Y-23542D01*
X48366Y-23542D01*
X48419Y-23566D01*
X48445Y-23590D01*
X48471Y-23638D01*
X48471Y-23828D01*
X48183Y-23114D02*
X48183Y-23209D01*
X48209Y-23257D01*
X48235Y-23280D01*
X48314Y-23328D01*
X48419Y-23352D01*
X48628Y-23352D01*
X48681Y-23328D01*
X48707Y-23304D01*
X48733Y-23257D01*
X48733Y-23161D01*
X48707Y-23114D01*
X48681Y-23090D01*
X48628Y-23066D01*
X48497Y-23066D01*
X48445Y-23090D01*
X48419Y-23114D01*
X48392Y-23161D01*
X48392Y-23257D01*
X48419Y-23304D01*
X48445Y-23328D01*
X48497Y-23352D01*
X60516Y-41448D02*
X60350Y-41186D01*
X60230Y-41448D02*
X60230Y-40898D01*
X60421Y-40898D01*
X60469Y-40925D01*
X60492Y-40951D01*
X60516Y-41003D01*
X60516Y-41082D01*
X60492Y-41134D01*
X60469Y-41160D01*
X60421Y-41186D01*
X60230Y-41186D01*
X60683Y-40898D02*
X61016Y-40898D01*
X60802Y-41448D01*
X73133Y-42542D02*
X72871Y-42709D01*
X73133Y-42828D02*
X72583Y-42828D01*
X72583Y-42638D01*
X72609Y-42590D01*
X72635Y-42566D01*
X72688Y-42542D01*
X72766Y-42542D01*
X72819Y-42566D01*
X72845Y-42590D01*
X72871Y-42638D01*
X72871Y-42828D01*
X72819Y-42257D02*
X72792Y-42304D01*
X72766Y-42328D01*
X72714Y-42352D01*
X72688Y-42352D01*
X72635Y-42328D01*
X72609Y-42304D01*
X72583Y-42257D01*
X72583Y-42161D01*
X72609Y-42114D01*
X72635Y-42090D01*
X72688Y-42066D01*
X72714Y-42066D01*
X72766Y-42090D01*
X72792Y-42114D01*
X72819Y-42161D01*
X72819Y-42257D01*
X72845Y-42304D01*
X72871Y-42328D01*
X72923Y-42352D01*
X73028Y-42352D01*
X73081Y-42328D01*
X73107Y-42304D01*
X73133Y-42257D01*
X73133Y-42161D01*
X73107Y-42114D01*
X73081Y-42090D01*
X73028Y-42066D01*
X72923Y-42066D01*
X72871Y-42090D01*
X72845Y-42114D01*
X72819Y-42161D01*
X44116Y-41448D02*
X43950Y-41186D01*
X43830Y-41448D02*
X43830Y-40898D01*
X44021Y-40898D01*
X44069Y-40925D01*
X44092Y-40951D01*
X44116Y-41003D01*
X44116Y-41082D01*
X44092Y-41134D01*
X44069Y-41160D01*
X44021Y-41186D01*
X43830Y-41186D01*
X44354Y-41448D02*
X44450Y-41448D01*
X44497Y-41422D01*
X44521Y-41396D01*
X44569Y-41317D01*
X44592Y-41213D01*
X44592Y-41003D01*
X44569Y-40951D01*
X44545Y-40925D01*
X44497Y-40898D01*
X44402Y-40898D01*
X44354Y-40925D01*
X44330Y-40951D01*
X44307Y-41003D01*
X44307Y-41134D01*
X44330Y-41186D01*
X44354Y-41213D01*
X44402Y-41239D01*
X44497Y-41239D01*
X44545Y-41213D01*
X44569Y-41186D01*
X44592Y-41134D01*
X56933Y-42780D02*
X56671Y-42947D01*
X56933Y-43066D02*
X56383Y-43066D01*
X56383Y-42876D01*
X56409Y-42828D01*
X56435Y-42804D01*
X56488Y-42780D01*
X56566Y-42780D01*
X56619Y-42804D01*
X56645Y-42828D01*
X56671Y-42876D01*
X56671Y-43066D01*
X56933Y-42304D02*
X56933Y-42590D01*
X56933Y-42447D02*
X56383Y-42447D01*
X56462Y-42495D01*
X56514Y-42542D01*
X56540Y-42590D01*
X56383Y-41995D02*
X56383Y-41947D01*
X56409Y-41899D01*
X56435Y-41876D01*
X56488Y-41852D01*
X56592Y-41828D01*
X56723Y-41828D01*
X56828Y-41852D01*
X56881Y-41876D01*
X56907Y-41899D01*
X56933Y-41947D01*
X56933Y-41995D01*
X56907Y-42042D01*
X56881Y-42066D01*
X56828Y-42090D01*
X56723Y-42114D01*
X56592Y-42114D01*
X56488Y-42090D01*
X56435Y-42066D01*
X56409Y-42042D01*
X56383Y-41995D01*
X41478Y-62648D02*
X41311Y-62386D01*
X41192Y-62648D02*
X41192Y-62098D01*
X41383Y-62098D01*
X41430Y-62125D01*
X41454Y-62151D01*
X41478Y-62203D01*
X41478Y-62282D01*
X41454Y-62334D01*
X41430Y-62360D01*
X41383Y-62386D01*
X41192Y-62386D01*
X41954Y-62648D02*
X41669Y-62648D01*
X41811Y-62648D02*
X41811Y-62098D01*
X41764Y-62177D01*
X41716Y-62229D01*
X41669Y-62255D01*
X42430Y-62648D02*
X42145Y-62648D01*
X42288Y-62648D02*
X42288Y-62098D01*
X42240Y-62177D01*
X42192Y-62229D01*
X42145Y-62255D01*
X82478Y-52048D02*
X82311Y-51786D01*
X82192Y-52048D02*
X82192Y-51498D01*
X82383Y-51498D01*
X82430Y-51525D01*
X82454Y-51551D01*
X82478Y-51603D01*
X82478Y-51682D01*
X82454Y-51734D01*
X82430Y-51760D01*
X82383Y-51786D01*
X82192Y-51786D01*
X82954Y-52048D02*
X82669Y-52048D01*
X82811Y-52048D02*
X82811Y-51498D01*
X82764Y-51577D01*
X82716Y-51629D01*
X82669Y-51655D01*
X83145Y-51551D02*
X83169Y-51525D01*
X83216Y-51498D01*
X83335Y-51498D01*
X83383Y-51525D01*
X83407Y-51551D01*
X83430Y-51603D01*
X83430Y-51655D01*
X83407Y-51734D01*
X83121Y-52048D01*
X83430Y-52048D01*
X76248Y-53721D02*
X75986Y-53888D01*
X76248Y-54007D02*
X75698Y-54007D01*
X75698Y-53816D01*
X75725Y-53769D01*
X75751Y-53745D01*
X75803Y-53721D01*
X75882Y-53721D01*
X75934Y-53745D01*
X75960Y-53769D01*
X75986Y-53816D01*
X75986Y-54007D01*
X76248Y-53245D02*
X76248Y-53530D01*
X76248Y-53388D02*
X75698Y-53388D01*
X75777Y-53435D01*
X75829Y-53483D01*
X75855Y-53530D01*
X75698Y-53078D02*
X75698Y-52769D01*
X75908Y-52935D01*
X75908Y-52864D01*
X75934Y-52816D01*
X75960Y-52792D01*
X76013Y-52769D01*
X76144Y-52769D01*
X76196Y-52792D01*
X76222Y-52816D01*
X76248Y-52864D01*
X76248Y-53007D01*
X76222Y-53054D01*
X76196Y-53078D01*
X64048Y-55521D02*
X63786Y-55688D01*
X64048Y-55807D02*
X63498Y-55807D01*
X63498Y-55616D01*
X63525Y-55569D01*
X63551Y-55545D01*
X63603Y-55521D01*
X63682Y-55521D01*
X63734Y-55545D01*
X63760Y-55569D01*
X63786Y-55616D01*
X63786Y-55807D01*
X64048Y-55045D02*
X64048Y-55330D01*
X64048Y-55188D02*
X63498Y-55188D01*
X63577Y-55235D01*
X63629Y-55283D01*
X63655Y-55330D01*
X63682Y-54616D02*
X64048Y-54616D01*
X63472Y-54735D02*
X63865Y-54854D01*
X63865Y-54545D01*
X61448Y-55521D02*
X61186Y-55688D01*
X61448Y-55807D02*
X60898Y-55807D01*
X60898Y-55616D01*
X60925Y-55569D01*
X60951Y-55545D01*
X61003Y-55521D01*
X61082Y-55521D01*
X61134Y-55545D01*
X61160Y-55569D01*
X61186Y-55616D01*
X61186Y-55807D01*
X61448Y-55045D02*
X61448Y-55330D01*
X61448Y-55188D02*
X60898Y-55188D01*
X60977Y-55235D01*
X61029Y-55283D01*
X61055Y-55330D01*
X60898Y-54616D02*
X60898Y-54711D01*
X60925Y-54759D01*
X60951Y-54783D01*
X61029Y-54830D01*
X61134Y-54854D01*
X61344Y-54854D01*
X61396Y-54830D01*
X61422Y-54807D01*
X61448Y-54759D01*
X61448Y-54664D01*
X61422Y-54616D01*
X61396Y-54592D01*
X61344Y-54569D01*
X61213Y-54569D01*
X61160Y-54592D01*
X61134Y-54616D01*
X61108Y-54664D01*
X61108Y-54759D01*
X61134Y-54807D01*
X61160Y-54830D01*
X61213Y-54854D01*
X58048Y-55521D02*
X57786Y-55688D01*
X58048Y-55807D02*
X57498Y-55807D01*
X57498Y-55616D01*
X57525Y-55569D01*
X57551Y-55545D01*
X57603Y-55521D01*
X57682Y-55521D01*
X57734Y-55545D01*
X57760Y-55569D01*
X57786Y-55616D01*
X57786Y-55807D01*
X58048Y-55045D02*
X58048Y-55330D01*
X58048Y-55188D02*
X57498Y-55188D01*
X57577Y-55235D01*
X57629Y-55283D01*
X57655Y-55330D01*
X57498Y-54878D02*
X57498Y-54545D01*
X58048Y-54759D01*
X68248Y-54521D02*
X67986Y-54688D01*
X68248Y-54807D02*
X67698Y-54807D01*
X67698Y-54616D01*
X67725Y-54569D01*
X67751Y-54545D01*
X67803Y-54521D01*
X67882Y-54521D01*
X67934Y-54545D01*
X67960Y-54569D01*
X67986Y-54616D01*
X67986Y-54807D01*
X68248Y-54045D02*
X68248Y-54330D01*
X68248Y-54188D02*
X67698Y-54188D01*
X67777Y-54235D01*
X67829Y-54283D01*
X67855Y-54330D01*
X67934Y-53759D02*
X67908Y-53807D01*
X67882Y-53830D01*
X67829Y-53854D01*
X67803Y-53854D01*
X67751Y-53830D01*
X67725Y-53807D01*
X67698Y-53759D01*
X67698Y-53664D01*
X67725Y-53616D01*
X67751Y-53592D01*
X67803Y-53569D01*
X67829Y-53569D01*
X67882Y-53592D01*
X67908Y-53616D01*
X67934Y-53664D01*
X67934Y-53759D01*
X67960Y-53807D01*
X67986Y-53830D01*
X68039Y-53854D01*
X68144Y-53854D01*
X68196Y-53830D01*
X68222Y-53807D01*
X68248Y-53759D01*
X68248Y-53664D01*
X68222Y-53616D01*
X68196Y-53592D01*
X68144Y-53569D01*
X68039Y-53569D01*
X67986Y-53592D01*
X67960Y-53616D01*
X67934Y-53664D01*
X68248Y-56521D02*
X67986Y-56688D01*
X68248Y-56807D02*
X67698Y-56807D01*
X67698Y-56616D01*
X67725Y-56569D01*
X67751Y-56545D01*
X67803Y-56521D01*
X67882Y-56521D01*
X67934Y-56545D01*
X67960Y-56569D01*
X67986Y-56616D01*
X67986Y-56807D01*
X68248Y-56045D02*
X68248Y-56330D01*
X68248Y-56188D02*
X67698Y-56188D01*
X67777Y-56235D01*
X67829Y-56283D01*
X67855Y-56330D01*
X68248Y-55807D02*
X68248Y-55711D01*
X68222Y-55664D01*
X68196Y-55640D01*
X68117Y-55592D01*
X68013Y-55569D01*
X67803Y-55569D01*
X67751Y-55592D01*
X67725Y-55616D01*
X67698Y-55664D01*
X67698Y-55759D01*
X67725Y-55807D01*
X67751Y-55830D01*
X67803Y-55854D01*
X67934Y-55854D01*
X67986Y-55830D01*
X68013Y-55807D01*
X68039Y-55759D01*
X68039Y-55664D01*
X68013Y-55616D01*
X67986Y-55592D01*
X67934Y-55569D01*
X77048Y-41321D02*
X76786Y-41488D01*
X77048Y-41607D02*
X76498Y-41607D01*
X76498Y-41416D01*
X76525Y-41369D01*
X76551Y-41345D01*
X76603Y-41321D01*
X76682Y-41321D01*
X76734Y-41345D01*
X76760Y-41369D01*
X76786Y-41416D01*
X76786Y-41607D01*
X76551Y-41130D02*
X76525Y-41107D01*
X76498Y-41059D01*
X76498Y-40940D01*
X76525Y-40892D01*
X76551Y-40869D01*
X76603Y-40845D01*
X76655Y-40845D01*
X76734Y-40869D01*
X77048Y-41154D01*
X77048Y-40845D01*
X76498Y-40535D02*
X76498Y-40488D01*
X76525Y-40440D01*
X76551Y-40416D01*
X76603Y-40392D01*
X76708Y-40369D01*
X76839Y-40369D01*
X76944Y-40392D01*
X76996Y-40416D01*
X77022Y-40440D01*
X77048Y-40488D01*
X77048Y-40535D01*
X77022Y-40583D01*
X76996Y-40607D01*
X76944Y-40630D01*
X76839Y-40654D01*
X76708Y-40654D01*
X76603Y-40630D01*
X76551Y-40607D01*
X76525Y-40583D01*
X76498Y-40535D01*
X77478Y-40048D02*
X77311Y-39786D01*
X77192Y-40048D02*
X77192Y-39498D01*
X77383Y-39498D01*
X77430Y-39525D01*
X77454Y-39551D01*
X77478Y-39603D01*
X77478Y-39682D01*
X77454Y-39734D01*
X77430Y-39760D01*
X77383Y-39786D01*
X77192Y-39786D01*
X77669Y-39551D02*
X77692Y-39525D01*
X77740Y-39498D01*
X77859Y-39498D01*
X77907Y-39525D01*
X77930Y-39551D01*
X77954Y-39603D01*
X77954Y-39655D01*
X77930Y-39734D01*
X77645Y-40048D01*
X77954Y-40048D01*
X78430Y-40048D02*
X78145Y-40048D01*
X78288Y-40048D02*
X78288Y-39498D01*
X78240Y-39577D01*
X78192Y-39629D01*
X78145Y-39655D01*
G54D13*
X55565Y-59878D02*
X55434Y-59691D01*
X55340Y-59878D02*
X55340Y-59485D01*
X55490Y-59485D01*
X55528Y-59503D01*
X55546Y-59522D01*
X55565Y-59560D01*
X55565Y-59616D01*
X55546Y-59653D01*
X55528Y-59672D01*
X55490Y-59691D01*
X55340Y-59691D01*
X55678Y-59485D02*
X55809Y-59878D01*
X55940Y-59485D01*
X56278Y-59878D02*
X56053Y-59878D01*
X56165Y-59878D02*
X56165Y-59485D01*
X56128Y-59541D01*
X56090Y-59578D01*
X56053Y-59597D01*
X55359Y-62201D02*
X55171Y-62201D01*
X55153Y-62389D01*
X55171Y-62370D01*
X55209Y-62351D01*
X55303Y-62351D01*
X55340Y-62370D01*
X55359Y-62389D01*
X55378Y-62426D01*
X55378Y-62520D01*
X55359Y-62557D01*
X55340Y-62576D01*
X55303Y-62595D01*
X55209Y-62595D01*
X55171Y-62576D01*
X55153Y-62557D01*
X55621Y-62201D02*
X55659Y-62201D01*
X55696Y-62220D01*
X55715Y-62239D01*
X55734Y-62276D01*
X55753Y-62351D01*
X55753Y-62445D01*
X55734Y-62520D01*
X55715Y-62557D01*
X55696Y-62576D01*
X55659Y-62595D01*
X55621Y-62595D01*
X55584Y-62576D01*
X55565Y-62557D01*
X55546Y-62520D01*
X55528Y-62445D01*
X55528Y-62351D01*
X55546Y-62276D01*
X55565Y-62239D01*
X55584Y-62220D01*
X55621Y-62201D01*
X55996Y-62201D02*
X56034Y-62201D01*
X56071Y-62220D01*
X56090Y-62239D01*
X56109Y-62276D01*
X56128Y-62351D01*
X56128Y-62445D01*
X56109Y-62520D01*
X56090Y-62557D01*
X56071Y-62576D01*
X56034Y-62595D01*
X55996Y-62595D01*
X55959Y-62576D01*
X55940Y-62557D01*
X55921Y-62520D01*
X55903Y-62445D01*
X55903Y-62351D01*
X55921Y-62276D01*
X55940Y-62239D01*
X55959Y-62220D01*
X55996Y-62201D01*
X56296Y-62595D02*
X56296Y-62201D01*
X56334Y-62445D02*
X56446Y-62595D01*
X56446Y-62332D02*
X56296Y-62482D01*
X71565Y-59878D02*
X71434Y-59691D01*
X71340Y-59878D02*
X71340Y-59485D01*
X71490Y-59485D01*
X71528Y-59503D01*
X71546Y-59522D01*
X71565Y-59560D01*
X71565Y-59616D01*
X71546Y-59653D01*
X71528Y-59672D01*
X71490Y-59691D01*
X71340Y-59691D01*
X71678Y-59485D02*
X71809Y-59878D01*
X71940Y-59485D01*
X72053Y-59522D02*
X72071Y-59503D01*
X72109Y-59485D01*
X72203Y-59485D01*
X72240Y-59503D01*
X72259Y-59522D01*
X72278Y-59560D01*
X72278Y-59597D01*
X72259Y-59653D01*
X72034Y-59878D01*
X72278Y-59878D01*
X71378Y-62595D02*
X71153Y-62595D01*
X71265Y-62595D02*
X71265Y-62201D01*
X71228Y-62257D01*
X71190Y-62295D01*
X71153Y-62314D01*
X71621Y-62201D02*
X71659Y-62201D01*
X71696Y-62220D01*
X71715Y-62239D01*
X71734Y-62276D01*
X71753Y-62351D01*
X71753Y-62445D01*
X71734Y-62520D01*
X71715Y-62557D01*
X71696Y-62576D01*
X71659Y-62595D01*
X71621Y-62595D01*
X71584Y-62576D01*
X71565Y-62557D01*
X71546Y-62520D01*
X71528Y-62445D01*
X71528Y-62351D01*
X71546Y-62276D01*
X71565Y-62239D01*
X71584Y-62220D01*
X71621Y-62201D01*
X71996Y-62201D02*
X72034Y-62201D01*
X72071Y-62220D01*
X72090Y-62239D01*
X72109Y-62276D01*
X72128Y-62351D01*
X72128Y-62445D01*
X72109Y-62520D01*
X72090Y-62557D01*
X72071Y-62576D01*
X72034Y-62595D01*
X71996Y-62595D01*
X71959Y-62576D01*
X71940Y-62557D01*
X71921Y-62520D01*
X71903Y-62445D01*
X71903Y-62351D01*
X71921Y-62276D01*
X71940Y-62239D01*
X71959Y-62220D01*
X71996Y-62201D01*
X72296Y-62595D02*
X72296Y-62201D01*
X72334Y-62445D02*
X72446Y-62595D01*
X72446Y-62332D02*
X72296Y-62482D01*
X35660Y-58924D02*
X35678Y-58868D01*
X35678Y-58774D01*
X35660Y-58737D01*
X35641Y-58718D01*
X35603Y-58699D01*
X35566Y-58699D01*
X35528Y-58718D01*
X35510Y-58737D01*
X35491Y-58774D01*
X35472Y-58849D01*
X35453Y-58887D01*
X35435Y-58906D01*
X35397Y-58924D01*
X35360Y-58924D01*
X35322Y-58906D01*
X35303Y-58887D01*
X35285Y-58849D01*
X35285Y-58756D01*
X35303Y-58699D01*
X35285Y-58568D02*
X35678Y-58474D01*
X35397Y-58399D01*
X35678Y-58325D01*
X35285Y-58231D01*
X35678Y-57875D02*
X35678Y-58100D01*
X35678Y-57987D02*
X35285Y-57987D01*
X35341Y-58025D01*
X35378Y-58062D01*
X35397Y-58100D01*
X38376Y-59046D02*
X38395Y-58990D01*
X38395Y-58896D01*
X38376Y-58859D01*
X38357Y-58840D01*
X38320Y-58821D01*
X38282Y-58821D01*
X38245Y-58840D01*
X38226Y-58859D01*
X38207Y-58896D01*
X38189Y-58971D01*
X38170Y-59009D01*
X38151Y-59028D01*
X38114Y-59046D01*
X38076Y-59046D01*
X38039Y-59028D01*
X38020Y-59009D01*
X38001Y-58971D01*
X38001Y-58878D01*
X38020Y-58821D01*
X38395Y-58653D02*
X38001Y-58653D01*
X38001Y-58503D01*
X38020Y-58465D01*
X38039Y-58446D01*
X38076Y-58428D01*
X38132Y-58428D01*
X38170Y-58446D01*
X38189Y-58465D01*
X38207Y-58503D01*
X38207Y-58653D01*
X38376Y-58278D02*
X38395Y-58221D01*
X38395Y-58128D01*
X38376Y-58090D01*
X38357Y-58071D01*
X38320Y-58053D01*
X38282Y-58053D01*
X38245Y-58071D01*
X38226Y-58090D01*
X38207Y-58128D01*
X38189Y-58203D01*
X38170Y-58240D01*
X38151Y-58259D01*
X38114Y-58278D01*
X38076Y-58278D01*
X38039Y-58259D01*
X38020Y-58240D01*
X38001Y-58203D01*
X38001Y-58109D01*
X38020Y-58053D01*
X38001Y-57940D02*
X38001Y-57715D01*
X38395Y-57828D02*
X38001Y-57828D01*
G54D18*
X58595Y-53080D02*
X58595Y-53404D01*
X58614Y-53442D01*
X58633Y-53461D01*
X58671Y-53480D01*
X58747Y-53480D01*
X58785Y-53461D01*
X58804Y-53442D01*
X58823Y-53404D01*
X58823Y-53080D01*
X59223Y-53480D02*
X58995Y-53480D01*
X59109Y-53480D02*
X59109Y-53080D01*
X59071Y-53138D01*
X59033Y-53176D01*
X58995Y-53195D01*
X58633Y-49980D02*
X58442Y-49980D01*
X58442Y-49580D01*
X58995Y-49980D02*
X58861Y-49790D01*
X58766Y-49980D02*
X58766Y-49580D01*
X58919Y-49580D01*
X58957Y-49600D01*
X58976Y-49619D01*
X58995Y-49657D01*
X58995Y-49714D01*
X58976Y-49752D01*
X58957Y-49771D01*
X58919Y-49790D01*
X58766Y-49790D01*
X59223Y-49752D02*
X59185Y-49733D01*
X59166Y-49714D01*
X59147Y-49676D01*
X59147Y-49657D01*
X59166Y-49619D01*
X59185Y-49600D01*
X59223Y-49580D01*
X59300Y-49580D01*
X59338Y-49600D01*
X59357Y-49619D01*
X59376Y-49657D01*
X59376Y-49676D01*
X59357Y-49714D01*
X59338Y-49733D01*
X59300Y-49752D01*
X59223Y-49752D01*
X59185Y-49771D01*
X59166Y-49790D01*
X59147Y-49828D01*
X59147Y-49904D01*
X59166Y-49942D01*
X59185Y-49961D01*
X59223Y-49980D01*
X59300Y-49980D01*
X59338Y-49961D01*
X59357Y-49942D01*
X59376Y-49904D01*
X59376Y-49828D01*
X59357Y-49790D01*
X59338Y-49771D01*
X59300Y-49752D01*
X79457Y-52026D02*
X79457Y-52430D01*
X79478Y-52478D01*
X79500Y-52502D01*
X79542Y-52526D01*
X79628Y-52526D01*
X79671Y-52502D01*
X79692Y-52478D01*
X79714Y-52430D01*
X79714Y-52026D01*
X79907Y-52073D02*
X79928Y-52050D01*
X79971Y-52026D01*
X80078Y-52026D01*
X80121Y-52050D01*
X80142Y-52073D01*
X80164Y-52121D01*
X80164Y-52169D01*
X80142Y-52240D01*
X79885Y-52526D01*
X80164Y-52526D01*
X80026Y-55685D02*
X80026Y-55876D01*
X79526Y-55876D01*
X80026Y-55552D02*
X79526Y-55552D01*
X79883Y-55419D01*
X79526Y-55285D01*
X80026Y-55285D01*
X79526Y-55133D02*
X79526Y-54885D01*
X79716Y-55019D01*
X79716Y-54961D01*
X79740Y-54923D01*
X79764Y-54904D01*
X79811Y-54885D01*
X79930Y-54885D01*
X79978Y-54904D01*
X80002Y-54923D01*
X80026Y-54961D01*
X80026Y-55076D01*
X80002Y-55114D01*
X79978Y-55133D01*
X80026Y-54504D02*
X80026Y-54733D01*
X80026Y-54619D02*
X79526Y-54619D01*
X79597Y-54657D01*
X79645Y-54695D01*
X79669Y-54733D01*
X80026Y-54123D02*
X80026Y-54352D01*
X80026Y-54238D02*
X79526Y-54238D01*
X79597Y-54276D01*
X79645Y-54314D01*
X79669Y-54352D01*
X80026Y-53952D02*
X79526Y-53952D01*
X80026Y-53723D01*
X79526Y-53723D01*
X73057Y-52026D02*
X73057Y-52430D01*
X73078Y-52478D01*
X73100Y-52502D01*
X73142Y-52526D01*
X73228Y-52526D01*
X73271Y-52502D01*
X73292Y-52478D01*
X73314Y-52430D01*
X73314Y-52026D01*
X73485Y-52026D02*
X73764Y-52026D01*
X73614Y-52216D01*
X73678Y-52216D01*
X73721Y-52240D01*
X73742Y-52264D01*
X73764Y-52311D01*
X73764Y-52430D01*
X73742Y-52478D01*
X73721Y-52502D01*
X73678Y-52526D01*
X73550Y-52526D01*
X73507Y-52502D01*
X73485Y-52478D01*
X73626Y-55685D02*
X73626Y-55876D01*
X73126Y-55876D01*
X73626Y-55552D02*
X73126Y-55552D01*
X73483Y-55419D01*
X73126Y-55285D01*
X73626Y-55285D01*
X73126Y-55133D02*
X73126Y-54885D01*
X73316Y-55019D01*
X73316Y-54961D01*
X73340Y-54923D01*
X73364Y-54904D01*
X73411Y-54885D01*
X73530Y-54885D01*
X73578Y-54904D01*
X73602Y-54923D01*
X73626Y-54961D01*
X73626Y-55076D01*
X73602Y-55114D01*
X73578Y-55133D01*
X73126Y-54523D02*
X73126Y-54714D01*
X73364Y-54733D01*
X73340Y-54714D01*
X73316Y-54676D01*
X73316Y-54580D01*
X73340Y-54542D01*
X73364Y-54523D01*
X73411Y-54504D01*
X73530Y-54504D01*
X73578Y-54523D01*
X73602Y-54542D01*
X73626Y-54580D01*
X73626Y-54676D01*
X73602Y-54714D01*
X73578Y-54733D01*
X73340Y-54276D02*
X73316Y-54314D01*
X73292Y-54333D01*
X73245Y-54352D01*
X73221Y-54352D01*
X73173Y-54333D01*
X73150Y-54314D01*
X73126Y-54276D01*
X73126Y-54200D01*
X73150Y-54161D01*
X73173Y-54142D01*
X73221Y-54123D01*
X73245Y-54123D01*
X73292Y-54142D01*
X73316Y-54161D01*
X73340Y-54200D01*
X73340Y-54276D01*
X73364Y-54314D01*
X73388Y-54333D01*
X73435Y-54352D01*
X73530Y-54352D01*
X73578Y-54333D01*
X73602Y-54314D01*
X73626Y-54276D01*
X73626Y-54200D01*
X73602Y-54161D01*
X73578Y-54142D01*
X73530Y-54123D01*
X73435Y-54123D01*
X73388Y-54142D01*
X73364Y-54161D01*
X73340Y-54200D01*
X73626Y-53952D02*
X73126Y-53952D01*
X73626Y-53723D01*
X73126Y-53723D01*
X51448Y-52769D02*
X50898Y-52769D01*
X50898Y-52650D01*
X50925Y-52578D01*
X50977Y-52530D01*
X51029Y-52507D01*
X51134Y-52483D01*
X51213Y-52483D01*
X51317Y-52507D01*
X51370Y-52530D01*
X51422Y-52578D01*
X51448Y-52650D01*
X51448Y-52769D01*
X50898Y-52054D02*
X50898Y-52150D01*
X50925Y-52197D01*
X50951Y-52221D01*
X51029Y-52269D01*
X51134Y-52292D01*
X51344Y-52292D01*
X51396Y-52269D01*
X51422Y-52245D01*
X51448Y-52197D01*
X51448Y-52102D01*
X51422Y-52054D01*
X51396Y-52030D01*
X51344Y-52007D01*
X51213Y-52007D01*
X51160Y-52030D01*
X51134Y-52054D01*
X51108Y-52102D01*
X51108Y-52197D01*
X51134Y-52245D01*
X51160Y-52269D01*
X51213Y-52292D01*
X42448Y-41407D02*
X41898Y-41407D01*
X41898Y-41288D01*
X41925Y-41216D01*
X41977Y-41169D01*
X42029Y-41145D01*
X42134Y-41121D01*
X42213Y-41121D01*
X42317Y-41145D01*
X42370Y-41169D01*
X42422Y-41216D01*
X42448Y-41288D01*
X42448Y-41407D01*
X42448Y-40645D02*
X42448Y-40930D01*
X42448Y-40788D02*
X41898Y-40788D01*
X41977Y-40835D01*
X42029Y-40883D01*
X42055Y-40930D01*
X41898Y-40192D02*
X41898Y-40430D01*
X42160Y-40454D01*
X42134Y-40430D01*
X42108Y-40383D01*
X42108Y-40264D01*
X42134Y-40216D01*
X42160Y-40192D01*
X42213Y-40169D01*
X42344Y-40169D01*
X42396Y-40192D01*
X42422Y-40216D01*
X42448Y-40264D01*
X42448Y-40383D01*
X42422Y-40430D01*
X42396Y-40454D01*
X40048Y-41407D02*
X39498Y-41407D01*
X39498Y-41288D01*
X39525Y-41216D01*
X39577Y-41169D01*
X39629Y-41145D01*
X39734Y-41121D01*
X39813Y-41121D01*
X39917Y-41145D01*
X39970Y-41169D01*
X40022Y-41216D01*
X40048Y-41288D01*
X40048Y-41407D01*
X40048Y-40645D02*
X40048Y-40930D01*
X40048Y-40788D02*
X39498Y-40788D01*
X39577Y-40835D01*
X39629Y-40883D01*
X39655Y-40930D01*
X39682Y-40216D02*
X40048Y-40216D01*
X39472Y-40335D02*
X39865Y-40454D01*
X39865Y-40145D01*
X42448Y-44207D02*
X41898Y-44207D01*
X41898Y-44088D01*
X41925Y-44016D01*
X41977Y-43969D01*
X42029Y-43945D01*
X42134Y-43921D01*
X42213Y-43921D01*
X42317Y-43945D01*
X42370Y-43969D01*
X42422Y-44016D01*
X42448Y-44088D01*
X42448Y-44207D01*
X42448Y-43445D02*
X42448Y-43730D01*
X42448Y-43588D02*
X41898Y-43588D01*
X41977Y-43635D01*
X42029Y-43683D01*
X42055Y-43730D01*
X41898Y-43278D02*
X41898Y-42969D01*
X42108Y-43135D01*
X42108Y-43064D01*
X42134Y-43016D01*
X42160Y-42992D01*
X42213Y-42969D01*
X42344Y-42969D01*
X42396Y-42992D01*
X42422Y-43016D01*
X42448Y-43064D01*
X42448Y-43207D01*
X42422Y-43254D01*
X42396Y-43278D01*
X40048Y-44207D02*
X39498Y-44207D01*
X39498Y-44088D01*
X39525Y-44016D01*
X39577Y-43969D01*
X39629Y-43945D01*
X39734Y-43921D01*
X39813Y-43921D01*
X39917Y-43945D01*
X39970Y-43969D01*
X40022Y-44016D01*
X40048Y-44088D01*
X40048Y-44207D01*
X40048Y-43445D02*
X40048Y-43730D01*
X40048Y-43588D02*
X39498Y-43588D01*
X39577Y-43635D01*
X39629Y-43683D01*
X39655Y-43730D01*
X39551Y-43254D02*
X39525Y-43230D01*
X39498Y-43183D01*
X39498Y-43064D01*
X39525Y-43016D01*
X39551Y-42992D01*
X39603Y-42969D01*
X39655Y-42969D01*
X39734Y-42992D01*
X40048Y-43278D01*
X40048Y-42969D01*
X55048Y-56369D02*
X54498Y-56369D01*
X54498Y-56250D01*
X54525Y-56178D01*
X54577Y-56130D01*
X54629Y-56107D01*
X54734Y-56083D01*
X54813Y-56083D01*
X54917Y-56107D01*
X54970Y-56130D01*
X55022Y-56178D01*
X55048Y-56250D01*
X55048Y-56369D01*
X55048Y-55845D02*
X55048Y-55750D01*
X55022Y-55702D01*
X54996Y-55678D01*
X54917Y-55630D01*
X54813Y-55607D01*
X54603Y-55607D01*
X54551Y-55630D01*
X54525Y-55654D01*
X54498Y-55702D01*
X54498Y-55797D01*
X54525Y-55845D01*
X54551Y-55869D01*
X54603Y-55892D01*
X54734Y-55892D01*
X54786Y-55869D01*
X54813Y-55845D01*
X54839Y-55797D01*
X54839Y-55702D01*
X54813Y-55654D01*
X54786Y-55630D01*
X54734Y-55607D01*
X51448Y-55569D02*
X50898Y-55569D01*
X50898Y-55450D01*
X50925Y-55378D01*
X50977Y-55330D01*
X51029Y-55307D01*
X51134Y-55283D01*
X51213Y-55283D01*
X51317Y-55307D01*
X51370Y-55330D01*
X51422Y-55378D01*
X51448Y-55450D01*
X51448Y-55569D01*
X51134Y-54997D02*
X51108Y-55045D01*
X51082Y-55069D01*
X51029Y-55092D01*
X51003Y-55092D01*
X50951Y-55069D01*
X50925Y-55045D01*
X50898Y-54997D01*
X50898Y-54902D01*
X50925Y-54854D01*
X50951Y-54830D01*
X51003Y-54807D01*
X51029Y-54807D01*
X51082Y-54830D01*
X51108Y-54854D01*
X51134Y-54902D01*
X51134Y-54997D01*
X51160Y-55045D01*
X51186Y-55069D01*
X51239Y-55092D01*
X51344Y-55092D01*
X51396Y-55069D01*
X51422Y-55045D01*
X51448Y-54997D01*
X51448Y-54902D01*
X51422Y-54854D01*
X51396Y-54830D01*
X51344Y-54807D01*
X51239Y-54807D01*
X51186Y-54830D01*
X51160Y-54854D01*
X51134Y-54902D01*
X55048Y-53569D02*
X54498Y-53569D01*
X54498Y-53450D01*
X54525Y-53378D01*
X54577Y-53330D01*
X54629Y-53307D01*
X54734Y-53283D01*
X54813Y-53283D01*
X54917Y-53307D01*
X54970Y-53330D01*
X55022Y-53378D01*
X55048Y-53450D01*
X55048Y-53569D01*
X54498Y-53116D02*
X54498Y-52783D01*
X55048Y-52997D01*
X65661Y-56719D02*
X65623Y-56700D01*
X65585Y-56661D01*
X65528Y-56604D01*
X65490Y-56585D01*
X65452Y-56585D01*
X65471Y-56680D02*
X65433Y-56661D01*
X65395Y-56623D01*
X65376Y-56547D01*
X65376Y-56414D01*
X65395Y-56338D01*
X65433Y-56300D01*
X65471Y-56280D01*
X65547Y-56280D01*
X65585Y-56300D01*
X65623Y-56338D01*
X65642Y-56414D01*
X65642Y-56547D01*
X65623Y-56623D01*
X65585Y-56661D01*
X65547Y-56680D01*
X65471Y-56680D01*
X65833Y-56680D02*
X65909Y-56680D01*
X65947Y-56661D01*
X65966Y-56642D01*
X66004Y-56585D01*
X66023Y-56509D01*
X66023Y-56357D01*
X66004Y-56319D01*
X65985Y-56300D01*
X65947Y-56280D01*
X65871Y-56280D01*
X65833Y-56300D01*
X65814Y-56319D01*
X65795Y-56357D01*
X65795Y-56452D01*
X65814Y-56490D01*
X65833Y-56509D01*
X65871Y-56528D01*
X65947Y-56528D01*
X65985Y-56509D01*
X66004Y-56490D01*
X66023Y-56452D01*
X64642Y-52819D02*
X64661Y-52800D01*
X64700Y-52780D01*
X64795Y-52780D01*
X64833Y-52800D01*
X64852Y-52819D01*
X64871Y-52857D01*
X64871Y-52895D01*
X64852Y-52952D01*
X64623Y-53180D01*
X64871Y-53180D01*
X65042Y-52914D02*
X65042Y-53180D01*
X65042Y-52952D02*
X65061Y-52933D01*
X65100Y-52914D01*
X65157Y-52914D01*
X65195Y-52933D01*
X65214Y-52971D01*
X65214Y-53180D01*
X65366Y-52780D02*
X65633Y-52780D01*
X65461Y-53180D01*
X65861Y-52780D02*
X65900Y-52780D01*
X65938Y-52800D01*
X65957Y-52819D01*
X65976Y-52857D01*
X65995Y-52933D01*
X65995Y-53028D01*
X65976Y-53104D01*
X65957Y-53142D01*
X65938Y-53161D01*
X65900Y-53180D01*
X65861Y-53180D01*
X65823Y-53161D01*
X65804Y-53142D01*
X65785Y-53104D01*
X65766Y-53028D01*
X65766Y-52933D01*
X65785Y-52857D01*
X65804Y-52819D01*
X65823Y-52800D01*
X65861Y-52780D01*
X66242Y-52780D02*
X66280Y-52780D01*
X66319Y-52800D01*
X66338Y-52819D01*
X66357Y-52857D01*
X66376Y-52933D01*
X66376Y-53028D01*
X66357Y-53104D01*
X66338Y-53142D01*
X66319Y-53161D01*
X66280Y-53180D01*
X66242Y-53180D01*
X66204Y-53161D01*
X66185Y-53142D01*
X66166Y-53104D01*
X66147Y-53028D01*
X66147Y-52933D01*
X66166Y-52857D01*
X66185Y-52819D01*
X66204Y-52800D01*
X66242Y-52780D01*
X66623Y-52780D02*
X66661Y-52780D01*
X66700Y-52800D01*
X66719Y-52819D01*
X66738Y-52857D01*
X66757Y-52933D01*
X66757Y-53028D01*
X66738Y-53104D01*
X66719Y-53142D01*
X66700Y-53161D01*
X66661Y-53180D01*
X66623Y-53180D01*
X66585Y-53161D01*
X66566Y-53142D01*
X66547Y-53104D01*
X66528Y-53028D01*
X66528Y-52933D01*
X66547Y-52857D01*
X66566Y-52819D01*
X66585Y-52800D01*
X66623Y-52780D01*
X38671Y-36704D02*
X39157Y-36704D01*
X39214Y-36685D01*
X39242Y-36666D01*
X39271Y-36628D01*
X39271Y-36552D01*
X39242Y-36514D01*
X39214Y-36495D01*
X39157Y-36476D01*
X38671Y-36476D01*
X38871Y-36114D02*
X39271Y-36114D01*
X38642Y-36209D02*
X39071Y-36304D01*
X39071Y-36057D01*
X40471Y-37316D02*
X40471Y-37507D01*
X39871Y-37507D01*
X40471Y-37183D02*
X39871Y-37183D01*
X40300Y-37050D01*
X39871Y-36916D01*
X40471Y-36916D01*
X39871Y-36764D02*
X39871Y-36497D01*
X40471Y-36669D01*
X40128Y-36288D02*
X40100Y-36326D01*
X40071Y-36345D01*
X40014Y-36364D01*
X39985Y-36364D01*
X39928Y-36345D01*
X39900Y-36326D01*
X39871Y-36288D01*
X39871Y-36211D01*
X39900Y-36173D01*
X39928Y-36154D01*
X39985Y-36135D01*
X40014Y-36135D01*
X40071Y-36154D01*
X40100Y-36173D01*
X40128Y-36211D01*
X40128Y-36288D01*
X40157Y-36326D01*
X40185Y-36345D01*
X40242Y-36364D01*
X40357Y-36364D01*
X40414Y-36345D01*
X40442Y-36326D01*
X40471Y-36288D01*
X40471Y-36211D01*
X40442Y-36173D01*
X40414Y-36154D01*
X40357Y-36135D01*
X40242Y-36135D01*
X40185Y-36154D01*
X40157Y-36173D01*
X40128Y-36211D01*
X40471Y-35754D02*
X40471Y-35983D01*
X40471Y-35869D02*
X39871Y-35869D01*
X39957Y-35907D01*
X40014Y-35945D01*
X40042Y-35983D01*
X39928Y-35602D02*
X39900Y-35583D01*
X39871Y-35545D01*
X39871Y-35450D01*
X39900Y-35411D01*
X39928Y-35392D01*
X39985Y-35373D01*
X40042Y-35373D01*
X40128Y-35392D01*
X40471Y-35621D01*
X40471Y-35373D01*
M02*
