M48
;DRILL file {Pcbnew (2013-06-18 BZR 4216)-testing} date 12/22/2013 11:45:55 AM
;FORMAT={2:4/ absolute / inch / suppress leading zeros}
FMAT,2
INCH,TZ
T1C0.025
T2C0.032
T3C0.037
T4C0.040
T5C0.045
T6C0.051
T7C0.063
T8C0.094
T9C0.120
%
G90
G05
M72
T1
X39400Y-39000
X40600Y-39000
X45000Y-50000
X45000Y-54000
X48800Y-56800
X49200Y-52600
X55200Y-26600
X55400Y-54600
X58000Y-59200
X59400Y-43400
X59400Y-47200
X59600Y-59200
X62800Y-46000
X68600Y-42800
X69800Y-40800
X71600Y-26600
X73600Y-57200
X75800Y-52400
X76400Y-52400
X77600Y-46000
X78400Y-48000
X79400Y-47000
X79600Y-52200
X80000Y-45000
X81000Y-52200
T2
X35500Y-33400
X35500Y-39000
X36100Y-21000
X36100Y-23000
X36100Y-25000
X36500Y-33400
X36500Y-39000
X37100Y-21000
X37100Y-23000
X37100Y-25000
X38800Y-39900
X38800Y-40900
X38800Y-42700
X38800Y-43700
X41200Y-39900
X41200Y-40900
X41200Y-42700
X41200Y-43700
X41700Y-61400
X42700Y-61400
X44100Y-40200
X44100Y-42200
X44100Y-44200
X45100Y-40200
X45100Y-42200
X45100Y-44200
X52200Y-52300
X52200Y-53300
X52200Y-55100
X52200Y-56100
X52500Y-21000
X52500Y-23000
X52500Y-25000
X53500Y-21000
X53500Y-23000
X53500Y-25000
X53800Y-52300
X53800Y-53300
X53800Y-55100
X53800Y-56100
X58800Y-54300
X58800Y-55300
X58900Y-51300
X58900Y-52300
X59900Y-51300
X60200Y-54300
X60200Y-55300
X60500Y-40200
X60500Y-42200
X60500Y-44000
X61500Y-40200
X61500Y-42200
X61500Y-44000
X62800Y-54300
X62800Y-55300
X65700Y-54500
X65700Y-55500
X66700Y-54500
X68900Y-21000
X68900Y-23000
X68900Y-25000
X69000Y-54100
X69000Y-55100
X69000Y-56100
X69000Y-57100
X69900Y-21000
X69900Y-23000
X69900Y-25000
X71900Y-53300
X71900Y-54300
X71900Y-55300
X71900Y-56300
X74900Y-53300
X74900Y-54300
X74900Y-55300
X74900Y-56300
X77000Y-53300
X77000Y-54300
X77700Y-38800
X77800Y-40900
X77800Y-41900
X78300Y-53300
X78300Y-54300
X78300Y-55300
X78300Y-56300
X78700Y-38800
X79300Y-51000
X80300Y-51000
X81300Y-53300
X81300Y-54300
X81300Y-55300
X81300Y-56300
X83000Y-52900
X83000Y-53900
T3
X49400Y-21816
X49400Y-23784
X57600Y-40816
X57600Y-42784
X65800Y-21816
X65800Y-23784
X73800Y-40816
X73800Y-42784
X82600Y-21816
X82600Y-23784
T4
X41575Y-21756
X41575Y-22756
X41575Y-23756
X47800Y-52400
X47800Y-54400
X48400Y-58124
X48400Y-61086
X49800Y-40800
X49800Y-41800
X49800Y-42800
X58000Y-21800
X58000Y-22800
X58000Y-23800
X62800Y-57600
X63800Y-57600
X64800Y-57600
X66000Y-40800
X66000Y-41800
X66000Y-42800
X74400Y-21800
X74400Y-22800
X74400Y-23800
X83000Y-55100
X83000Y-56100
T5
X36000Y-35400
X36000Y-36400
X36000Y-37400
T6
X40447Y-49231
X40447Y-51200
X40447Y-53169
X40447Y-59192
X43400Y-49231
X43400Y-51200
X43400Y-53169
X43400Y-59192
T7
X36800Y-46616
X36800Y-46616
X36800Y-48584
X36800Y-48584
X36800Y-51031
X36800Y-53000
X36800Y-53000
X36800Y-54969
X36800Y-54969
X36800Y-57416
X36800Y-57416
X36800Y-59384
X36800Y-59384
X53831Y-61000
X55800Y-61000
X55800Y-61000
X57769Y-61000
X57769Y-61000
X69831Y-61000
X71800Y-61000
X71800Y-61000
X73769Y-61000
X73769Y-61000
X81600Y-34416
X81600Y-34416
X81600Y-36384
X81600Y-36384
X81600Y-38816
X81600Y-38816
X81600Y-40784
X81600Y-40784
X81600Y-46416
X81600Y-46416
X81600Y-48384
X81600Y-48384
T8
X43031Y-17776
X43031Y-27776
X51257Y-36820
X51257Y-46820
X59457Y-17820
X59457Y-27820
X67457Y-36820
X67457Y-46820
X75857Y-17820
X75857Y-27820
T9
X35800Y-15200
X35800Y-43600
X35800Y-62000
X42500Y-36400
X82600Y-15200
X82600Y-43600
X82600Y-62000
T0
M30
