M48
;DRILL file {Pcbnew (2013-mar-13)-testing} date Thu 01 Aug 2013 10:50:21 PM PDT
;FORMAT={-:-/ absolute / inch / decimal}
FMAT,2
INCH,TZ
T1C0.025
T2C0.032
T3C0.034
T4C0.040
T5C0.045
T6C0.051
T7C0.063
T8C0.094
T9C0.120
%
G90
G05
M72
T1
X3.94Y-3.9
X4.06Y-3.9
X4.5Y-5.
X4.5Y-5.4
X4.88Y-5.68
X4.92Y-5.26
X5.12Y-2.44
X5.12Y-2.8
X5.52Y-2.66
X5.54Y-5.46
X5.8Y-5.92
X5.94Y-4.34
X5.94Y-4.72
X5.96Y-5.92
X6.28Y-4.6
X6.86Y-4.28
X6.98Y-4.08
X7.16Y-2.66
X7.36Y-5.72
X7.58Y-5.24
X7.64Y-5.24
X7.76Y-4.6
X7.84Y-4.8
X7.94Y-4.7
X7.96Y-5.22
X8.Y-4.5
X8.1Y-5.22
T2
X3.55Y-3.34
X3.55Y-3.9
X3.61Y-2.1
X3.61Y-2.3
X3.61Y-2.5
X3.65Y-3.34
X3.65Y-3.9
X3.71Y-2.1
X3.71Y-2.3
X3.71Y-2.5
X3.88Y-3.99
X3.88Y-4.09
X3.88Y-4.27
X3.88Y-4.37
X4.12Y-3.99
X4.12Y-4.09
X4.12Y-4.27
X4.12Y-4.37
X4.17Y-6.14
X4.27Y-6.14
X4.41Y-4.02
X4.41Y-4.22
X4.41Y-4.42
X4.51Y-4.02
X4.51Y-4.22
X4.51Y-4.42
X5.22Y-5.23
X5.22Y-5.33
X5.22Y-5.51
X5.22Y-5.61
X5.25Y-2.1
X5.25Y-2.3
X5.25Y-2.5
X5.35Y-2.1
X5.35Y-2.3
X5.35Y-2.5
X5.38Y-5.23
X5.38Y-5.33
X5.38Y-5.51
X5.38Y-5.61
X5.88Y-5.43
X5.88Y-5.53
X5.89Y-5.13
X5.89Y-5.23
X5.99Y-5.13
X6.02Y-5.43
X6.02Y-5.53
X6.05Y-4.02
X6.05Y-4.22
X6.05Y-4.4
X6.15Y-4.02
X6.15Y-4.22
X6.15Y-4.4
X6.28Y-5.43
X6.28Y-5.53
X6.57Y-5.45
X6.57Y-5.55
X6.67Y-5.45
X6.89Y-2.1
X6.89Y-2.3
X6.89Y-2.5
X6.9Y-5.41
X6.9Y-5.51
X6.9Y-5.61
X6.9Y-5.71
X6.99Y-2.1
X6.99Y-2.3
X6.99Y-2.5
X7.19Y-5.33
X7.19Y-5.43
X7.19Y-5.53
X7.19Y-5.63
X7.49Y-5.33
X7.49Y-5.43
X7.49Y-5.53
X7.49Y-5.63
X7.7Y-5.33
X7.7Y-5.43
X7.77Y-3.88
X7.78Y-4.09
X7.78Y-4.19
X7.83Y-5.33
X7.83Y-5.43
X7.83Y-5.53
X7.83Y-5.63
X7.87Y-3.88
X7.93Y-5.1
X8.03Y-5.1
X8.13Y-5.33
X8.13Y-5.43
X8.13Y-5.53
X8.13Y-5.63
X8.3Y-5.29
X8.3Y-5.39
T3
X4.94Y-2.1816
X4.94Y-2.3784
X5.76Y-4.0816
X5.76Y-4.2784
X6.58Y-2.1816
X6.58Y-2.3784
X7.38Y-4.0816
X7.38Y-4.2784
X8.26Y-2.1816
X8.26Y-2.3784
T4
X4.16Y-2.18
X4.16Y-2.28
X4.16Y-2.38
X4.78Y-5.24
X4.78Y-5.44
X4.84Y-5.8124
X4.84Y-6.1086
X4.98Y-4.08
X4.98Y-4.18
X4.98Y-4.28
X5.8Y-2.18
X5.8Y-2.28
X5.8Y-2.38
X6.28Y-5.76
X6.38Y-5.76
X6.48Y-5.76
X6.6Y-4.08
X6.6Y-4.18
X6.6Y-4.28
X7.44Y-2.18
X7.44Y-2.28
X7.44Y-2.38
X8.3Y-5.51
X8.3Y-5.61
T5
X3.6Y-3.54
X3.6Y-3.64
X3.6Y-3.74
T6
X4.0447Y-4.9231
X4.0447Y-5.12
X4.0447Y-5.3169
X4.0447Y-5.9192
X4.34Y-4.9231
X4.34Y-5.12
X4.34Y-5.3169
X4.34Y-5.9192
T7
X3.68Y-4.6616
X3.68Y-4.6616
X3.68Y-4.8584
X3.68Y-4.8584
X3.68Y-5.1031
X3.68Y-5.3
X3.68Y-5.3
X3.68Y-5.4969
X3.68Y-5.4969
X3.68Y-5.7416
X3.68Y-5.7416
X3.68Y-5.9384
X3.68Y-5.9384
X5.3831Y-6.1
X5.58Y-6.1
X5.58Y-6.1
X5.7769Y-6.1
X5.7769Y-6.1
X6.9831Y-6.1
X7.18Y-6.1
X7.18Y-6.1
X7.3769Y-6.1
X7.3769Y-6.1
X8.16Y-3.4416
X8.16Y-3.4416
X8.16Y-3.6384
X8.16Y-3.6384
X8.16Y-3.8816
X8.16Y-3.8816
X8.16Y-4.0784
X8.16Y-4.0784
X8.16Y-4.6416
X8.16Y-4.6416
X8.16Y-4.8384
X8.16Y-4.8384
T8
X4.3047Y-2.7702
X4.3057Y-1.7898
X5.1247Y-4.6702
X5.1257Y-3.6898
X5.9447Y-2.7702
X5.9457Y-1.7898
X6.7447Y-4.6702
X6.7457Y-3.6898
X7.5847Y-2.7702
X7.5857Y-1.7898
T9
X3.58Y-1.52
X3.58Y-4.36
X3.58Y-6.2
X4.25Y-3.64
X8.26Y-1.52
X8.26Y-4.36
X8.26Y-6.2
T0
M30
