G04 (created by PCBNEW (2013-mar-13)-testing) date Thu 01 Aug 2013 10:55:38 PM PDT*
%MOIN*%
G04 Gerber Fmt 3.4, Leading zero omitted, Abs format*
%FSLAX34Y34*%
G01*
G70*
G90*
G04 APERTURE LIST*
%ADD10C,0.003937*%
%ADD11C,0.011811*%
G04 APERTURE END LIST*
G54D10*
G54D11*
X78862Y-32867D02*
X78552Y-32473D01*
X78862Y-32473D02*
X78552Y-32867D01*
X78074Y-32473D02*
X78074Y-32867D01*
X78327Y-32473D02*
X78327Y-32782D01*
X78299Y-32839D01*
X78243Y-32867D01*
X78159Y-32867D01*
X78102Y-32839D01*
X78074Y-32810D01*
X77793Y-32473D02*
X77793Y-32867D01*
X77793Y-32529D02*
X77765Y-32501D01*
X77709Y-32473D01*
X77624Y-32473D01*
X77568Y-32501D01*
X77540Y-32557D01*
X77540Y-32867D01*
X77259Y-32867D02*
X77259Y-32473D01*
X77259Y-32276D02*
X77287Y-32304D01*
X77259Y-32332D01*
X77231Y-32304D01*
X77259Y-32276D01*
X77259Y-32332D01*
X76893Y-32867D02*
X76949Y-32839D01*
X76977Y-32782D01*
X76977Y-32276D01*
X76303Y-32585D02*
X76331Y-32557D01*
X76387Y-32529D01*
X76443Y-32529D01*
X76499Y-32557D01*
X76528Y-32585D01*
X76556Y-32642D01*
X76556Y-32698D01*
X76528Y-32754D01*
X76499Y-32782D01*
X76443Y-32810D01*
X76387Y-32810D01*
X76331Y-32782D01*
X76303Y-32754D01*
X76303Y-32529D02*
X76303Y-32754D01*
X76274Y-32782D01*
X76246Y-32782D01*
X76190Y-32754D01*
X76162Y-32698D01*
X76162Y-32557D01*
X76218Y-32473D01*
X76303Y-32417D01*
X76415Y-32389D01*
X76528Y-32417D01*
X76612Y-32473D01*
X76668Y-32557D01*
X76696Y-32670D01*
X76668Y-32782D01*
X76612Y-32867D01*
X76528Y-32923D01*
X76415Y-32951D01*
X76303Y-32923D01*
X76218Y-32867D01*
X75965Y-32867D02*
X75656Y-32473D01*
X75965Y-32473D02*
X75656Y-32867D01*
X75178Y-32473D02*
X75178Y-32867D01*
X75431Y-32473D02*
X75431Y-32782D01*
X75403Y-32839D01*
X75346Y-32867D01*
X75262Y-32867D01*
X75206Y-32839D01*
X75178Y-32810D01*
X74896Y-32473D02*
X74896Y-32867D01*
X74896Y-32529D02*
X74868Y-32501D01*
X74812Y-32473D01*
X74728Y-32473D01*
X74671Y-32501D01*
X74643Y-32557D01*
X74643Y-32867D01*
X74362Y-32867D02*
X74362Y-32473D01*
X74362Y-32276D02*
X74390Y-32304D01*
X74362Y-32332D01*
X74334Y-32304D01*
X74362Y-32276D01*
X74362Y-32332D01*
X73997Y-32867D02*
X74053Y-32839D01*
X74081Y-32782D01*
X74081Y-32276D01*
X73772Y-32810D02*
X73743Y-32839D01*
X73772Y-32867D01*
X73800Y-32839D01*
X73772Y-32810D01*
X73772Y-32867D01*
X73490Y-32473D02*
X73490Y-32867D01*
X73490Y-32529D02*
X73462Y-32501D01*
X73406Y-32473D01*
X73322Y-32473D01*
X73265Y-32501D01*
X73237Y-32557D01*
X73237Y-32867D01*
X72731Y-32839D02*
X72787Y-32867D01*
X72900Y-32867D01*
X72956Y-32839D01*
X72984Y-32782D01*
X72984Y-32557D01*
X72956Y-32501D01*
X72900Y-32473D01*
X72787Y-32473D01*
X72731Y-32501D01*
X72703Y-32557D01*
X72703Y-32614D01*
X72984Y-32670D01*
X72534Y-32473D02*
X72309Y-32473D01*
X72450Y-32276D02*
X72450Y-32782D01*
X72422Y-32839D01*
X72366Y-32867D01*
X72309Y-32867D01*
M02*
