G04 (created by PCBNEW (2013-04-19 BZR 4011)-stable) date 7/6/2013 8:24:16 PM*
%MOIN*%
G04 Gerber Fmt 3.4, Leading zero omitted, Abs format*
%FSLAX34Y34*%
G01*
G70*
G90*
G04 APERTURE LIST*
%ADD10C,0.00393701*%
%ADD11C,0.011811*%
%ADD12C,0.012*%
%ADD13C,0.00590551*%
%ADD14C,0.015*%
%ADD15C,0.008*%
%ADD16C,0.01*%
G04 APERTURE END LIST*
G54D10*
G54D11*
X86989Y-50427D02*
X86707Y-50624D01*
X86989Y-50764D02*
X86398Y-50764D01*
X86398Y-50539D01*
X86426Y-50483D01*
X86454Y-50455D01*
X86510Y-50427D01*
X86595Y-50427D01*
X86651Y-50455D01*
X86679Y-50483D01*
X86707Y-50539D01*
X86707Y-50764D01*
X86398Y-50061D02*
X86398Y-49949D01*
X86426Y-49893D01*
X86482Y-49836D01*
X86595Y-49808D01*
X86792Y-49808D01*
X86904Y-49836D01*
X86960Y-49893D01*
X86989Y-49949D01*
X86989Y-50061D01*
X86960Y-50118D01*
X86904Y-50174D01*
X86792Y-50202D01*
X86595Y-50202D01*
X86482Y-50174D01*
X86426Y-50118D01*
X86398Y-50061D01*
X86679Y-49358D02*
X86707Y-49274D01*
X86735Y-49246D01*
X86792Y-49218D01*
X86876Y-49218D01*
X86932Y-49246D01*
X86960Y-49274D01*
X86989Y-49330D01*
X86989Y-49555D01*
X86398Y-49555D01*
X86398Y-49358D01*
X86426Y-49302D01*
X86454Y-49274D01*
X86510Y-49246D01*
X86567Y-49246D01*
X86623Y-49274D01*
X86651Y-49302D01*
X86679Y-49358D01*
X86679Y-49555D01*
X86679Y-48965D02*
X86679Y-48768D01*
X86989Y-48683D02*
X86989Y-48965D01*
X86398Y-48965D01*
X86398Y-48683D01*
X86989Y-48093D02*
X86707Y-48290D01*
X86989Y-48430D02*
X86398Y-48430D01*
X86398Y-48205D01*
X86426Y-48149D01*
X86454Y-48121D01*
X86510Y-48093D01*
X86595Y-48093D01*
X86651Y-48121D01*
X86679Y-48149D01*
X86707Y-48205D01*
X86707Y-48430D01*
X86398Y-47924D02*
X86398Y-47587D01*
X86989Y-47755D02*
X86398Y-47755D01*
X86989Y-46659D02*
X86989Y-46940D01*
X86398Y-46940D01*
X86989Y-46462D02*
X86398Y-46462D01*
X86679Y-46181D02*
X86679Y-45984D01*
X86989Y-45899D02*
X86989Y-46181D01*
X86398Y-46181D01*
X86398Y-45899D01*
X86960Y-45674D02*
X86989Y-45590D01*
X86989Y-45449D01*
X86960Y-45393D01*
X86932Y-45365D01*
X86876Y-45337D01*
X86820Y-45337D01*
X86764Y-45365D01*
X86735Y-45393D01*
X86707Y-45449D01*
X86679Y-45562D01*
X86651Y-45618D01*
X86623Y-45646D01*
X86567Y-45674D01*
X86510Y-45674D01*
X86454Y-45646D01*
X86426Y-45618D01*
X86398Y-45562D01*
X86398Y-45421D01*
X86426Y-45337D01*
X86679Y-45084D02*
X86679Y-44887D01*
X86989Y-44803D02*
X86989Y-45084D01*
X86398Y-45084D01*
X86398Y-44803D01*
X86989Y-44550D02*
X86398Y-44550D01*
X86989Y-44212D01*
X86398Y-44212D01*
X86679Y-43734D02*
X86679Y-43931D01*
X86989Y-43931D02*
X86398Y-43931D01*
X86398Y-43650D01*
X86679Y-43425D02*
X86679Y-43228D01*
X86989Y-43143D02*
X86989Y-43425D01*
X86398Y-43425D01*
X86398Y-43143D01*
X86989Y-42609D02*
X86989Y-42890D01*
X86398Y-42890D01*
X86989Y-42412D02*
X86398Y-42412D01*
X86398Y-42272D01*
X86426Y-42187D01*
X86482Y-42131D01*
X86539Y-42103D01*
X86651Y-42075D01*
X86735Y-42075D01*
X86848Y-42103D01*
X86904Y-42131D01*
X86960Y-42187D01*
X86989Y-42272D01*
X86989Y-42412D01*
X86960Y-41794D02*
X86989Y-41794D01*
X87045Y-41822D01*
X87073Y-41850D01*
X86820Y-41119D02*
X86820Y-40838D01*
X86989Y-41175D02*
X86398Y-40978D01*
X86989Y-40781D01*
X86989Y-40584D02*
X86398Y-40584D01*
X86989Y-40247D02*
X86651Y-40500D01*
X86398Y-40247D02*
X86735Y-40584D01*
X86398Y-39741D02*
X86398Y-39853D01*
X86426Y-39910D01*
X86454Y-39938D01*
X86539Y-39994D01*
X86651Y-40022D01*
X86876Y-40022D01*
X86932Y-39994D01*
X86960Y-39966D01*
X86989Y-39910D01*
X86989Y-39797D01*
X86960Y-39741D01*
X86932Y-39713D01*
X86876Y-39685D01*
X86735Y-39685D01*
X86679Y-39713D01*
X86651Y-39741D01*
X86623Y-39797D01*
X86623Y-39910D01*
X86651Y-39966D01*
X86679Y-39994D01*
X86735Y-40022D01*
X86989Y-39150D02*
X86989Y-39431D01*
X86398Y-39431D01*
X85820Y-52916D02*
X85820Y-52634D01*
X85989Y-52972D02*
X85398Y-52775D01*
X85989Y-52578D01*
X85989Y-52381D02*
X85398Y-52381D01*
X85398Y-52241D01*
X85426Y-52156D01*
X85482Y-52100D01*
X85539Y-52072D01*
X85651Y-52044D01*
X85735Y-52044D01*
X85848Y-52072D01*
X85904Y-52100D01*
X85960Y-52156D01*
X85989Y-52241D01*
X85989Y-52381D01*
X85398Y-51622D02*
X85820Y-51622D01*
X85904Y-51650D01*
X85960Y-51706D01*
X85989Y-51791D01*
X85989Y-51847D01*
X85398Y-51341D02*
X85876Y-51341D01*
X85932Y-51313D01*
X85960Y-51285D01*
X85989Y-51228D01*
X85989Y-51116D01*
X85960Y-51060D01*
X85932Y-51032D01*
X85876Y-51003D01*
X85398Y-51003D01*
X85960Y-50750D02*
X85989Y-50666D01*
X85989Y-50525D01*
X85960Y-50469D01*
X85932Y-50441D01*
X85876Y-50413D01*
X85820Y-50413D01*
X85764Y-50441D01*
X85735Y-50469D01*
X85707Y-50525D01*
X85679Y-50638D01*
X85651Y-50694D01*
X85623Y-50722D01*
X85567Y-50750D01*
X85510Y-50750D01*
X85454Y-50722D01*
X85426Y-50694D01*
X85398Y-50638D01*
X85398Y-50497D01*
X85426Y-50413D01*
X85398Y-50244D02*
X85398Y-49907D01*
X85989Y-50075D02*
X85398Y-50075D01*
X85820Y-49738D02*
X85820Y-49457D01*
X85989Y-49794D02*
X85398Y-49597D01*
X85989Y-49401D01*
X85679Y-49007D02*
X85707Y-48922D01*
X85735Y-48894D01*
X85792Y-48866D01*
X85876Y-48866D01*
X85932Y-48894D01*
X85960Y-48922D01*
X85989Y-48979D01*
X85989Y-49204D01*
X85398Y-49204D01*
X85398Y-49007D01*
X85426Y-48951D01*
X85454Y-48922D01*
X85510Y-48894D01*
X85567Y-48894D01*
X85623Y-48922D01*
X85651Y-48951D01*
X85679Y-49007D01*
X85679Y-49204D01*
X85989Y-48332D02*
X85989Y-48613D01*
X85398Y-48613D01*
X85679Y-48135D02*
X85679Y-47938D01*
X85989Y-47854D02*
X85989Y-48135D01*
X85398Y-48135D01*
X85398Y-47854D01*
X85989Y-47151D02*
X85398Y-47151D01*
X85679Y-47151D02*
X85679Y-46813D01*
X85989Y-46813D02*
X85398Y-46813D01*
X85989Y-46532D02*
X85398Y-46532D01*
X85426Y-45942D02*
X85398Y-45998D01*
X85398Y-46082D01*
X85426Y-46167D01*
X85482Y-46223D01*
X85539Y-46251D01*
X85651Y-46279D01*
X85735Y-46279D01*
X85848Y-46251D01*
X85904Y-46223D01*
X85960Y-46167D01*
X85989Y-46082D01*
X85989Y-46026D01*
X85960Y-45942D01*
X85932Y-45913D01*
X85735Y-45913D01*
X85735Y-46026D01*
X85989Y-45660D02*
X85398Y-45660D01*
X85679Y-45660D02*
X85679Y-45323D01*
X85989Y-45323D02*
X85398Y-45323D01*
X85764Y-45042D02*
X85764Y-44592D01*
X85398Y-44395D02*
X85989Y-44198D01*
X85398Y-44001D01*
X85398Y-43692D02*
X85398Y-43579D01*
X85426Y-43523D01*
X85482Y-43467D01*
X85595Y-43439D01*
X85792Y-43439D01*
X85904Y-43467D01*
X85960Y-43523D01*
X85989Y-43579D01*
X85989Y-43692D01*
X85960Y-43748D01*
X85904Y-43804D01*
X85792Y-43832D01*
X85595Y-43832D01*
X85482Y-43804D01*
X85426Y-43748D01*
X85398Y-43692D01*
X85989Y-42904D02*
X85989Y-43186D01*
X85398Y-43186D01*
X85398Y-42792D02*
X85398Y-42455D01*
X85989Y-42623D02*
X85398Y-42623D01*
X85820Y-42286D02*
X85820Y-42005D01*
X85989Y-42342D02*
X85398Y-42145D01*
X85989Y-41948D01*
X85426Y-41442D02*
X85398Y-41498D01*
X85398Y-41583D01*
X85426Y-41667D01*
X85482Y-41723D01*
X85539Y-41751D01*
X85651Y-41780D01*
X85735Y-41780D01*
X85848Y-41751D01*
X85904Y-41723D01*
X85960Y-41667D01*
X85989Y-41583D01*
X85989Y-41526D01*
X85960Y-41442D01*
X85932Y-41414D01*
X85735Y-41414D01*
X85735Y-41526D01*
X85679Y-41161D02*
X85679Y-40964D01*
X85989Y-40880D02*
X85989Y-41161D01*
X85398Y-41161D01*
X85398Y-40880D01*
X85960Y-40205D02*
X85989Y-40120D01*
X85989Y-39980D01*
X85960Y-39924D01*
X85932Y-39895D01*
X85876Y-39867D01*
X85820Y-39867D01*
X85764Y-39895D01*
X85735Y-39924D01*
X85707Y-39980D01*
X85679Y-40092D01*
X85651Y-40149D01*
X85623Y-40177D01*
X85567Y-40205D01*
X85510Y-40205D01*
X85454Y-40177D01*
X85426Y-40149D01*
X85398Y-40092D01*
X85398Y-39952D01*
X85426Y-39867D01*
X85398Y-39614D02*
X85876Y-39614D01*
X85932Y-39586D01*
X85960Y-39558D01*
X85989Y-39502D01*
X85989Y-39389D01*
X85960Y-39333D01*
X85932Y-39305D01*
X85876Y-39277D01*
X85398Y-39277D01*
X85989Y-38996D02*
X85398Y-38996D01*
X85398Y-38771D01*
X85426Y-38714D01*
X85454Y-38686D01*
X85510Y-38658D01*
X85595Y-38658D01*
X85651Y-38686D01*
X85679Y-38714D01*
X85707Y-38771D01*
X85707Y-38996D01*
X85989Y-38405D02*
X85398Y-38405D01*
X85398Y-38180D01*
X85426Y-38124D01*
X85454Y-38096D01*
X85510Y-38068D01*
X85595Y-38068D01*
X85651Y-38096D01*
X85679Y-38124D01*
X85707Y-38180D01*
X85707Y-38405D01*
X85989Y-37533D02*
X85989Y-37814D01*
X85398Y-37814D01*
X85707Y-37224D02*
X85989Y-37224D01*
X85398Y-37421D02*
X85707Y-37224D01*
X85398Y-37027D01*
X66403Y-72989D02*
X66403Y-72398D01*
X66403Y-72679D02*
X66740Y-72679D01*
X66740Y-72989D02*
X66740Y-72398D01*
X66937Y-72398D02*
X67134Y-72989D01*
X67331Y-72398D01*
X67387Y-73045D02*
X67837Y-73045D01*
X67978Y-72989D02*
X67978Y-72398D01*
X68259Y-72989D02*
X68259Y-72398D01*
X68596Y-72989D01*
X68596Y-72398D01*
X87239Y-59290D02*
X87239Y-59627D01*
X87239Y-59459D02*
X86648Y-59459D01*
X86732Y-59515D01*
X86789Y-59571D01*
X86817Y-59627D01*
X86704Y-59065D02*
X86676Y-59037D01*
X86648Y-58981D01*
X86648Y-58840D01*
X86676Y-58784D01*
X86704Y-58756D01*
X86760Y-58728D01*
X86817Y-58728D01*
X86901Y-58756D01*
X87239Y-59093D01*
X87239Y-58728D01*
X86648Y-58559D02*
X87239Y-58362D01*
X86648Y-58165D01*
X87239Y-57518D02*
X86648Y-57518D01*
X87239Y-57237D02*
X86648Y-57237D01*
X87239Y-56900D01*
X86648Y-56900D01*
X87239Y-63942D02*
X86957Y-64138D01*
X87239Y-64279D02*
X86648Y-64279D01*
X86648Y-64054D01*
X86676Y-63998D01*
X86704Y-63970D01*
X86760Y-63942D01*
X86845Y-63942D01*
X86901Y-63970D01*
X86929Y-63998D01*
X86957Y-64054D01*
X86957Y-64279D01*
X87070Y-63717D02*
X87070Y-63435D01*
X87239Y-63773D02*
X86648Y-63576D01*
X87239Y-63379D01*
X87239Y-63182D02*
X86648Y-63182D01*
X87239Y-62845D01*
X86648Y-62845D01*
X86676Y-62254D02*
X86648Y-62311D01*
X86648Y-62395D01*
X86676Y-62479D01*
X86732Y-62535D01*
X86789Y-62564D01*
X86901Y-62592D01*
X86985Y-62592D01*
X87098Y-62564D01*
X87154Y-62535D01*
X87210Y-62479D01*
X87239Y-62395D01*
X87239Y-62339D01*
X87210Y-62254D01*
X87182Y-62226D01*
X86985Y-62226D01*
X86985Y-62339D01*
X86929Y-61973D02*
X86929Y-61776D01*
X87239Y-61692D02*
X87239Y-61973D01*
X86648Y-61973D01*
X86648Y-61692D01*
X70920Y-9010D02*
X70920Y-9601D01*
X70920Y-9320D02*
X70582Y-9320D01*
X70582Y-9010D02*
X70582Y-9601D01*
X70385Y-9601D02*
X70188Y-9010D01*
X69992Y-9601D01*
X69935Y-8954D02*
X69485Y-8954D01*
X69373Y-9179D02*
X69092Y-9179D01*
X69429Y-9010D02*
X69232Y-9601D01*
X69035Y-9010D01*
X68839Y-9010D02*
X68839Y-9601D01*
X68698Y-9601D01*
X68614Y-9573D01*
X68557Y-9517D01*
X68529Y-9460D01*
X68501Y-9348D01*
X68501Y-9264D01*
X68529Y-9151D01*
X68557Y-9095D01*
X68614Y-9039D01*
X68698Y-9010D01*
X68839Y-9010D01*
X68079Y-9601D02*
X68079Y-9179D01*
X68107Y-9095D01*
X68164Y-9039D01*
X68248Y-9010D01*
X68304Y-9010D01*
X78021Y-9039D02*
X77937Y-9010D01*
X77796Y-9010D01*
X77740Y-9039D01*
X77712Y-9067D01*
X77684Y-9123D01*
X77684Y-9179D01*
X77712Y-9235D01*
X77740Y-9264D01*
X77796Y-9292D01*
X77909Y-9320D01*
X77965Y-9348D01*
X77993Y-9376D01*
X78021Y-9432D01*
X78021Y-9489D01*
X77993Y-9545D01*
X77965Y-9573D01*
X77909Y-9601D01*
X77768Y-9601D01*
X77684Y-9573D01*
X77431Y-9320D02*
X77234Y-9320D01*
X77149Y-9010D02*
X77431Y-9010D01*
X77431Y-9601D01*
X77149Y-9601D01*
X76896Y-9010D02*
X76896Y-9601D01*
X76559Y-9010D01*
X76559Y-9601D01*
X76306Y-9039D02*
X76221Y-9010D01*
X76081Y-9010D01*
X76025Y-9039D01*
X75996Y-9067D01*
X75968Y-9123D01*
X75968Y-9179D01*
X75996Y-9235D01*
X76025Y-9264D01*
X76081Y-9292D01*
X76193Y-9320D01*
X76250Y-9348D01*
X76278Y-9376D01*
X76306Y-9432D01*
X76306Y-9489D01*
X76278Y-9545D01*
X76250Y-9573D01*
X76193Y-9601D01*
X76053Y-9601D01*
X75968Y-9573D01*
X75715Y-9320D02*
X75518Y-9320D01*
X75434Y-9010D02*
X75715Y-9010D01*
X75715Y-9601D01*
X75434Y-9601D01*
X75321Y-8954D02*
X74872Y-8954D01*
X74815Y-9601D02*
X74618Y-9010D01*
X74422Y-9601D01*
X63990Y-9010D02*
X63990Y-9601D01*
X63990Y-9320D02*
X63652Y-9320D01*
X63652Y-9010D02*
X63652Y-9601D01*
X63456Y-9601D02*
X63259Y-9010D01*
X63062Y-9601D01*
X63006Y-8954D02*
X62556Y-8954D01*
X62303Y-9601D02*
X62190Y-9601D01*
X62134Y-9573D01*
X62078Y-9517D01*
X62050Y-9404D01*
X62050Y-9207D01*
X62078Y-9095D01*
X62134Y-9039D01*
X62190Y-9010D01*
X62303Y-9010D01*
X62359Y-9039D01*
X62415Y-9095D01*
X62443Y-9207D01*
X62443Y-9404D01*
X62415Y-9517D01*
X62359Y-9573D01*
X62303Y-9601D01*
X61796Y-9601D02*
X61796Y-9123D01*
X61768Y-9067D01*
X61740Y-9039D01*
X61684Y-9010D01*
X61571Y-9010D01*
X61515Y-9039D01*
X61487Y-9067D01*
X61459Y-9123D01*
X61459Y-9601D01*
X61262Y-9601D02*
X60925Y-9601D01*
X61093Y-9010D02*
X61093Y-9601D01*
X57909Y-9039D02*
X57824Y-9010D01*
X57684Y-9010D01*
X57627Y-9039D01*
X57599Y-9067D01*
X57571Y-9123D01*
X57571Y-9179D01*
X57599Y-9235D01*
X57627Y-9264D01*
X57684Y-9292D01*
X57796Y-9320D01*
X57852Y-9348D01*
X57881Y-9376D01*
X57909Y-9432D01*
X57909Y-9489D01*
X57881Y-9545D01*
X57852Y-9573D01*
X57796Y-9601D01*
X57656Y-9601D01*
X57571Y-9573D01*
X57318Y-9320D02*
X57121Y-9320D01*
X57037Y-9010D02*
X57318Y-9010D01*
X57318Y-9601D01*
X57037Y-9601D01*
X56784Y-9010D02*
X56784Y-9601D01*
X56446Y-9010D01*
X56446Y-9601D01*
X56193Y-9039D02*
X56109Y-9010D01*
X55968Y-9010D01*
X55912Y-9039D01*
X55884Y-9067D01*
X55856Y-9123D01*
X55856Y-9179D01*
X55884Y-9235D01*
X55912Y-9264D01*
X55968Y-9292D01*
X56081Y-9320D01*
X56137Y-9348D01*
X56165Y-9376D01*
X56193Y-9432D01*
X56193Y-9489D01*
X56165Y-9545D01*
X56137Y-9573D01*
X56081Y-9601D01*
X55940Y-9601D01*
X55856Y-9573D01*
X55603Y-9320D02*
X55406Y-9320D01*
X55321Y-9010D02*
X55603Y-9010D01*
X55603Y-9601D01*
X55321Y-9601D01*
X55209Y-8954D02*
X54759Y-8954D01*
X54618Y-9010D02*
X54618Y-9601D01*
G54D12*
X67250Y-18000D02*
X68750Y-16500D01*
X68750Y-16500D02*
X68750Y-16000D01*
X68750Y-16000D02*
X68250Y-15500D01*
X68250Y-15500D02*
X67250Y-15500D01*
X67250Y-15500D02*
X66250Y-16500D01*
X66250Y-16500D02*
X66250Y-17500D01*
X66250Y-17500D02*
X66750Y-18000D01*
X66750Y-18000D02*
X67250Y-18000D01*
G54D13*
X69456Y-37346D02*
X69456Y-42267D01*
X69456Y-42267D02*
X79456Y-42267D01*
X79456Y-42267D02*
X79456Y-37346D01*
X79456Y-37346D02*
X74771Y-37346D01*
X74771Y-37346D02*
X74771Y-30653D01*
X74771Y-30653D02*
X79456Y-30653D01*
X79456Y-30653D02*
X79456Y-25732D01*
X79456Y-25732D02*
X69456Y-25732D01*
X69456Y-25732D02*
X69456Y-30653D01*
X69456Y-30653D02*
X74141Y-30653D01*
X74141Y-30653D02*
X74141Y-37346D01*
X74102Y-37346D02*
X69417Y-37346D01*
G54D14*
X73750Y-32000D02*
X74000Y-32000D01*
X74000Y-32000D02*
X74000Y-36000D01*
X74000Y-36000D02*
X73750Y-36000D01*
X72250Y-32000D02*
X73750Y-32000D01*
X73750Y-32000D02*
X73750Y-36000D01*
X73750Y-36000D02*
X72250Y-36000D01*
X72250Y-36000D02*
X72250Y-32000D01*
G54D13*
X69456Y-55596D02*
X69456Y-60517D01*
X69456Y-60517D02*
X79456Y-60517D01*
X79456Y-60517D02*
X79456Y-55596D01*
X79456Y-55596D02*
X74771Y-55596D01*
X74771Y-55596D02*
X74771Y-48903D01*
X74771Y-48903D02*
X79456Y-48903D01*
X79456Y-48903D02*
X79456Y-43982D01*
X79456Y-43982D02*
X69456Y-43982D01*
X69456Y-43982D02*
X69456Y-48903D01*
X69456Y-48903D02*
X74141Y-48903D01*
X74141Y-48903D02*
X74141Y-55596D01*
X74102Y-55596D02*
X69417Y-55596D01*
G54D14*
X73750Y-50250D02*
X74000Y-50250D01*
X74000Y-50250D02*
X74000Y-54250D01*
X74000Y-54250D02*
X73750Y-54250D01*
X72250Y-50250D02*
X73750Y-50250D01*
X73750Y-50250D02*
X73750Y-54250D01*
X73750Y-54250D02*
X72250Y-54250D01*
X72250Y-54250D02*
X72250Y-50250D01*
G54D13*
X52706Y-65846D02*
X52706Y-70767D01*
X52706Y-70767D02*
X62706Y-70767D01*
X62706Y-70767D02*
X62706Y-65846D01*
X62706Y-65846D02*
X58021Y-65846D01*
X58021Y-65846D02*
X58021Y-59153D01*
X58021Y-59153D02*
X62706Y-59153D01*
X62706Y-59153D02*
X62706Y-54232D01*
X62706Y-54232D02*
X52706Y-54232D01*
X52706Y-54232D02*
X52706Y-59153D01*
X52706Y-59153D02*
X57391Y-59153D01*
X57391Y-59153D02*
X57391Y-65846D01*
X57352Y-65846D02*
X52667Y-65846D01*
G54D14*
X57000Y-60500D02*
X57250Y-60500D01*
X57250Y-60500D02*
X57250Y-64500D01*
X57250Y-64500D02*
X57000Y-64500D01*
X55500Y-60500D02*
X57000Y-60500D01*
X57000Y-60500D02*
X57000Y-64500D01*
X57000Y-64500D02*
X55500Y-64500D01*
X55500Y-64500D02*
X55500Y-60500D01*
G54D13*
X52706Y-28596D02*
X52706Y-33517D01*
X52706Y-33517D02*
X62706Y-33517D01*
X62706Y-33517D02*
X62706Y-28596D01*
X62706Y-28596D02*
X58021Y-28596D01*
X58021Y-28596D02*
X58021Y-21903D01*
X58021Y-21903D02*
X62706Y-21903D01*
X62706Y-21903D02*
X62706Y-16982D01*
X62706Y-16982D02*
X52706Y-16982D01*
X52706Y-16982D02*
X52706Y-21903D01*
X52706Y-21903D02*
X57391Y-21903D01*
X57391Y-21903D02*
X57391Y-28596D01*
X57352Y-28596D02*
X52667Y-28596D01*
G54D14*
X57000Y-23250D02*
X57250Y-23250D01*
X57250Y-23250D02*
X57250Y-27250D01*
X57250Y-27250D02*
X57000Y-27250D01*
X55500Y-23250D02*
X57000Y-23250D01*
X57000Y-23250D02*
X57000Y-27250D01*
X57000Y-27250D02*
X55500Y-27250D01*
X55500Y-27250D02*
X55500Y-23250D01*
G54D13*
X52706Y-47096D02*
X52706Y-52017D01*
X52706Y-52017D02*
X62706Y-52017D01*
X62706Y-52017D02*
X62706Y-47096D01*
X62706Y-47096D02*
X58021Y-47096D01*
X58021Y-47096D02*
X58021Y-40403D01*
X58021Y-40403D02*
X62706Y-40403D01*
X62706Y-40403D02*
X62706Y-35482D01*
X62706Y-35482D02*
X52706Y-35482D01*
X52706Y-35482D02*
X52706Y-40403D01*
X52706Y-40403D02*
X57391Y-40403D01*
X57391Y-40403D02*
X57391Y-47096D01*
X57352Y-47096D02*
X52667Y-47096D01*
G54D14*
X57000Y-41750D02*
X57250Y-41750D01*
X57250Y-41750D02*
X57250Y-45750D01*
X57250Y-45750D02*
X57000Y-45750D01*
X55500Y-41750D02*
X57000Y-41750D01*
X57000Y-41750D02*
X57000Y-45750D01*
X57000Y-45750D02*
X55500Y-45750D01*
X55500Y-45750D02*
X55500Y-41750D01*
X75250Y-22750D02*
X75000Y-22750D01*
X75000Y-22750D02*
X75000Y-18750D01*
X75000Y-18750D02*
X75250Y-18750D01*
X76750Y-22750D02*
X75250Y-22750D01*
X75250Y-22750D02*
X75250Y-18750D01*
X75250Y-18750D02*
X76750Y-18750D01*
X76750Y-18750D02*
X76750Y-22750D01*
G54D13*
X83226Y-71937D02*
X71297Y-71937D01*
X71297Y-71937D02*
X71297Y-67015D01*
X71297Y-67015D02*
X83226Y-67015D01*
X83226Y-67015D02*
X83226Y-71937D01*
X66265Y-71968D02*
X64297Y-71968D01*
X64297Y-71968D02*
X64297Y-67952D01*
X64297Y-67952D02*
X66265Y-67952D01*
X70202Y-67952D02*
X70202Y-71929D01*
X66265Y-67952D02*
X70202Y-67952D01*
X70202Y-71968D02*
X66265Y-71968D01*
X70202Y-71968D02*
X66265Y-71968D01*
X66265Y-67952D02*
X70202Y-67952D01*
X70202Y-67952D02*
X70202Y-71929D01*
X68515Y-13968D02*
X66547Y-13968D01*
X66547Y-13968D02*
X66547Y-9952D01*
X66547Y-9952D02*
X68515Y-9952D01*
X72452Y-9952D02*
X72452Y-13929D01*
X68515Y-9952D02*
X72452Y-9952D01*
X72452Y-13968D02*
X68515Y-13968D01*
X72452Y-13968D02*
X68515Y-13968D01*
X68515Y-9952D02*
X72452Y-9952D01*
X72452Y-9952D02*
X72452Y-13929D01*
X58218Y-9952D02*
X58218Y-13929D01*
X54281Y-9952D02*
X58218Y-9952D01*
X54281Y-13968D02*
X54281Y-9952D01*
X58218Y-13968D02*
X54281Y-13968D01*
X58218Y-13968D02*
X54281Y-13968D01*
X54281Y-13968D02*
X54281Y-9952D01*
X54281Y-9952D02*
X58218Y-9952D01*
X58218Y-9952D02*
X58218Y-13929D01*
X64468Y-9952D02*
X64468Y-13929D01*
X60531Y-9952D02*
X64468Y-9952D01*
X60531Y-13968D02*
X60531Y-9952D01*
X64468Y-13968D02*
X60531Y-13968D01*
X64468Y-13968D02*
X60531Y-13968D01*
X60531Y-13968D02*
X60531Y-9952D01*
X60531Y-9952D02*
X64468Y-9952D01*
X64468Y-9952D02*
X64468Y-13929D01*
X78218Y-9952D02*
X78218Y-13929D01*
X74281Y-9952D02*
X78218Y-9952D01*
X74281Y-13968D02*
X74281Y-9952D01*
X78218Y-13968D02*
X74281Y-13968D01*
X78218Y-13968D02*
X74281Y-13968D01*
X74281Y-13968D02*
X74281Y-9952D01*
X74281Y-9952D02*
X78218Y-9952D01*
X78218Y-9952D02*
X78218Y-13929D01*
X86297Y-60218D02*
X82320Y-60218D01*
X86297Y-56281D02*
X86297Y-60218D01*
X82281Y-56281D02*
X86297Y-56281D01*
X82281Y-60218D02*
X82281Y-56281D01*
X82281Y-60218D02*
X82281Y-56281D01*
X82281Y-56281D02*
X86297Y-56281D01*
X86297Y-56281D02*
X86297Y-60218D01*
X86297Y-60218D02*
X82320Y-60218D01*
X86297Y-64968D02*
X82320Y-64968D01*
X86297Y-61031D02*
X86297Y-64968D01*
X82281Y-61031D02*
X86297Y-61031D01*
X82281Y-64968D02*
X82281Y-61031D01*
X82281Y-64968D02*
X82281Y-61031D01*
X82281Y-61031D02*
X86297Y-61031D01*
X86297Y-61031D02*
X86297Y-64968D01*
X86297Y-64968D02*
X82320Y-64968D01*
G54D12*
X67500Y-63750D02*
X67500Y-63750D01*
X67500Y-63750D02*
X67500Y-63750D01*
X61250Y-63750D02*
X60500Y-63750D01*
X60500Y-63750D02*
X60500Y-63750D01*
X61250Y-62750D02*
X66750Y-62750D01*
X66750Y-64750D02*
X61250Y-64750D01*
X66750Y-64250D02*
X66250Y-64750D01*
X61250Y-64750D02*
X61250Y-62750D01*
X66750Y-64750D02*
X66750Y-62750D01*
X67500Y-63750D02*
X66750Y-63750D01*
X84000Y-35000D02*
X84000Y-35000D01*
X84000Y-35000D02*
X84000Y-35000D01*
X77750Y-35000D02*
X77000Y-35000D01*
X77000Y-35000D02*
X77000Y-35000D01*
X77750Y-34000D02*
X83250Y-34000D01*
X83250Y-36000D02*
X77750Y-36000D01*
X83250Y-35500D02*
X82750Y-36000D01*
X77750Y-36000D02*
X77750Y-34000D01*
X83250Y-36000D02*
X83250Y-34000D01*
X84000Y-35000D02*
X83250Y-35000D01*
X84250Y-53250D02*
X84250Y-53250D01*
X84250Y-53250D02*
X84250Y-53250D01*
X78000Y-53250D02*
X77250Y-53250D01*
X77250Y-53250D02*
X77250Y-53250D01*
X78000Y-52250D02*
X83500Y-52250D01*
X83500Y-54250D02*
X78000Y-54250D01*
X83500Y-53750D02*
X83000Y-54250D01*
X78000Y-54250D02*
X78000Y-52250D01*
X83500Y-54250D02*
X83500Y-52250D01*
X84250Y-53250D02*
X83500Y-53250D01*
X67250Y-26250D02*
X67250Y-26250D01*
X67250Y-26250D02*
X67250Y-26250D01*
X61000Y-26250D02*
X60250Y-26250D01*
X60250Y-26250D02*
X60250Y-26250D01*
X61000Y-25250D02*
X66500Y-25250D01*
X66500Y-27250D02*
X61000Y-27250D01*
X66500Y-26750D02*
X66000Y-27250D01*
X61000Y-27250D02*
X61000Y-25250D01*
X66500Y-27250D02*
X66500Y-25250D01*
X67250Y-26250D02*
X66500Y-26250D01*
X67500Y-44750D02*
X67500Y-44750D01*
X67500Y-44750D02*
X67500Y-44750D01*
X61250Y-44750D02*
X60500Y-44750D01*
X60500Y-44750D02*
X60500Y-44750D01*
X61250Y-43750D02*
X66750Y-43750D01*
X66750Y-45750D02*
X61250Y-45750D01*
X66750Y-45250D02*
X66250Y-45750D01*
X61250Y-45750D02*
X61250Y-43750D01*
X66750Y-45750D02*
X66750Y-43750D01*
X67500Y-44750D02*
X66750Y-44750D01*
G54D14*
X70750Y-16000D02*
X71750Y-16000D01*
X71309Y-16000D02*
G75*
G03X71309Y-16000I-559J0D01*
G74*
G01*
X52750Y-63750D02*
X53750Y-63750D01*
X53309Y-63750D02*
G75*
G03X53309Y-63750I-559J0D01*
G74*
G01*
X69250Y-35000D02*
X70250Y-35000D01*
X69809Y-35000D02*
G75*
G03X69809Y-35000I-559J0D01*
G74*
G01*
X52750Y-26250D02*
X53750Y-26250D01*
X53309Y-26250D02*
G75*
G03X53309Y-26250I-559J0D01*
G74*
G01*
X69000Y-53250D02*
X70000Y-53250D01*
X69559Y-53250D02*
G75*
G03X69559Y-53250I-559J0D01*
G74*
G01*
X52750Y-44750D02*
X53750Y-44750D01*
X53309Y-44750D02*
G75*
G03X53309Y-44750I-559J0D01*
G74*
G01*
X79000Y-17250D02*
X79000Y-18250D01*
X79559Y-17250D02*
G75*
G03X79559Y-17250I-559J0D01*
G74*
G01*
X84750Y-68500D02*
X84750Y-69500D01*
X85309Y-68500D02*
G75*
G03X85309Y-68500I-559J0D01*
G74*
G01*
X76000Y-16000D02*
X77000Y-16000D01*
X76559Y-16000D02*
G75*
G03X76559Y-16000I-559J0D01*
G74*
G01*
X73250Y-16000D02*
X74250Y-16000D01*
X73809Y-16000D02*
G75*
G03X73809Y-16000I-559J0D01*
G74*
G01*
X79000Y-22500D02*
X79000Y-21500D01*
X79559Y-22500D02*
G75*
G03X79559Y-22500I-559J0D01*
G74*
G01*
G54D12*
X77000Y-32500D02*
X77500Y-32500D01*
X77500Y-32500D02*
X77500Y-33000D01*
X77500Y-33000D02*
X81500Y-33000D01*
X81500Y-33000D02*
X81500Y-32500D01*
X81500Y-32500D02*
X82000Y-32500D01*
X81500Y-32500D02*
X81500Y-32000D01*
X81500Y-32000D02*
X77500Y-32000D01*
X77500Y-32000D02*
X77500Y-32500D01*
X78000Y-33000D02*
X78000Y-32000D01*
X77900Y-33000D02*
X77900Y-32000D01*
X77250Y-50750D02*
X77750Y-50750D01*
X77750Y-50750D02*
X77750Y-51250D01*
X77750Y-51250D02*
X81750Y-51250D01*
X81750Y-51250D02*
X81750Y-50750D01*
X81750Y-50750D02*
X82250Y-50750D01*
X81750Y-50750D02*
X81750Y-50250D01*
X81750Y-50250D02*
X77750Y-50250D01*
X77750Y-50250D02*
X77750Y-50750D01*
X78250Y-51250D02*
X78250Y-50250D01*
X78150Y-51250D02*
X78150Y-50250D01*
X60500Y-42250D02*
X61000Y-42250D01*
X61000Y-42250D02*
X61000Y-42750D01*
X61000Y-42750D02*
X65000Y-42750D01*
X65000Y-42750D02*
X65000Y-42250D01*
X65000Y-42250D02*
X65500Y-42250D01*
X65000Y-42250D02*
X65000Y-41750D01*
X65000Y-41750D02*
X61000Y-41750D01*
X61000Y-41750D02*
X61000Y-42250D01*
X61500Y-42750D02*
X61500Y-41750D01*
X61400Y-42750D02*
X61400Y-41750D01*
X60500Y-61000D02*
X61000Y-61000D01*
X61000Y-61000D02*
X61000Y-61500D01*
X61000Y-61500D02*
X65000Y-61500D01*
X65000Y-61500D02*
X65000Y-61000D01*
X65000Y-61000D02*
X65500Y-61000D01*
X65000Y-61000D02*
X65000Y-60500D01*
X65000Y-60500D02*
X61000Y-60500D01*
X61000Y-60500D02*
X61000Y-61000D01*
X61500Y-61500D02*
X61500Y-60500D01*
X61400Y-61500D02*
X61400Y-60500D01*
X60250Y-23750D02*
X60750Y-23750D01*
X60750Y-23750D02*
X60750Y-24250D01*
X60750Y-24250D02*
X64750Y-24250D01*
X64750Y-24250D02*
X64750Y-23750D01*
X64750Y-23750D02*
X65250Y-23750D01*
X64750Y-23750D02*
X64750Y-23250D01*
X64750Y-23250D02*
X60750Y-23250D01*
X60750Y-23250D02*
X60750Y-23750D01*
X61250Y-24250D02*
X61250Y-23250D01*
X61150Y-24250D02*
X61150Y-23250D01*
X78500Y-65000D02*
X78200Y-65000D01*
X78200Y-65000D02*
X78200Y-64600D01*
X78200Y-64600D02*
X75800Y-64600D01*
X75800Y-64600D02*
X75800Y-65000D01*
X75800Y-65000D02*
X75500Y-65000D01*
X75800Y-65000D02*
X75800Y-65400D01*
X75800Y-65400D02*
X78200Y-65400D01*
X78200Y-65400D02*
X78200Y-65000D01*
X78000Y-64600D02*
X78000Y-65400D01*
X77900Y-65400D02*
X77900Y-64600D01*
X78500Y-62750D02*
X78200Y-62750D01*
X78200Y-62750D02*
X78200Y-62350D01*
X78200Y-62350D02*
X75800Y-62350D01*
X75800Y-62350D02*
X75800Y-62750D01*
X75800Y-62750D02*
X75500Y-62750D01*
X75800Y-62750D02*
X75800Y-63150D01*
X75800Y-63150D02*
X78200Y-63150D01*
X78200Y-63150D02*
X78200Y-62750D01*
X78000Y-62350D02*
X78000Y-63150D01*
X77900Y-63150D02*
X77900Y-62350D01*
X73750Y-65000D02*
X73450Y-65000D01*
X73450Y-65000D02*
X73450Y-64600D01*
X73450Y-64600D02*
X71050Y-64600D01*
X71050Y-64600D02*
X71050Y-65000D01*
X71050Y-65000D02*
X70750Y-65000D01*
X71050Y-65000D02*
X71050Y-65400D01*
X71050Y-65400D02*
X73450Y-65400D01*
X73450Y-65400D02*
X73450Y-65000D01*
X73250Y-64600D02*
X73250Y-65400D01*
X73150Y-65400D02*
X73150Y-64600D01*
X73750Y-62750D02*
X73450Y-62750D01*
X73450Y-62750D02*
X73450Y-62350D01*
X73450Y-62350D02*
X71050Y-62350D01*
X71050Y-62350D02*
X71050Y-62750D01*
X71050Y-62750D02*
X70750Y-62750D01*
X71050Y-62750D02*
X71050Y-63150D01*
X71050Y-63150D02*
X73450Y-63150D01*
X73450Y-63150D02*
X73450Y-62750D01*
X73250Y-62350D02*
X73250Y-63150D01*
X73150Y-63150D02*
X73150Y-62350D01*
G54D13*
X85899Y-13250D02*
G75*
G03X85899Y-13250I-3149J0D01*
G74*
G01*
G54D12*
X85195Y-19750D02*
G75*
G03X85195Y-19750I-2195J0D01*
G74*
G01*
X52270Y-23750D02*
X54250Y-23750D01*
X54250Y-23750D02*
X54250Y-24750D01*
X54250Y-24750D02*
X52250Y-24750D01*
X52250Y-24750D02*
X52250Y-23750D01*
X52250Y-24000D02*
X52500Y-23750D01*
X52270Y-42250D02*
X54250Y-42250D01*
X54250Y-42250D02*
X54250Y-43250D01*
X54250Y-43250D02*
X52250Y-43250D01*
X52250Y-43250D02*
X52250Y-42250D01*
X52250Y-42500D02*
X52500Y-42250D01*
X68520Y-50750D02*
X70500Y-50750D01*
X70500Y-50750D02*
X70500Y-51750D01*
X70500Y-51750D02*
X68500Y-51750D01*
X68500Y-51750D02*
X68500Y-50750D01*
X68500Y-51000D02*
X68750Y-50750D01*
X52270Y-61000D02*
X54250Y-61000D01*
X54250Y-61000D02*
X54250Y-62000D01*
X54250Y-62000D02*
X52250Y-62000D01*
X52250Y-62000D02*
X52250Y-61000D01*
X52250Y-61250D02*
X52500Y-61000D01*
X68770Y-32500D02*
X70750Y-32500D01*
X70750Y-32500D02*
X70750Y-33500D01*
X70750Y-33500D02*
X68750Y-33500D01*
X68750Y-33500D02*
X68750Y-32500D01*
X68750Y-32750D02*
X69000Y-32500D01*
G54D14*
X52400Y-10000D02*
G75*
G03X52400Y-10000I-900J0D01*
G74*
G01*
X87400Y-10000D02*
G75*
G03X87400Y-10000I-900J0D01*
G74*
G01*
X52400Y-72000D02*
G75*
G03X52400Y-72000I-900J0D01*
G74*
G01*
X87400Y-72000D02*
G75*
G03X87400Y-72000I-900J0D01*
G74*
G01*
X52400Y-34500D02*
G75*
G03X52400Y-34500I-900J0D01*
G74*
G01*
X87400Y-34500D02*
G75*
G03X87400Y-34500I-900J0D01*
G74*
G01*
G54D15*
X66945Y-18261D02*
X66945Y-18585D01*
X66964Y-18623D01*
X66983Y-18642D01*
X67021Y-18661D01*
X67097Y-18661D01*
X67135Y-18642D01*
X67154Y-18623D01*
X67173Y-18585D01*
X67173Y-18261D01*
X67573Y-18661D02*
X67345Y-18661D01*
X67459Y-18661D02*
X67459Y-18261D01*
X67421Y-18319D01*
X67383Y-18357D01*
X67345Y-18376D01*
X66983Y-15161D02*
X66792Y-15161D01*
X66792Y-14761D01*
X67345Y-15161D02*
X67211Y-14971D01*
X67116Y-15161D02*
X67116Y-14761D01*
X67269Y-14761D01*
X67307Y-14780D01*
X67326Y-14800D01*
X67345Y-14838D01*
X67345Y-14895D01*
X67326Y-14933D01*
X67307Y-14952D01*
X67269Y-14971D01*
X67116Y-14971D01*
X67573Y-14933D02*
X67535Y-14914D01*
X67516Y-14895D01*
X67497Y-14857D01*
X67497Y-14838D01*
X67516Y-14800D01*
X67535Y-14780D01*
X67573Y-14761D01*
X67650Y-14761D01*
X67688Y-14780D01*
X67707Y-14800D01*
X67726Y-14838D01*
X67726Y-14857D01*
X67707Y-14895D01*
X67688Y-14914D01*
X67650Y-14933D01*
X67573Y-14933D01*
X67535Y-14952D01*
X67516Y-14971D01*
X67497Y-15009D01*
X67497Y-15085D01*
X67516Y-15123D01*
X67535Y-15142D01*
X67573Y-15161D01*
X67650Y-15161D01*
X67688Y-15142D01*
X67707Y-15123D01*
X67726Y-15085D01*
X67726Y-15009D01*
X67707Y-14971D01*
X67688Y-14952D01*
X67650Y-14933D01*
X72050Y-34038D02*
X72021Y-34076D01*
X71964Y-34114D01*
X71878Y-34171D01*
X71850Y-34209D01*
X71850Y-34247D01*
X71992Y-34228D02*
X71964Y-34266D01*
X71907Y-34304D01*
X71792Y-34323D01*
X71592Y-34323D01*
X71478Y-34304D01*
X71421Y-34266D01*
X71392Y-34228D01*
X71392Y-34152D01*
X71421Y-34114D01*
X71478Y-34076D01*
X71592Y-34057D01*
X71792Y-34057D01*
X71907Y-34076D01*
X71964Y-34114D01*
X71992Y-34152D01*
X71992Y-34228D01*
X71392Y-33695D02*
X71392Y-33885D01*
X71678Y-33904D01*
X71650Y-33885D01*
X71621Y-33847D01*
X71621Y-33752D01*
X71650Y-33714D01*
X71678Y-33695D01*
X71735Y-33676D01*
X71878Y-33676D01*
X71935Y-33695D01*
X71964Y-33714D01*
X71992Y-33752D01*
X71992Y-33847D01*
X71964Y-33885D01*
X71935Y-33904D01*
X72307Y-31742D02*
X72307Y-31142D01*
X72726Y-31742D02*
X72592Y-31457D01*
X72497Y-31742D02*
X72497Y-31142D01*
X72650Y-31142D01*
X72688Y-31171D01*
X72707Y-31200D01*
X72726Y-31257D01*
X72726Y-31342D01*
X72707Y-31400D01*
X72688Y-31428D01*
X72650Y-31457D01*
X72497Y-31457D01*
X73030Y-31428D02*
X72897Y-31428D01*
X72897Y-31742D02*
X72897Y-31142D01*
X73088Y-31142D01*
X73202Y-31142D02*
X73469Y-31142D01*
X73297Y-31742D01*
X73792Y-31342D02*
X73792Y-31742D01*
X73697Y-31114D02*
X73602Y-31542D01*
X73850Y-31542D01*
X74078Y-31142D02*
X74116Y-31142D01*
X74154Y-31171D01*
X74173Y-31200D01*
X74192Y-31257D01*
X74211Y-31371D01*
X74211Y-31514D01*
X74192Y-31628D01*
X74173Y-31685D01*
X74154Y-31714D01*
X74116Y-31742D01*
X74078Y-31742D01*
X74040Y-31714D01*
X74021Y-31685D01*
X74002Y-31628D01*
X73983Y-31514D01*
X73983Y-31371D01*
X74002Y-31257D01*
X74021Y-31200D01*
X74040Y-31171D01*
X74078Y-31142D01*
X72050Y-52288D02*
X72021Y-52326D01*
X71964Y-52364D01*
X71878Y-52421D01*
X71850Y-52459D01*
X71850Y-52497D01*
X71992Y-52478D02*
X71964Y-52516D01*
X71907Y-52554D01*
X71792Y-52573D01*
X71592Y-52573D01*
X71478Y-52554D01*
X71421Y-52516D01*
X71392Y-52478D01*
X71392Y-52402D01*
X71421Y-52364D01*
X71478Y-52326D01*
X71592Y-52307D01*
X71792Y-52307D01*
X71907Y-52326D01*
X71964Y-52364D01*
X71992Y-52402D01*
X71992Y-52478D01*
X71392Y-51964D02*
X71392Y-52040D01*
X71421Y-52078D01*
X71450Y-52097D01*
X71535Y-52135D01*
X71650Y-52154D01*
X71878Y-52154D01*
X71935Y-52135D01*
X71964Y-52116D01*
X71992Y-52078D01*
X71992Y-52002D01*
X71964Y-51964D01*
X71935Y-51945D01*
X71878Y-51926D01*
X71735Y-51926D01*
X71678Y-51945D01*
X71650Y-51964D01*
X71621Y-52002D01*
X71621Y-52078D01*
X71650Y-52116D01*
X71678Y-52135D01*
X71735Y-52154D01*
X72307Y-49992D02*
X72307Y-49392D01*
X72726Y-49992D02*
X72592Y-49707D01*
X72497Y-49992D02*
X72497Y-49392D01*
X72650Y-49392D01*
X72688Y-49421D01*
X72707Y-49450D01*
X72726Y-49507D01*
X72726Y-49592D01*
X72707Y-49650D01*
X72688Y-49678D01*
X72650Y-49707D01*
X72497Y-49707D01*
X73030Y-49678D02*
X72897Y-49678D01*
X72897Y-49992D02*
X72897Y-49392D01*
X73088Y-49392D01*
X73202Y-49392D02*
X73469Y-49392D01*
X73297Y-49992D01*
X73792Y-49592D02*
X73792Y-49992D01*
X73697Y-49364D02*
X73602Y-49792D01*
X73850Y-49792D01*
X74078Y-49392D02*
X74116Y-49392D01*
X74154Y-49421D01*
X74173Y-49450D01*
X74192Y-49507D01*
X74211Y-49621D01*
X74211Y-49764D01*
X74192Y-49878D01*
X74173Y-49935D01*
X74154Y-49964D01*
X74116Y-49992D01*
X74078Y-49992D01*
X74040Y-49964D01*
X74021Y-49935D01*
X74002Y-49878D01*
X73983Y-49764D01*
X73983Y-49621D01*
X74002Y-49507D01*
X74021Y-49450D01*
X74040Y-49421D01*
X74078Y-49392D01*
X55300Y-62538D02*
X55271Y-62576D01*
X55214Y-62614D01*
X55128Y-62671D01*
X55100Y-62709D01*
X55100Y-62747D01*
X55242Y-62728D02*
X55214Y-62766D01*
X55157Y-62804D01*
X55042Y-62823D01*
X54842Y-62823D01*
X54728Y-62804D01*
X54671Y-62766D01*
X54642Y-62728D01*
X54642Y-62652D01*
X54671Y-62614D01*
X54728Y-62576D01*
X54842Y-62557D01*
X55042Y-62557D01*
X55157Y-62576D01*
X55214Y-62614D01*
X55242Y-62652D01*
X55242Y-62728D01*
X54842Y-62214D02*
X55242Y-62214D01*
X54614Y-62309D02*
X55042Y-62404D01*
X55042Y-62157D01*
X55557Y-60242D02*
X55557Y-59642D01*
X55976Y-60242D02*
X55842Y-59957D01*
X55747Y-60242D02*
X55747Y-59642D01*
X55900Y-59642D01*
X55938Y-59671D01*
X55957Y-59700D01*
X55976Y-59757D01*
X55976Y-59842D01*
X55957Y-59900D01*
X55938Y-59928D01*
X55900Y-59957D01*
X55747Y-59957D01*
X56280Y-59928D02*
X56147Y-59928D01*
X56147Y-60242D02*
X56147Y-59642D01*
X56338Y-59642D01*
X56452Y-59642D02*
X56719Y-59642D01*
X56547Y-60242D01*
X57042Y-59842D02*
X57042Y-60242D01*
X56947Y-59614D02*
X56852Y-60042D01*
X57100Y-60042D01*
X57328Y-59642D02*
X57366Y-59642D01*
X57404Y-59671D01*
X57423Y-59700D01*
X57442Y-59757D01*
X57461Y-59871D01*
X57461Y-60014D01*
X57442Y-60128D01*
X57423Y-60185D01*
X57404Y-60214D01*
X57366Y-60242D01*
X57328Y-60242D01*
X57290Y-60214D01*
X57271Y-60185D01*
X57252Y-60128D01*
X57233Y-60014D01*
X57233Y-59871D01*
X57252Y-59757D01*
X57271Y-59700D01*
X57290Y-59671D01*
X57328Y-59642D01*
X55300Y-25288D02*
X55271Y-25326D01*
X55214Y-25364D01*
X55128Y-25421D01*
X55100Y-25459D01*
X55100Y-25497D01*
X55242Y-25478D02*
X55214Y-25516D01*
X55157Y-25554D01*
X55042Y-25573D01*
X54842Y-25573D01*
X54728Y-25554D01*
X54671Y-25516D01*
X54642Y-25478D01*
X54642Y-25402D01*
X54671Y-25364D01*
X54728Y-25326D01*
X54842Y-25307D01*
X55042Y-25307D01*
X55157Y-25326D01*
X55214Y-25364D01*
X55242Y-25402D01*
X55242Y-25478D01*
X54700Y-25154D02*
X54671Y-25135D01*
X54642Y-25097D01*
X54642Y-25002D01*
X54671Y-24964D01*
X54700Y-24945D01*
X54757Y-24926D01*
X54814Y-24926D01*
X54900Y-24945D01*
X55242Y-25173D01*
X55242Y-24926D01*
X55557Y-22992D02*
X55557Y-22392D01*
X55976Y-22992D02*
X55842Y-22707D01*
X55747Y-22992D02*
X55747Y-22392D01*
X55900Y-22392D01*
X55938Y-22421D01*
X55957Y-22450D01*
X55976Y-22507D01*
X55976Y-22592D01*
X55957Y-22650D01*
X55938Y-22678D01*
X55900Y-22707D01*
X55747Y-22707D01*
X56280Y-22678D02*
X56147Y-22678D01*
X56147Y-22992D02*
X56147Y-22392D01*
X56338Y-22392D01*
X56452Y-22392D02*
X56719Y-22392D01*
X56547Y-22992D01*
X57042Y-22592D02*
X57042Y-22992D01*
X56947Y-22364D02*
X56852Y-22792D01*
X57100Y-22792D01*
X57328Y-22392D02*
X57366Y-22392D01*
X57404Y-22421D01*
X57423Y-22450D01*
X57442Y-22507D01*
X57461Y-22621D01*
X57461Y-22764D01*
X57442Y-22878D01*
X57423Y-22935D01*
X57404Y-22964D01*
X57366Y-22992D01*
X57328Y-22992D01*
X57290Y-22964D01*
X57271Y-22935D01*
X57252Y-22878D01*
X57233Y-22764D01*
X57233Y-22621D01*
X57252Y-22507D01*
X57271Y-22450D01*
X57290Y-22421D01*
X57328Y-22392D01*
X55300Y-43788D02*
X55271Y-43826D01*
X55214Y-43864D01*
X55128Y-43921D01*
X55100Y-43959D01*
X55100Y-43997D01*
X55242Y-43978D02*
X55214Y-44016D01*
X55157Y-44054D01*
X55042Y-44073D01*
X54842Y-44073D01*
X54728Y-44054D01*
X54671Y-44016D01*
X54642Y-43978D01*
X54642Y-43902D01*
X54671Y-43864D01*
X54728Y-43826D01*
X54842Y-43807D01*
X55042Y-43807D01*
X55157Y-43826D01*
X55214Y-43864D01*
X55242Y-43902D01*
X55242Y-43978D01*
X54642Y-43673D02*
X54642Y-43426D01*
X54871Y-43559D01*
X54871Y-43502D01*
X54900Y-43464D01*
X54928Y-43445D01*
X54985Y-43426D01*
X55128Y-43426D01*
X55185Y-43445D01*
X55214Y-43464D01*
X55242Y-43502D01*
X55242Y-43616D01*
X55214Y-43654D01*
X55185Y-43673D01*
X55557Y-41492D02*
X55557Y-40892D01*
X55976Y-41492D02*
X55842Y-41207D01*
X55747Y-41492D02*
X55747Y-40892D01*
X55900Y-40892D01*
X55938Y-40921D01*
X55957Y-40950D01*
X55976Y-41007D01*
X55976Y-41092D01*
X55957Y-41150D01*
X55938Y-41178D01*
X55900Y-41207D01*
X55747Y-41207D01*
X56280Y-41178D02*
X56147Y-41178D01*
X56147Y-41492D02*
X56147Y-40892D01*
X56338Y-40892D01*
X56452Y-40892D02*
X56719Y-40892D01*
X56547Y-41492D01*
X57042Y-41092D02*
X57042Y-41492D01*
X56947Y-40864D02*
X56852Y-41292D01*
X57100Y-41292D01*
X57328Y-40892D02*
X57366Y-40892D01*
X57404Y-40921D01*
X57423Y-40950D01*
X57442Y-41007D01*
X57461Y-41121D01*
X57461Y-41264D01*
X57442Y-41378D01*
X57423Y-41435D01*
X57404Y-41464D01*
X57366Y-41492D01*
X57328Y-41492D01*
X57290Y-41464D01*
X57271Y-41435D01*
X57252Y-41378D01*
X57233Y-41264D01*
X57233Y-41121D01*
X57252Y-41007D01*
X57271Y-40950D01*
X57290Y-40921D01*
X57328Y-40892D01*
X77550Y-20788D02*
X77521Y-20826D01*
X77464Y-20864D01*
X77378Y-20921D01*
X77350Y-20959D01*
X77350Y-20997D01*
X77492Y-20978D02*
X77464Y-21016D01*
X77407Y-21054D01*
X77292Y-21073D01*
X77092Y-21073D01*
X76978Y-21054D01*
X76921Y-21016D01*
X76892Y-20978D01*
X76892Y-20902D01*
X76921Y-20864D01*
X76978Y-20826D01*
X77092Y-20807D01*
X77292Y-20807D01*
X77407Y-20826D01*
X77464Y-20864D01*
X77492Y-20902D01*
X77492Y-20978D01*
X77492Y-20426D02*
X77492Y-20654D01*
X77492Y-20540D02*
X76892Y-20540D01*
X76978Y-20578D01*
X77035Y-20616D01*
X77064Y-20654D01*
X74959Y-22892D02*
X75188Y-22892D01*
X75073Y-23492D02*
X75073Y-22892D01*
X75321Y-23492D02*
X75321Y-22892D01*
X75511Y-23492D02*
X75511Y-22892D01*
X75664Y-22892D01*
X75702Y-22921D01*
X75721Y-22950D01*
X75740Y-23007D01*
X75740Y-23092D01*
X75721Y-23150D01*
X75702Y-23178D01*
X75664Y-23207D01*
X75511Y-23207D01*
X76102Y-22892D02*
X75911Y-22892D01*
X75892Y-23178D01*
X75911Y-23150D01*
X75950Y-23121D01*
X76045Y-23121D01*
X76083Y-23150D01*
X76102Y-23178D01*
X76121Y-23235D01*
X76121Y-23378D01*
X76102Y-23435D01*
X76083Y-23464D01*
X76045Y-23492D01*
X75950Y-23492D01*
X75911Y-23464D01*
X75892Y-23435D01*
X76369Y-22892D02*
X76407Y-22892D01*
X76445Y-22921D01*
X76464Y-22950D01*
X76483Y-23007D01*
X76502Y-23121D01*
X76502Y-23264D01*
X76483Y-23378D01*
X76464Y-23435D01*
X76445Y-23464D01*
X76407Y-23492D01*
X76369Y-23492D01*
X76330Y-23464D01*
X76311Y-23435D01*
X76292Y-23378D01*
X76273Y-23264D01*
X76273Y-23121D01*
X76292Y-23007D01*
X76311Y-22950D01*
X76330Y-22921D01*
X76369Y-22892D01*
G54D13*
X73998Y-69340D02*
X73998Y-68946D01*
X74223Y-69340D02*
X74055Y-69115D01*
X74223Y-68946D02*
X73998Y-69171D01*
X74373Y-68984D02*
X74392Y-68965D01*
X74429Y-68946D01*
X74523Y-68946D01*
X74561Y-68965D01*
X74579Y-68984D01*
X74598Y-69021D01*
X74598Y-69059D01*
X74579Y-69115D01*
X74354Y-69340D01*
X74598Y-69340D01*
X72855Y-70009D02*
X72723Y-69822D01*
X72630Y-70009D02*
X72630Y-69616D01*
X72780Y-69616D01*
X72817Y-69634D01*
X72836Y-69653D01*
X72855Y-69691D01*
X72855Y-69747D01*
X72836Y-69784D01*
X72817Y-69803D01*
X72780Y-69822D01*
X72630Y-69822D01*
X73023Y-69803D02*
X73155Y-69803D01*
X73211Y-70009D02*
X73023Y-70009D01*
X73023Y-69616D01*
X73211Y-69616D01*
X73567Y-70009D02*
X73380Y-70009D01*
X73380Y-69616D01*
X73680Y-69897D02*
X73867Y-69897D01*
X73642Y-70009D02*
X73773Y-69616D01*
X73905Y-70009D01*
X74111Y-69822D02*
X74111Y-70009D01*
X73980Y-69616D02*
X74111Y-69822D01*
X74242Y-69616D01*
X74279Y-70047D02*
X74579Y-70047D01*
X74654Y-69653D02*
X74673Y-69634D01*
X74711Y-69616D01*
X74804Y-69616D01*
X74842Y-69634D01*
X74861Y-69653D01*
X74879Y-69691D01*
X74879Y-69728D01*
X74861Y-69784D01*
X74636Y-70009D01*
X74879Y-70009D01*
X75273Y-70009D02*
X75142Y-69822D01*
X75048Y-70009D02*
X75048Y-69616D01*
X75198Y-69616D01*
X75236Y-69634D01*
X75254Y-69653D01*
X75273Y-69691D01*
X75273Y-69747D01*
X75254Y-69784D01*
X75236Y-69803D01*
X75198Y-69822D01*
X75048Y-69822D01*
X75386Y-69616D02*
X75611Y-69616D01*
X75498Y-70009D02*
X75498Y-69616D01*
X66959Y-68860D02*
X66959Y-68466D01*
X67184Y-68860D02*
X67015Y-68635D01*
X67184Y-68466D02*
X66959Y-68691D01*
X67559Y-68860D02*
X67334Y-68860D01*
X67446Y-68860D02*
X67446Y-68466D01*
X67409Y-68522D01*
X67371Y-68560D01*
X67334Y-68578D01*
X66415Y-71539D02*
X66396Y-71557D01*
X66340Y-71576D01*
X66303Y-71576D01*
X66247Y-71557D01*
X66209Y-71520D01*
X66190Y-71482D01*
X66172Y-71407D01*
X66172Y-71351D01*
X66190Y-71276D01*
X66209Y-71239D01*
X66247Y-71201D01*
X66303Y-71182D01*
X66340Y-71182D01*
X66396Y-71201D01*
X66415Y-71220D01*
X66659Y-71182D02*
X66734Y-71182D01*
X66771Y-71201D01*
X66809Y-71239D01*
X66828Y-71314D01*
X66828Y-71445D01*
X66809Y-71520D01*
X66771Y-71557D01*
X66734Y-71576D01*
X66659Y-71576D01*
X66621Y-71557D01*
X66584Y-71520D01*
X66565Y-71445D01*
X66565Y-71314D01*
X66584Y-71239D01*
X66621Y-71201D01*
X66659Y-71182D01*
X66996Y-71576D02*
X66996Y-71182D01*
X67221Y-71576D01*
X67221Y-71182D01*
X67409Y-71576D02*
X67409Y-71182D01*
X67634Y-71576D01*
X67634Y-71182D01*
X67728Y-71614D02*
X68028Y-71614D01*
X68084Y-71182D02*
X68327Y-71182D01*
X68196Y-71332D01*
X68253Y-71332D01*
X68290Y-71351D01*
X68309Y-71370D01*
X68327Y-71407D01*
X68327Y-71501D01*
X68309Y-71539D01*
X68290Y-71557D01*
X68253Y-71576D01*
X68140Y-71576D01*
X68103Y-71557D01*
X68084Y-71539D01*
X69265Y-10860D02*
X69134Y-10672D01*
X69040Y-10860D02*
X69040Y-10466D01*
X69190Y-10466D01*
X69228Y-10485D01*
X69246Y-10503D01*
X69265Y-10541D01*
X69265Y-10597D01*
X69246Y-10635D01*
X69228Y-10653D01*
X69190Y-10672D01*
X69040Y-10672D01*
X69378Y-10466D02*
X69509Y-10860D01*
X69640Y-10466D01*
X69978Y-10860D02*
X69753Y-10860D01*
X69865Y-10860D02*
X69865Y-10466D01*
X69828Y-10522D01*
X69790Y-10560D01*
X69753Y-10578D01*
X69059Y-13182D02*
X68871Y-13182D01*
X68853Y-13370D01*
X68871Y-13351D01*
X68909Y-13332D01*
X69003Y-13332D01*
X69040Y-13351D01*
X69059Y-13370D01*
X69078Y-13407D01*
X69078Y-13501D01*
X69059Y-13539D01*
X69040Y-13557D01*
X69003Y-13576D01*
X68909Y-13576D01*
X68871Y-13557D01*
X68853Y-13539D01*
X69321Y-13182D02*
X69359Y-13182D01*
X69396Y-13201D01*
X69415Y-13220D01*
X69434Y-13257D01*
X69453Y-13332D01*
X69453Y-13426D01*
X69434Y-13501D01*
X69415Y-13539D01*
X69396Y-13557D01*
X69359Y-13576D01*
X69321Y-13576D01*
X69284Y-13557D01*
X69265Y-13539D01*
X69246Y-13501D01*
X69228Y-13426D01*
X69228Y-13332D01*
X69246Y-13257D01*
X69265Y-13220D01*
X69284Y-13201D01*
X69321Y-13182D01*
X69696Y-13182D02*
X69734Y-13182D01*
X69771Y-13201D01*
X69790Y-13220D01*
X69809Y-13257D01*
X69828Y-13332D01*
X69828Y-13426D01*
X69809Y-13501D01*
X69790Y-13539D01*
X69771Y-13557D01*
X69734Y-13576D01*
X69696Y-13576D01*
X69659Y-13557D01*
X69640Y-13539D01*
X69621Y-13501D01*
X69603Y-13426D01*
X69603Y-13332D01*
X69621Y-13257D01*
X69640Y-13220D01*
X69659Y-13201D01*
X69696Y-13182D01*
X69996Y-13576D02*
X69996Y-13182D01*
X70034Y-13426D02*
X70146Y-13576D01*
X70146Y-13314D02*
X69996Y-13464D01*
X55959Y-10860D02*
X55959Y-10466D01*
X56109Y-10466D01*
X56146Y-10485D01*
X56165Y-10503D01*
X56184Y-10541D01*
X56184Y-10597D01*
X56165Y-10635D01*
X56146Y-10653D01*
X56109Y-10672D01*
X55959Y-10672D01*
X56315Y-10466D02*
X56559Y-10466D01*
X56428Y-10616D01*
X56484Y-10616D01*
X56521Y-10635D01*
X56540Y-10653D01*
X56559Y-10691D01*
X56559Y-10785D01*
X56540Y-10822D01*
X56521Y-10841D01*
X56484Y-10860D01*
X56371Y-10860D01*
X56334Y-10841D01*
X56315Y-10822D01*
X55415Y-13539D02*
X55396Y-13557D01*
X55340Y-13576D01*
X55303Y-13576D01*
X55247Y-13557D01*
X55209Y-13520D01*
X55190Y-13482D01*
X55172Y-13407D01*
X55172Y-13351D01*
X55190Y-13276D01*
X55209Y-13239D01*
X55247Y-13201D01*
X55303Y-13182D01*
X55340Y-13182D01*
X55396Y-13201D01*
X55415Y-13220D01*
X55659Y-13182D02*
X55734Y-13182D01*
X55771Y-13201D01*
X55809Y-13239D01*
X55828Y-13314D01*
X55828Y-13445D01*
X55809Y-13520D01*
X55771Y-13557D01*
X55734Y-13576D01*
X55659Y-13576D01*
X55621Y-13557D01*
X55584Y-13520D01*
X55565Y-13445D01*
X55565Y-13314D01*
X55584Y-13239D01*
X55621Y-13201D01*
X55659Y-13182D01*
X55996Y-13576D02*
X55996Y-13182D01*
X56221Y-13576D01*
X56221Y-13182D01*
X56409Y-13576D02*
X56409Y-13182D01*
X56634Y-13576D01*
X56634Y-13182D01*
X56728Y-13614D02*
X57028Y-13614D01*
X57103Y-13220D02*
X57121Y-13201D01*
X57159Y-13182D01*
X57253Y-13182D01*
X57290Y-13201D01*
X57309Y-13220D01*
X57327Y-13257D01*
X57327Y-13295D01*
X57309Y-13351D01*
X57084Y-13576D01*
X57327Y-13576D01*
X62209Y-10860D02*
X62209Y-10466D01*
X62359Y-10466D01*
X62396Y-10485D01*
X62415Y-10503D01*
X62434Y-10541D01*
X62434Y-10597D01*
X62415Y-10635D01*
X62396Y-10653D01*
X62359Y-10672D01*
X62209Y-10672D01*
X62584Y-10503D02*
X62603Y-10485D01*
X62640Y-10466D01*
X62734Y-10466D01*
X62771Y-10485D01*
X62790Y-10503D01*
X62809Y-10541D01*
X62809Y-10578D01*
X62790Y-10635D01*
X62565Y-10860D01*
X62809Y-10860D01*
X61665Y-13539D02*
X61646Y-13557D01*
X61590Y-13576D01*
X61553Y-13576D01*
X61497Y-13557D01*
X61459Y-13520D01*
X61440Y-13482D01*
X61422Y-13407D01*
X61422Y-13351D01*
X61440Y-13276D01*
X61459Y-13239D01*
X61497Y-13201D01*
X61553Y-13182D01*
X61590Y-13182D01*
X61646Y-13201D01*
X61665Y-13220D01*
X61909Y-13182D02*
X61984Y-13182D01*
X62021Y-13201D01*
X62059Y-13239D01*
X62078Y-13314D01*
X62078Y-13445D01*
X62059Y-13520D01*
X62021Y-13557D01*
X61984Y-13576D01*
X61909Y-13576D01*
X61871Y-13557D01*
X61834Y-13520D01*
X61815Y-13445D01*
X61815Y-13314D01*
X61834Y-13239D01*
X61871Y-13201D01*
X61909Y-13182D01*
X62246Y-13576D02*
X62246Y-13182D01*
X62471Y-13576D01*
X62471Y-13182D01*
X62659Y-13576D02*
X62659Y-13182D01*
X62884Y-13576D01*
X62884Y-13182D01*
X62978Y-13614D02*
X63278Y-13614D01*
X63353Y-13220D02*
X63371Y-13201D01*
X63409Y-13182D01*
X63503Y-13182D01*
X63540Y-13201D01*
X63559Y-13220D01*
X63577Y-13257D01*
X63577Y-13295D01*
X63559Y-13351D01*
X63334Y-13576D01*
X63577Y-13576D01*
X75959Y-10860D02*
X75959Y-10466D01*
X76109Y-10466D01*
X76146Y-10485D01*
X76165Y-10503D01*
X76184Y-10541D01*
X76184Y-10597D01*
X76165Y-10635D01*
X76146Y-10653D01*
X76109Y-10672D01*
X75959Y-10672D01*
X76521Y-10597D02*
X76521Y-10860D01*
X76428Y-10447D02*
X76334Y-10728D01*
X76578Y-10728D01*
X75415Y-13539D02*
X75396Y-13557D01*
X75340Y-13576D01*
X75303Y-13576D01*
X75247Y-13557D01*
X75209Y-13520D01*
X75190Y-13482D01*
X75172Y-13407D01*
X75172Y-13351D01*
X75190Y-13276D01*
X75209Y-13239D01*
X75247Y-13201D01*
X75303Y-13182D01*
X75340Y-13182D01*
X75396Y-13201D01*
X75415Y-13220D01*
X75659Y-13182D02*
X75734Y-13182D01*
X75771Y-13201D01*
X75809Y-13239D01*
X75828Y-13314D01*
X75828Y-13445D01*
X75809Y-13520D01*
X75771Y-13557D01*
X75734Y-13576D01*
X75659Y-13576D01*
X75621Y-13557D01*
X75584Y-13520D01*
X75565Y-13445D01*
X75565Y-13314D01*
X75584Y-13239D01*
X75621Y-13201D01*
X75659Y-13182D01*
X75996Y-13576D02*
X75996Y-13182D01*
X76221Y-13576D01*
X76221Y-13182D01*
X76409Y-13576D02*
X76409Y-13182D01*
X76634Y-13576D01*
X76634Y-13182D01*
X76728Y-13614D02*
X77028Y-13614D01*
X77103Y-13220D02*
X77121Y-13201D01*
X77159Y-13182D01*
X77253Y-13182D01*
X77290Y-13201D01*
X77309Y-13220D01*
X77327Y-13257D01*
X77327Y-13295D01*
X77309Y-13351D01*
X77084Y-13576D01*
X77327Y-13576D01*
X85708Y-58540D02*
X85314Y-58540D01*
X85314Y-58390D01*
X85333Y-58353D01*
X85352Y-58334D01*
X85389Y-58315D01*
X85446Y-58315D01*
X85483Y-58334D01*
X85502Y-58353D01*
X85521Y-58390D01*
X85521Y-58540D01*
X85708Y-57940D02*
X85708Y-58165D01*
X85708Y-58053D02*
X85314Y-58053D01*
X85371Y-58090D01*
X85408Y-58128D01*
X85427Y-58165D01*
X82954Y-59084D02*
X82973Y-59103D01*
X82992Y-59159D01*
X82992Y-59196D01*
X82973Y-59252D01*
X82935Y-59290D01*
X82898Y-59309D01*
X82823Y-59327D01*
X82767Y-59327D01*
X82692Y-59309D01*
X82654Y-59290D01*
X82617Y-59252D01*
X82598Y-59196D01*
X82598Y-59159D01*
X82617Y-59103D01*
X82635Y-59084D01*
X82598Y-58840D02*
X82598Y-58765D01*
X82617Y-58728D01*
X82654Y-58690D01*
X82729Y-58671D01*
X82860Y-58671D01*
X82935Y-58690D01*
X82973Y-58728D01*
X82992Y-58765D01*
X82992Y-58840D01*
X82973Y-58878D01*
X82935Y-58915D01*
X82860Y-58934D01*
X82729Y-58934D01*
X82654Y-58915D01*
X82617Y-58878D01*
X82598Y-58840D01*
X82992Y-58503D02*
X82598Y-58503D01*
X82992Y-58278D01*
X82598Y-58278D01*
X82992Y-58090D02*
X82598Y-58090D01*
X82992Y-57865D01*
X82598Y-57865D01*
X83029Y-57771D02*
X83029Y-57471D01*
X82635Y-57396D02*
X82617Y-57378D01*
X82598Y-57340D01*
X82598Y-57247D01*
X82617Y-57209D01*
X82635Y-57190D01*
X82673Y-57172D01*
X82710Y-57172D01*
X82767Y-57190D01*
X82992Y-57415D01*
X82992Y-57172D01*
X85689Y-63524D02*
X85708Y-63468D01*
X85708Y-63374D01*
X85689Y-63337D01*
X85671Y-63318D01*
X85633Y-63299D01*
X85596Y-63299D01*
X85558Y-63318D01*
X85539Y-63337D01*
X85521Y-63374D01*
X85502Y-63449D01*
X85483Y-63487D01*
X85464Y-63506D01*
X85427Y-63524D01*
X85389Y-63524D01*
X85352Y-63506D01*
X85333Y-63487D01*
X85314Y-63449D01*
X85314Y-63356D01*
X85333Y-63299D01*
X85314Y-63168D02*
X85708Y-63074D01*
X85427Y-62999D01*
X85708Y-62925D01*
X85314Y-62831D01*
X85708Y-62475D02*
X85708Y-62700D01*
X85708Y-62587D02*
X85314Y-62587D01*
X85371Y-62625D01*
X85408Y-62662D01*
X85427Y-62700D01*
X82973Y-63646D02*
X82992Y-63590D01*
X82992Y-63496D01*
X82973Y-63459D01*
X82954Y-63440D01*
X82917Y-63421D01*
X82879Y-63421D01*
X82842Y-63440D01*
X82823Y-63459D01*
X82804Y-63496D01*
X82785Y-63571D01*
X82767Y-63609D01*
X82748Y-63628D01*
X82710Y-63646D01*
X82673Y-63646D01*
X82635Y-63628D01*
X82617Y-63609D01*
X82598Y-63571D01*
X82598Y-63478D01*
X82617Y-63421D01*
X82992Y-63253D02*
X82598Y-63253D01*
X82598Y-63103D01*
X82617Y-63065D01*
X82635Y-63046D01*
X82673Y-63028D01*
X82729Y-63028D01*
X82767Y-63046D01*
X82785Y-63065D01*
X82804Y-63103D01*
X82804Y-63253D01*
X82973Y-62878D02*
X82992Y-62821D01*
X82992Y-62728D01*
X82973Y-62690D01*
X82954Y-62671D01*
X82917Y-62653D01*
X82879Y-62653D01*
X82842Y-62671D01*
X82823Y-62690D01*
X82804Y-62728D01*
X82785Y-62803D01*
X82767Y-62840D01*
X82748Y-62859D01*
X82710Y-62878D01*
X82673Y-62878D01*
X82635Y-62859D01*
X82617Y-62840D01*
X82598Y-62803D01*
X82598Y-62709D01*
X82617Y-62653D01*
X82598Y-62540D02*
X82598Y-62315D01*
X82992Y-62428D02*
X82598Y-62428D01*
G54D15*
X62778Y-63572D02*
X62611Y-63310D01*
X62492Y-63572D02*
X62492Y-63022D01*
X62683Y-63022D01*
X62730Y-63048D01*
X62754Y-63075D01*
X62778Y-63127D01*
X62778Y-63205D01*
X62754Y-63258D01*
X62730Y-63284D01*
X62683Y-63310D01*
X62492Y-63310D01*
X63254Y-63572D02*
X62969Y-63572D01*
X63111Y-63572D02*
X63111Y-63022D01*
X63064Y-63101D01*
X63016Y-63153D01*
X62969Y-63179D01*
X63445Y-63075D02*
X63469Y-63048D01*
X63516Y-63022D01*
X63635Y-63022D01*
X63683Y-63048D01*
X63707Y-63075D01*
X63730Y-63127D01*
X63730Y-63179D01*
X63707Y-63258D01*
X63421Y-63572D01*
X63730Y-63572D01*
X63614Y-64472D02*
X63328Y-64472D01*
X63471Y-64472D02*
X63471Y-63922D01*
X63423Y-64001D01*
X63376Y-64053D01*
X63328Y-64079D01*
X64042Y-63922D02*
X63947Y-63922D01*
X63900Y-63948D01*
X63876Y-63975D01*
X63828Y-64053D01*
X63804Y-64158D01*
X63804Y-64367D01*
X63828Y-64420D01*
X63852Y-64446D01*
X63900Y-64472D01*
X63995Y-64472D01*
X64042Y-64446D01*
X64066Y-64420D01*
X64090Y-64367D01*
X64090Y-64236D01*
X64066Y-64184D01*
X64042Y-64158D01*
X63995Y-64132D01*
X63900Y-64132D01*
X63852Y-64158D01*
X63828Y-64184D01*
X63804Y-64236D01*
X64304Y-64420D02*
X64328Y-64446D01*
X64304Y-64472D01*
X64280Y-64446D01*
X64304Y-64420D01*
X64304Y-64472D01*
X64519Y-63975D02*
X64542Y-63948D01*
X64590Y-63922D01*
X64709Y-63922D01*
X64757Y-63948D01*
X64780Y-63975D01*
X64804Y-64027D01*
X64804Y-64079D01*
X64780Y-64158D01*
X64495Y-64472D01*
X64804Y-64472D01*
X65042Y-64446D02*
X65042Y-64472D01*
X65019Y-64525D01*
X64995Y-64551D01*
X65590Y-63922D02*
X65900Y-63922D01*
X65733Y-64132D01*
X65804Y-64132D01*
X65852Y-64158D01*
X65876Y-64184D01*
X65900Y-64236D01*
X65900Y-64367D01*
X65876Y-64420D01*
X65852Y-64446D01*
X65804Y-64472D01*
X65661Y-64472D01*
X65614Y-64446D01*
X65590Y-64420D01*
X66066Y-63922D02*
X66185Y-64472D01*
X66280Y-64079D01*
X66376Y-64472D01*
X66495Y-63922D01*
X79278Y-34822D02*
X79111Y-34560D01*
X78992Y-34822D02*
X78992Y-34272D01*
X79183Y-34272D01*
X79230Y-34298D01*
X79254Y-34325D01*
X79278Y-34377D01*
X79278Y-34455D01*
X79254Y-34508D01*
X79230Y-34534D01*
X79183Y-34560D01*
X78992Y-34560D01*
X79754Y-34822D02*
X79469Y-34822D01*
X79611Y-34822D02*
X79611Y-34272D01*
X79564Y-34351D01*
X79516Y-34403D01*
X79469Y-34429D01*
X79921Y-34272D02*
X80230Y-34272D01*
X80064Y-34482D01*
X80135Y-34482D01*
X80183Y-34508D01*
X80207Y-34534D01*
X80230Y-34586D01*
X80230Y-34717D01*
X80207Y-34770D01*
X80183Y-34796D01*
X80135Y-34822D01*
X79992Y-34822D01*
X79945Y-34796D01*
X79921Y-34770D01*
X80114Y-35722D02*
X79828Y-35722D01*
X79971Y-35722D02*
X79971Y-35172D01*
X79923Y-35251D01*
X79876Y-35303D01*
X79828Y-35329D01*
X80542Y-35172D02*
X80447Y-35172D01*
X80400Y-35198D01*
X80376Y-35225D01*
X80328Y-35303D01*
X80304Y-35408D01*
X80304Y-35617D01*
X80328Y-35670D01*
X80352Y-35696D01*
X80400Y-35722D01*
X80495Y-35722D01*
X80542Y-35696D01*
X80566Y-35670D01*
X80590Y-35617D01*
X80590Y-35486D01*
X80566Y-35434D01*
X80542Y-35408D01*
X80495Y-35382D01*
X80400Y-35382D01*
X80352Y-35408D01*
X80328Y-35434D01*
X80304Y-35486D01*
X80804Y-35670D02*
X80828Y-35696D01*
X80804Y-35722D01*
X80780Y-35696D01*
X80804Y-35670D01*
X80804Y-35722D01*
X81019Y-35225D02*
X81042Y-35198D01*
X81090Y-35172D01*
X81209Y-35172D01*
X81257Y-35198D01*
X81280Y-35225D01*
X81304Y-35277D01*
X81304Y-35329D01*
X81280Y-35408D01*
X80995Y-35722D01*
X81304Y-35722D01*
X81542Y-35696D02*
X81542Y-35722D01*
X81519Y-35775D01*
X81495Y-35801D01*
X82090Y-35172D02*
X82400Y-35172D01*
X82233Y-35382D01*
X82304Y-35382D01*
X82352Y-35408D01*
X82376Y-35434D01*
X82400Y-35486D01*
X82400Y-35617D01*
X82376Y-35670D01*
X82352Y-35696D01*
X82304Y-35722D01*
X82161Y-35722D01*
X82114Y-35696D01*
X82090Y-35670D01*
X82566Y-35172D02*
X82685Y-35722D01*
X82780Y-35329D01*
X82876Y-35722D01*
X82995Y-35172D01*
X79528Y-53072D02*
X79361Y-52810D01*
X79242Y-53072D02*
X79242Y-52522D01*
X79433Y-52522D01*
X79480Y-52548D01*
X79504Y-52575D01*
X79528Y-52627D01*
X79528Y-52705D01*
X79504Y-52758D01*
X79480Y-52784D01*
X79433Y-52810D01*
X79242Y-52810D01*
X80004Y-53072D02*
X79719Y-53072D01*
X79861Y-53072D02*
X79861Y-52522D01*
X79814Y-52601D01*
X79766Y-52653D01*
X79719Y-52679D01*
X80433Y-52705D02*
X80433Y-53072D01*
X80314Y-52496D02*
X80195Y-52889D01*
X80504Y-52889D01*
X80364Y-53972D02*
X80078Y-53972D01*
X80221Y-53972D02*
X80221Y-53422D01*
X80173Y-53501D01*
X80126Y-53553D01*
X80078Y-53579D01*
X80792Y-53422D02*
X80697Y-53422D01*
X80650Y-53448D01*
X80626Y-53475D01*
X80578Y-53553D01*
X80554Y-53658D01*
X80554Y-53867D01*
X80578Y-53920D01*
X80602Y-53946D01*
X80650Y-53972D01*
X80745Y-53972D01*
X80792Y-53946D01*
X80816Y-53920D01*
X80840Y-53867D01*
X80840Y-53736D01*
X80816Y-53684D01*
X80792Y-53658D01*
X80745Y-53632D01*
X80650Y-53632D01*
X80602Y-53658D01*
X80578Y-53684D01*
X80554Y-53736D01*
X81054Y-53920D02*
X81078Y-53946D01*
X81054Y-53972D01*
X81030Y-53946D01*
X81054Y-53920D01*
X81054Y-53972D01*
X81269Y-53475D02*
X81292Y-53448D01*
X81340Y-53422D01*
X81459Y-53422D01*
X81507Y-53448D01*
X81530Y-53475D01*
X81554Y-53527D01*
X81554Y-53579D01*
X81530Y-53658D01*
X81245Y-53972D01*
X81554Y-53972D01*
X81792Y-53946D02*
X81792Y-53972D01*
X81769Y-54025D01*
X81745Y-54051D01*
X82340Y-53422D02*
X82650Y-53422D01*
X82483Y-53632D01*
X82554Y-53632D01*
X82602Y-53658D01*
X82626Y-53684D01*
X82650Y-53736D01*
X82650Y-53867D01*
X82626Y-53920D01*
X82602Y-53946D01*
X82554Y-53972D01*
X82411Y-53972D01*
X82364Y-53946D01*
X82340Y-53920D01*
X82816Y-53422D02*
X82935Y-53972D01*
X83030Y-53579D01*
X83126Y-53972D01*
X83245Y-53422D01*
X62528Y-26072D02*
X62361Y-25810D01*
X62242Y-26072D02*
X62242Y-25522D01*
X62433Y-25522D01*
X62480Y-25548D01*
X62504Y-25575D01*
X62528Y-25627D01*
X62528Y-25705D01*
X62504Y-25758D01*
X62480Y-25784D01*
X62433Y-25810D01*
X62242Y-25810D01*
X63004Y-26072D02*
X62719Y-26072D01*
X62861Y-26072D02*
X62861Y-25522D01*
X62814Y-25601D01*
X62766Y-25653D01*
X62719Y-25679D01*
X63314Y-25522D02*
X63361Y-25522D01*
X63409Y-25548D01*
X63433Y-25575D01*
X63457Y-25627D01*
X63480Y-25732D01*
X63480Y-25863D01*
X63457Y-25967D01*
X63433Y-26020D01*
X63409Y-26046D01*
X63361Y-26072D01*
X63314Y-26072D01*
X63266Y-26046D01*
X63242Y-26020D01*
X63219Y-25967D01*
X63195Y-25863D01*
X63195Y-25732D01*
X63219Y-25627D01*
X63242Y-25575D01*
X63266Y-25548D01*
X63314Y-25522D01*
X63364Y-26972D02*
X63078Y-26972D01*
X63221Y-26972D02*
X63221Y-26422D01*
X63173Y-26501D01*
X63126Y-26553D01*
X63078Y-26579D01*
X63792Y-26422D02*
X63697Y-26422D01*
X63650Y-26448D01*
X63626Y-26475D01*
X63578Y-26553D01*
X63554Y-26658D01*
X63554Y-26867D01*
X63578Y-26920D01*
X63602Y-26946D01*
X63650Y-26972D01*
X63745Y-26972D01*
X63792Y-26946D01*
X63816Y-26920D01*
X63840Y-26867D01*
X63840Y-26736D01*
X63816Y-26684D01*
X63792Y-26658D01*
X63745Y-26632D01*
X63650Y-26632D01*
X63602Y-26658D01*
X63578Y-26684D01*
X63554Y-26736D01*
X64054Y-26920D02*
X64078Y-26946D01*
X64054Y-26972D01*
X64030Y-26946D01*
X64054Y-26920D01*
X64054Y-26972D01*
X64269Y-26475D02*
X64292Y-26448D01*
X64340Y-26422D01*
X64459Y-26422D01*
X64507Y-26448D01*
X64530Y-26475D01*
X64554Y-26527D01*
X64554Y-26579D01*
X64530Y-26658D01*
X64245Y-26972D01*
X64554Y-26972D01*
X64792Y-26946D02*
X64792Y-26972D01*
X64769Y-27025D01*
X64745Y-27051D01*
X65340Y-26422D02*
X65650Y-26422D01*
X65483Y-26632D01*
X65554Y-26632D01*
X65602Y-26658D01*
X65626Y-26684D01*
X65650Y-26736D01*
X65650Y-26867D01*
X65626Y-26920D01*
X65602Y-26946D01*
X65554Y-26972D01*
X65411Y-26972D01*
X65364Y-26946D01*
X65340Y-26920D01*
X65816Y-26422D02*
X65935Y-26972D01*
X66030Y-26579D01*
X66126Y-26972D01*
X66245Y-26422D01*
X62778Y-44572D02*
X62611Y-44310D01*
X62492Y-44572D02*
X62492Y-44022D01*
X62683Y-44022D01*
X62730Y-44048D01*
X62754Y-44075D01*
X62778Y-44127D01*
X62778Y-44205D01*
X62754Y-44258D01*
X62730Y-44284D01*
X62683Y-44310D01*
X62492Y-44310D01*
X63254Y-44572D02*
X62969Y-44572D01*
X63111Y-44572D02*
X63111Y-44022D01*
X63064Y-44101D01*
X63016Y-44153D01*
X62969Y-44179D01*
X63730Y-44572D02*
X63445Y-44572D01*
X63588Y-44572D02*
X63588Y-44022D01*
X63540Y-44101D01*
X63492Y-44153D01*
X63445Y-44179D01*
X63614Y-45472D02*
X63328Y-45472D01*
X63471Y-45472D02*
X63471Y-44922D01*
X63423Y-45001D01*
X63376Y-45053D01*
X63328Y-45079D01*
X64042Y-44922D02*
X63947Y-44922D01*
X63900Y-44948D01*
X63876Y-44975D01*
X63828Y-45053D01*
X63804Y-45158D01*
X63804Y-45367D01*
X63828Y-45420D01*
X63852Y-45446D01*
X63900Y-45472D01*
X63995Y-45472D01*
X64042Y-45446D01*
X64066Y-45420D01*
X64090Y-45367D01*
X64090Y-45236D01*
X64066Y-45184D01*
X64042Y-45158D01*
X63995Y-45132D01*
X63900Y-45132D01*
X63852Y-45158D01*
X63828Y-45184D01*
X63804Y-45236D01*
X64304Y-45420D02*
X64328Y-45446D01*
X64304Y-45472D01*
X64280Y-45446D01*
X64304Y-45420D01*
X64304Y-45472D01*
X64519Y-44975D02*
X64542Y-44948D01*
X64590Y-44922D01*
X64709Y-44922D01*
X64757Y-44948D01*
X64780Y-44975D01*
X64804Y-45027D01*
X64804Y-45079D01*
X64780Y-45158D01*
X64495Y-45472D01*
X64804Y-45472D01*
X65042Y-45446D02*
X65042Y-45472D01*
X65019Y-45525D01*
X64995Y-45551D01*
X65590Y-44922D02*
X65900Y-44922D01*
X65733Y-45132D01*
X65804Y-45132D01*
X65852Y-45158D01*
X65876Y-45184D01*
X65900Y-45236D01*
X65900Y-45367D01*
X65876Y-45420D01*
X65852Y-45446D01*
X65804Y-45472D01*
X65661Y-45472D01*
X65614Y-45446D01*
X65590Y-45420D01*
X66066Y-44922D02*
X66185Y-45472D01*
X66280Y-45079D01*
X66376Y-45472D01*
X66495Y-44922D01*
X70666Y-15222D02*
X70500Y-14960D01*
X70380Y-15222D02*
X70380Y-14672D01*
X70571Y-14672D01*
X70619Y-14698D01*
X70642Y-14725D01*
X70666Y-14777D01*
X70666Y-14855D01*
X70642Y-14908D01*
X70619Y-14934D01*
X70571Y-14960D01*
X70380Y-14960D01*
X71095Y-14855D02*
X71095Y-15222D01*
X70976Y-14646D02*
X70857Y-15039D01*
X71166Y-15039D01*
X52416Y-62972D02*
X52250Y-62710D01*
X52130Y-62972D02*
X52130Y-62422D01*
X52321Y-62422D01*
X52369Y-62448D01*
X52392Y-62475D01*
X52416Y-62527D01*
X52416Y-62605D01*
X52392Y-62658D01*
X52369Y-62684D01*
X52321Y-62710D01*
X52130Y-62710D01*
X52583Y-62422D02*
X52916Y-62422D01*
X52702Y-62972D01*
X68916Y-34222D02*
X68750Y-33960D01*
X68630Y-34222D02*
X68630Y-33672D01*
X68821Y-33672D01*
X68869Y-33698D01*
X68892Y-33725D01*
X68916Y-33777D01*
X68916Y-33855D01*
X68892Y-33908D01*
X68869Y-33934D01*
X68821Y-33960D01*
X68630Y-33960D01*
X69202Y-33908D02*
X69154Y-33882D01*
X69130Y-33855D01*
X69107Y-33803D01*
X69107Y-33777D01*
X69130Y-33725D01*
X69154Y-33698D01*
X69202Y-33672D01*
X69297Y-33672D01*
X69345Y-33698D01*
X69369Y-33725D01*
X69392Y-33777D01*
X69392Y-33803D01*
X69369Y-33855D01*
X69345Y-33882D01*
X69297Y-33908D01*
X69202Y-33908D01*
X69154Y-33934D01*
X69130Y-33960D01*
X69107Y-34013D01*
X69107Y-34117D01*
X69130Y-34170D01*
X69154Y-34196D01*
X69202Y-34222D01*
X69297Y-34222D01*
X69345Y-34196D01*
X69369Y-34170D01*
X69392Y-34117D01*
X69392Y-34013D01*
X69369Y-33960D01*
X69345Y-33934D01*
X69297Y-33908D01*
X52416Y-25472D02*
X52250Y-25210D01*
X52130Y-25472D02*
X52130Y-24922D01*
X52321Y-24922D01*
X52369Y-24948D01*
X52392Y-24975D01*
X52416Y-25027D01*
X52416Y-25105D01*
X52392Y-25158D01*
X52369Y-25184D01*
X52321Y-25210D01*
X52130Y-25210D01*
X52869Y-24922D02*
X52630Y-24922D01*
X52607Y-25184D01*
X52630Y-25158D01*
X52678Y-25132D01*
X52797Y-25132D01*
X52845Y-25158D01*
X52869Y-25184D01*
X52892Y-25236D01*
X52892Y-25367D01*
X52869Y-25420D01*
X52845Y-25446D01*
X52797Y-25472D01*
X52678Y-25472D01*
X52630Y-25446D01*
X52607Y-25420D01*
X68666Y-52472D02*
X68500Y-52210D01*
X68380Y-52472D02*
X68380Y-51922D01*
X68571Y-51922D01*
X68619Y-51948D01*
X68642Y-51975D01*
X68666Y-52027D01*
X68666Y-52105D01*
X68642Y-52158D01*
X68619Y-52184D01*
X68571Y-52210D01*
X68380Y-52210D01*
X68904Y-52472D02*
X69000Y-52472D01*
X69047Y-52446D01*
X69071Y-52420D01*
X69119Y-52341D01*
X69142Y-52236D01*
X69142Y-52027D01*
X69119Y-51975D01*
X69095Y-51948D01*
X69047Y-51922D01*
X68952Y-51922D01*
X68904Y-51948D01*
X68880Y-51975D01*
X68857Y-52027D01*
X68857Y-52158D01*
X68880Y-52210D01*
X68904Y-52236D01*
X68952Y-52263D01*
X69047Y-52263D01*
X69095Y-52236D01*
X69119Y-52210D01*
X69142Y-52158D01*
X52416Y-43972D02*
X52250Y-43710D01*
X52130Y-43972D02*
X52130Y-43422D01*
X52321Y-43422D01*
X52369Y-43448D01*
X52392Y-43475D01*
X52416Y-43527D01*
X52416Y-43605D01*
X52392Y-43658D01*
X52369Y-43684D01*
X52321Y-43710D01*
X52130Y-43710D01*
X52845Y-43422D02*
X52750Y-43422D01*
X52702Y-43448D01*
X52678Y-43475D01*
X52630Y-43553D01*
X52607Y-43658D01*
X52607Y-43867D01*
X52630Y-43920D01*
X52654Y-43946D01*
X52702Y-43972D01*
X52797Y-43972D01*
X52845Y-43946D01*
X52869Y-43920D01*
X52892Y-43867D01*
X52892Y-43736D01*
X52869Y-43684D01*
X52845Y-43658D01*
X52797Y-43632D01*
X52702Y-43632D01*
X52654Y-43658D01*
X52630Y-43684D01*
X52607Y-43736D01*
X80222Y-17821D02*
X79960Y-17988D01*
X80222Y-18107D02*
X79672Y-18107D01*
X79672Y-17916D01*
X79698Y-17869D01*
X79725Y-17845D01*
X79777Y-17821D01*
X79855Y-17821D01*
X79908Y-17845D01*
X79934Y-17869D01*
X79960Y-17916D01*
X79960Y-18107D01*
X80222Y-17345D02*
X80222Y-17630D01*
X80222Y-17488D02*
X79672Y-17488D01*
X79751Y-17535D01*
X79803Y-17583D01*
X79829Y-17630D01*
X79672Y-16916D02*
X79672Y-17011D01*
X79698Y-17059D01*
X79725Y-17083D01*
X79803Y-17130D01*
X79908Y-17154D01*
X80117Y-17154D01*
X80170Y-17130D01*
X80196Y-17107D01*
X80222Y-17059D01*
X80222Y-16964D01*
X80196Y-16916D01*
X80170Y-16892D01*
X80117Y-16869D01*
X79986Y-16869D01*
X79934Y-16892D01*
X79908Y-16916D01*
X79882Y-16964D01*
X79882Y-17059D01*
X79908Y-17107D01*
X79934Y-17130D01*
X79986Y-17154D01*
X83972Y-69083D02*
X83710Y-69250D01*
X83972Y-69369D02*
X83422Y-69369D01*
X83422Y-69178D01*
X83448Y-69130D01*
X83475Y-69107D01*
X83527Y-69083D01*
X83605Y-69083D01*
X83658Y-69107D01*
X83684Y-69130D01*
X83710Y-69178D01*
X83710Y-69369D01*
X83972Y-68607D02*
X83972Y-68892D01*
X83972Y-68750D02*
X83422Y-68750D01*
X83501Y-68797D01*
X83553Y-68845D01*
X83579Y-68892D01*
X75916Y-15222D02*
X75750Y-14960D01*
X75630Y-15222D02*
X75630Y-14672D01*
X75821Y-14672D01*
X75869Y-14698D01*
X75892Y-14725D01*
X75916Y-14777D01*
X75916Y-14855D01*
X75892Y-14908D01*
X75869Y-14934D01*
X75821Y-14960D01*
X75630Y-14960D01*
X76083Y-14672D02*
X76392Y-14672D01*
X76226Y-14882D01*
X76297Y-14882D01*
X76345Y-14908D01*
X76369Y-14934D01*
X76392Y-14986D01*
X76392Y-15117D01*
X76369Y-15170D01*
X76345Y-15196D01*
X76297Y-15222D01*
X76154Y-15222D01*
X76107Y-15196D01*
X76083Y-15170D01*
X73166Y-15222D02*
X73000Y-14960D01*
X72880Y-15222D02*
X72880Y-14672D01*
X73071Y-14672D01*
X73119Y-14698D01*
X73142Y-14725D01*
X73166Y-14777D01*
X73166Y-14855D01*
X73142Y-14908D01*
X73119Y-14934D01*
X73071Y-14960D01*
X72880Y-14960D01*
X73357Y-14725D02*
X73380Y-14698D01*
X73428Y-14672D01*
X73547Y-14672D01*
X73595Y-14698D01*
X73619Y-14725D01*
X73642Y-14777D01*
X73642Y-14829D01*
X73619Y-14908D01*
X73333Y-15222D01*
X73642Y-15222D01*
X80222Y-22571D02*
X79960Y-22738D01*
X80222Y-22857D02*
X79672Y-22857D01*
X79672Y-22666D01*
X79698Y-22619D01*
X79725Y-22595D01*
X79777Y-22571D01*
X79855Y-22571D01*
X79908Y-22595D01*
X79934Y-22619D01*
X79960Y-22666D01*
X79960Y-22857D01*
X80222Y-22095D02*
X80222Y-22380D01*
X80222Y-22238D02*
X79672Y-22238D01*
X79751Y-22285D01*
X79803Y-22333D01*
X79829Y-22380D01*
X79672Y-21642D02*
X79672Y-21880D01*
X79934Y-21904D01*
X79908Y-21880D01*
X79882Y-21833D01*
X79882Y-21714D01*
X79908Y-21666D01*
X79934Y-21642D01*
X79986Y-21619D01*
X80117Y-21619D01*
X80170Y-21642D01*
X80196Y-21666D01*
X80222Y-21714D01*
X80222Y-21833D01*
X80196Y-21880D01*
X80170Y-21904D01*
G54D16*
X79454Y-31742D02*
X79454Y-31142D01*
X79550Y-31142D01*
X79607Y-31171D01*
X79645Y-31228D01*
X79664Y-31285D01*
X79683Y-31400D01*
X79683Y-31485D01*
X79664Y-31600D01*
X79645Y-31657D01*
X79607Y-31714D01*
X79550Y-31742D01*
X79454Y-31742D01*
X79911Y-31400D02*
X79873Y-31371D01*
X79854Y-31342D01*
X79835Y-31285D01*
X79835Y-31257D01*
X79854Y-31200D01*
X79873Y-31171D01*
X79911Y-31142D01*
X79988Y-31142D01*
X80026Y-31171D01*
X80045Y-31200D01*
X80064Y-31257D01*
X80064Y-31285D01*
X80045Y-31342D01*
X80026Y-31371D01*
X79988Y-31400D01*
X79911Y-31400D01*
X79873Y-31428D01*
X79854Y-31457D01*
X79835Y-31514D01*
X79835Y-31628D01*
X79854Y-31685D01*
X79873Y-31714D01*
X79911Y-31742D01*
X79988Y-31742D01*
X80026Y-31714D01*
X80045Y-31685D01*
X80064Y-31628D01*
X80064Y-31514D01*
X80045Y-31457D01*
X80026Y-31428D01*
X79988Y-31400D01*
G54D12*
G54D16*
X79704Y-49992D02*
X79704Y-49392D01*
X79800Y-49392D01*
X79857Y-49421D01*
X79895Y-49478D01*
X79914Y-49535D01*
X79933Y-49650D01*
X79933Y-49735D01*
X79914Y-49850D01*
X79895Y-49907D01*
X79857Y-49964D01*
X79800Y-49992D01*
X79704Y-49992D01*
X80123Y-49992D02*
X80200Y-49992D01*
X80238Y-49964D01*
X80257Y-49935D01*
X80295Y-49850D01*
X80314Y-49735D01*
X80314Y-49507D01*
X80295Y-49450D01*
X80276Y-49421D01*
X80238Y-49392D01*
X80161Y-49392D01*
X80123Y-49421D01*
X80104Y-49450D01*
X80085Y-49507D01*
X80085Y-49650D01*
X80104Y-49707D01*
X80123Y-49735D01*
X80161Y-49764D01*
X80238Y-49764D01*
X80276Y-49735D01*
X80295Y-49707D01*
X80314Y-49650D01*
G54D12*
G54D16*
X62954Y-41492D02*
X62954Y-40892D01*
X63050Y-40892D01*
X63107Y-40921D01*
X63145Y-40978D01*
X63164Y-41035D01*
X63183Y-41150D01*
X63183Y-41235D01*
X63164Y-41350D01*
X63145Y-41407D01*
X63107Y-41464D01*
X63050Y-41492D01*
X62954Y-41492D01*
X63526Y-40892D02*
X63450Y-40892D01*
X63411Y-40921D01*
X63392Y-40950D01*
X63354Y-41035D01*
X63335Y-41150D01*
X63335Y-41378D01*
X63354Y-41435D01*
X63373Y-41464D01*
X63411Y-41492D01*
X63488Y-41492D01*
X63526Y-41464D01*
X63545Y-41435D01*
X63564Y-41378D01*
X63564Y-41235D01*
X63545Y-41178D01*
X63526Y-41150D01*
X63488Y-41121D01*
X63411Y-41121D01*
X63373Y-41150D01*
X63354Y-41178D01*
X63335Y-41235D01*
G54D12*
G54D16*
X62954Y-60242D02*
X62954Y-59642D01*
X63050Y-59642D01*
X63107Y-59671D01*
X63145Y-59728D01*
X63164Y-59785D01*
X63183Y-59900D01*
X63183Y-59985D01*
X63164Y-60100D01*
X63145Y-60157D01*
X63107Y-60214D01*
X63050Y-60242D01*
X62954Y-60242D01*
X63316Y-59642D02*
X63583Y-59642D01*
X63411Y-60242D01*
G54D12*
G54D16*
X62704Y-22992D02*
X62704Y-22392D01*
X62800Y-22392D01*
X62857Y-22421D01*
X62895Y-22478D01*
X62914Y-22535D01*
X62933Y-22650D01*
X62933Y-22735D01*
X62914Y-22850D01*
X62895Y-22907D01*
X62857Y-22964D01*
X62800Y-22992D01*
X62704Y-22992D01*
X63295Y-22392D02*
X63104Y-22392D01*
X63085Y-22678D01*
X63104Y-22650D01*
X63142Y-22621D01*
X63238Y-22621D01*
X63276Y-22650D01*
X63295Y-22678D01*
X63314Y-22735D01*
X63314Y-22878D01*
X63295Y-22935D01*
X63276Y-22964D01*
X63238Y-22992D01*
X63142Y-22992D01*
X63104Y-22964D01*
X63085Y-22935D01*
G54D12*
G54D15*
X76704Y-66161D02*
X76704Y-65761D01*
X76800Y-65761D01*
X76857Y-65780D01*
X76895Y-65819D01*
X76914Y-65857D01*
X76933Y-65933D01*
X76933Y-65990D01*
X76914Y-66066D01*
X76895Y-66104D01*
X76857Y-66142D01*
X76800Y-66161D01*
X76704Y-66161D01*
X77276Y-65895D02*
X77276Y-66161D01*
X77180Y-65742D02*
X77085Y-66028D01*
X77333Y-66028D01*
X76704Y-61911D02*
X76704Y-61511D01*
X76800Y-61511D01*
X76857Y-61530D01*
X76895Y-61569D01*
X76914Y-61607D01*
X76933Y-61683D01*
X76933Y-61740D01*
X76914Y-61816D01*
X76895Y-61854D01*
X76857Y-61892D01*
X76800Y-61911D01*
X76704Y-61911D01*
X77085Y-61550D02*
X77104Y-61530D01*
X77142Y-61511D01*
X77238Y-61511D01*
X77276Y-61530D01*
X77295Y-61550D01*
X77314Y-61588D01*
X77314Y-61626D01*
X77295Y-61683D01*
X77066Y-61911D01*
X77314Y-61911D01*
X71954Y-66161D02*
X71954Y-65761D01*
X72050Y-65761D01*
X72107Y-65780D01*
X72145Y-65819D01*
X72164Y-65857D01*
X72183Y-65933D01*
X72183Y-65990D01*
X72164Y-66066D01*
X72145Y-66104D01*
X72107Y-66142D01*
X72050Y-66161D01*
X71954Y-66161D01*
X72316Y-65761D02*
X72564Y-65761D01*
X72430Y-65914D01*
X72488Y-65914D01*
X72526Y-65933D01*
X72545Y-65952D01*
X72564Y-65990D01*
X72564Y-66085D01*
X72545Y-66123D01*
X72526Y-66142D01*
X72488Y-66161D01*
X72373Y-66161D01*
X72335Y-66142D01*
X72316Y-66123D01*
X71954Y-61911D02*
X71954Y-61511D01*
X72050Y-61511D01*
X72107Y-61530D01*
X72145Y-61569D01*
X72164Y-61607D01*
X72183Y-61683D01*
X72183Y-61740D01*
X72164Y-61816D01*
X72145Y-61854D01*
X72107Y-61892D01*
X72050Y-61911D01*
X71954Y-61911D01*
X72564Y-61911D02*
X72335Y-61911D01*
X72450Y-61911D02*
X72450Y-61511D01*
X72411Y-61569D01*
X72373Y-61607D01*
X72335Y-61626D01*
G54D16*
X82666Y-12404D02*
X82642Y-12428D01*
X82571Y-12452D01*
X82523Y-12452D01*
X82452Y-12428D01*
X82404Y-12380D01*
X82380Y-12333D01*
X82357Y-12238D01*
X82357Y-12166D01*
X82380Y-12071D01*
X82404Y-12023D01*
X82452Y-11976D01*
X82523Y-11952D01*
X82571Y-11952D01*
X82642Y-11976D01*
X82666Y-12000D01*
X83142Y-12452D02*
X82857Y-12452D01*
X83000Y-12452D02*
X83000Y-11952D01*
X82952Y-12023D01*
X82904Y-12071D01*
X82857Y-12095D01*
X82380Y-14119D02*
X82380Y-14452D01*
X82261Y-13928D02*
X82142Y-14285D01*
X82452Y-14285D01*
X82595Y-13952D02*
X82928Y-13952D01*
X82714Y-14452D01*
X83333Y-14119D02*
X83333Y-14452D01*
X83119Y-14119D02*
X83119Y-14380D01*
X83142Y-14428D01*
X83190Y-14452D01*
X83261Y-14452D01*
X83309Y-14428D01*
X83333Y-14404D01*
X82916Y-18904D02*
X82892Y-18928D01*
X82821Y-18952D01*
X82773Y-18952D01*
X82702Y-18928D01*
X82654Y-18880D01*
X82630Y-18833D01*
X82607Y-18738D01*
X82607Y-18666D01*
X82630Y-18571D01*
X82654Y-18523D01*
X82702Y-18476D01*
X82773Y-18452D01*
X82821Y-18452D01*
X82892Y-18476D01*
X82916Y-18500D01*
X83107Y-18500D02*
X83130Y-18476D01*
X83178Y-18452D01*
X83297Y-18452D01*
X83345Y-18476D01*
X83369Y-18500D01*
X83392Y-18547D01*
X83392Y-18595D01*
X83369Y-18666D01*
X83083Y-18952D01*
X83392Y-18952D01*
X82678Y-20952D02*
X82392Y-20952D01*
X82535Y-20952D02*
X82535Y-20452D01*
X82488Y-20523D01*
X82440Y-20571D01*
X82392Y-20595D01*
X82988Y-20452D02*
X83035Y-20452D01*
X83083Y-20476D01*
X83107Y-20500D01*
X83130Y-20547D01*
X83154Y-20642D01*
X83154Y-20761D01*
X83130Y-20857D01*
X83107Y-20904D01*
X83083Y-20928D01*
X83035Y-20952D01*
X82988Y-20952D01*
X82940Y-20928D01*
X82916Y-20904D01*
X82892Y-20857D01*
X82869Y-20761D01*
X82869Y-20642D01*
X82892Y-20547D01*
X82916Y-20500D01*
X82940Y-20476D01*
X82988Y-20452D01*
X83583Y-20619D02*
X83583Y-20952D01*
X83369Y-20619D02*
X83369Y-20880D01*
X83392Y-20928D01*
X83440Y-20952D01*
X83511Y-20952D01*
X83559Y-20928D01*
X83583Y-20904D01*
G54D15*
X52433Y-23373D02*
X52414Y-23392D01*
X52357Y-23411D01*
X52319Y-23411D01*
X52261Y-23392D01*
X52223Y-23354D01*
X52204Y-23316D01*
X52185Y-23240D01*
X52185Y-23183D01*
X52204Y-23107D01*
X52223Y-23069D01*
X52261Y-23030D01*
X52319Y-23011D01*
X52357Y-23011D01*
X52414Y-23030D01*
X52433Y-23050D01*
X52566Y-23011D02*
X52814Y-23011D01*
X52680Y-23164D01*
X52738Y-23164D01*
X52776Y-23183D01*
X52795Y-23202D01*
X52814Y-23240D01*
X52814Y-23335D01*
X52795Y-23373D01*
X52776Y-23392D01*
X52738Y-23411D01*
X52623Y-23411D01*
X52585Y-23392D01*
X52566Y-23373D01*
X52433Y-41873D02*
X52414Y-41892D01*
X52357Y-41911D01*
X52319Y-41911D01*
X52261Y-41892D01*
X52223Y-41854D01*
X52204Y-41816D01*
X52185Y-41740D01*
X52185Y-41683D01*
X52204Y-41607D01*
X52223Y-41569D01*
X52261Y-41530D01*
X52319Y-41511D01*
X52357Y-41511D01*
X52414Y-41530D01*
X52433Y-41550D01*
X52776Y-41645D02*
X52776Y-41911D01*
X52680Y-41492D02*
X52585Y-41778D01*
X52833Y-41778D01*
X68683Y-50373D02*
X68664Y-50392D01*
X68607Y-50411D01*
X68569Y-50411D01*
X68511Y-50392D01*
X68473Y-50354D01*
X68454Y-50316D01*
X68435Y-50240D01*
X68435Y-50183D01*
X68454Y-50107D01*
X68473Y-50069D01*
X68511Y-50030D01*
X68569Y-50011D01*
X68607Y-50011D01*
X68664Y-50030D01*
X68683Y-50050D01*
X68816Y-50011D02*
X69083Y-50011D01*
X68911Y-50411D01*
X52433Y-60623D02*
X52414Y-60642D01*
X52357Y-60661D01*
X52319Y-60661D01*
X52261Y-60642D01*
X52223Y-60604D01*
X52204Y-60566D01*
X52185Y-60490D01*
X52185Y-60433D01*
X52204Y-60357D01*
X52223Y-60319D01*
X52261Y-60280D01*
X52319Y-60261D01*
X52357Y-60261D01*
X52414Y-60280D01*
X52433Y-60300D01*
X52795Y-60261D02*
X52604Y-60261D01*
X52585Y-60452D01*
X52604Y-60433D01*
X52642Y-60414D01*
X52738Y-60414D01*
X52776Y-60433D01*
X52795Y-60452D01*
X52814Y-60490D01*
X52814Y-60585D01*
X52795Y-60623D01*
X52776Y-60642D01*
X52738Y-60661D01*
X52642Y-60661D01*
X52604Y-60642D01*
X52585Y-60623D01*
X68933Y-32123D02*
X68914Y-32142D01*
X68857Y-32161D01*
X68819Y-32161D01*
X68761Y-32142D01*
X68723Y-32104D01*
X68704Y-32066D01*
X68685Y-31990D01*
X68685Y-31933D01*
X68704Y-31857D01*
X68723Y-31819D01*
X68761Y-31780D01*
X68819Y-31761D01*
X68857Y-31761D01*
X68914Y-31780D01*
X68933Y-31800D01*
X69276Y-31761D02*
X69200Y-31761D01*
X69161Y-31780D01*
X69142Y-31800D01*
X69104Y-31857D01*
X69085Y-31933D01*
X69085Y-32085D01*
X69104Y-32123D01*
X69123Y-32142D01*
X69161Y-32161D01*
X69238Y-32161D01*
X69276Y-32142D01*
X69295Y-32123D01*
X69314Y-32085D01*
X69314Y-31990D01*
X69295Y-31952D01*
X69276Y-31933D01*
X69238Y-31914D01*
X69161Y-31914D01*
X69123Y-31933D01*
X69104Y-31952D01*
X69085Y-31990D01*
G54D16*
X51204Y-8961D02*
X51204Y-8561D01*
X51357Y-8561D01*
X51395Y-8580D01*
X51414Y-8600D01*
X51433Y-8638D01*
X51433Y-8695D01*
X51414Y-8733D01*
X51395Y-8752D01*
X51357Y-8771D01*
X51204Y-8771D01*
X51795Y-8561D02*
X51604Y-8561D01*
X51585Y-8752D01*
X51604Y-8733D01*
X51642Y-8714D01*
X51738Y-8714D01*
X51776Y-8733D01*
X51795Y-8752D01*
X51814Y-8790D01*
X51814Y-8885D01*
X51795Y-8923D01*
X51776Y-8942D01*
X51738Y-8961D01*
X51642Y-8961D01*
X51604Y-8942D01*
X51585Y-8923D01*
X86204Y-8961D02*
X86204Y-8561D01*
X86357Y-8561D01*
X86395Y-8580D01*
X86414Y-8600D01*
X86433Y-8638D01*
X86433Y-8695D01*
X86414Y-8733D01*
X86395Y-8752D01*
X86357Y-8771D01*
X86204Y-8771D01*
X86776Y-8561D02*
X86700Y-8561D01*
X86661Y-8580D01*
X86642Y-8600D01*
X86604Y-8657D01*
X86585Y-8733D01*
X86585Y-8885D01*
X86604Y-8923D01*
X86623Y-8942D01*
X86661Y-8961D01*
X86738Y-8961D01*
X86776Y-8942D01*
X86795Y-8923D01*
X86814Y-8885D01*
X86814Y-8790D01*
X86795Y-8752D01*
X86776Y-8733D01*
X86738Y-8714D01*
X86661Y-8714D01*
X86623Y-8733D01*
X86604Y-8752D01*
X86585Y-8790D01*
X51204Y-70961D02*
X51204Y-70561D01*
X51357Y-70561D01*
X51395Y-70580D01*
X51414Y-70600D01*
X51433Y-70638D01*
X51433Y-70695D01*
X51414Y-70733D01*
X51395Y-70752D01*
X51357Y-70771D01*
X51204Y-70771D01*
X51566Y-70561D02*
X51833Y-70561D01*
X51661Y-70961D01*
X86204Y-70961D02*
X86204Y-70561D01*
X86357Y-70561D01*
X86395Y-70580D01*
X86414Y-70600D01*
X86433Y-70638D01*
X86433Y-70695D01*
X86414Y-70733D01*
X86395Y-70752D01*
X86357Y-70771D01*
X86204Y-70771D01*
X86661Y-70733D02*
X86623Y-70714D01*
X86604Y-70695D01*
X86585Y-70657D01*
X86585Y-70638D01*
X86604Y-70600D01*
X86623Y-70580D01*
X86661Y-70561D01*
X86738Y-70561D01*
X86776Y-70580D01*
X86795Y-70600D01*
X86814Y-70638D01*
X86814Y-70657D01*
X86795Y-70695D01*
X86776Y-70714D01*
X86738Y-70733D01*
X86661Y-70733D01*
X86623Y-70752D01*
X86604Y-70771D01*
X86585Y-70809D01*
X86585Y-70885D01*
X86604Y-70923D01*
X86623Y-70942D01*
X86661Y-70961D01*
X86738Y-70961D01*
X86776Y-70942D01*
X86795Y-70923D01*
X86814Y-70885D01*
X86814Y-70809D01*
X86795Y-70771D01*
X86776Y-70752D01*
X86738Y-70733D01*
X51204Y-33461D02*
X51204Y-33061D01*
X51357Y-33061D01*
X51395Y-33080D01*
X51414Y-33100D01*
X51433Y-33138D01*
X51433Y-33195D01*
X51414Y-33233D01*
X51395Y-33252D01*
X51357Y-33271D01*
X51204Y-33271D01*
X51623Y-33461D02*
X51700Y-33461D01*
X51738Y-33442D01*
X51757Y-33423D01*
X51795Y-33366D01*
X51814Y-33290D01*
X51814Y-33138D01*
X51795Y-33100D01*
X51776Y-33080D01*
X51738Y-33061D01*
X51661Y-33061D01*
X51623Y-33080D01*
X51604Y-33100D01*
X51585Y-33138D01*
X51585Y-33233D01*
X51604Y-33271D01*
X51623Y-33290D01*
X51661Y-33309D01*
X51738Y-33309D01*
X51776Y-33290D01*
X51795Y-33271D01*
X51814Y-33233D01*
X86014Y-33461D02*
X86014Y-33061D01*
X86166Y-33061D01*
X86204Y-33080D01*
X86223Y-33100D01*
X86242Y-33138D01*
X86242Y-33195D01*
X86223Y-33233D01*
X86204Y-33252D01*
X86166Y-33271D01*
X86014Y-33271D01*
X86623Y-33461D02*
X86395Y-33461D01*
X86509Y-33461D02*
X86509Y-33061D01*
X86471Y-33119D01*
X86433Y-33157D01*
X86395Y-33176D01*
X86871Y-33061D02*
X86909Y-33061D01*
X86947Y-33080D01*
X86966Y-33100D01*
X86985Y-33138D01*
X87004Y-33214D01*
X87004Y-33309D01*
X86985Y-33385D01*
X86966Y-33423D01*
X86947Y-33442D01*
X86909Y-33461D01*
X86871Y-33461D01*
X86833Y-33442D01*
X86814Y-33423D01*
X86795Y-33385D01*
X86776Y-33309D01*
X86776Y-33214D01*
X86795Y-33138D01*
X86814Y-33100D01*
X86833Y-33080D01*
X86871Y-33061D01*
M02*
