M48
;DRILL file {Pcbnew (2013-04-19 BZR 4011)-stable} date 7/6/2013 8:24:28 PM
;FORMAT={2:4/ absolute / inch / suppress leading zeros}
FMAT,2
INCH,TZ
T1C0.025
T2C0.032
T3C0.040
T4C0.045
T5C0.050
T6C0.051
T7C0.063
T8C0.094
T9C0.120
T10C0.140
%
G90
G05
M72
T1
X62679Y-43508
T2
X52750Y-24250
X52750Y-26250
X52750Y-42750
X52750Y-44750
X52750Y-61500
X52750Y-63750
X53750Y-24250
X53750Y-26250
X53750Y-42750
X53750Y-44750
X53750Y-61500
X53750Y-63750
X67250Y-16500
X67250Y-17500
X68250Y-16500
X69000Y-51250
X69000Y-53250
X69250Y-33000
X69250Y-35000
X70000Y-51250
X70000Y-53250
X70250Y-33000
X70250Y-35000
X70750Y-16000
X70750Y-62750
X70750Y-65000
X71750Y-16000
X73250Y-16000
X73750Y-62750
X73750Y-65000
X74250Y-16000
X75500Y-62750
X75500Y-65000
X76000Y-16000
X77000Y-16000
X78500Y-62750
X78500Y-65000
X79000Y-17250
X79000Y-18250
X79000Y-21500
X79000Y-22500
X84750Y-68500
X84750Y-69500
T3
X56250Y-24250
X56250Y-25250
X56250Y-26250
X56250Y-42750
X56250Y-43750
X56250Y-44750
X56250Y-61500
X56250Y-62500
X56250Y-63500
X73000Y-33000
X73000Y-34000
X73000Y-35000
X73000Y-51250
X73000Y-52250
X73000Y-53250
X76000Y-19750
X76000Y-20750
X76000Y-21750
X81264Y-13250
X82000Y-19750
X84000Y-19750
X84226Y-13250
T4
X60250Y-23750
X60500Y-42250
X60500Y-61000
X65250Y-23750
X65500Y-42250
X65500Y-61000
X77000Y-32500
X77250Y-50750
X82000Y-32500
X82250Y-50750
T5
X60250Y-26250
X60500Y-44750
X60500Y-63750
X67250Y-26250
X67500Y-44750
X67500Y-63750
X77000Y-35000
X77250Y-53250
X84000Y-35000
X84250Y-53250
T6
X72281Y-68000
X72281Y-70953
X74250Y-68000
X74250Y-70953
X76219Y-68000
X76219Y-70953
X82242Y-68000
X82242Y-70953
T7
X55266Y-12000
X55266Y-12000
X57234Y-12000
X57234Y-12000
X61516Y-12000
X61516Y-12000
X63484Y-12000
X63484Y-12000
X65281Y-70000
X67250Y-70000
X67250Y-70000
X67531Y-12000
X69219Y-70000
X69219Y-70000
X69500Y-12000
X69500Y-12000
X71469Y-12000
X71469Y-12000
X75266Y-12000
X75266Y-12000
X77234Y-12000
X77234Y-12000
X84250Y-57266
X84250Y-57266
X84250Y-59234
X84250Y-59234
X84250Y-62016
X84250Y-62016
X84250Y-63984
X84250Y-63984
T8
X57697Y-30152
X57697Y-48652
X57697Y-67402
X57707Y-20348
X57707Y-38848
X57707Y-57598
X74447Y-38902
X74447Y-57152
X74457Y-29098
X74457Y-47348
T9
X51500Y-34500
X86500Y-34500
T10
X51500Y-10000
X51500Y-72000
X86500Y-10000
X86500Y-72000
T0
M30
