G04 (created by PCBNEW (2013-06-18 BZR 4216)-testing) date 12/22/2013 11:46:30 AM*
%MOIN*%
G04 Gerber Fmt 3.4, Leading zero omitted, Abs format*
%FSLAX34Y34*%
G01*
G70*
G90*
G04 APERTURE LIST*
%ADD10C,0.003937*%
%ADD11C,0.055000*%
%ADD12R,0.070000X0.070000*%
%ADD13C,0.070000*%
%ADD14R,0.060000X0.060000*%
%ADD15C,0.060000*%
%ADD16C,0.098425*%
%ADD17C,0.102362*%
%ADD18C,0.160000*%
%ADD19C,0.068898*%
%ADD20R,0.055000X0.055000*%
%ADD21R,0.350000X0.350000*%
%ADD22C,0.133858*%
%ADD23C,0.035000*%
%ADD24C,0.020000*%
%ADD25C,0.035000*%
%ADD26C,0.010000*%
G04 APERTURE END LIST*
G54D10*
G54D11*
X69900Y-23000D03*
X68900Y-23000D03*
X53500Y-23000D03*
X52500Y-23000D03*
X37100Y-23000D03*
X36100Y-23000D03*
X61500Y-42200D03*
X60500Y-42200D03*
X45100Y-42200D03*
X44100Y-42200D03*
G54D12*
X48400Y-58123D03*
G54D13*
X48400Y-61086D03*
G54D12*
X47800Y-52400D03*
G54D13*
X47800Y-54400D03*
G54D11*
X36500Y-33400D03*
X35500Y-33400D03*
X36500Y-39000D03*
X35500Y-39000D03*
X69900Y-25000D03*
X68900Y-25000D03*
X53500Y-25000D03*
X52500Y-25000D03*
X37100Y-25000D03*
X36100Y-25000D03*
X61500Y-44000D03*
X60500Y-44000D03*
X45100Y-44200D03*
X44100Y-44200D03*
G54D14*
X83000Y-55100D03*
G54D15*
X83000Y-56100D03*
G54D11*
X80300Y-51000D03*
X79300Y-51000D03*
G54D16*
X43400Y-51200D03*
X40447Y-51200D03*
X43400Y-49231D03*
X40447Y-49231D03*
X43400Y-53168D03*
X40447Y-53168D03*
X43400Y-59192D03*
X40447Y-59192D03*
G54D17*
X36800Y-46615D03*
X36800Y-48584D03*
X36800Y-48584D03*
X36800Y-46615D03*
X36800Y-53000D03*
X36800Y-54968D03*
X36800Y-54968D03*
X36800Y-53000D03*
X36800Y-51031D03*
X81600Y-46415D03*
X81600Y-48384D03*
X81600Y-48384D03*
X81600Y-46415D03*
X81600Y-38815D03*
X81600Y-40784D03*
X81600Y-40784D03*
X81600Y-38815D03*
X81600Y-34415D03*
X81600Y-36384D03*
X81600Y-36384D03*
X81600Y-34415D03*
G54D18*
X35800Y-15200D03*
X82600Y-15200D03*
X35800Y-62000D03*
X82600Y-62000D03*
X82600Y-43600D03*
X35800Y-43600D03*
G54D13*
X64800Y-57600D03*
X63800Y-57600D03*
G54D12*
X62800Y-57600D03*
G54D11*
X68900Y-21000D03*
X69900Y-21000D03*
G54D19*
X82600Y-21815D03*
X82600Y-23784D03*
G54D11*
X52500Y-21000D03*
X53500Y-21000D03*
G54D19*
X65800Y-21815D03*
X65800Y-23784D03*
G54D11*
X36100Y-21000D03*
X37100Y-21000D03*
G54D19*
X49400Y-21815D03*
X49400Y-23784D03*
G54D11*
X60500Y-40200D03*
X61500Y-40200D03*
G54D19*
X73800Y-40815D03*
X73800Y-42784D03*
G54D11*
X44100Y-40200D03*
X45100Y-40200D03*
G54D19*
X57600Y-40815D03*
X57600Y-42784D03*
G54D11*
X41700Y-61400D03*
X42700Y-61400D03*
X83000Y-52900D03*
X83000Y-53900D03*
X77000Y-53300D03*
X77000Y-54300D03*
X62800Y-55300D03*
X62800Y-54300D03*
X60200Y-55300D03*
X60200Y-54300D03*
X58800Y-55300D03*
X58800Y-54300D03*
X69000Y-54100D03*
X69000Y-55100D03*
X69000Y-56100D03*
X69000Y-57100D03*
X77800Y-40900D03*
X77800Y-41900D03*
X77700Y-38800D03*
X78700Y-38800D03*
G54D17*
X55800Y-61000D03*
X57768Y-61000D03*
X57768Y-61000D03*
X55800Y-61000D03*
X53831Y-61000D03*
X71800Y-61000D03*
X73768Y-61000D03*
X73768Y-61000D03*
X71800Y-61000D03*
X69831Y-61000D03*
X36800Y-59384D03*
X36800Y-57415D03*
X36800Y-57415D03*
X36800Y-59384D03*
G54D20*
X59900Y-51300D03*
G54D11*
X58900Y-51300D03*
X58900Y-52300D03*
G54D20*
X78300Y-53300D03*
G54D11*
X78300Y-54300D03*
X78300Y-55300D03*
X78300Y-56300D03*
X81300Y-56300D03*
X81300Y-55300D03*
X81300Y-54300D03*
X81300Y-53300D03*
G54D20*
X71900Y-53300D03*
G54D11*
X71900Y-54300D03*
X71900Y-55300D03*
X71900Y-56300D03*
X74900Y-56300D03*
X74900Y-55300D03*
X74900Y-54300D03*
X74900Y-53300D03*
X52200Y-52300D03*
X52200Y-53300D03*
X41200Y-39900D03*
X41200Y-40900D03*
X38800Y-40900D03*
X38800Y-39900D03*
X41200Y-42700D03*
X41200Y-43700D03*
X38800Y-43700D03*
X38800Y-42700D03*
X53800Y-56100D03*
X53800Y-55100D03*
X52200Y-55100D03*
X52200Y-56100D03*
X53800Y-53300D03*
X53800Y-52300D03*
G54D20*
X66700Y-54500D03*
G54D11*
X65700Y-54500D03*
X65700Y-55500D03*
G54D21*
X42500Y-36400D03*
G54D13*
X36000Y-35400D03*
G54D12*
X36000Y-36400D03*
G54D13*
X36000Y-37400D03*
X49800Y-40800D03*
X49800Y-41800D03*
G54D12*
X49800Y-42800D03*
G54D22*
X51256Y-36819D03*
X51256Y-46819D03*
G54D13*
X66000Y-40800D03*
X66000Y-41800D03*
G54D12*
X66000Y-42800D03*
G54D22*
X67456Y-36819D03*
X67456Y-46819D03*
G54D13*
X41574Y-21755D03*
X41574Y-22755D03*
G54D12*
X41574Y-23755D03*
G54D22*
X43031Y-17775D03*
X43031Y-27775D03*
G54D13*
X58000Y-21800D03*
X58000Y-22800D03*
G54D12*
X58000Y-23800D03*
G54D22*
X59456Y-17819D03*
X59456Y-27819D03*
G54D13*
X74400Y-21800D03*
X74400Y-22800D03*
G54D12*
X74400Y-23800D03*
G54D22*
X75856Y-17819D03*
X75856Y-27819D03*
G54D23*
X81000Y-52200D03*
X79600Y-52200D03*
X39400Y-39000D03*
X40600Y-39000D03*
X45000Y-50000D03*
X45000Y-54000D03*
X49200Y-52600D03*
X48800Y-56800D03*
X69800Y-40800D03*
X68600Y-42800D03*
X62800Y-46000D03*
X71600Y-26600D03*
X55200Y-26600D03*
X75800Y-52400D03*
X77600Y-46000D03*
X80000Y-45000D03*
X73600Y-57200D03*
X76400Y-52400D03*
X78400Y-48000D03*
X79400Y-47000D03*
X59600Y-59200D03*
X58000Y-59200D03*
X59400Y-47200D03*
X59400Y-43400D03*
X55400Y-54600D03*
G54D24*
X79600Y-52200D02*
X81000Y-52200D01*
X74900Y-53300D02*
X74500Y-53300D01*
X74000Y-60768D02*
X73768Y-61000D01*
X74000Y-53800D02*
X74000Y-60768D01*
X74500Y-53300D02*
X74000Y-53800D01*
X40600Y-39000D02*
X39400Y-39000D01*
X45000Y-54000D02*
X45000Y-50000D01*
G54D25*
X53800Y-52300D02*
X58900Y-52300D01*
X49200Y-56400D02*
X49200Y-52600D01*
X48800Y-56800D02*
X49200Y-56400D01*
X69800Y-41600D02*
X69800Y-40800D01*
X68600Y-42800D02*
X69800Y-41600D01*
X62800Y-46000D02*
X66000Y-42800D01*
X71600Y-26600D02*
X74400Y-23800D01*
X55200Y-26600D02*
X58000Y-23800D01*
G54D24*
X75500Y-54300D02*
X74900Y-54300D01*
X75800Y-54000D02*
X75500Y-54300D01*
X75800Y-52400D02*
X75800Y-54000D01*
X79000Y-46000D02*
X77600Y-46000D01*
X80000Y-45000D02*
X79000Y-46000D01*
X74900Y-54300D02*
X74900Y-55300D01*
X77800Y-40900D02*
X81484Y-40900D01*
X81484Y-40900D02*
X81600Y-40784D01*
X36800Y-53000D02*
X39000Y-53000D01*
X42368Y-54200D02*
X43400Y-53168D01*
X40200Y-54200D02*
X42368Y-54200D01*
X39000Y-53000D02*
X40200Y-54200D01*
X41200Y-39900D02*
X38800Y-39900D01*
X71900Y-54300D02*
X72700Y-54300D01*
X73600Y-55200D02*
X73600Y-57200D01*
X72700Y-54300D02*
X73600Y-55200D01*
X58800Y-54300D02*
X59300Y-54300D01*
X65800Y-53600D02*
X66700Y-54500D01*
X60000Y-53600D02*
X65800Y-53600D01*
X59300Y-54300D02*
X60000Y-53600D01*
X75100Y-56300D02*
X74900Y-56300D01*
X76400Y-55000D02*
X75100Y-56300D01*
X76400Y-52400D02*
X76400Y-55000D01*
X79400Y-47000D02*
X78400Y-48000D01*
X58000Y-59200D02*
X59600Y-59200D01*
X52500Y-21000D02*
X51818Y-21000D01*
X51381Y-31081D02*
X60500Y-40200D01*
X51381Y-21437D02*
X51381Y-31081D01*
X51818Y-21000D02*
X51381Y-21437D01*
X59400Y-43400D02*
X59400Y-47200D01*
X53800Y-56100D02*
X53900Y-56100D01*
X53900Y-56100D02*
X55400Y-54600D01*
G54D10*
G36*
X83920Y-63320D02*
X83651Y-63320D01*
X83651Y-62201D01*
X83651Y-43801D01*
X83651Y-15401D01*
X83648Y-14983D01*
X83494Y-14611D01*
X83347Y-14523D01*
X83276Y-14594D01*
X83276Y-14452D01*
X83188Y-14305D01*
X82801Y-14148D01*
X82383Y-14151D01*
X82011Y-14305D01*
X81923Y-14452D01*
X82600Y-15129D01*
X83276Y-14452D01*
X83276Y-14594D01*
X82670Y-15200D01*
X83347Y-15876D01*
X83494Y-15788D01*
X83651Y-15401D01*
X83651Y-43801D01*
X83648Y-43383D01*
X83494Y-43011D01*
X83347Y-42923D01*
X83276Y-42994D01*
X83276Y-42852D01*
X83276Y-15947D01*
X82600Y-15270D01*
X82529Y-15341D01*
X82529Y-15200D01*
X81852Y-14523D01*
X81705Y-14611D01*
X81548Y-14998D01*
X81551Y-15416D01*
X81705Y-15788D01*
X81852Y-15876D01*
X82529Y-15200D01*
X82529Y-15341D01*
X81923Y-15947D01*
X82011Y-16094D01*
X82398Y-16251D01*
X82816Y-16248D01*
X83188Y-16094D01*
X83276Y-15947D01*
X83276Y-42852D01*
X83194Y-42716D01*
X83194Y-23666D01*
X83194Y-21698D01*
X83104Y-21479D01*
X82937Y-21312D01*
X82718Y-21221D01*
X82482Y-21221D01*
X82263Y-21311D01*
X82096Y-21478D01*
X82005Y-21696D01*
X82005Y-21933D01*
X82095Y-22152D01*
X82262Y-22319D01*
X82481Y-22410D01*
X82717Y-22410D01*
X82936Y-22320D01*
X83103Y-22152D01*
X83194Y-21934D01*
X83194Y-21698D01*
X83194Y-23666D01*
X83104Y-23447D01*
X82937Y-23280D01*
X82718Y-23189D01*
X82482Y-23189D01*
X82263Y-23279D01*
X82096Y-23447D01*
X82005Y-23665D01*
X82005Y-23901D01*
X82095Y-24120D01*
X82262Y-24287D01*
X82481Y-24378D01*
X82717Y-24378D01*
X82936Y-24288D01*
X83103Y-24121D01*
X83194Y-23903D01*
X83194Y-23666D01*
X83194Y-42716D01*
X83188Y-42705D01*
X82801Y-42548D01*
X82383Y-42551D01*
X82365Y-42559D01*
X82365Y-38948D01*
X82365Y-34548D01*
X82357Y-34245D01*
X82256Y-34000D01*
X82139Y-33947D01*
X82068Y-34018D01*
X82068Y-33876D01*
X82015Y-33759D01*
X81732Y-33650D01*
X81429Y-33657D01*
X81184Y-33759D01*
X81131Y-33876D01*
X81600Y-34345D01*
X82068Y-33876D01*
X82068Y-34018D01*
X81670Y-34415D01*
X82139Y-34884D01*
X82256Y-34830D01*
X82365Y-34548D01*
X82365Y-38948D01*
X82361Y-38811D01*
X82361Y-36233D01*
X82246Y-35953D01*
X82068Y-35775D01*
X82068Y-34954D01*
X81600Y-34486D01*
X81529Y-34557D01*
X81529Y-34415D01*
X81060Y-33947D01*
X80943Y-34000D01*
X80834Y-34283D01*
X80842Y-34586D01*
X80943Y-34830D01*
X81060Y-34884D01*
X81529Y-34415D01*
X81529Y-34557D01*
X81131Y-34954D01*
X81184Y-35072D01*
X81467Y-35181D01*
X81770Y-35173D01*
X82015Y-35072D01*
X82068Y-34954D01*
X82068Y-35775D01*
X82032Y-35738D01*
X81752Y-35622D01*
X81449Y-35622D01*
X81169Y-35738D01*
X80954Y-35952D01*
X80838Y-36232D01*
X80838Y-36535D01*
X80953Y-36815D01*
X81167Y-37029D01*
X81447Y-37145D01*
X81750Y-37146D01*
X82030Y-37030D01*
X82245Y-36816D01*
X82361Y-36536D01*
X82361Y-36233D01*
X82361Y-38811D01*
X82357Y-38645D01*
X82256Y-38400D01*
X82139Y-38347D01*
X82068Y-38418D01*
X82068Y-38276D01*
X82015Y-38159D01*
X81732Y-38050D01*
X81429Y-38057D01*
X81184Y-38159D01*
X81131Y-38276D01*
X81600Y-38745D01*
X82068Y-38276D01*
X82068Y-38418D01*
X81670Y-38815D01*
X82139Y-39284D01*
X82256Y-39230D01*
X82365Y-38948D01*
X82365Y-42559D01*
X82361Y-42560D01*
X82361Y-40633D01*
X82246Y-40353D01*
X82068Y-40175D01*
X82068Y-39354D01*
X81600Y-38886D01*
X81529Y-38957D01*
X81529Y-38815D01*
X81060Y-38347D01*
X80943Y-38400D01*
X80834Y-38683D01*
X80842Y-38986D01*
X80943Y-39230D01*
X81060Y-39284D01*
X81529Y-38815D01*
X81529Y-38957D01*
X81131Y-39354D01*
X81184Y-39472D01*
X81467Y-39581D01*
X81770Y-39573D01*
X82015Y-39472D01*
X82068Y-39354D01*
X82068Y-40175D01*
X82032Y-40138D01*
X81752Y-40022D01*
X81449Y-40022D01*
X81169Y-40138D01*
X80954Y-40352D01*
X80872Y-40550D01*
X79229Y-40550D01*
X79229Y-38875D01*
X79218Y-38667D01*
X79160Y-38527D01*
X79067Y-38502D01*
X78997Y-38573D01*
X78997Y-38432D01*
X78972Y-38339D01*
X78775Y-38270D01*
X78567Y-38281D01*
X78427Y-38339D01*
X78402Y-38432D01*
X78700Y-38729D01*
X78997Y-38432D01*
X78997Y-38573D01*
X78770Y-38800D01*
X79067Y-39097D01*
X79160Y-39072D01*
X79229Y-38875D01*
X79229Y-40550D01*
X78997Y-40550D01*
X78997Y-39167D01*
X78700Y-38870D01*
X78629Y-38941D01*
X78629Y-38800D01*
X78332Y-38502D01*
X78239Y-38527D01*
X78200Y-38637D01*
X78145Y-38503D01*
X77997Y-38355D01*
X77804Y-38275D01*
X77596Y-38274D01*
X77403Y-38354D01*
X77255Y-38502D01*
X77175Y-38695D01*
X77174Y-38903D01*
X77254Y-39097D01*
X77402Y-39244D01*
X77595Y-39324D01*
X77803Y-39325D01*
X77997Y-39245D01*
X78144Y-39097D01*
X78197Y-38971D01*
X78239Y-39072D01*
X78332Y-39097D01*
X78629Y-38800D01*
X78629Y-38941D01*
X78402Y-39167D01*
X78427Y-39260D01*
X78624Y-39329D01*
X78832Y-39318D01*
X78972Y-39260D01*
X78997Y-39167D01*
X78997Y-40550D01*
X78192Y-40550D01*
X78097Y-40455D01*
X77904Y-40375D01*
X77696Y-40374D01*
X77503Y-40454D01*
X77355Y-40602D01*
X77275Y-40795D01*
X77274Y-41003D01*
X77354Y-41197D01*
X77502Y-41344D01*
X77635Y-41400D01*
X77503Y-41454D01*
X77355Y-41602D01*
X77275Y-41795D01*
X77274Y-42003D01*
X77354Y-42197D01*
X77502Y-42344D01*
X77695Y-42424D01*
X77903Y-42425D01*
X78097Y-42345D01*
X78244Y-42197D01*
X78324Y-42004D01*
X78325Y-41796D01*
X78245Y-41603D01*
X78097Y-41455D01*
X77964Y-41399D01*
X78097Y-41345D01*
X78192Y-41250D01*
X80988Y-41250D01*
X81167Y-41429D01*
X81447Y-41545D01*
X81750Y-41546D01*
X82030Y-41430D01*
X82245Y-41216D01*
X82361Y-40936D01*
X82361Y-40633D01*
X82361Y-42560D01*
X82011Y-42705D01*
X81923Y-42852D01*
X82600Y-43529D01*
X83276Y-42852D01*
X83276Y-42994D01*
X82670Y-43600D01*
X83347Y-44276D01*
X83494Y-44188D01*
X83651Y-43801D01*
X83651Y-62201D01*
X83648Y-61783D01*
X83550Y-61545D01*
X83550Y-55991D01*
X83466Y-55788D01*
X83327Y-55650D01*
X83349Y-55650D01*
X83441Y-55611D01*
X83511Y-55541D01*
X83550Y-55449D01*
X83550Y-55350D01*
X83550Y-54750D01*
X83525Y-54690D01*
X83525Y-53796D01*
X83445Y-53603D01*
X83297Y-53455D01*
X83164Y-53399D01*
X83297Y-53345D01*
X83444Y-53197D01*
X83524Y-53004D01*
X83525Y-52796D01*
X83445Y-52603D01*
X83297Y-52455D01*
X83276Y-52446D01*
X83276Y-44347D01*
X82600Y-43670D01*
X82529Y-43741D01*
X82529Y-43600D01*
X81852Y-42923D01*
X81705Y-43011D01*
X81548Y-43398D01*
X81551Y-43816D01*
X81705Y-44188D01*
X81852Y-44276D01*
X82529Y-43600D01*
X82529Y-43741D01*
X81923Y-44347D01*
X82011Y-44494D01*
X82398Y-44651D01*
X82816Y-44648D01*
X83188Y-44494D01*
X83276Y-44347D01*
X83276Y-52446D01*
X83104Y-52375D01*
X82896Y-52374D01*
X82703Y-52454D01*
X82555Y-52602D01*
X82475Y-52795D01*
X82474Y-53003D01*
X82554Y-53197D01*
X82702Y-53344D01*
X82835Y-53400D01*
X82703Y-53454D01*
X82555Y-53602D01*
X82475Y-53795D01*
X82474Y-54003D01*
X82554Y-54197D01*
X82702Y-54344D01*
X82895Y-54424D01*
X83103Y-54425D01*
X83297Y-54345D01*
X83444Y-54197D01*
X83524Y-54004D01*
X83525Y-53796D01*
X83525Y-54690D01*
X83511Y-54658D01*
X83441Y-54588D01*
X83349Y-54550D01*
X83250Y-54550D01*
X82650Y-54550D01*
X82558Y-54588D01*
X82488Y-54658D01*
X82450Y-54750D01*
X82450Y-54849D01*
X82450Y-55449D01*
X82488Y-55541D01*
X82558Y-55611D01*
X82650Y-55650D01*
X82672Y-55650D01*
X82534Y-55788D01*
X82450Y-55990D01*
X82449Y-56208D01*
X82533Y-56411D01*
X82688Y-56565D01*
X82890Y-56649D01*
X83108Y-56650D01*
X83311Y-56566D01*
X83465Y-56411D01*
X83549Y-56209D01*
X83550Y-55991D01*
X83550Y-61545D01*
X83494Y-61411D01*
X83347Y-61323D01*
X83276Y-61394D01*
X83276Y-61252D01*
X83188Y-61105D01*
X82801Y-60948D01*
X82383Y-60951D01*
X82361Y-60960D01*
X82361Y-48233D01*
X82361Y-46264D01*
X82246Y-45984D01*
X82032Y-45770D01*
X81752Y-45654D01*
X81449Y-45653D01*
X81169Y-45769D01*
X80954Y-45983D01*
X80838Y-46263D01*
X80838Y-46566D01*
X80953Y-46846D01*
X81167Y-47061D01*
X81447Y-47177D01*
X81750Y-47177D01*
X82030Y-47061D01*
X82245Y-46847D01*
X82361Y-46567D01*
X82361Y-46264D01*
X82361Y-48233D01*
X82246Y-47953D01*
X82032Y-47738D01*
X81752Y-47622D01*
X81449Y-47622D01*
X81169Y-47738D01*
X80954Y-47952D01*
X80838Y-48232D01*
X80838Y-48535D01*
X80953Y-48815D01*
X81167Y-49029D01*
X81447Y-49145D01*
X81750Y-49146D01*
X82030Y-49030D01*
X82245Y-48816D01*
X82361Y-48536D01*
X82361Y-48233D01*
X82361Y-60960D01*
X82011Y-61105D01*
X81923Y-61252D01*
X82600Y-61929D01*
X83276Y-61252D01*
X83276Y-61394D01*
X82670Y-62000D01*
X83347Y-62676D01*
X83494Y-62588D01*
X83651Y-62201D01*
X83651Y-63320D01*
X83276Y-63320D01*
X83276Y-62747D01*
X82600Y-62070D01*
X82529Y-62141D01*
X82529Y-62000D01*
X81852Y-61323D01*
X81825Y-61340D01*
X81825Y-56196D01*
X81745Y-56003D01*
X81597Y-55855D01*
X81464Y-55799D01*
X81597Y-55745D01*
X81744Y-55597D01*
X81824Y-55404D01*
X81825Y-55196D01*
X81745Y-55003D01*
X81597Y-54855D01*
X81464Y-54799D01*
X81597Y-54745D01*
X81744Y-54597D01*
X81824Y-54404D01*
X81825Y-54196D01*
X81745Y-54003D01*
X81597Y-53855D01*
X81464Y-53799D01*
X81597Y-53745D01*
X81744Y-53597D01*
X81824Y-53404D01*
X81825Y-53196D01*
X81745Y-53003D01*
X81597Y-52855D01*
X81425Y-52783D01*
X81425Y-52115D01*
X81360Y-51959D01*
X81241Y-51839D01*
X81084Y-51775D01*
X80915Y-51774D01*
X80825Y-51812D01*
X80825Y-50896D01*
X80745Y-50703D01*
X80597Y-50555D01*
X80425Y-50483D01*
X80425Y-44915D01*
X80360Y-44759D01*
X80241Y-44639D01*
X80084Y-44575D01*
X79915Y-44574D01*
X79759Y-44639D01*
X79639Y-44758D01*
X79575Y-44915D01*
X79575Y-44929D01*
X78855Y-45650D01*
X77851Y-45650D01*
X77841Y-45639D01*
X77684Y-45575D01*
X77515Y-45574D01*
X77359Y-45639D01*
X77239Y-45758D01*
X77175Y-45915D01*
X77174Y-46084D01*
X77239Y-46240D01*
X77358Y-46360D01*
X77515Y-46424D01*
X77684Y-46425D01*
X77840Y-46360D01*
X77850Y-46350D01*
X79000Y-46350D01*
X79133Y-46323D01*
X79133Y-46323D01*
X79247Y-46247D01*
X80069Y-45425D01*
X80084Y-45425D01*
X80240Y-45360D01*
X80360Y-45241D01*
X80424Y-45084D01*
X80425Y-44915D01*
X80425Y-50483D01*
X80404Y-50475D01*
X80196Y-50474D01*
X80003Y-50554D01*
X79855Y-50702D01*
X79825Y-50774D01*
X79825Y-46915D01*
X79760Y-46759D01*
X79641Y-46639D01*
X79484Y-46575D01*
X79315Y-46574D01*
X79159Y-46639D01*
X79039Y-46758D01*
X78975Y-46915D01*
X78975Y-46929D01*
X78330Y-47574D01*
X78315Y-47574D01*
X78159Y-47639D01*
X78039Y-47758D01*
X77975Y-47915D01*
X77974Y-48084D01*
X78039Y-48240D01*
X78158Y-48360D01*
X78315Y-48424D01*
X78484Y-48425D01*
X78640Y-48360D01*
X78760Y-48241D01*
X78824Y-48084D01*
X78824Y-48070D01*
X79469Y-47425D01*
X79484Y-47425D01*
X79640Y-47360D01*
X79760Y-47241D01*
X79824Y-47084D01*
X79825Y-46915D01*
X79825Y-50774D01*
X79802Y-50828D01*
X79760Y-50727D01*
X79667Y-50702D01*
X79597Y-50773D01*
X79597Y-50632D01*
X79572Y-50539D01*
X79375Y-50470D01*
X79167Y-50481D01*
X79027Y-50539D01*
X79002Y-50632D01*
X79300Y-50929D01*
X79597Y-50632D01*
X79597Y-50773D01*
X79370Y-51000D01*
X79667Y-51297D01*
X79760Y-51272D01*
X79799Y-51162D01*
X79854Y-51297D01*
X80002Y-51444D01*
X80195Y-51524D01*
X80403Y-51525D01*
X80597Y-51445D01*
X80744Y-51297D01*
X80824Y-51104D01*
X80825Y-50896D01*
X80825Y-51812D01*
X80759Y-51839D01*
X80749Y-51850D01*
X79851Y-51850D01*
X79841Y-51839D01*
X79684Y-51775D01*
X79597Y-51774D01*
X79597Y-51367D01*
X79300Y-51070D01*
X79229Y-51141D01*
X79229Y-51000D01*
X78932Y-50702D01*
X78839Y-50727D01*
X78770Y-50924D01*
X78781Y-51132D01*
X78839Y-51272D01*
X78932Y-51297D01*
X79229Y-51000D01*
X79229Y-51141D01*
X79002Y-51367D01*
X79027Y-51460D01*
X79224Y-51529D01*
X79432Y-51518D01*
X79572Y-51460D01*
X79597Y-51367D01*
X79597Y-51774D01*
X79515Y-51774D01*
X79359Y-51839D01*
X79239Y-51958D01*
X79175Y-52115D01*
X79174Y-52284D01*
X79239Y-52440D01*
X79358Y-52560D01*
X79515Y-52624D01*
X79684Y-52625D01*
X79840Y-52560D01*
X79850Y-52550D01*
X80748Y-52550D01*
X80758Y-52560D01*
X80915Y-52624D01*
X81084Y-52625D01*
X81240Y-52560D01*
X81360Y-52441D01*
X81424Y-52284D01*
X81425Y-52115D01*
X81425Y-52783D01*
X81404Y-52775D01*
X81196Y-52774D01*
X81003Y-52854D01*
X80855Y-53002D01*
X80775Y-53195D01*
X80774Y-53403D01*
X80854Y-53597D01*
X81002Y-53744D01*
X81135Y-53800D01*
X81003Y-53854D01*
X80855Y-54002D01*
X80775Y-54195D01*
X80774Y-54403D01*
X80854Y-54597D01*
X81002Y-54744D01*
X81135Y-54800D01*
X81003Y-54854D01*
X80855Y-55002D01*
X80775Y-55195D01*
X80774Y-55403D01*
X80854Y-55597D01*
X81002Y-55744D01*
X81135Y-55800D01*
X81003Y-55854D01*
X80855Y-56002D01*
X80775Y-56195D01*
X80774Y-56403D01*
X80854Y-56597D01*
X81002Y-56744D01*
X81195Y-56824D01*
X81403Y-56825D01*
X81597Y-56745D01*
X81744Y-56597D01*
X81824Y-56404D01*
X81825Y-56196D01*
X81825Y-61340D01*
X81705Y-61411D01*
X81548Y-61798D01*
X81551Y-62216D01*
X81705Y-62588D01*
X81852Y-62676D01*
X82529Y-62000D01*
X82529Y-62141D01*
X81923Y-62747D01*
X82011Y-62894D01*
X82398Y-63051D01*
X82816Y-63048D01*
X83188Y-62894D01*
X83276Y-62747D01*
X83276Y-63320D01*
X78829Y-63320D01*
X78829Y-56375D01*
X78825Y-56287D01*
X78825Y-55196D01*
X78745Y-55003D01*
X78597Y-54855D01*
X78464Y-54799D01*
X78597Y-54745D01*
X78744Y-54597D01*
X78824Y-54404D01*
X78825Y-54196D01*
X78745Y-54003D01*
X78597Y-53855D01*
X78525Y-53825D01*
X78525Y-53825D01*
X78624Y-53825D01*
X78716Y-53786D01*
X78786Y-53716D01*
X78825Y-53624D01*
X78825Y-53412D01*
X78825Y-53187D01*
X78825Y-52975D01*
X78786Y-52883D01*
X78716Y-52813D01*
X78624Y-52775D01*
X78525Y-52775D01*
X78412Y-52775D01*
X78350Y-52837D01*
X78350Y-53250D01*
X78762Y-53250D01*
X78825Y-53187D01*
X78825Y-53412D01*
X78762Y-53350D01*
X78350Y-53350D01*
X78350Y-53357D01*
X78250Y-53357D01*
X78250Y-53350D01*
X78250Y-53250D01*
X78250Y-52837D01*
X78187Y-52775D01*
X78074Y-52775D01*
X77975Y-52775D01*
X77883Y-52813D01*
X77813Y-52883D01*
X77775Y-52975D01*
X77775Y-53187D01*
X77837Y-53250D01*
X78250Y-53250D01*
X78250Y-53350D01*
X77837Y-53350D01*
X77775Y-53412D01*
X77775Y-53624D01*
X77813Y-53716D01*
X77883Y-53786D01*
X77975Y-53825D01*
X78074Y-53825D01*
X78074Y-53825D01*
X78003Y-53854D01*
X77855Y-54002D01*
X77775Y-54195D01*
X77774Y-54403D01*
X77854Y-54597D01*
X78002Y-54744D01*
X78135Y-54800D01*
X78003Y-54854D01*
X77855Y-55002D01*
X77775Y-55195D01*
X77774Y-55403D01*
X77854Y-55597D01*
X78002Y-55744D01*
X78128Y-55797D01*
X78027Y-55839D01*
X78002Y-55932D01*
X78300Y-56229D01*
X78597Y-55932D01*
X78572Y-55839D01*
X78462Y-55800D01*
X78597Y-55745D01*
X78744Y-55597D01*
X78824Y-55404D01*
X78825Y-55196D01*
X78825Y-56287D01*
X78818Y-56167D01*
X78760Y-56027D01*
X78667Y-56002D01*
X78370Y-56300D01*
X78667Y-56597D01*
X78760Y-56572D01*
X78829Y-56375D01*
X78829Y-63320D01*
X78597Y-63320D01*
X78597Y-56667D01*
X78300Y-56370D01*
X78229Y-56441D01*
X78229Y-56300D01*
X77932Y-56002D01*
X77839Y-56027D01*
X77770Y-56224D01*
X77781Y-56432D01*
X77839Y-56572D01*
X77932Y-56597D01*
X78229Y-56300D01*
X78229Y-56441D01*
X78002Y-56667D01*
X78027Y-56760D01*
X78224Y-56829D01*
X78432Y-56818D01*
X78572Y-56760D01*
X78597Y-56667D01*
X78597Y-63320D01*
X77525Y-63320D01*
X77525Y-54196D01*
X77445Y-54003D01*
X77297Y-53855D01*
X77164Y-53799D01*
X77297Y-53745D01*
X77444Y-53597D01*
X77524Y-53404D01*
X77525Y-53196D01*
X77445Y-53003D01*
X77297Y-52855D01*
X77104Y-52775D01*
X76896Y-52774D01*
X76750Y-52835D01*
X76750Y-52651D01*
X76760Y-52641D01*
X76824Y-52484D01*
X76825Y-52315D01*
X76776Y-52197D01*
X76776Y-27637D01*
X76776Y-17637D01*
X76636Y-17299D01*
X76378Y-17040D01*
X76040Y-16900D01*
X75674Y-16900D01*
X75336Y-17039D01*
X75077Y-17298D01*
X74937Y-17636D01*
X74937Y-18001D01*
X75076Y-18339D01*
X75335Y-18598D01*
X75673Y-18738D01*
X76038Y-18739D01*
X76376Y-18599D01*
X76635Y-18341D01*
X76775Y-18003D01*
X76776Y-17637D01*
X76776Y-27637D01*
X76636Y-27299D01*
X76378Y-27040D01*
X76040Y-26900D01*
X75674Y-26900D01*
X75336Y-27039D01*
X75077Y-27298D01*
X75000Y-27485D01*
X75000Y-22681D01*
X74908Y-22460D01*
X74748Y-22299D01*
X74908Y-22140D01*
X74999Y-21919D01*
X75000Y-21681D01*
X74908Y-21460D01*
X74740Y-21291D01*
X74519Y-21200D01*
X74281Y-21199D01*
X74060Y-21291D01*
X73891Y-21459D01*
X73800Y-21680D01*
X73799Y-21918D01*
X73891Y-22139D01*
X74051Y-22300D01*
X73891Y-22459D01*
X73800Y-22680D01*
X73799Y-22918D01*
X73891Y-23139D01*
X73965Y-23214D01*
X73908Y-23238D01*
X73838Y-23308D01*
X73800Y-23400D01*
X73800Y-23499D01*
X73800Y-23798D01*
X71299Y-26299D01*
X71239Y-26358D01*
X71175Y-26515D01*
X71174Y-26684D01*
X71207Y-26762D01*
X71239Y-26840D01*
X71299Y-26900D01*
X71358Y-26960D01*
X71437Y-26992D01*
X71515Y-27024D01*
X71600Y-27025D01*
X71684Y-27025D01*
X71762Y-26992D01*
X71840Y-26960D01*
X71900Y-26900D01*
X71960Y-26841D01*
X71960Y-26840D01*
X74401Y-24400D01*
X74799Y-24400D01*
X74891Y-24361D01*
X74961Y-24291D01*
X75000Y-24199D01*
X75000Y-24100D01*
X75000Y-23400D01*
X74961Y-23308D01*
X74891Y-23238D01*
X74834Y-23214D01*
X74908Y-23140D01*
X74999Y-22919D01*
X75000Y-22681D01*
X75000Y-27485D01*
X74937Y-27636D01*
X74937Y-28001D01*
X75076Y-28339D01*
X75335Y-28598D01*
X75673Y-28738D01*
X76038Y-28739D01*
X76376Y-28599D01*
X76635Y-28341D01*
X76775Y-28003D01*
X76776Y-27637D01*
X76776Y-52197D01*
X76760Y-52159D01*
X76641Y-52039D01*
X76484Y-51975D01*
X76315Y-51974D01*
X76159Y-52039D01*
X76100Y-52098D01*
X76041Y-52039D01*
X75884Y-51975D01*
X75715Y-51974D01*
X75559Y-52039D01*
X75439Y-52158D01*
X75375Y-52315D01*
X75374Y-52484D01*
X75439Y-52640D01*
X75450Y-52650D01*
X75450Y-53855D01*
X75355Y-53950D01*
X75292Y-53950D01*
X75197Y-53855D01*
X75064Y-53799D01*
X75197Y-53745D01*
X75344Y-53597D01*
X75424Y-53404D01*
X75425Y-53196D01*
X75345Y-53003D01*
X75197Y-52855D01*
X75004Y-52775D01*
X74796Y-52774D01*
X74603Y-52854D01*
X74507Y-52950D01*
X74500Y-52950D01*
X74394Y-52970D01*
X74394Y-42666D01*
X74394Y-40698D01*
X74304Y-40479D01*
X74137Y-40312D01*
X73918Y-40221D01*
X73682Y-40221D01*
X73463Y-40311D01*
X73296Y-40478D01*
X73205Y-40696D01*
X73205Y-40933D01*
X73295Y-41152D01*
X73462Y-41319D01*
X73681Y-41410D01*
X73917Y-41410D01*
X74136Y-41320D01*
X74303Y-41152D01*
X74394Y-40934D01*
X74394Y-40698D01*
X74394Y-42666D01*
X74304Y-42447D01*
X74137Y-42280D01*
X73918Y-42189D01*
X73682Y-42189D01*
X73463Y-42279D01*
X73296Y-42447D01*
X73205Y-42665D01*
X73205Y-42901D01*
X73295Y-43120D01*
X73462Y-43287D01*
X73681Y-43378D01*
X73917Y-43378D01*
X74136Y-43288D01*
X74303Y-43121D01*
X74394Y-42903D01*
X74394Y-42666D01*
X74394Y-52970D01*
X74366Y-52976D01*
X74252Y-53052D01*
X73752Y-53552D01*
X73676Y-53666D01*
X73650Y-53800D01*
X73650Y-54755D01*
X72947Y-54052D01*
X72833Y-53976D01*
X72700Y-53950D01*
X72292Y-53950D01*
X72197Y-53855D01*
X72125Y-53825D01*
X72224Y-53825D01*
X72316Y-53786D01*
X72386Y-53716D01*
X72425Y-53624D01*
X72425Y-53525D01*
X72425Y-52975D01*
X72386Y-52883D01*
X72316Y-52813D01*
X72224Y-52775D01*
X72125Y-52775D01*
X71575Y-52775D01*
X71483Y-52813D01*
X71413Y-52883D01*
X71375Y-52975D01*
X71375Y-53074D01*
X71375Y-53624D01*
X71413Y-53716D01*
X71483Y-53786D01*
X71575Y-53825D01*
X71674Y-53825D01*
X71674Y-53825D01*
X71603Y-53854D01*
X71455Y-54002D01*
X71375Y-54195D01*
X71374Y-54403D01*
X71454Y-54597D01*
X71602Y-54744D01*
X71735Y-54800D01*
X71603Y-54854D01*
X71455Y-55002D01*
X71375Y-55195D01*
X71374Y-55403D01*
X71454Y-55597D01*
X71602Y-55744D01*
X71728Y-55797D01*
X71627Y-55839D01*
X71602Y-55932D01*
X71900Y-56229D01*
X72197Y-55932D01*
X72172Y-55839D01*
X72062Y-55800D01*
X72197Y-55745D01*
X72344Y-55597D01*
X72424Y-55404D01*
X72425Y-55196D01*
X72345Y-55003D01*
X72197Y-54855D01*
X72064Y-54799D01*
X72197Y-54745D01*
X72292Y-54650D01*
X72555Y-54650D01*
X73250Y-55344D01*
X73250Y-56948D01*
X73239Y-56958D01*
X73175Y-57115D01*
X73174Y-57284D01*
X73239Y-57440D01*
X73358Y-57560D01*
X73515Y-57624D01*
X73650Y-57625D01*
X73650Y-60238D01*
X73617Y-60238D01*
X73337Y-60353D01*
X73123Y-60567D01*
X73006Y-60847D01*
X73006Y-61150D01*
X73122Y-61430D01*
X73336Y-61645D01*
X73616Y-61761D01*
X73919Y-61761D01*
X74199Y-61646D01*
X74413Y-61432D01*
X74530Y-61152D01*
X74530Y-60849D01*
X74414Y-60569D01*
X74350Y-60504D01*
X74350Y-53944D01*
X74576Y-53718D01*
X74602Y-53744D01*
X74735Y-53800D01*
X74603Y-53854D01*
X74455Y-54002D01*
X74375Y-54195D01*
X74374Y-54403D01*
X74454Y-54597D01*
X74550Y-54692D01*
X74550Y-54907D01*
X74455Y-55002D01*
X74375Y-55195D01*
X74374Y-55403D01*
X74454Y-55597D01*
X74602Y-55744D01*
X74735Y-55800D01*
X74603Y-55854D01*
X74455Y-56002D01*
X74375Y-56195D01*
X74374Y-56403D01*
X74454Y-56597D01*
X74602Y-56744D01*
X74795Y-56824D01*
X75003Y-56825D01*
X75197Y-56745D01*
X75344Y-56597D01*
X75378Y-56516D01*
X76647Y-55247D01*
X76723Y-55133D01*
X76723Y-55133D01*
X76750Y-55000D01*
X76750Y-54764D01*
X76895Y-54824D01*
X77103Y-54825D01*
X77297Y-54745D01*
X77444Y-54597D01*
X77524Y-54404D01*
X77525Y-54196D01*
X77525Y-63320D01*
X72561Y-63320D01*
X72561Y-60849D01*
X72446Y-60569D01*
X72429Y-60552D01*
X72429Y-56375D01*
X72418Y-56167D01*
X72360Y-56027D01*
X72267Y-56002D01*
X71970Y-56300D01*
X72267Y-56597D01*
X72360Y-56572D01*
X72429Y-56375D01*
X72429Y-60552D01*
X72232Y-60354D01*
X72197Y-60340D01*
X72197Y-56667D01*
X71900Y-56370D01*
X71829Y-56441D01*
X71829Y-56300D01*
X71532Y-56002D01*
X71439Y-56027D01*
X71370Y-56224D01*
X71381Y-56432D01*
X71439Y-56572D01*
X71532Y-56597D01*
X71829Y-56300D01*
X71829Y-56441D01*
X71602Y-56667D01*
X71627Y-56760D01*
X71824Y-56829D01*
X72032Y-56818D01*
X72172Y-56760D01*
X72197Y-56667D01*
X72197Y-60340D01*
X71952Y-60238D01*
X71649Y-60238D01*
X71369Y-60353D01*
X71154Y-60567D01*
X71038Y-60847D01*
X71038Y-61150D01*
X71153Y-61430D01*
X71367Y-61645D01*
X71647Y-61761D01*
X71950Y-61761D01*
X72230Y-61646D01*
X72445Y-61432D01*
X72561Y-61152D01*
X72561Y-60849D01*
X72561Y-63320D01*
X70593Y-63320D01*
X70593Y-60849D01*
X70477Y-60569D01*
X70429Y-60521D01*
X70429Y-23075D01*
X70425Y-22987D01*
X70425Y-20896D01*
X70345Y-20703D01*
X70197Y-20555D01*
X70004Y-20475D01*
X69796Y-20474D01*
X69603Y-20554D01*
X69455Y-20702D01*
X69399Y-20835D01*
X69345Y-20703D01*
X69197Y-20555D01*
X69004Y-20475D01*
X68796Y-20474D01*
X68603Y-20554D01*
X68455Y-20702D01*
X68375Y-20895D01*
X68374Y-21103D01*
X68454Y-21297D01*
X68602Y-21444D01*
X68795Y-21524D01*
X69003Y-21525D01*
X69197Y-21445D01*
X69344Y-21297D01*
X69400Y-21164D01*
X69454Y-21297D01*
X69602Y-21444D01*
X69795Y-21524D01*
X70003Y-21525D01*
X70197Y-21445D01*
X70344Y-21297D01*
X70424Y-21104D01*
X70425Y-20896D01*
X70425Y-22987D01*
X70418Y-22867D01*
X70360Y-22727D01*
X70267Y-22702D01*
X70197Y-22773D01*
X70197Y-22632D01*
X70172Y-22539D01*
X69975Y-22470D01*
X69767Y-22481D01*
X69627Y-22539D01*
X69602Y-22632D01*
X69900Y-22929D01*
X70197Y-22632D01*
X70197Y-22773D01*
X69970Y-23000D01*
X70267Y-23297D01*
X70360Y-23272D01*
X70429Y-23075D01*
X70429Y-60521D01*
X70425Y-60516D01*
X70425Y-24896D01*
X70345Y-24703D01*
X70197Y-24555D01*
X70197Y-24554D01*
X70197Y-23367D01*
X69900Y-23070D01*
X69829Y-23141D01*
X69829Y-23000D01*
X69532Y-22702D01*
X69439Y-22727D01*
X69400Y-22837D01*
X69345Y-22703D01*
X69197Y-22555D01*
X69004Y-22475D01*
X68796Y-22474D01*
X68603Y-22554D01*
X68455Y-22702D01*
X68375Y-22895D01*
X68374Y-23103D01*
X68454Y-23297D01*
X68602Y-23444D01*
X68795Y-23524D01*
X69003Y-23525D01*
X69197Y-23445D01*
X69344Y-23297D01*
X69397Y-23171D01*
X69439Y-23272D01*
X69532Y-23297D01*
X69829Y-23000D01*
X69829Y-23141D01*
X69602Y-23367D01*
X69627Y-23460D01*
X69824Y-23529D01*
X70032Y-23518D01*
X70172Y-23460D01*
X70197Y-23367D01*
X70197Y-24554D01*
X70004Y-24475D01*
X69796Y-24474D01*
X69603Y-24554D01*
X69455Y-24702D01*
X69399Y-24835D01*
X69345Y-24703D01*
X69197Y-24555D01*
X69004Y-24475D01*
X68796Y-24474D01*
X68603Y-24554D01*
X68455Y-24702D01*
X68375Y-24895D01*
X68374Y-25103D01*
X68454Y-25297D01*
X68602Y-25444D01*
X68795Y-25524D01*
X69003Y-25525D01*
X69197Y-25445D01*
X69344Y-25297D01*
X69400Y-25164D01*
X69454Y-25297D01*
X69602Y-25444D01*
X69795Y-25524D01*
X70003Y-25525D01*
X70197Y-25445D01*
X70344Y-25297D01*
X70424Y-25104D01*
X70425Y-24896D01*
X70425Y-60516D01*
X70263Y-60354D01*
X70225Y-60338D01*
X70225Y-40715D01*
X70192Y-40637D01*
X70160Y-40559D01*
X70100Y-40499D01*
X70041Y-40439D01*
X69884Y-40375D01*
X69715Y-40374D01*
X69559Y-40439D01*
X69439Y-40558D01*
X69375Y-40715D01*
X69374Y-40884D01*
X69375Y-40884D01*
X69375Y-41423D01*
X68376Y-42422D01*
X68376Y-36637D01*
X68236Y-36299D01*
X67978Y-36040D01*
X67640Y-35900D01*
X67274Y-35900D01*
X66936Y-36039D01*
X66677Y-36298D01*
X66537Y-36636D01*
X66537Y-37001D01*
X66676Y-37339D01*
X66935Y-37598D01*
X67273Y-37738D01*
X67638Y-37739D01*
X67976Y-37599D01*
X68235Y-37341D01*
X68375Y-37003D01*
X68376Y-36637D01*
X68376Y-42422D01*
X68299Y-42499D01*
X68239Y-42558D01*
X68175Y-42715D01*
X68174Y-42884D01*
X68207Y-42962D01*
X68239Y-43040D01*
X68299Y-43100D01*
X68358Y-43160D01*
X68437Y-43192D01*
X68515Y-43224D01*
X68600Y-43225D01*
X68684Y-43225D01*
X68762Y-43192D01*
X68840Y-43160D01*
X68900Y-43100D01*
X68960Y-43041D01*
X68960Y-43040D01*
X70100Y-41900D01*
X70192Y-41762D01*
X70225Y-41600D01*
X70225Y-40800D01*
X70225Y-40800D01*
X70225Y-40715D01*
X70225Y-60338D01*
X69983Y-60238D01*
X69680Y-60238D01*
X69529Y-60300D01*
X69529Y-57175D01*
X69525Y-57087D01*
X69525Y-55996D01*
X69445Y-55803D01*
X69297Y-55655D01*
X69164Y-55599D01*
X69297Y-55545D01*
X69444Y-55397D01*
X69524Y-55204D01*
X69525Y-54996D01*
X69445Y-54803D01*
X69297Y-54655D01*
X69164Y-54599D01*
X69297Y-54545D01*
X69444Y-54397D01*
X69524Y-54204D01*
X69525Y-53996D01*
X69445Y-53803D01*
X69297Y-53655D01*
X69104Y-53575D01*
X68896Y-53574D01*
X68703Y-53654D01*
X68555Y-53802D01*
X68475Y-53995D01*
X68474Y-54203D01*
X68554Y-54397D01*
X68702Y-54544D01*
X68835Y-54600D01*
X68703Y-54654D01*
X68555Y-54802D01*
X68475Y-54995D01*
X68474Y-55203D01*
X68554Y-55397D01*
X68702Y-55544D01*
X68835Y-55600D01*
X68703Y-55654D01*
X68555Y-55802D01*
X68475Y-55995D01*
X68474Y-56203D01*
X68554Y-56397D01*
X68702Y-56544D01*
X68828Y-56597D01*
X68727Y-56639D01*
X68702Y-56732D01*
X69000Y-57029D01*
X69297Y-56732D01*
X69272Y-56639D01*
X69162Y-56600D01*
X69297Y-56545D01*
X69444Y-56397D01*
X69524Y-56204D01*
X69525Y-55996D01*
X69525Y-57087D01*
X69518Y-56967D01*
X69460Y-56827D01*
X69367Y-56802D01*
X69070Y-57100D01*
X69367Y-57397D01*
X69460Y-57372D01*
X69529Y-57175D01*
X69529Y-60300D01*
X69400Y-60353D01*
X69297Y-60457D01*
X69297Y-57467D01*
X69000Y-57170D01*
X68929Y-57241D01*
X68929Y-57100D01*
X68632Y-56802D01*
X68539Y-56827D01*
X68470Y-57024D01*
X68481Y-57232D01*
X68539Y-57372D01*
X68632Y-57397D01*
X68929Y-57100D01*
X68929Y-57241D01*
X68702Y-57467D01*
X68727Y-57560D01*
X68924Y-57629D01*
X69132Y-57618D01*
X69272Y-57560D01*
X69297Y-57467D01*
X69297Y-60457D01*
X69186Y-60567D01*
X69069Y-60847D01*
X69069Y-61150D01*
X69185Y-61430D01*
X69399Y-61645D01*
X69679Y-61761D01*
X69982Y-61761D01*
X70262Y-61646D01*
X70476Y-61432D01*
X70593Y-61152D01*
X70593Y-60849D01*
X70593Y-63320D01*
X68376Y-63320D01*
X68376Y-46637D01*
X68236Y-46299D01*
X67978Y-46040D01*
X67640Y-45900D01*
X67274Y-45900D01*
X66936Y-46039D01*
X66677Y-46298D01*
X66600Y-46485D01*
X66600Y-41681D01*
X66508Y-41460D01*
X66348Y-41299D01*
X66508Y-41140D01*
X66599Y-40919D01*
X66600Y-40681D01*
X66508Y-40460D01*
X66394Y-40346D01*
X66394Y-23666D01*
X66394Y-21698D01*
X66304Y-21479D01*
X66137Y-21312D01*
X65918Y-21221D01*
X65682Y-21221D01*
X65463Y-21311D01*
X65296Y-21478D01*
X65205Y-21696D01*
X65205Y-21933D01*
X65295Y-22152D01*
X65462Y-22319D01*
X65681Y-22410D01*
X65917Y-22410D01*
X66136Y-22320D01*
X66303Y-22152D01*
X66394Y-21934D01*
X66394Y-21698D01*
X66394Y-23666D01*
X66304Y-23447D01*
X66137Y-23280D01*
X65918Y-23189D01*
X65682Y-23189D01*
X65463Y-23279D01*
X65296Y-23447D01*
X65205Y-23665D01*
X65205Y-23901D01*
X65295Y-24120D01*
X65462Y-24287D01*
X65681Y-24378D01*
X65917Y-24378D01*
X66136Y-24288D01*
X66303Y-24121D01*
X66394Y-23903D01*
X66394Y-23666D01*
X66394Y-40346D01*
X66340Y-40291D01*
X66119Y-40200D01*
X65881Y-40199D01*
X65660Y-40291D01*
X65491Y-40459D01*
X65400Y-40680D01*
X65399Y-40918D01*
X65491Y-41139D01*
X65651Y-41300D01*
X65491Y-41459D01*
X65400Y-41680D01*
X65399Y-41918D01*
X65491Y-42139D01*
X65565Y-42214D01*
X65508Y-42238D01*
X65438Y-42308D01*
X65400Y-42400D01*
X65400Y-42499D01*
X65400Y-42798D01*
X62499Y-45699D01*
X62439Y-45758D01*
X62375Y-45915D01*
X62374Y-46084D01*
X62407Y-46162D01*
X62439Y-46240D01*
X62499Y-46300D01*
X62558Y-46360D01*
X62637Y-46392D01*
X62715Y-46424D01*
X62800Y-46425D01*
X62884Y-46425D01*
X62962Y-46392D01*
X63040Y-46360D01*
X63100Y-46300D01*
X63160Y-46241D01*
X63160Y-46240D01*
X66001Y-43400D01*
X66399Y-43400D01*
X66491Y-43361D01*
X66561Y-43291D01*
X66600Y-43199D01*
X66600Y-43100D01*
X66600Y-42400D01*
X66561Y-42308D01*
X66491Y-42238D01*
X66434Y-42214D01*
X66508Y-42140D01*
X66599Y-41919D01*
X66600Y-41681D01*
X66600Y-46485D01*
X66537Y-46636D01*
X66537Y-47001D01*
X66676Y-47339D01*
X66935Y-47598D01*
X67273Y-47738D01*
X67638Y-47739D01*
X67976Y-47599D01*
X68235Y-47341D01*
X68375Y-47003D01*
X68376Y-46637D01*
X68376Y-63320D01*
X67225Y-63320D01*
X67225Y-54824D01*
X67225Y-54725D01*
X67225Y-54175D01*
X67186Y-54083D01*
X67116Y-54013D01*
X67024Y-53975D01*
X66925Y-53975D01*
X66669Y-53975D01*
X66047Y-53352D01*
X65933Y-53276D01*
X65800Y-53250D01*
X62029Y-53250D01*
X62029Y-42275D01*
X62025Y-42187D01*
X62025Y-40096D01*
X61945Y-39903D01*
X61797Y-39755D01*
X61604Y-39675D01*
X61396Y-39674D01*
X61203Y-39754D01*
X61055Y-39902D01*
X60999Y-40035D01*
X60945Y-39903D01*
X60797Y-39755D01*
X60604Y-39675D01*
X60469Y-39674D01*
X60376Y-39581D01*
X60376Y-27637D01*
X60376Y-17637D01*
X60236Y-17299D01*
X59978Y-17040D01*
X59640Y-16900D01*
X59274Y-16900D01*
X58936Y-17039D01*
X58677Y-17298D01*
X58537Y-17636D01*
X58537Y-18001D01*
X58676Y-18339D01*
X58935Y-18598D01*
X59273Y-18738D01*
X59638Y-18739D01*
X59976Y-18599D01*
X60235Y-18341D01*
X60375Y-18003D01*
X60376Y-17637D01*
X60376Y-27637D01*
X60236Y-27299D01*
X59978Y-27040D01*
X59640Y-26900D01*
X59274Y-26900D01*
X58936Y-27039D01*
X58677Y-27298D01*
X58600Y-27485D01*
X58600Y-22681D01*
X58508Y-22460D01*
X58348Y-22299D01*
X58508Y-22140D01*
X58599Y-21919D01*
X58600Y-21681D01*
X58508Y-21460D01*
X58340Y-21291D01*
X58119Y-21200D01*
X57881Y-21199D01*
X57660Y-21291D01*
X57491Y-21459D01*
X57400Y-21680D01*
X57399Y-21918D01*
X57491Y-22139D01*
X57651Y-22300D01*
X57491Y-22459D01*
X57400Y-22680D01*
X57399Y-22918D01*
X57491Y-23139D01*
X57565Y-23214D01*
X57508Y-23238D01*
X57438Y-23308D01*
X57400Y-23400D01*
X57400Y-23499D01*
X57400Y-23798D01*
X54899Y-26299D01*
X54839Y-26358D01*
X54775Y-26515D01*
X54774Y-26684D01*
X54807Y-26762D01*
X54839Y-26840D01*
X54899Y-26900D01*
X54958Y-26960D01*
X55037Y-26992D01*
X55115Y-27024D01*
X55200Y-27025D01*
X55284Y-27025D01*
X55362Y-26992D01*
X55440Y-26960D01*
X55500Y-26900D01*
X55560Y-26841D01*
X55560Y-26840D01*
X58001Y-24400D01*
X58399Y-24400D01*
X58491Y-24361D01*
X58561Y-24291D01*
X58600Y-24199D01*
X58600Y-24100D01*
X58600Y-23400D01*
X58561Y-23308D01*
X58491Y-23238D01*
X58434Y-23214D01*
X58508Y-23140D01*
X58599Y-22919D01*
X58600Y-22681D01*
X58600Y-27485D01*
X58537Y-27636D01*
X58537Y-28001D01*
X58676Y-28339D01*
X58935Y-28598D01*
X59273Y-28738D01*
X59638Y-28739D01*
X59976Y-28599D01*
X60235Y-28341D01*
X60375Y-28003D01*
X60376Y-27637D01*
X60376Y-39581D01*
X54029Y-33234D01*
X54029Y-23075D01*
X54018Y-22867D01*
X53960Y-22727D01*
X53867Y-22702D01*
X53797Y-22773D01*
X53797Y-22632D01*
X53772Y-22539D01*
X53575Y-22470D01*
X53367Y-22481D01*
X53227Y-22539D01*
X53202Y-22632D01*
X53500Y-22929D01*
X53797Y-22632D01*
X53797Y-22773D01*
X53570Y-23000D01*
X53867Y-23297D01*
X53960Y-23272D01*
X54029Y-23075D01*
X54029Y-33234D01*
X54025Y-33230D01*
X54025Y-24896D01*
X53945Y-24703D01*
X53797Y-24555D01*
X53797Y-24554D01*
X53797Y-23367D01*
X53500Y-23070D01*
X53429Y-23141D01*
X53429Y-23000D01*
X53132Y-22702D01*
X53039Y-22727D01*
X53000Y-22837D01*
X52945Y-22703D01*
X52797Y-22555D01*
X52604Y-22475D01*
X52396Y-22474D01*
X52203Y-22554D01*
X52055Y-22702D01*
X51975Y-22895D01*
X51974Y-23103D01*
X52054Y-23297D01*
X52202Y-23444D01*
X52395Y-23524D01*
X52603Y-23525D01*
X52797Y-23445D01*
X52944Y-23297D01*
X52997Y-23171D01*
X53039Y-23272D01*
X53132Y-23297D01*
X53429Y-23000D01*
X53429Y-23141D01*
X53202Y-23367D01*
X53227Y-23460D01*
X53424Y-23529D01*
X53632Y-23518D01*
X53772Y-23460D01*
X53797Y-23367D01*
X53797Y-24554D01*
X53604Y-24475D01*
X53396Y-24474D01*
X53203Y-24554D01*
X53055Y-24702D01*
X52999Y-24835D01*
X52945Y-24703D01*
X52797Y-24555D01*
X52604Y-24475D01*
X52396Y-24474D01*
X52203Y-24554D01*
X52055Y-24702D01*
X51975Y-24895D01*
X51974Y-25103D01*
X52054Y-25297D01*
X52202Y-25444D01*
X52395Y-25524D01*
X52603Y-25525D01*
X52797Y-25445D01*
X52944Y-25297D01*
X53000Y-25164D01*
X53054Y-25297D01*
X53202Y-25444D01*
X53395Y-25524D01*
X53603Y-25525D01*
X53797Y-25445D01*
X53944Y-25297D01*
X54024Y-25104D01*
X54025Y-24896D01*
X54025Y-33230D01*
X51731Y-30936D01*
X51731Y-21581D01*
X51963Y-21350D01*
X52107Y-21350D01*
X52202Y-21444D01*
X52395Y-21524D01*
X52603Y-21525D01*
X52797Y-21445D01*
X52944Y-21297D01*
X53000Y-21164D01*
X53054Y-21297D01*
X53202Y-21444D01*
X53395Y-21524D01*
X53603Y-21525D01*
X53797Y-21445D01*
X53944Y-21297D01*
X54024Y-21104D01*
X54025Y-20896D01*
X53945Y-20703D01*
X53797Y-20555D01*
X53604Y-20475D01*
X53396Y-20474D01*
X53203Y-20554D01*
X53055Y-20702D01*
X52999Y-20835D01*
X52945Y-20703D01*
X52797Y-20555D01*
X52604Y-20475D01*
X52396Y-20474D01*
X52203Y-20554D01*
X52107Y-20650D01*
X51818Y-20650D01*
X51684Y-20676D01*
X51571Y-20752D01*
X51134Y-21189D01*
X51058Y-21303D01*
X51031Y-21437D01*
X51031Y-31081D01*
X51058Y-31215D01*
X51134Y-31329D01*
X59975Y-40170D01*
X59974Y-40303D01*
X60054Y-40497D01*
X60202Y-40644D01*
X60395Y-40724D01*
X60603Y-40725D01*
X60797Y-40645D01*
X60944Y-40497D01*
X61000Y-40364D01*
X61054Y-40497D01*
X61202Y-40644D01*
X61395Y-40724D01*
X61603Y-40725D01*
X61797Y-40645D01*
X61944Y-40497D01*
X62024Y-40304D01*
X62025Y-40096D01*
X62025Y-42187D01*
X62018Y-42067D01*
X61960Y-41927D01*
X61867Y-41902D01*
X61797Y-41973D01*
X61797Y-41832D01*
X61772Y-41739D01*
X61575Y-41670D01*
X61367Y-41681D01*
X61227Y-41739D01*
X61202Y-41832D01*
X61500Y-42129D01*
X61797Y-41832D01*
X61797Y-41973D01*
X61570Y-42200D01*
X61867Y-42497D01*
X61960Y-42472D01*
X62029Y-42275D01*
X62029Y-53250D01*
X62025Y-53250D01*
X62025Y-43896D01*
X61945Y-43703D01*
X61797Y-43555D01*
X61797Y-43554D01*
X61797Y-42567D01*
X61500Y-42270D01*
X61429Y-42341D01*
X61429Y-42200D01*
X61132Y-41902D01*
X61039Y-41927D01*
X61000Y-42037D01*
X60945Y-41903D01*
X60797Y-41755D01*
X60604Y-41675D01*
X60396Y-41674D01*
X60203Y-41754D01*
X60055Y-41902D01*
X59975Y-42095D01*
X59974Y-42303D01*
X60054Y-42497D01*
X60202Y-42644D01*
X60395Y-42724D01*
X60603Y-42725D01*
X60797Y-42645D01*
X60944Y-42497D01*
X60997Y-42371D01*
X61039Y-42472D01*
X61132Y-42497D01*
X61429Y-42200D01*
X61429Y-42341D01*
X61202Y-42567D01*
X61227Y-42660D01*
X61424Y-42729D01*
X61632Y-42718D01*
X61772Y-42660D01*
X61797Y-42567D01*
X61797Y-43554D01*
X61604Y-43475D01*
X61396Y-43474D01*
X61203Y-43554D01*
X61055Y-43702D01*
X60999Y-43835D01*
X60945Y-43703D01*
X60797Y-43555D01*
X60604Y-43475D01*
X60396Y-43474D01*
X60203Y-43554D01*
X60055Y-43702D01*
X59975Y-43895D01*
X59974Y-44103D01*
X60054Y-44297D01*
X60202Y-44444D01*
X60395Y-44524D01*
X60603Y-44525D01*
X60797Y-44445D01*
X60944Y-44297D01*
X61000Y-44164D01*
X61054Y-44297D01*
X61202Y-44444D01*
X61395Y-44524D01*
X61603Y-44525D01*
X61797Y-44445D01*
X61944Y-44297D01*
X62024Y-44104D01*
X62025Y-43896D01*
X62025Y-53250D01*
X60425Y-53250D01*
X60425Y-51624D01*
X60425Y-51525D01*
X60425Y-50975D01*
X60386Y-50883D01*
X60316Y-50813D01*
X60224Y-50775D01*
X60125Y-50775D01*
X59825Y-50775D01*
X59825Y-47115D01*
X59760Y-46959D01*
X59750Y-46949D01*
X59750Y-43651D01*
X59760Y-43641D01*
X59824Y-43484D01*
X59825Y-43315D01*
X59760Y-43159D01*
X59641Y-43039D01*
X59484Y-42975D01*
X59315Y-42974D01*
X59159Y-43039D01*
X59039Y-43158D01*
X58975Y-43315D01*
X58974Y-43484D01*
X59039Y-43640D01*
X59050Y-43650D01*
X59050Y-46948D01*
X59039Y-46958D01*
X58975Y-47115D01*
X58974Y-47284D01*
X59039Y-47440D01*
X59158Y-47560D01*
X59315Y-47624D01*
X59484Y-47625D01*
X59640Y-47560D01*
X59760Y-47441D01*
X59824Y-47284D01*
X59825Y-47115D01*
X59825Y-50775D01*
X59575Y-50775D01*
X59483Y-50813D01*
X59413Y-50883D01*
X59375Y-50975D01*
X59375Y-51074D01*
X59375Y-51074D01*
X59345Y-51003D01*
X59197Y-50855D01*
X59004Y-50775D01*
X58796Y-50774D01*
X58603Y-50854D01*
X58455Y-51002D01*
X58375Y-51195D01*
X58374Y-51403D01*
X58454Y-51597D01*
X58602Y-51744D01*
X58735Y-51800D01*
X58603Y-51854D01*
X58582Y-51875D01*
X58194Y-51875D01*
X58194Y-42666D01*
X58194Y-40698D01*
X58104Y-40479D01*
X57937Y-40312D01*
X57718Y-40221D01*
X57482Y-40221D01*
X57263Y-40311D01*
X57096Y-40478D01*
X57005Y-40696D01*
X57005Y-40933D01*
X57095Y-41152D01*
X57262Y-41319D01*
X57481Y-41410D01*
X57717Y-41410D01*
X57936Y-41320D01*
X58103Y-41152D01*
X58194Y-40934D01*
X58194Y-40698D01*
X58194Y-42666D01*
X58104Y-42447D01*
X57937Y-42280D01*
X57718Y-42189D01*
X57482Y-42189D01*
X57263Y-42279D01*
X57096Y-42447D01*
X57005Y-42665D01*
X57005Y-42901D01*
X57095Y-43120D01*
X57262Y-43287D01*
X57481Y-43378D01*
X57717Y-43378D01*
X57936Y-43288D01*
X58103Y-43121D01*
X58194Y-42903D01*
X58194Y-42666D01*
X58194Y-51875D01*
X54117Y-51875D01*
X54097Y-51855D01*
X53904Y-51775D01*
X53696Y-51774D01*
X53503Y-51854D01*
X53355Y-52002D01*
X53275Y-52195D01*
X53274Y-52403D01*
X53354Y-52597D01*
X53502Y-52744D01*
X53635Y-52800D01*
X53503Y-52854D01*
X53355Y-53002D01*
X53275Y-53195D01*
X53274Y-53403D01*
X53354Y-53597D01*
X53502Y-53744D01*
X53695Y-53824D01*
X53903Y-53825D01*
X54097Y-53745D01*
X54244Y-53597D01*
X54324Y-53404D01*
X54325Y-53196D01*
X54245Y-53003D01*
X54097Y-52855D01*
X53964Y-52799D01*
X54097Y-52745D01*
X54117Y-52725D01*
X58582Y-52725D01*
X58602Y-52744D01*
X58795Y-52824D01*
X59003Y-52825D01*
X59197Y-52745D01*
X59344Y-52597D01*
X59424Y-52404D01*
X59425Y-52196D01*
X59345Y-52003D01*
X59197Y-51855D01*
X59064Y-51799D01*
X59197Y-51745D01*
X59344Y-51597D01*
X59375Y-51525D01*
X59375Y-51624D01*
X59413Y-51716D01*
X59483Y-51786D01*
X59575Y-51825D01*
X59674Y-51825D01*
X60224Y-51825D01*
X60316Y-51786D01*
X60386Y-51716D01*
X60425Y-51624D01*
X60425Y-53250D01*
X60000Y-53250D01*
X59866Y-53276D01*
X59752Y-53352D01*
X59173Y-53931D01*
X59097Y-53855D01*
X58904Y-53775D01*
X58696Y-53774D01*
X58503Y-53854D01*
X58355Y-54002D01*
X58275Y-54195D01*
X58274Y-54403D01*
X58354Y-54597D01*
X58502Y-54744D01*
X58635Y-54800D01*
X58503Y-54854D01*
X58355Y-55002D01*
X58275Y-55195D01*
X58274Y-55403D01*
X58354Y-55597D01*
X58502Y-55744D01*
X58695Y-55824D01*
X58903Y-55825D01*
X59097Y-55745D01*
X59244Y-55597D01*
X59324Y-55404D01*
X59325Y-55196D01*
X59245Y-55003D01*
X59097Y-54855D01*
X58964Y-54799D01*
X59097Y-54745D01*
X59192Y-54650D01*
X59300Y-54650D01*
X59433Y-54623D01*
X59433Y-54623D01*
X59547Y-54547D01*
X59679Y-54415D01*
X59754Y-54597D01*
X59902Y-54744D01*
X60035Y-54800D01*
X59903Y-54854D01*
X59755Y-55002D01*
X59675Y-55195D01*
X59674Y-55403D01*
X59754Y-55597D01*
X59902Y-55744D01*
X60095Y-55824D01*
X60303Y-55825D01*
X60497Y-55745D01*
X60644Y-55597D01*
X60724Y-55404D01*
X60725Y-55196D01*
X60645Y-55003D01*
X60497Y-54855D01*
X60364Y-54799D01*
X60497Y-54745D01*
X60644Y-54597D01*
X60724Y-54404D01*
X60725Y-54196D01*
X60645Y-54003D01*
X60592Y-53950D01*
X62407Y-53950D01*
X62355Y-54002D01*
X62275Y-54195D01*
X62274Y-54403D01*
X62354Y-54597D01*
X62502Y-54744D01*
X62635Y-54800D01*
X62503Y-54854D01*
X62355Y-55002D01*
X62275Y-55195D01*
X62274Y-55403D01*
X62354Y-55597D01*
X62502Y-55744D01*
X62695Y-55824D01*
X62903Y-55825D01*
X63097Y-55745D01*
X63244Y-55597D01*
X63324Y-55404D01*
X63325Y-55196D01*
X63245Y-55003D01*
X63097Y-54855D01*
X62964Y-54799D01*
X63097Y-54745D01*
X63244Y-54597D01*
X63324Y-54404D01*
X63325Y-54196D01*
X63245Y-54003D01*
X63192Y-53950D01*
X65655Y-53950D01*
X65680Y-53974D01*
X65596Y-53974D01*
X65403Y-54054D01*
X65255Y-54202D01*
X65175Y-54395D01*
X65174Y-54603D01*
X65254Y-54797D01*
X65402Y-54944D01*
X65528Y-54997D01*
X65427Y-55039D01*
X65402Y-55132D01*
X65700Y-55429D01*
X65997Y-55132D01*
X65972Y-55039D01*
X65862Y-55000D01*
X65997Y-54945D01*
X66144Y-54797D01*
X66175Y-54725D01*
X66175Y-54824D01*
X66213Y-54916D01*
X66283Y-54986D01*
X66375Y-55025D01*
X66474Y-55025D01*
X67024Y-55025D01*
X67116Y-54986D01*
X67186Y-54916D01*
X67225Y-54824D01*
X67225Y-63320D01*
X66229Y-63320D01*
X66229Y-55575D01*
X66218Y-55367D01*
X66160Y-55227D01*
X66067Y-55202D01*
X65770Y-55500D01*
X66067Y-55797D01*
X66160Y-55772D01*
X66229Y-55575D01*
X66229Y-63320D01*
X65997Y-63320D01*
X65997Y-55867D01*
X65700Y-55570D01*
X65629Y-55641D01*
X65629Y-55500D01*
X65332Y-55202D01*
X65239Y-55227D01*
X65170Y-55424D01*
X65181Y-55632D01*
X65239Y-55772D01*
X65332Y-55797D01*
X65629Y-55500D01*
X65629Y-55641D01*
X65402Y-55867D01*
X65427Y-55960D01*
X65624Y-56029D01*
X65832Y-56018D01*
X65972Y-55960D01*
X65997Y-55867D01*
X65997Y-63320D01*
X65400Y-63320D01*
X65400Y-57481D01*
X65308Y-57260D01*
X65140Y-57091D01*
X64919Y-57000D01*
X64681Y-56999D01*
X64460Y-57091D01*
X64291Y-57259D01*
X64287Y-57270D01*
X64222Y-57248D01*
X64151Y-57319D01*
X63870Y-57600D01*
X64222Y-57951D01*
X64287Y-57929D01*
X64291Y-57939D01*
X64459Y-58108D01*
X64680Y-58199D01*
X64918Y-58200D01*
X65139Y-58108D01*
X65308Y-57940D01*
X65399Y-57719D01*
X65400Y-57481D01*
X65400Y-63320D01*
X64151Y-63320D01*
X64151Y-58022D01*
X63800Y-57670D01*
X63794Y-57676D01*
X63729Y-57611D01*
X63723Y-57605D01*
X63729Y-57600D01*
X63723Y-57594D01*
X63794Y-57523D01*
X63800Y-57529D01*
X64151Y-57177D01*
X64117Y-57077D01*
X63893Y-56995D01*
X63655Y-57005D01*
X63482Y-57077D01*
X63448Y-57177D01*
X63403Y-57132D01*
X63381Y-57154D01*
X63361Y-57108D01*
X63291Y-57038D01*
X63199Y-57000D01*
X63100Y-57000D01*
X62400Y-57000D01*
X62308Y-57038D01*
X62238Y-57108D01*
X62200Y-57200D01*
X62200Y-57299D01*
X62200Y-57999D01*
X62238Y-58091D01*
X62308Y-58161D01*
X62400Y-58200D01*
X62499Y-58200D01*
X63199Y-58200D01*
X63291Y-58161D01*
X63361Y-58091D01*
X63381Y-58045D01*
X63403Y-58067D01*
X63448Y-58022D01*
X63482Y-58122D01*
X63706Y-58204D01*
X63944Y-58194D01*
X64117Y-58122D01*
X64151Y-58022D01*
X64151Y-63320D01*
X60025Y-63320D01*
X60025Y-59115D01*
X59960Y-58959D01*
X59841Y-58839D01*
X59684Y-58775D01*
X59515Y-58774D01*
X59359Y-58839D01*
X59349Y-58850D01*
X58251Y-58850D01*
X58241Y-58839D01*
X58084Y-58775D01*
X57915Y-58774D01*
X57759Y-58839D01*
X57639Y-58958D01*
X57575Y-59115D01*
X57574Y-59284D01*
X57639Y-59440D01*
X57758Y-59560D01*
X57915Y-59624D01*
X58084Y-59625D01*
X58240Y-59560D01*
X58250Y-59550D01*
X59348Y-59550D01*
X59358Y-59560D01*
X59515Y-59624D01*
X59684Y-59625D01*
X59840Y-59560D01*
X59960Y-59441D01*
X60024Y-59284D01*
X60025Y-59115D01*
X60025Y-63320D01*
X58530Y-63320D01*
X58530Y-60849D01*
X58414Y-60569D01*
X58200Y-60354D01*
X57920Y-60238D01*
X57617Y-60238D01*
X57337Y-60353D01*
X57123Y-60567D01*
X57006Y-60847D01*
X57006Y-61150D01*
X57122Y-61430D01*
X57336Y-61645D01*
X57616Y-61761D01*
X57919Y-61761D01*
X58199Y-61646D01*
X58413Y-61432D01*
X58530Y-61152D01*
X58530Y-60849D01*
X58530Y-63320D01*
X56561Y-63320D01*
X56561Y-60849D01*
X56446Y-60569D01*
X56232Y-60354D01*
X55952Y-60238D01*
X55825Y-60238D01*
X55825Y-54515D01*
X55760Y-54359D01*
X55641Y-54239D01*
X55484Y-54175D01*
X55315Y-54174D01*
X55159Y-54239D01*
X55039Y-54358D01*
X54975Y-54515D01*
X54975Y-54529D01*
X54324Y-55180D01*
X54325Y-54996D01*
X54245Y-54803D01*
X54097Y-54655D01*
X53904Y-54575D01*
X53696Y-54574D01*
X53503Y-54654D01*
X53355Y-54802D01*
X53275Y-54995D01*
X53274Y-55203D01*
X53354Y-55397D01*
X53502Y-55544D01*
X53635Y-55600D01*
X53503Y-55654D01*
X53355Y-55802D01*
X53275Y-55995D01*
X53274Y-56203D01*
X53354Y-56397D01*
X53502Y-56544D01*
X53695Y-56624D01*
X53903Y-56625D01*
X54097Y-56545D01*
X54244Y-56397D01*
X54324Y-56204D01*
X54324Y-56170D01*
X55469Y-55025D01*
X55484Y-55025D01*
X55640Y-54960D01*
X55760Y-54841D01*
X55824Y-54684D01*
X55825Y-54515D01*
X55825Y-60238D01*
X55649Y-60238D01*
X55369Y-60353D01*
X55154Y-60567D01*
X55038Y-60847D01*
X55038Y-61150D01*
X55153Y-61430D01*
X55367Y-61645D01*
X55647Y-61761D01*
X55950Y-61761D01*
X56230Y-61646D01*
X56445Y-61432D01*
X56561Y-61152D01*
X56561Y-60849D01*
X56561Y-63320D01*
X54593Y-63320D01*
X54593Y-60849D01*
X54477Y-60569D01*
X54263Y-60354D01*
X53983Y-60238D01*
X53680Y-60238D01*
X53400Y-60353D01*
X53186Y-60567D01*
X53069Y-60847D01*
X53069Y-61150D01*
X53185Y-61430D01*
X53399Y-61645D01*
X53679Y-61761D01*
X53982Y-61761D01*
X54262Y-61646D01*
X54476Y-61432D01*
X54593Y-61152D01*
X54593Y-60849D01*
X54593Y-63320D01*
X52729Y-63320D01*
X52729Y-55175D01*
X52729Y-52375D01*
X52718Y-52167D01*
X52660Y-52027D01*
X52567Y-52002D01*
X52497Y-52073D01*
X52497Y-51932D01*
X52472Y-51839D01*
X52275Y-51770D01*
X52176Y-51775D01*
X52176Y-46637D01*
X52176Y-36637D01*
X52036Y-36299D01*
X51778Y-36040D01*
X51440Y-35900D01*
X51074Y-35900D01*
X50736Y-36039D01*
X50477Y-36298D01*
X50337Y-36636D01*
X50337Y-37001D01*
X50476Y-37339D01*
X50735Y-37598D01*
X51073Y-37738D01*
X51438Y-37739D01*
X51776Y-37599D01*
X52035Y-37341D01*
X52175Y-37003D01*
X52176Y-36637D01*
X52176Y-46637D01*
X52036Y-46299D01*
X51778Y-46040D01*
X51440Y-45900D01*
X51074Y-45900D01*
X50736Y-46039D01*
X50477Y-46298D01*
X50400Y-46485D01*
X50400Y-41681D01*
X50308Y-41460D01*
X50148Y-41299D01*
X50308Y-41140D01*
X50399Y-40919D01*
X50400Y-40681D01*
X50308Y-40460D01*
X50140Y-40291D01*
X49994Y-40231D01*
X49994Y-23666D01*
X49994Y-21698D01*
X49904Y-21479D01*
X49737Y-21312D01*
X49518Y-21221D01*
X49282Y-21221D01*
X49063Y-21311D01*
X48896Y-21478D01*
X48805Y-21696D01*
X48805Y-21933D01*
X48895Y-22152D01*
X49062Y-22319D01*
X49281Y-22410D01*
X49517Y-22410D01*
X49736Y-22320D01*
X49903Y-22152D01*
X49994Y-21934D01*
X49994Y-21698D01*
X49994Y-23666D01*
X49904Y-23447D01*
X49737Y-23280D01*
X49518Y-23189D01*
X49282Y-23189D01*
X49063Y-23279D01*
X48896Y-23447D01*
X48805Y-23665D01*
X48805Y-23901D01*
X48895Y-24120D01*
X49062Y-24287D01*
X49281Y-24378D01*
X49517Y-24378D01*
X49736Y-24288D01*
X49903Y-24121D01*
X49994Y-23903D01*
X49994Y-23666D01*
X49994Y-40231D01*
X49919Y-40200D01*
X49681Y-40199D01*
X49460Y-40291D01*
X49291Y-40459D01*
X49200Y-40680D01*
X49199Y-40918D01*
X49291Y-41139D01*
X49451Y-41300D01*
X49291Y-41459D01*
X49200Y-41680D01*
X49199Y-41918D01*
X49291Y-42139D01*
X49365Y-42214D01*
X49308Y-42238D01*
X49238Y-42308D01*
X49200Y-42400D01*
X49200Y-42499D01*
X49200Y-43199D01*
X49238Y-43291D01*
X49308Y-43361D01*
X49400Y-43400D01*
X49499Y-43400D01*
X50199Y-43400D01*
X50291Y-43361D01*
X50361Y-43291D01*
X50400Y-43199D01*
X50400Y-43100D01*
X50400Y-42400D01*
X50361Y-42308D01*
X50291Y-42238D01*
X50234Y-42214D01*
X50308Y-42140D01*
X50399Y-41919D01*
X50400Y-41681D01*
X50400Y-46485D01*
X50337Y-46636D01*
X50337Y-47001D01*
X50476Y-47339D01*
X50735Y-47598D01*
X51073Y-47738D01*
X51438Y-47739D01*
X51776Y-47599D01*
X52035Y-47341D01*
X52175Y-47003D01*
X52176Y-46637D01*
X52176Y-51775D01*
X52067Y-51781D01*
X51927Y-51839D01*
X51902Y-51932D01*
X52200Y-52229D01*
X52497Y-51932D01*
X52497Y-52073D01*
X52270Y-52300D01*
X52567Y-52597D01*
X52660Y-52572D01*
X52729Y-52375D01*
X52729Y-55175D01*
X52725Y-55087D01*
X52725Y-53196D01*
X52645Y-53003D01*
X52497Y-52855D01*
X52371Y-52802D01*
X52472Y-52760D01*
X52497Y-52667D01*
X52200Y-52370D01*
X52129Y-52441D01*
X52129Y-52300D01*
X51832Y-52002D01*
X51739Y-52027D01*
X51670Y-52224D01*
X51681Y-52432D01*
X51739Y-52572D01*
X51832Y-52597D01*
X52129Y-52300D01*
X52129Y-52441D01*
X51902Y-52667D01*
X51927Y-52760D01*
X52037Y-52799D01*
X51903Y-52854D01*
X51755Y-53002D01*
X51675Y-53195D01*
X51674Y-53403D01*
X51754Y-53597D01*
X51902Y-53744D01*
X52095Y-53824D01*
X52303Y-53825D01*
X52497Y-53745D01*
X52644Y-53597D01*
X52724Y-53404D01*
X52725Y-53196D01*
X52725Y-55087D01*
X52718Y-54967D01*
X52660Y-54827D01*
X52567Y-54802D01*
X52497Y-54873D01*
X52497Y-54732D01*
X52472Y-54639D01*
X52275Y-54570D01*
X52067Y-54581D01*
X51927Y-54639D01*
X51902Y-54732D01*
X52200Y-55029D01*
X52497Y-54732D01*
X52497Y-54873D01*
X52270Y-55100D01*
X52567Y-55397D01*
X52660Y-55372D01*
X52729Y-55175D01*
X52729Y-63320D01*
X52725Y-63320D01*
X52725Y-55996D01*
X52645Y-55803D01*
X52497Y-55655D01*
X52371Y-55602D01*
X52472Y-55560D01*
X52497Y-55467D01*
X52200Y-55170D01*
X52129Y-55241D01*
X52129Y-55100D01*
X51832Y-54802D01*
X51739Y-54827D01*
X51670Y-55024D01*
X51681Y-55232D01*
X51739Y-55372D01*
X51832Y-55397D01*
X52129Y-55100D01*
X52129Y-55241D01*
X51902Y-55467D01*
X51927Y-55560D01*
X52037Y-55599D01*
X51903Y-55654D01*
X51755Y-55802D01*
X51675Y-55995D01*
X51674Y-56203D01*
X51754Y-56397D01*
X51902Y-56544D01*
X52095Y-56624D01*
X52303Y-56625D01*
X52497Y-56545D01*
X52644Y-56397D01*
X52724Y-56204D01*
X52725Y-55996D01*
X52725Y-63320D01*
X49625Y-63320D01*
X49625Y-52515D01*
X49592Y-52437D01*
X49560Y-52359D01*
X49500Y-52299D01*
X49441Y-52239D01*
X49284Y-52175D01*
X49115Y-52174D01*
X48959Y-52239D01*
X48839Y-52358D01*
X48775Y-52515D01*
X48774Y-52684D01*
X48775Y-52684D01*
X48775Y-56223D01*
X48499Y-56499D01*
X48439Y-56558D01*
X48404Y-56644D01*
X48404Y-54493D01*
X48400Y-54387D01*
X48400Y-52799D01*
X48400Y-52700D01*
X48400Y-52000D01*
X48361Y-51908D01*
X48291Y-51838D01*
X48199Y-51800D01*
X48100Y-51800D01*
X47400Y-51800D01*
X47308Y-51838D01*
X47238Y-51908D01*
X47200Y-52000D01*
X47200Y-52099D01*
X47200Y-52799D01*
X47238Y-52891D01*
X47308Y-52961D01*
X47400Y-53000D01*
X47499Y-53000D01*
X48199Y-53000D01*
X48291Y-52961D01*
X48361Y-52891D01*
X48400Y-52799D01*
X48400Y-54387D01*
X48394Y-54255D01*
X48322Y-54082D01*
X48222Y-54048D01*
X48151Y-54119D01*
X48151Y-53977D01*
X48117Y-53877D01*
X47893Y-53795D01*
X47655Y-53805D01*
X47482Y-53877D01*
X47448Y-53977D01*
X47800Y-54329D01*
X48151Y-53977D01*
X48151Y-54119D01*
X47870Y-54400D01*
X48222Y-54751D01*
X48322Y-54717D01*
X48404Y-54493D01*
X48404Y-56644D01*
X48375Y-56715D01*
X48374Y-56884D01*
X48407Y-56962D01*
X48439Y-57040D01*
X48499Y-57100D01*
X48558Y-57160D01*
X48637Y-57192D01*
X48715Y-57224D01*
X48800Y-57225D01*
X48884Y-57225D01*
X48962Y-57192D01*
X49040Y-57160D01*
X49100Y-57100D01*
X49160Y-57041D01*
X49160Y-57040D01*
X49500Y-56700D01*
X49592Y-56562D01*
X49625Y-56400D01*
X49625Y-52600D01*
X49625Y-52600D01*
X49625Y-52515D01*
X49625Y-63320D01*
X49004Y-63320D01*
X49004Y-61179D01*
X49000Y-61073D01*
X49000Y-58523D01*
X49000Y-58423D01*
X49000Y-57723D01*
X48961Y-57632D01*
X48891Y-57561D01*
X48799Y-57523D01*
X48700Y-57523D01*
X48151Y-57523D01*
X48151Y-54822D01*
X47800Y-54470D01*
X47729Y-54541D01*
X47729Y-54400D01*
X47377Y-54048D01*
X47277Y-54082D01*
X47195Y-54306D01*
X47205Y-54544D01*
X47277Y-54717D01*
X47377Y-54751D01*
X47729Y-54400D01*
X47729Y-54541D01*
X47448Y-54822D01*
X47482Y-54922D01*
X47706Y-55004D01*
X47944Y-54994D01*
X48117Y-54922D01*
X48151Y-54822D01*
X48151Y-57523D01*
X48000Y-57523D01*
X47908Y-57561D01*
X47838Y-57632D01*
X47800Y-57723D01*
X47800Y-57823D01*
X47800Y-58523D01*
X47838Y-58615D01*
X47908Y-58685D01*
X48000Y-58723D01*
X48099Y-58723D01*
X48799Y-58723D01*
X48891Y-58685D01*
X48961Y-58615D01*
X49000Y-58523D01*
X49000Y-61073D01*
X48994Y-60941D01*
X48922Y-60768D01*
X48822Y-60734D01*
X48751Y-60805D01*
X48751Y-60664D01*
X48717Y-60563D01*
X48493Y-60481D01*
X48255Y-60491D01*
X48082Y-60563D01*
X48048Y-60664D01*
X48400Y-61015D01*
X48751Y-60664D01*
X48751Y-60805D01*
X48470Y-61086D01*
X48822Y-61437D01*
X48922Y-61404D01*
X49004Y-61179D01*
X49004Y-63320D01*
X48751Y-63320D01*
X48751Y-61508D01*
X48400Y-61156D01*
X48329Y-61227D01*
X48329Y-61086D01*
X47977Y-60734D01*
X47877Y-60768D01*
X47795Y-60992D01*
X47805Y-61230D01*
X47877Y-61404D01*
X47977Y-61437D01*
X48329Y-61086D01*
X48329Y-61227D01*
X48048Y-61508D01*
X48082Y-61608D01*
X48306Y-61690D01*
X48544Y-61680D01*
X48717Y-61608D01*
X48751Y-61508D01*
X48751Y-63320D01*
X45629Y-63320D01*
X45629Y-42275D01*
X45625Y-42187D01*
X45625Y-40096D01*
X45545Y-39903D01*
X45397Y-39755D01*
X45204Y-39675D01*
X44996Y-39674D01*
X44803Y-39754D01*
X44655Y-39902D01*
X44599Y-40035D01*
X44545Y-39903D01*
X44500Y-39857D01*
X44500Y-38199D01*
X44500Y-38100D01*
X44500Y-34600D01*
X44461Y-34508D01*
X44391Y-34438D01*
X44299Y-34400D01*
X44200Y-34400D01*
X43950Y-34400D01*
X43950Y-27593D01*
X43950Y-17593D01*
X43811Y-17255D01*
X43552Y-16996D01*
X43215Y-16856D01*
X42849Y-16856D01*
X42511Y-16995D01*
X42252Y-17254D01*
X42112Y-17591D01*
X42112Y-17957D01*
X42251Y-18295D01*
X42510Y-18554D01*
X42847Y-18694D01*
X43213Y-18695D01*
X43551Y-18555D01*
X43810Y-18297D01*
X43950Y-17959D01*
X43950Y-17593D01*
X43950Y-27593D01*
X43811Y-27255D01*
X43552Y-26996D01*
X43215Y-26856D01*
X42849Y-26856D01*
X42511Y-26995D01*
X42252Y-27254D01*
X42174Y-27441D01*
X42174Y-22637D01*
X42083Y-22416D01*
X41923Y-22255D01*
X42083Y-22096D01*
X42174Y-21875D01*
X42174Y-21637D01*
X42083Y-21416D01*
X41915Y-21247D01*
X41694Y-21156D01*
X41455Y-21155D01*
X41235Y-21246D01*
X41066Y-21415D01*
X40974Y-21636D01*
X40974Y-21874D01*
X41065Y-22095D01*
X41226Y-22256D01*
X41066Y-22415D01*
X40974Y-22636D01*
X40974Y-22874D01*
X41065Y-23095D01*
X41140Y-23170D01*
X41083Y-23193D01*
X41012Y-23264D01*
X40974Y-23356D01*
X40974Y-23455D01*
X40974Y-24155D01*
X41012Y-24247D01*
X41083Y-24317D01*
X41175Y-24355D01*
X41274Y-24355D01*
X41974Y-24355D01*
X42066Y-24317D01*
X42136Y-24247D01*
X42174Y-24155D01*
X42174Y-24056D01*
X42174Y-23356D01*
X42136Y-23264D01*
X42066Y-23193D01*
X42009Y-23170D01*
X42083Y-23096D01*
X42174Y-22875D01*
X42174Y-22637D01*
X42174Y-27441D01*
X42112Y-27591D01*
X42112Y-27957D01*
X42251Y-28295D01*
X42510Y-28554D01*
X42847Y-28694D01*
X43213Y-28695D01*
X43551Y-28555D01*
X43810Y-28297D01*
X43950Y-27959D01*
X43950Y-27593D01*
X43950Y-34400D01*
X40700Y-34400D01*
X40608Y-34438D01*
X40538Y-34508D01*
X40500Y-34600D01*
X40500Y-34699D01*
X40500Y-38199D01*
X40538Y-38291D01*
X40608Y-38361D01*
X40700Y-38400D01*
X40799Y-38400D01*
X44299Y-38400D01*
X44391Y-38361D01*
X44461Y-38291D01*
X44500Y-38199D01*
X44500Y-39857D01*
X44397Y-39755D01*
X44204Y-39675D01*
X43996Y-39674D01*
X43803Y-39754D01*
X43655Y-39902D01*
X43575Y-40095D01*
X43574Y-40303D01*
X43654Y-40497D01*
X43802Y-40644D01*
X43995Y-40724D01*
X44203Y-40725D01*
X44397Y-40645D01*
X44544Y-40497D01*
X44600Y-40364D01*
X44654Y-40497D01*
X44802Y-40644D01*
X44995Y-40724D01*
X45203Y-40725D01*
X45397Y-40645D01*
X45544Y-40497D01*
X45624Y-40304D01*
X45625Y-40096D01*
X45625Y-42187D01*
X45618Y-42067D01*
X45560Y-41927D01*
X45467Y-41902D01*
X45397Y-41973D01*
X45397Y-41832D01*
X45372Y-41739D01*
X45175Y-41670D01*
X44967Y-41681D01*
X44827Y-41739D01*
X44802Y-41832D01*
X45100Y-42129D01*
X45397Y-41832D01*
X45397Y-41973D01*
X45170Y-42200D01*
X45467Y-42497D01*
X45560Y-42472D01*
X45629Y-42275D01*
X45629Y-63320D01*
X45625Y-63320D01*
X45625Y-44096D01*
X45545Y-43903D01*
X45397Y-43755D01*
X45397Y-43754D01*
X45397Y-42567D01*
X45100Y-42270D01*
X45029Y-42341D01*
X45029Y-42200D01*
X44732Y-41902D01*
X44639Y-41927D01*
X44600Y-42037D01*
X44545Y-41903D01*
X44397Y-41755D01*
X44204Y-41675D01*
X43996Y-41674D01*
X43803Y-41754D01*
X43655Y-41902D01*
X43575Y-42095D01*
X43574Y-42303D01*
X43654Y-42497D01*
X43802Y-42644D01*
X43995Y-42724D01*
X44203Y-42725D01*
X44397Y-42645D01*
X44544Y-42497D01*
X44597Y-42371D01*
X44639Y-42472D01*
X44732Y-42497D01*
X45029Y-42200D01*
X45029Y-42341D01*
X44802Y-42567D01*
X44827Y-42660D01*
X45024Y-42729D01*
X45232Y-42718D01*
X45372Y-42660D01*
X45397Y-42567D01*
X45397Y-43754D01*
X45204Y-43675D01*
X44996Y-43674D01*
X44803Y-43754D01*
X44655Y-43902D01*
X44599Y-44035D01*
X44545Y-43903D01*
X44397Y-43755D01*
X44204Y-43675D01*
X43996Y-43674D01*
X43803Y-43754D01*
X43655Y-43902D01*
X43575Y-44095D01*
X43574Y-44303D01*
X43654Y-44497D01*
X43802Y-44644D01*
X43995Y-44724D01*
X44203Y-44725D01*
X44397Y-44645D01*
X44544Y-44497D01*
X44600Y-44364D01*
X44654Y-44497D01*
X44802Y-44644D01*
X44995Y-44724D01*
X45203Y-44725D01*
X45397Y-44645D01*
X45544Y-44497D01*
X45624Y-44304D01*
X45625Y-44096D01*
X45625Y-63320D01*
X45425Y-63320D01*
X45425Y-53915D01*
X45360Y-53759D01*
X45350Y-53749D01*
X45350Y-50251D01*
X45360Y-50241D01*
X45424Y-50084D01*
X45425Y-49915D01*
X45360Y-49759D01*
X45241Y-49639D01*
X45084Y-49575D01*
X44915Y-49574D01*
X44759Y-49639D01*
X44639Y-49758D01*
X44575Y-49915D01*
X44574Y-50084D01*
X44639Y-50240D01*
X44650Y-50250D01*
X44650Y-53748D01*
X44639Y-53758D01*
X44575Y-53915D01*
X44574Y-54084D01*
X44639Y-54240D01*
X44758Y-54360D01*
X44915Y-54424D01*
X45084Y-54425D01*
X45240Y-54360D01*
X45360Y-54241D01*
X45424Y-54084D01*
X45425Y-53915D01*
X45425Y-63320D01*
X44142Y-63320D01*
X44142Y-59045D01*
X44142Y-53021D01*
X44142Y-51053D01*
X44142Y-49084D01*
X44029Y-48811D01*
X43820Y-48602D01*
X43548Y-48489D01*
X43253Y-48489D01*
X42980Y-48601D01*
X42771Y-48810D01*
X42658Y-49083D01*
X42657Y-49378D01*
X42770Y-49651D01*
X42979Y-49860D01*
X43251Y-49973D01*
X43546Y-49973D01*
X43819Y-49861D01*
X44028Y-49652D01*
X44141Y-49379D01*
X44142Y-49084D01*
X44142Y-51053D01*
X44029Y-50780D01*
X43820Y-50571D01*
X43548Y-50458D01*
X43253Y-50457D01*
X42980Y-50570D01*
X42771Y-50779D01*
X42658Y-51051D01*
X42657Y-51346D01*
X42770Y-51619D01*
X42979Y-51828D01*
X43251Y-51941D01*
X43546Y-51942D01*
X43819Y-51829D01*
X44028Y-51620D01*
X44141Y-51348D01*
X44142Y-51053D01*
X44142Y-53021D01*
X44029Y-52748D01*
X43820Y-52539D01*
X43548Y-52426D01*
X43253Y-52426D01*
X42980Y-52538D01*
X42771Y-52747D01*
X42658Y-53020D01*
X42657Y-53315D01*
X42687Y-53386D01*
X42223Y-53850D01*
X41725Y-53850D01*
X41725Y-43596D01*
X41645Y-43403D01*
X41497Y-43255D01*
X41364Y-43199D01*
X41497Y-43145D01*
X41644Y-42997D01*
X41724Y-42804D01*
X41725Y-42596D01*
X41725Y-40796D01*
X41645Y-40603D01*
X41497Y-40455D01*
X41364Y-40399D01*
X41497Y-40345D01*
X41644Y-40197D01*
X41724Y-40004D01*
X41725Y-39796D01*
X41645Y-39603D01*
X41497Y-39455D01*
X41304Y-39375D01*
X41096Y-39374D01*
X41025Y-39404D01*
X41025Y-38915D01*
X40960Y-38759D01*
X40841Y-38639D01*
X40684Y-38575D01*
X40515Y-38574D01*
X40359Y-38639D01*
X40349Y-38650D01*
X39651Y-38650D01*
X39641Y-38639D01*
X39484Y-38575D01*
X39315Y-38574D01*
X39159Y-38639D01*
X39039Y-38758D01*
X38975Y-38915D01*
X38974Y-39084D01*
X39039Y-39240D01*
X39158Y-39360D01*
X39315Y-39424D01*
X39484Y-39425D01*
X39640Y-39360D01*
X39650Y-39350D01*
X40348Y-39350D01*
X40358Y-39360D01*
X40515Y-39424D01*
X40684Y-39425D01*
X40840Y-39360D01*
X40960Y-39241D01*
X41024Y-39084D01*
X41025Y-38915D01*
X41025Y-39404D01*
X40903Y-39454D01*
X40807Y-39550D01*
X39192Y-39550D01*
X39097Y-39455D01*
X38904Y-39375D01*
X38696Y-39374D01*
X38503Y-39454D01*
X38355Y-39602D01*
X38275Y-39795D01*
X38274Y-40003D01*
X38354Y-40197D01*
X38502Y-40344D01*
X38628Y-40397D01*
X38527Y-40439D01*
X38502Y-40532D01*
X38800Y-40829D01*
X39097Y-40532D01*
X39072Y-40439D01*
X38962Y-40400D01*
X39097Y-40345D01*
X39192Y-40250D01*
X40807Y-40250D01*
X40902Y-40344D01*
X41035Y-40400D01*
X40903Y-40454D01*
X40755Y-40602D01*
X40675Y-40795D01*
X40674Y-41003D01*
X40754Y-41197D01*
X40902Y-41344D01*
X41095Y-41424D01*
X41303Y-41425D01*
X41497Y-41345D01*
X41644Y-41197D01*
X41724Y-41004D01*
X41725Y-40796D01*
X41725Y-42596D01*
X41645Y-42403D01*
X41497Y-42255D01*
X41304Y-42175D01*
X41096Y-42174D01*
X40903Y-42254D01*
X40755Y-42402D01*
X40675Y-42595D01*
X40674Y-42803D01*
X40754Y-42997D01*
X40902Y-43144D01*
X41035Y-43200D01*
X40903Y-43254D01*
X40755Y-43402D01*
X40675Y-43595D01*
X40674Y-43803D01*
X40754Y-43997D01*
X40902Y-44144D01*
X41095Y-44224D01*
X41303Y-44225D01*
X41497Y-44145D01*
X41644Y-43997D01*
X41724Y-43804D01*
X41725Y-43596D01*
X41725Y-53850D01*
X40741Y-53850D01*
X40867Y-53798D01*
X41076Y-53589D01*
X41189Y-53316D01*
X41189Y-53021D01*
X41189Y-51053D01*
X41189Y-49084D01*
X41076Y-48811D01*
X40868Y-48602D01*
X40595Y-48489D01*
X40300Y-48489D01*
X40027Y-48601D01*
X39818Y-48810D01*
X39705Y-49083D01*
X39704Y-49378D01*
X39817Y-49651D01*
X40026Y-49860D01*
X40298Y-49973D01*
X40594Y-49973D01*
X40867Y-49861D01*
X41076Y-49652D01*
X41189Y-49379D01*
X41189Y-49084D01*
X41189Y-51053D01*
X41076Y-50780D01*
X40868Y-50571D01*
X40595Y-50458D01*
X40300Y-50457D01*
X40027Y-50570D01*
X39818Y-50779D01*
X39705Y-51051D01*
X39704Y-51346D01*
X39817Y-51619D01*
X40026Y-51828D01*
X40298Y-51941D01*
X40594Y-51942D01*
X40867Y-51829D01*
X41076Y-51620D01*
X41189Y-51348D01*
X41189Y-51053D01*
X41189Y-53021D01*
X41076Y-52748D01*
X40868Y-52539D01*
X40595Y-52426D01*
X40300Y-52426D01*
X40027Y-52538D01*
X39818Y-52747D01*
X39705Y-53020D01*
X39705Y-53210D01*
X39329Y-52834D01*
X39329Y-43775D01*
X39329Y-40975D01*
X39318Y-40767D01*
X39260Y-40627D01*
X39167Y-40602D01*
X38870Y-40900D01*
X39167Y-41197D01*
X39260Y-41172D01*
X39329Y-40975D01*
X39329Y-43775D01*
X39325Y-43687D01*
X39325Y-42596D01*
X39245Y-42403D01*
X39097Y-42255D01*
X39097Y-42254D01*
X39097Y-41267D01*
X38800Y-40970D01*
X38729Y-41041D01*
X38729Y-40900D01*
X38432Y-40602D01*
X38339Y-40627D01*
X38270Y-40824D01*
X38281Y-41032D01*
X38339Y-41172D01*
X38432Y-41197D01*
X38729Y-40900D01*
X38729Y-41041D01*
X38502Y-41267D01*
X38527Y-41360D01*
X38724Y-41429D01*
X38932Y-41418D01*
X39072Y-41360D01*
X39097Y-41267D01*
X39097Y-42254D01*
X38904Y-42175D01*
X38696Y-42174D01*
X38503Y-42254D01*
X38355Y-42402D01*
X38275Y-42595D01*
X38274Y-42803D01*
X38354Y-42997D01*
X38502Y-43144D01*
X38628Y-43197D01*
X38527Y-43239D01*
X38502Y-43332D01*
X38800Y-43629D01*
X39097Y-43332D01*
X39072Y-43239D01*
X38962Y-43200D01*
X39097Y-43145D01*
X39244Y-42997D01*
X39324Y-42804D01*
X39325Y-42596D01*
X39325Y-43687D01*
X39318Y-43567D01*
X39260Y-43427D01*
X39167Y-43402D01*
X38870Y-43700D01*
X39167Y-43997D01*
X39260Y-43972D01*
X39329Y-43775D01*
X39329Y-52834D01*
X39247Y-52752D01*
X39133Y-52676D01*
X39097Y-52669D01*
X39097Y-44067D01*
X38800Y-43770D01*
X38729Y-43841D01*
X38729Y-43700D01*
X38432Y-43402D01*
X38339Y-43427D01*
X38270Y-43624D01*
X38281Y-43832D01*
X38339Y-43972D01*
X38432Y-43997D01*
X38729Y-43700D01*
X38729Y-43841D01*
X38502Y-44067D01*
X38527Y-44160D01*
X38724Y-44229D01*
X38932Y-44218D01*
X39072Y-44160D01*
X39097Y-44067D01*
X39097Y-52669D01*
X39000Y-52650D01*
X37629Y-52650D01*
X37629Y-23075D01*
X37625Y-22987D01*
X37625Y-20896D01*
X37545Y-20703D01*
X37397Y-20555D01*
X37204Y-20475D01*
X36996Y-20474D01*
X36851Y-20534D01*
X36851Y-15401D01*
X36848Y-14983D01*
X36694Y-14611D01*
X36547Y-14523D01*
X36476Y-14594D01*
X36476Y-14452D01*
X36388Y-14305D01*
X36001Y-14148D01*
X35583Y-14151D01*
X35211Y-14305D01*
X35123Y-14452D01*
X35800Y-15129D01*
X36476Y-14452D01*
X36476Y-14594D01*
X35870Y-15200D01*
X36547Y-15876D01*
X36694Y-15788D01*
X36851Y-15401D01*
X36851Y-20534D01*
X36803Y-20554D01*
X36655Y-20702D01*
X36599Y-20835D01*
X36545Y-20703D01*
X36476Y-20634D01*
X36476Y-15947D01*
X35800Y-15270D01*
X35729Y-15341D01*
X35729Y-15200D01*
X35052Y-14523D01*
X34905Y-14611D01*
X34748Y-14998D01*
X34751Y-15416D01*
X34905Y-15788D01*
X35052Y-15876D01*
X35729Y-15200D01*
X35729Y-15341D01*
X35123Y-15947D01*
X35211Y-16094D01*
X35598Y-16251D01*
X36016Y-16248D01*
X36388Y-16094D01*
X36476Y-15947D01*
X36476Y-20634D01*
X36397Y-20555D01*
X36204Y-20475D01*
X35996Y-20474D01*
X35803Y-20554D01*
X35655Y-20702D01*
X35575Y-20895D01*
X35574Y-21103D01*
X35654Y-21297D01*
X35802Y-21444D01*
X35995Y-21524D01*
X36203Y-21525D01*
X36397Y-21445D01*
X36544Y-21297D01*
X36600Y-21164D01*
X36654Y-21297D01*
X36802Y-21444D01*
X36995Y-21524D01*
X37203Y-21525D01*
X37397Y-21445D01*
X37544Y-21297D01*
X37624Y-21104D01*
X37625Y-20896D01*
X37625Y-22987D01*
X37618Y-22867D01*
X37560Y-22727D01*
X37467Y-22702D01*
X37397Y-22773D01*
X37397Y-22632D01*
X37372Y-22539D01*
X37175Y-22470D01*
X36967Y-22481D01*
X36827Y-22539D01*
X36802Y-22632D01*
X37100Y-22929D01*
X37397Y-22632D01*
X37397Y-22773D01*
X37170Y-23000D01*
X37467Y-23297D01*
X37560Y-23272D01*
X37629Y-23075D01*
X37629Y-52650D01*
X37625Y-52650D01*
X37625Y-24896D01*
X37545Y-24703D01*
X37397Y-24555D01*
X37397Y-24554D01*
X37397Y-23367D01*
X37100Y-23070D01*
X37029Y-23141D01*
X37029Y-23000D01*
X36732Y-22702D01*
X36639Y-22727D01*
X36600Y-22837D01*
X36545Y-22703D01*
X36397Y-22555D01*
X36204Y-22475D01*
X35996Y-22474D01*
X35803Y-22554D01*
X35655Y-22702D01*
X35575Y-22895D01*
X35574Y-23103D01*
X35654Y-23297D01*
X35802Y-23444D01*
X35995Y-23524D01*
X36203Y-23525D01*
X36397Y-23445D01*
X36544Y-23297D01*
X36597Y-23171D01*
X36639Y-23272D01*
X36732Y-23297D01*
X37029Y-23000D01*
X37029Y-23141D01*
X36802Y-23367D01*
X36827Y-23460D01*
X37024Y-23529D01*
X37232Y-23518D01*
X37372Y-23460D01*
X37397Y-23367D01*
X37397Y-24554D01*
X37204Y-24475D01*
X36996Y-24474D01*
X36803Y-24554D01*
X36655Y-24702D01*
X36599Y-24835D01*
X36545Y-24703D01*
X36397Y-24555D01*
X36204Y-24475D01*
X35996Y-24474D01*
X35803Y-24554D01*
X35655Y-24702D01*
X35575Y-24895D01*
X35574Y-25103D01*
X35654Y-25297D01*
X35802Y-25444D01*
X35995Y-25524D01*
X36203Y-25525D01*
X36397Y-25445D01*
X36544Y-25297D01*
X36600Y-25164D01*
X36654Y-25297D01*
X36802Y-25444D01*
X36995Y-25524D01*
X37203Y-25525D01*
X37397Y-25445D01*
X37544Y-25297D01*
X37624Y-25104D01*
X37625Y-24896D01*
X37625Y-52650D01*
X37561Y-52650D01*
X37561Y-50880D01*
X37561Y-48433D01*
X37561Y-46464D01*
X37446Y-46184D01*
X37232Y-45970D01*
X37025Y-45884D01*
X37025Y-38896D01*
X37025Y-33296D01*
X36945Y-33103D01*
X36797Y-32955D01*
X36604Y-32875D01*
X36396Y-32874D01*
X36203Y-32954D01*
X36055Y-33102D01*
X36002Y-33228D01*
X35960Y-33127D01*
X35867Y-33102D01*
X35797Y-33173D01*
X35797Y-33032D01*
X35772Y-32939D01*
X35575Y-32870D01*
X35367Y-32881D01*
X35227Y-32939D01*
X35202Y-33032D01*
X35500Y-33329D01*
X35797Y-33032D01*
X35797Y-33173D01*
X35570Y-33400D01*
X35867Y-33697D01*
X35960Y-33672D01*
X35999Y-33562D01*
X36054Y-33697D01*
X36202Y-33844D01*
X36395Y-33924D01*
X36603Y-33925D01*
X36797Y-33845D01*
X36944Y-33697D01*
X37024Y-33504D01*
X37025Y-33296D01*
X37025Y-38896D01*
X36945Y-38703D01*
X36797Y-38555D01*
X36604Y-38475D01*
X36600Y-38475D01*
X36600Y-37281D01*
X36600Y-35281D01*
X36508Y-35060D01*
X36340Y-34891D01*
X36119Y-34800D01*
X35881Y-34799D01*
X35797Y-34834D01*
X35797Y-33767D01*
X35500Y-33470D01*
X35429Y-33541D01*
X35429Y-33400D01*
X35132Y-33102D01*
X35039Y-33127D01*
X34970Y-33324D01*
X34981Y-33532D01*
X35039Y-33672D01*
X35132Y-33697D01*
X35429Y-33400D01*
X35429Y-33541D01*
X35202Y-33767D01*
X35227Y-33860D01*
X35424Y-33929D01*
X35632Y-33918D01*
X35772Y-33860D01*
X35797Y-33767D01*
X35797Y-34834D01*
X35660Y-34891D01*
X35491Y-35059D01*
X35400Y-35280D01*
X35399Y-35518D01*
X35491Y-35739D01*
X35565Y-35814D01*
X35508Y-35838D01*
X35438Y-35908D01*
X35400Y-36000D01*
X35400Y-36099D01*
X35400Y-36287D01*
X35462Y-36350D01*
X35950Y-36350D01*
X35950Y-36342D01*
X36050Y-36342D01*
X36050Y-36350D01*
X36537Y-36350D01*
X36600Y-36287D01*
X36600Y-36099D01*
X36600Y-36000D01*
X36561Y-35908D01*
X36491Y-35838D01*
X36434Y-35814D01*
X36508Y-35740D01*
X36599Y-35519D01*
X36600Y-35281D01*
X36600Y-37281D01*
X36508Y-37060D01*
X36434Y-36985D01*
X36491Y-36961D01*
X36561Y-36891D01*
X36600Y-36799D01*
X36600Y-36700D01*
X36600Y-36512D01*
X36537Y-36450D01*
X36050Y-36450D01*
X36050Y-36457D01*
X35950Y-36457D01*
X35950Y-36450D01*
X35462Y-36450D01*
X35400Y-36512D01*
X35400Y-36700D01*
X35400Y-36799D01*
X35438Y-36891D01*
X35508Y-36961D01*
X35565Y-36985D01*
X35491Y-37059D01*
X35400Y-37280D01*
X35399Y-37518D01*
X35491Y-37739D01*
X35659Y-37908D01*
X35880Y-37999D01*
X36118Y-38000D01*
X36339Y-37908D01*
X36508Y-37740D01*
X36599Y-37519D01*
X36600Y-37281D01*
X36600Y-38475D01*
X36396Y-38474D01*
X36203Y-38554D01*
X36055Y-38702D01*
X36002Y-38828D01*
X35960Y-38727D01*
X35867Y-38702D01*
X35797Y-38773D01*
X35797Y-38632D01*
X35772Y-38539D01*
X35575Y-38470D01*
X35367Y-38481D01*
X35227Y-38539D01*
X35202Y-38632D01*
X35500Y-38929D01*
X35797Y-38632D01*
X35797Y-38773D01*
X35570Y-39000D01*
X35867Y-39297D01*
X35960Y-39272D01*
X35999Y-39162D01*
X36054Y-39297D01*
X36202Y-39444D01*
X36395Y-39524D01*
X36603Y-39525D01*
X36797Y-39445D01*
X36944Y-39297D01*
X37024Y-39104D01*
X37025Y-38896D01*
X37025Y-45884D01*
X36952Y-45854D01*
X36851Y-45853D01*
X36851Y-43801D01*
X36848Y-43383D01*
X36694Y-43011D01*
X36547Y-42923D01*
X36476Y-42994D01*
X36476Y-42852D01*
X36388Y-42705D01*
X36001Y-42548D01*
X35797Y-42549D01*
X35797Y-39367D01*
X35500Y-39070D01*
X35429Y-39141D01*
X35429Y-39000D01*
X35132Y-38702D01*
X35039Y-38727D01*
X34970Y-38924D01*
X34981Y-39132D01*
X35039Y-39272D01*
X35132Y-39297D01*
X35429Y-39000D01*
X35429Y-39141D01*
X35202Y-39367D01*
X35227Y-39460D01*
X35424Y-39529D01*
X35632Y-39518D01*
X35772Y-39460D01*
X35797Y-39367D01*
X35797Y-42549D01*
X35583Y-42551D01*
X35211Y-42705D01*
X35123Y-42852D01*
X35800Y-43529D01*
X36476Y-42852D01*
X36476Y-42994D01*
X35870Y-43600D01*
X36547Y-44276D01*
X36694Y-44188D01*
X36851Y-43801D01*
X36851Y-45853D01*
X36649Y-45853D01*
X36476Y-45925D01*
X36476Y-44347D01*
X35800Y-43670D01*
X35729Y-43741D01*
X35729Y-43600D01*
X35052Y-42923D01*
X34905Y-43011D01*
X34748Y-43398D01*
X34751Y-43816D01*
X34905Y-44188D01*
X35052Y-44276D01*
X35729Y-43600D01*
X35729Y-43741D01*
X35123Y-44347D01*
X35211Y-44494D01*
X35598Y-44651D01*
X36016Y-44648D01*
X36388Y-44494D01*
X36476Y-44347D01*
X36476Y-45925D01*
X36369Y-45969D01*
X36154Y-46183D01*
X36038Y-46463D01*
X36038Y-46766D01*
X36153Y-47046D01*
X36367Y-47261D01*
X36647Y-47377D01*
X36950Y-47377D01*
X37230Y-47261D01*
X37445Y-47047D01*
X37561Y-46767D01*
X37561Y-46464D01*
X37561Y-48433D01*
X37446Y-48153D01*
X37232Y-47938D01*
X36952Y-47822D01*
X36649Y-47822D01*
X36369Y-47938D01*
X36154Y-48152D01*
X36038Y-48432D01*
X36038Y-48735D01*
X36153Y-49015D01*
X36367Y-49229D01*
X36647Y-49345D01*
X36950Y-49346D01*
X37230Y-49230D01*
X37445Y-49016D01*
X37561Y-48736D01*
X37561Y-48433D01*
X37561Y-50880D01*
X37446Y-50600D01*
X37232Y-50386D01*
X36952Y-50269D01*
X36649Y-50269D01*
X36369Y-50385D01*
X36154Y-50599D01*
X36038Y-50879D01*
X36038Y-51182D01*
X36153Y-51462D01*
X36367Y-51676D01*
X36647Y-51793D01*
X36950Y-51793D01*
X37230Y-51677D01*
X37445Y-51463D01*
X37561Y-51183D01*
X37561Y-50880D01*
X37561Y-52650D01*
X37479Y-52650D01*
X37446Y-52569D01*
X37232Y-52354D01*
X36952Y-52238D01*
X36649Y-52238D01*
X36369Y-52353D01*
X36154Y-52567D01*
X36038Y-52847D01*
X36038Y-53150D01*
X36153Y-53430D01*
X36367Y-53645D01*
X36647Y-53761D01*
X36950Y-53761D01*
X37230Y-53646D01*
X37445Y-53432D01*
X37479Y-53350D01*
X38855Y-53350D01*
X39952Y-54447D01*
X40066Y-54523D01*
X40066Y-54523D01*
X40200Y-54550D01*
X42368Y-54550D01*
X42502Y-54523D01*
X42502Y-54523D01*
X42615Y-54447D01*
X43181Y-53881D01*
X43251Y-53910D01*
X43546Y-53910D01*
X43819Y-53798D01*
X44028Y-53589D01*
X44141Y-53316D01*
X44142Y-53021D01*
X44142Y-59045D01*
X44029Y-58772D01*
X43820Y-58563D01*
X43548Y-58450D01*
X43253Y-58449D01*
X42980Y-58562D01*
X42771Y-58771D01*
X42658Y-59043D01*
X42657Y-59339D01*
X42770Y-59611D01*
X42979Y-59820D01*
X43251Y-59934D01*
X43546Y-59934D01*
X43819Y-59821D01*
X44028Y-59613D01*
X44141Y-59340D01*
X44142Y-59045D01*
X44142Y-63320D01*
X43229Y-63320D01*
X43229Y-61475D01*
X43218Y-61267D01*
X43160Y-61127D01*
X43067Y-61102D01*
X42997Y-61173D01*
X42997Y-61032D01*
X42972Y-60939D01*
X42775Y-60870D01*
X42567Y-60881D01*
X42427Y-60939D01*
X42402Y-61032D01*
X42700Y-61329D01*
X42997Y-61032D01*
X42997Y-61173D01*
X42770Y-61400D01*
X43067Y-61697D01*
X43160Y-61672D01*
X43229Y-61475D01*
X43229Y-63320D01*
X42997Y-63320D01*
X42997Y-61767D01*
X42700Y-61470D01*
X42629Y-61541D01*
X42629Y-61400D01*
X42332Y-61102D01*
X42239Y-61127D01*
X42200Y-61237D01*
X42145Y-61103D01*
X41997Y-60955D01*
X41804Y-60875D01*
X41596Y-60874D01*
X41403Y-60954D01*
X41255Y-61102D01*
X41189Y-61260D01*
X41189Y-59045D01*
X41076Y-58772D01*
X40868Y-58563D01*
X40595Y-58450D01*
X40300Y-58449D01*
X40027Y-58562D01*
X39818Y-58771D01*
X39705Y-59043D01*
X39704Y-59339D01*
X39817Y-59611D01*
X40026Y-59820D01*
X40298Y-59934D01*
X40594Y-59934D01*
X40867Y-59821D01*
X41076Y-59613D01*
X41189Y-59340D01*
X41189Y-59045D01*
X41189Y-61260D01*
X41175Y-61295D01*
X41174Y-61503D01*
X41254Y-61697D01*
X41402Y-61844D01*
X41595Y-61924D01*
X41803Y-61925D01*
X41997Y-61845D01*
X42144Y-61697D01*
X42197Y-61571D01*
X42239Y-61672D01*
X42332Y-61697D01*
X42629Y-61400D01*
X42629Y-61541D01*
X42402Y-61767D01*
X42427Y-61860D01*
X42624Y-61929D01*
X42832Y-61918D01*
X42972Y-61860D01*
X42997Y-61767D01*
X42997Y-63320D01*
X37561Y-63320D01*
X37561Y-59233D01*
X37561Y-57264D01*
X37561Y-54817D01*
X37446Y-54537D01*
X37232Y-54323D01*
X36952Y-54206D01*
X36649Y-54206D01*
X36369Y-54322D01*
X36154Y-54536D01*
X36038Y-54816D01*
X36038Y-55119D01*
X36153Y-55399D01*
X36367Y-55613D01*
X36647Y-55730D01*
X36950Y-55730D01*
X37230Y-55614D01*
X37445Y-55400D01*
X37561Y-55120D01*
X37561Y-54817D01*
X37561Y-57264D01*
X37446Y-56984D01*
X37232Y-56770D01*
X36952Y-56654D01*
X36649Y-56653D01*
X36369Y-56769D01*
X36154Y-56983D01*
X36038Y-57263D01*
X36038Y-57566D01*
X36153Y-57846D01*
X36367Y-58061D01*
X36647Y-58177D01*
X36950Y-58177D01*
X37230Y-58061D01*
X37445Y-57847D01*
X37561Y-57567D01*
X37561Y-57264D01*
X37561Y-59233D01*
X37446Y-58953D01*
X37232Y-58738D01*
X36952Y-58622D01*
X36649Y-58622D01*
X36369Y-58738D01*
X36154Y-58952D01*
X36038Y-59232D01*
X36038Y-59535D01*
X36153Y-59815D01*
X36367Y-60029D01*
X36647Y-60145D01*
X36950Y-60146D01*
X37230Y-60030D01*
X37445Y-59816D01*
X37561Y-59536D01*
X37561Y-59233D01*
X37561Y-63320D01*
X36851Y-63320D01*
X36851Y-62201D01*
X36848Y-61783D01*
X36694Y-61411D01*
X36547Y-61323D01*
X36476Y-61394D01*
X36476Y-61252D01*
X36388Y-61105D01*
X36001Y-60948D01*
X35583Y-60951D01*
X35211Y-61105D01*
X35123Y-61252D01*
X35800Y-61929D01*
X36476Y-61252D01*
X36476Y-61394D01*
X35870Y-62000D01*
X36547Y-62676D01*
X36694Y-62588D01*
X36851Y-62201D01*
X36851Y-63320D01*
X36476Y-63320D01*
X36476Y-62747D01*
X35800Y-62070D01*
X35729Y-62141D01*
X35729Y-62000D01*
X35052Y-61323D01*
X34905Y-61411D01*
X34748Y-61798D01*
X34751Y-62216D01*
X34905Y-62588D01*
X35052Y-62676D01*
X35729Y-62000D01*
X35729Y-62141D01*
X35123Y-62747D01*
X35211Y-62894D01*
X35598Y-63051D01*
X36016Y-63048D01*
X36388Y-62894D01*
X36476Y-62747D01*
X36476Y-63320D01*
X34479Y-63320D01*
X34479Y-13879D01*
X83920Y-13879D01*
X83920Y-63320D01*
X83920Y-63320D01*
G37*
G54D26*
X83920Y-63320D02*
X83651Y-63320D01*
X83651Y-62201D01*
X83651Y-43801D01*
X83651Y-15401D01*
X83648Y-14983D01*
X83494Y-14611D01*
X83347Y-14523D01*
X83276Y-14594D01*
X83276Y-14452D01*
X83188Y-14305D01*
X82801Y-14148D01*
X82383Y-14151D01*
X82011Y-14305D01*
X81923Y-14452D01*
X82600Y-15129D01*
X83276Y-14452D01*
X83276Y-14594D01*
X82670Y-15200D01*
X83347Y-15876D01*
X83494Y-15788D01*
X83651Y-15401D01*
X83651Y-43801D01*
X83648Y-43383D01*
X83494Y-43011D01*
X83347Y-42923D01*
X83276Y-42994D01*
X83276Y-42852D01*
X83276Y-15947D01*
X82600Y-15270D01*
X82529Y-15341D01*
X82529Y-15200D01*
X81852Y-14523D01*
X81705Y-14611D01*
X81548Y-14998D01*
X81551Y-15416D01*
X81705Y-15788D01*
X81852Y-15876D01*
X82529Y-15200D01*
X82529Y-15341D01*
X81923Y-15947D01*
X82011Y-16094D01*
X82398Y-16251D01*
X82816Y-16248D01*
X83188Y-16094D01*
X83276Y-15947D01*
X83276Y-42852D01*
X83194Y-42716D01*
X83194Y-23666D01*
X83194Y-21698D01*
X83104Y-21479D01*
X82937Y-21312D01*
X82718Y-21221D01*
X82482Y-21221D01*
X82263Y-21311D01*
X82096Y-21478D01*
X82005Y-21696D01*
X82005Y-21933D01*
X82095Y-22152D01*
X82262Y-22319D01*
X82481Y-22410D01*
X82717Y-22410D01*
X82936Y-22320D01*
X83103Y-22152D01*
X83194Y-21934D01*
X83194Y-21698D01*
X83194Y-23666D01*
X83104Y-23447D01*
X82937Y-23280D01*
X82718Y-23189D01*
X82482Y-23189D01*
X82263Y-23279D01*
X82096Y-23447D01*
X82005Y-23665D01*
X82005Y-23901D01*
X82095Y-24120D01*
X82262Y-24287D01*
X82481Y-24378D01*
X82717Y-24378D01*
X82936Y-24288D01*
X83103Y-24121D01*
X83194Y-23903D01*
X83194Y-23666D01*
X83194Y-42716D01*
X83188Y-42705D01*
X82801Y-42548D01*
X82383Y-42551D01*
X82365Y-42559D01*
X82365Y-38948D01*
X82365Y-34548D01*
X82357Y-34245D01*
X82256Y-34000D01*
X82139Y-33947D01*
X82068Y-34018D01*
X82068Y-33876D01*
X82015Y-33759D01*
X81732Y-33650D01*
X81429Y-33657D01*
X81184Y-33759D01*
X81131Y-33876D01*
X81600Y-34345D01*
X82068Y-33876D01*
X82068Y-34018D01*
X81670Y-34415D01*
X82139Y-34884D01*
X82256Y-34830D01*
X82365Y-34548D01*
X82365Y-38948D01*
X82361Y-38811D01*
X82361Y-36233D01*
X82246Y-35953D01*
X82068Y-35775D01*
X82068Y-34954D01*
X81600Y-34486D01*
X81529Y-34557D01*
X81529Y-34415D01*
X81060Y-33947D01*
X80943Y-34000D01*
X80834Y-34283D01*
X80842Y-34586D01*
X80943Y-34830D01*
X81060Y-34884D01*
X81529Y-34415D01*
X81529Y-34557D01*
X81131Y-34954D01*
X81184Y-35072D01*
X81467Y-35181D01*
X81770Y-35173D01*
X82015Y-35072D01*
X82068Y-34954D01*
X82068Y-35775D01*
X82032Y-35738D01*
X81752Y-35622D01*
X81449Y-35622D01*
X81169Y-35738D01*
X80954Y-35952D01*
X80838Y-36232D01*
X80838Y-36535D01*
X80953Y-36815D01*
X81167Y-37029D01*
X81447Y-37145D01*
X81750Y-37146D01*
X82030Y-37030D01*
X82245Y-36816D01*
X82361Y-36536D01*
X82361Y-36233D01*
X82361Y-38811D01*
X82357Y-38645D01*
X82256Y-38400D01*
X82139Y-38347D01*
X82068Y-38418D01*
X82068Y-38276D01*
X82015Y-38159D01*
X81732Y-38050D01*
X81429Y-38057D01*
X81184Y-38159D01*
X81131Y-38276D01*
X81600Y-38745D01*
X82068Y-38276D01*
X82068Y-38418D01*
X81670Y-38815D01*
X82139Y-39284D01*
X82256Y-39230D01*
X82365Y-38948D01*
X82365Y-42559D01*
X82361Y-42560D01*
X82361Y-40633D01*
X82246Y-40353D01*
X82068Y-40175D01*
X82068Y-39354D01*
X81600Y-38886D01*
X81529Y-38957D01*
X81529Y-38815D01*
X81060Y-38347D01*
X80943Y-38400D01*
X80834Y-38683D01*
X80842Y-38986D01*
X80943Y-39230D01*
X81060Y-39284D01*
X81529Y-38815D01*
X81529Y-38957D01*
X81131Y-39354D01*
X81184Y-39472D01*
X81467Y-39581D01*
X81770Y-39573D01*
X82015Y-39472D01*
X82068Y-39354D01*
X82068Y-40175D01*
X82032Y-40138D01*
X81752Y-40022D01*
X81449Y-40022D01*
X81169Y-40138D01*
X80954Y-40352D01*
X80872Y-40550D01*
X79229Y-40550D01*
X79229Y-38875D01*
X79218Y-38667D01*
X79160Y-38527D01*
X79067Y-38502D01*
X78997Y-38573D01*
X78997Y-38432D01*
X78972Y-38339D01*
X78775Y-38270D01*
X78567Y-38281D01*
X78427Y-38339D01*
X78402Y-38432D01*
X78700Y-38729D01*
X78997Y-38432D01*
X78997Y-38573D01*
X78770Y-38800D01*
X79067Y-39097D01*
X79160Y-39072D01*
X79229Y-38875D01*
X79229Y-40550D01*
X78997Y-40550D01*
X78997Y-39167D01*
X78700Y-38870D01*
X78629Y-38941D01*
X78629Y-38800D01*
X78332Y-38502D01*
X78239Y-38527D01*
X78200Y-38637D01*
X78145Y-38503D01*
X77997Y-38355D01*
X77804Y-38275D01*
X77596Y-38274D01*
X77403Y-38354D01*
X77255Y-38502D01*
X77175Y-38695D01*
X77174Y-38903D01*
X77254Y-39097D01*
X77402Y-39244D01*
X77595Y-39324D01*
X77803Y-39325D01*
X77997Y-39245D01*
X78144Y-39097D01*
X78197Y-38971D01*
X78239Y-39072D01*
X78332Y-39097D01*
X78629Y-38800D01*
X78629Y-38941D01*
X78402Y-39167D01*
X78427Y-39260D01*
X78624Y-39329D01*
X78832Y-39318D01*
X78972Y-39260D01*
X78997Y-39167D01*
X78997Y-40550D01*
X78192Y-40550D01*
X78097Y-40455D01*
X77904Y-40375D01*
X77696Y-40374D01*
X77503Y-40454D01*
X77355Y-40602D01*
X77275Y-40795D01*
X77274Y-41003D01*
X77354Y-41197D01*
X77502Y-41344D01*
X77635Y-41400D01*
X77503Y-41454D01*
X77355Y-41602D01*
X77275Y-41795D01*
X77274Y-42003D01*
X77354Y-42197D01*
X77502Y-42344D01*
X77695Y-42424D01*
X77903Y-42425D01*
X78097Y-42345D01*
X78244Y-42197D01*
X78324Y-42004D01*
X78325Y-41796D01*
X78245Y-41603D01*
X78097Y-41455D01*
X77964Y-41399D01*
X78097Y-41345D01*
X78192Y-41250D01*
X80988Y-41250D01*
X81167Y-41429D01*
X81447Y-41545D01*
X81750Y-41546D01*
X82030Y-41430D01*
X82245Y-41216D01*
X82361Y-40936D01*
X82361Y-40633D01*
X82361Y-42560D01*
X82011Y-42705D01*
X81923Y-42852D01*
X82600Y-43529D01*
X83276Y-42852D01*
X83276Y-42994D01*
X82670Y-43600D01*
X83347Y-44276D01*
X83494Y-44188D01*
X83651Y-43801D01*
X83651Y-62201D01*
X83648Y-61783D01*
X83550Y-61545D01*
X83550Y-55991D01*
X83466Y-55788D01*
X83327Y-55650D01*
X83349Y-55650D01*
X83441Y-55611D01*
X83511Y-55541D01*
X83550Y-55449D01*
X83550Y-55350D01*
X83550Y-54750D01*
X83525Y-54690D01*
X83525Y-53796D01*
X83445Y-53603D01*
X83297Y-53455D01*
X83164Y-53399D01*
X83297Y-53345D01*
X83444Y-53197D01*
X83524Y-53004D01*
X83525Y-52796D01*
X83445Y-52603D01*
X83297Y-52455D01*
X83276Y-52446D01*
X83276Y-44347D01*
X82600Y-43670D01*
X82529Y-43741D01*
X82529Y-43600D01*
X81852Y-42923D01*
X81705Y-43011D01*
X81548Y-43398D01*
X81551Y-43816D01*
X81705Y-44188D01*
X81852Y-44276D01*
X82529Y-43600D01*
X82529Y-43741D01*
X81923Y-44347D01*
X82011Y-44494D01*
X82398Y-44651D01*
X82816Y-44648D01*
X83188Y-44494D01*
X83276Y-44347D01*
X83276Y-52446D01*
X83104Y-52375D01*
X82896Y-52374D01*
X82703Y-52454D01*
X82555Y-52602D01*
X82475Y-52795D01*
X82474Y-53003D01*
X82554Y-53197D01*
X82702Y-53344D01*
X82835Y-53400D01*
X82703Y-53454D01*
X82555Y-53602D01*
X82475Y-53795D01*
X82474Y-54003D01*
X82554Y-54197D01*
X82702Y-54344D01*
X82895Y-54424D01*
X83103Y-54425D01*
X83297Y-54345D01*
X83444Y-54197D01*
X83524Y-54004D01*
X83525Y-53796D01*
X83525Y-54690D01*
X83511Y-54658D01*
X83441Y-54588D01*
X83349Y-54550D01*
X83250Y-54550D01*
X82650Y-54550D01*
X82558Y-54588D01*
X82488Y-54658D01*
X82450Y-54750D01*
X82450Y-54849D01*
X82450Y-55449D01*
X82488Y-55541D01*
X82558Y-55611D01*
X82650Y-55650D01*
X82672Y-55650D01*
X82534Y-55788D01*
X82450Y-55990D01*
X82449Y-56208D01*
X82533Y-56411D01*
X82688Y-56565D01*
X82890Y-56649D01*
X83108Y-56650D01*
X83311Y-56566D01*
X83465Y-56411D01*
X83549Y-56209D01*
X83550Y-55991D01*
X83550Y-61545D01*
X83494Y-61411D01*
X83347Y-61323D01*
X83276Y-61394D01*
X83276Y-61252D01*
X83188Y-61105D01*
X82801Y-60948D01*
X82383Y-60951D01*
X82361Y-60960D01*
X82361Y-48233D01*
X82361Y-46264D01*
X82246Y-45984D01*
X82032Y-45770D01*
X81752Y-45654D01*
X81449Y-45653D01*
X81169Y-45769D01*
X80954Y-45983D01*
X80838Y-46263D01*
X80838Y-46566D01*
X80953Y-46846D01*
X81167Y-47061D01*
X81447Y-47177D01*
X81750Y-47177D01*
X82030Y-47061D01*
X82245Y-46847D01*
X82361Y-46567D01*
X82361Y-46264D01*
X82361Y-48233D01*
X82246Y-47953D01*
X82032Y-47738D01*
X81752Y-47622D01*
X81449Y-47622D01*
X81169Y-47738D01*
X80954Y-47952D01*
X80838Y-48232D01*
X80838Y-48535D01*
X80953Y-48815D01*
X81167Y-49029D01*
X81447Y-49145D01*
X81750Y-49146D01*
X82030Y-49030D01*
X82245Y-48816D01*
X82361Y-48536D01*
X82361Y-48233D01*
X82361Y-60960D01*
X82011Y-61105D01*
X81923Y-61252D01*
X82600Y-61929D01*
X83276Y-61252D01*
X83276Y-61394D01*
X82670Y-62000D01*
X83347Y-62676D01*
X83494Y-62588D01*
X83651Y-62201D01*
X83651Y-63320D01*
X83276Y-63320D01*
X83276Y-62747D01*
X82600Y-62070D01*
X82529Y-62141D01*
X82529Y-62000D01*
X81852Y-61323D01*
X81825Y-61340D01*
X81825Y-56196D01*
X81745Y-56003D01*
X81597Y-55855D01*
X81464Y-55799D01*
X81597Y-55745D01*
X81744Y-55597D01*
X81824Y-55404D01*
X81825Y-55196D01*
X81745Y-55003D01*
X81597Y-54855D01*
X81464Y-54799D01*
X81597Y-54745D01*
X81744Y-54597D01*
X81824Y-54404D01*
X81825Y-54196D01*
X81745Y-54003D01*
X81597Y-53855D01*
X81464Y-53799D01*
X81597Y-53745D01*
X81744Y-53597D01*
X81824Y-53404D01*
X81825Y-53196D01*
X81745Y-53003D01*
X81597Y-52855D01*
X81425Y-52783D01*
X81425Y-52115D01*
X81360Y-51959D01*
X81241Y-51839D01*
X81084Y-51775D01*
X80915Y-51774D01*
X80825Y-51812D01*
X80825Y-50896D01*
X80745Y-50703D01*
X80597Y-50555D01*
X80425Y-50483D01*
X80425Y-44915D01*
X80360Y-44759D01*
X80241Y-44639D01*
X80084Y-44575D01*
X79915Y-44574D01*
X79759Y-44639D01*
X79639Y-44758D01*
X79575Y-44915D01*
X79575Y-44929D01*
X78855Y-45650D01*
X77851Y-45650D01*
X77841Y-45639D01*
X77684Y-45575D01*
X77515Y-45574D01*
X77359Y-45639D01*
X77239Y-45758D01*
X77175Y-45915D01*
X77174Y-46084D01*
X77239Y-46240D01*
X77358Y-46360D01*
X77515Y-46424D01*
X77684Y-46425D01*
X77840Y-46360D01*
X77850Y-46350D01*
X79000Y-46350D01*
X79133Y-46323D01*
X79133Y-46323D01*
X79247Y-46247D01*
X80069Y-45425D01*
X80084Y-45425D01*
X80240Y-45360D01*
X80360Y-45241D01*
X80424Y-45084D01*
X80425Y-44915D01*
X80425Y-50483D01*
X80404Y-50475D01*
X80196Y-50474D01*
X80003Y-50554D01*
X79855Y-50702D01*
X79825Y-50774D01*
X79825Y-46915D01*
X79760Y-46759D01*
X79641Y-46639D01*
X79484Y-46575D01*
X79315Y-46574D01*
X79159Y-46639D01*
X79039Y-46758D01*
X78975Y-46915D01*
X78975Y-46929D01*
X78330Y-47574D01*
X78315Y-47574D01*
X78159Y-47639D01*
X78039Y-47758D01*
X77975Y-47915D01*
X77974Y-48084D01*
X78039Y-48240D01*
X78158Y-48360D01*
X78315Y-48424D01*
X78484Y-48425D01*
X78640Y-48360D01*
X78760Y-48241D01*
X78824Y-48084D01*
X78824Y-48070D01*
X79469Y-47425D01*
X79484Y-47425D01*
X79640Y-47360D01*
X79760Y-47241D01*
X79824Y-47084D01*
X79825Y-46915D01*
X79825Y-50774D01*
X79802Y-50828D01*
X79760Y-50727D01*
X79667Y-50702D01*
X79597Y-50773D01*
X79597Y-50632D01*
X79572Y-50539D01*
X79375Y-50470D01*
X79167Y-50481D01*
X79027Y-50539D01*
X79002Y-50632D01*
X79300Y-50929D01*
X79597Y-50632D01*
X79597Y-50773D01*
X79370Y-51000D01*
X79667Y-51297D01*
X79760Y-51272D01*
X79799Y-51162D01*
X79854Y-51297D01*
X80002Y-51444D01*
X80195Y-51524D01*
X80403Y-51525D01*
X80597Y-51445D01*
X80744Y-51297D01*
X80824Y-51104D01*
X80825Y-50896D01*
X80825Y-51812D01*
X80759Y-51839D01*
X80749Y-51850D01*
X79851Y-51850D01*
X79841Y-51839D01*
X79684Y-51775D01*
X79597Y-51774D01*
X79597Y-51367D01*
X79300Y-51070D01*
X79229Y-51141D01*
X79229Y-51000D01*
X78932Y-50702D01*
X78839Y-50727D01*
X78770Y-50924D01*
X78781Y-51132D01*
X78839Y-51272D01*
X78932Y-51297D01*
X79229Y-51000D01*
X79229Y-51141D01*
X79002Y-51367D01*
X79027Y-51460D01*
X79224Y-51529D01*
X79432Y-51518D01*
X79572Y-51460D01*
X79597Y-51367D01*
X79597Y-51774D01*
X79515Y-51774D01*
X79359Y-51839D01*
X79239Y-51958D01*
X79175Y-52115D01*
X79174Y-52284D01*
X79239Y-52440D01*
X79358Y-52560D01*
X79515Y-52624D01*
X79684Y-52625D01*
X79840Y-52560D01*
X79850Y-52550D01*
X80748Y-52550D01*
X80758Y-52560D01*
X80915Y-52624D01*
X81084Y-52625D01*
X81240Y-52560D01*
X81360Y-52441D01*
X81424Y-52284D01*
X81425Y-52115D01*
X81425Y-52783D01*
X81404Y-52775D01*
X81196Y-52774D01*
X81003Y-52854D01*
X80855Y-53002D01*
X80775Y-53195D01*
X80774Y-53403D01*
X80854Y-53597D01*
X81002Y-53744D01*
X81135Y-53800D01*
X81003Y-53854D01*
X80855Y-54002D01*
X80775Y-54195D01*
X80774Y-54403D01*
X80854Y-54597D01*
X81002Y-54744D01*
X81135Y-54800D01*
X81003Y-54854D01*
X80855Y-55002D01*
X80775Y-55195D01*
X80774Y-55403D01*
X80854Y-55597D01*
X81002Y-55744D01*
X81135Y-55800D01*
X81003Y-55854D01*
X80855Y-56002D01*
X80775Y-56195D01*
X80774Y-56403D01*
X80854Y-56597D01*
X81002Y-56744D01*
X81195Y-56824D01*
X81403Y-56825D01*
X81597Y-56745D01*
X81744Y-56597D01*
X81824Y-56404D01*
X81825Y-56196D01*
X81825Y-61340D01*
X81705Y-61411D01*
X81548Y-61798D01*
X81551Y-62216D01*
X81705Y-62588D01*
X81852Y-62676D01*
X82529Y-62000D01*
X82529Y-62141D01*
X81923Y-62747D01*
X82011Y-62894D01*
X82398Y-63051D01*
X82816Y-63048D01*
X83188Y-62894D01*
X83276Y-62747D01*
X83276Y-63320D01*
X78829Y-63320D01*
X78829Y-56375D01*
X78825Y-56287D01*
X78825Y-55196D01*
X78745Y-55003D01*
X78597Y-54855D01*
X78464Y-54799D01*
X78597Y-54745D01*
X78744Y-54597D01*
X78824Y-54404D01*
X78825Y-54196D01*
X78745Y-54003D01*
X78597Y-53855D01*
X78525Y-53825D01*
X78525Y-53825D01*
X78624Y-53825D01*
X78716Y-53786D01*
X78786Y-53716D01*
X78825Y-53624D01*
X78825Y-53412D01*
X78825Y-53187D01*
X78825Y-52975D01*
X78786Y-52883D01*
X78716Y-52813D01*
X78624Y-52775D01*
X78525Y-52775D01*
X78412Y-52775D01*
X78350Y-52837D01*
X78350Y-53250D01*
X78762Y-53250D01*
X78825Y-53187D01*
X78825Y-53412D01*
X78762Y-53350D01*
X78350Y-53350D01*
X78350Y-53357D01*
X78250Y-53357D01*
X78250Y-53350D01*
X78250Y-53250D01*
X78250Y-52837D01*
X78187Y-52775D01*
X78074Y-52775D01*
X77975Y-52775D01*
X77883Y-52813D01*
X77813Y-52883D01*
X77775Y-52975D01*
X77775Y-53187D01*
X77837Y-53250D01*
X78250Y-53250D01*
X78250Y-53350D01*
X77837Y-53350D01*
X77775Y-53412D01*
X77775Y-53624D01*
X77813Y-53716D01*
X77883Y-53786D01*
X77975Y-53825D01*
X78074Y-53825D01*
X78074Y-53825D01*
X78003Y-53854D01*
X77855Y-54002D01*
X77775Y-54195D01*
X77774Y-54403D01*
X77854Y-54597D01*
X78002Y-54744D01*
X78135Y-54800D01*
X78003Y-54854D01*
X77855Y-55002D01*
X77775Y-55195D01*
X77774Y-55403D01*
X77854Y-55597D01*
X78002Y-55744D01*
X78128Y-55797D01*
X78027Y-55839D01*
X78002Y-55932D01*
X78300Y-56229D01*
X78597Y-55932D01*
X78572Y-55839D01*
X78462Y-55800D01*
X78597Y-55745D01*
X78744Y-55597D01*
X78824Y-55404D01*
X78825Y-55196D01*
X78825Y-56287D01*
X78818Y-56167D01*
X78760Y-56027D01*
X78667Y-56002D01*
X78370Y-56300D01*
X78667Y-56597D01*
X78760Y-56572D01*
X78829Y-56375D01*
X78829Y-63320D01*
X78597Y-63320D01*
X78597Y-56667D01*
X78300Y-56370D01*
X78229Y-56441D01*
X78229Y-56300D01*
X77932Y-56002D01*
X77839Y-56027D01*
X77770Y-56224D01*
X77781Y-56432D01*
X77839Y-56572D01*
X77932Y-56597D01*
X78229Y-56300D01*
X78229Y-56441D01*
X78002Y-56667D01*
X78027Y-56760D01*
X78224Y-56829D01*
X78432Y-56818D01*
X78572Y-56760D01*
X78597Y-56667D01*
X78597Y-63320D01*
X77525Y-63320D01*
X77525Y-54196D01*
X77445Y-54003D01*
X77297Y-53855D01*
X77164Y-53799D01*
X77297Y-53745D01*
X77444Y-53597D01*
X77524Y-53404D01*
X77525Y-53196D01*
X77445Y-53003D01*
X77297Y-52855D01*
X77104Y-52775D01*
X76896Y-52774D01*
X76750Y-52835D01*
X76750Y-52651D01*
X76760Y-52641D01*
X76824Y-52484D01*
X76825Y-52315D01*
X76776Y-52197D01*
X76776Y-27637D01*
X76776Y-17637D01*
X76636Y-17299D01*
X76378Y-17040D01*
X76040Y-16900D01*
X75674Y-16900D01*
X75336Y-17039D01*
X75077Y-17298D01*
X74937Y-17636D01*
X74937Y-18001D01*
X75076Y-18339D01*
X75335Y-18598D01*
X75673Y-18738D01*
X76038Y-18739D01*
X76376Y-18599D01*
X76635Y-18341D01*
X76775Y-18003D01*
X76776Y-17637D01*
X76776Y-27637D01*
X76636Y-27299D01*
X76378Y-27040D01*
X76040Y-26900D01*
X75674Y-26900D01*
X75336Y-27039D01*
X75077Y-27298D01*
X75000Y-27485D01*
X75000Y-22681D01*
X74908Y-22460D01*
X74748Y-22299D01*
X74908Y-22140D01*
X74999Y-21919D01*
X75000Y-21681D01*
X74908Y-21460D01*
X74740Y-21291D01*
X74519Y-21200D01*
X74281Y-21199D01*
X74060Y-21291D01*
X73891Y-21459D01*
X73800Y-21680D01*
X73799Y-21918D01*
X73891Y-22139D01*
X74051Y-22300D01*
X73891Y-22459D01*
X73800Y-22680D01*
X73799Y-22918D01*
X73891Y-23139D01*
X73965Y-23214D01*
X73908Y-23238D01*
X73838Y-23308D01*
X73800Y-23400D01*
X73800Y-23499D01*
X73800Y-23798D01*
X71299Y-26299D01*
X71239Y-26358D01*
X71175Y-26515D01*
X71174Y-26684D01*
X71207Y-26762D01*
X71239Y-26840D01*
X71299Y-26900D01*
X71358Y-26960D01*
X71437Y-26992D01*
X71515Y-27024D01*
X71600Y-27025D01*
X71684Y-27025D01*
X71762Y-26992D01*
X71840Y-26960D01*
X71900Y-26900D01*
X71960Y-26841D01*
X71960Y-26840D01*
X74401Y-24400D01*
X74799Y-24400D01*
X74891Y-24361D01*
X74961Y-24291D01*
X75000Y-24199D01*
X75000Y-24100D01*
X75000Y-23400D01*
X74961Y-23308D01*
X74891Y-23238D01*
X74834Y-23214D01*
X74908Y-23140D01*
X74999Y-22919D01*
X75000Y-22681D01*
X75000Y-27485D01*
X74937Y-27636D01*
X74937Y-28001D01*
X75076Y-28339D01*
X75335Y-28598D01*
X75673Y-28738D01*
X76038Y-28739D01*
X76376Y-28599D01*
X76635Y-28341D01*
X76775Y-28003D01*
X76776Y-27637D01*
X76776Y-52197D01*
X76760Y-52159D01*
X76641Y-52039D01*
X76484Y-51975D01*
X76315Y-51974D01*
X76159Y-52039D01*
X76100Y-52098D01*
X76041Y-52039D01*
X75884Y-51975D01*
X75715Y-51974D01*
X75559Y-52039D01*
X75439Y-52158D01*
X75375Y-52315D01*
X75374Y-52484D01*
X75439Y-52640D01*
X75450Y-52650D01*
X75450Y-53855D01*
X75355Y-53950D01*
X75292Y-53950D01*
X75197Y-53855D01*
X75064Y-53799D01*
X75197Y-53745D01*
X75344Y-53597D01*
X75424Y-53404D01*
X75425Y-53196D01*
X75345Y-53003D01*
X75197Y-52855D01*
X75004Y-52775D01*
X74796Y-52774D01*
X74603Y-52854D01*
X74507Y-52950D01*
X74500Y-52950D01*
X74394Y-52970D01*
X74394Y-42666D01*
X74394Y-40698D01*
X74304Y-40479D01*
X74137Y-40312D01*
X73918Y-40221D01*
X73682Y-40221D01*
X73463Y-40311D01*
X73296Y-40478D01*
X73205Y-40696D01*
X73205Y-40933D01*
X73295Y-41152D01*
X73462Y-41319D01*
X73681Y-41410D01*
X73917Y-41410D01*
X74136Y-41320D01*
X74303Y-41152D01*
X74394Y-40934D01*
X74394Y-40698D01*
X74394Y-42666D01*
X74304Y-42447D01*
X74137Y-42280D01*
X73918Y-42189D01*
X73682Y-42189D01*
X73463Y-42279D01*
X73296Y-42447D01*
X73205Y-42665D01*
X73205Y-42901D01*
X73295Y-43120D01*
X73462Y-43287D01*
X73681Y-43378D01*
X73917Y-43378D01*
X74136Y-43288D01*
X74303Y-43121D01*
X74394Y-42903D01*
X74394Y-42666D01*
X74394Y-52970D01*
X74366Y-52976D01*
X74252Y-53052D01*
X73752Y-53552D01*
X73676Y-53666D01*
X73650Y-53800D01*
X73650Y-54755D01*
X72947Y-54052D01*
X72833Y-53976D01*
X72700Y-53950D01*
X72292Y-53950D01*
X72197Y-53855D01*
X72125Y-53825D01*
X72224Y-53825D01*
X72316Y-53786D01*
X72386Y-53716D01*
X72425Y-53624D01*
X72425Y-53525D01*
X72425Y-52975D01*
X72386Y-52883D01*
X72316Y-52813D01*
X72224Y-52775D01*
X72125Y-52775D01*
X71575Y-52775D01*
X71483Y-52813D01*
X71413Y-52883D01*
X71375Y-52975D01*
X71375Y-53074D01*
X71375Y-53624D01*
X71413Y-53716D01*
X71483Y-53786D01*
X71575Y-53825D01*
X71674Y-53825D01*
X71674Y-53825D01*
X71603Y-53854D01*
X71455Y-54002D01*
X71375Y-54195D01*
X71374Y-54403D01*
X71454Y-54597D01*
X71602Y-54744D01*
X71735Y-54800D01*
X71603Y-54854D01*
X71455Y-55002D01*
X71375Y-55195D01*
X71374Y-55403D01*
X71454Y-55597D01*
X71602Y-55744D01*
X71728Y-55797D01*
X71627Y-55839D01*
X71602Y-55932D01*
X71900Y-56229D01*
X72197Y-55932D01*
X72172Y-55839D01*
X72062Y-55800D01*
X72197Y-55745D01*
X72344Y-55597D01*
X72424Y-55404D01*
X72425Y-55196D01*
X72345Y-55003D01*
X72197Y-54855D01*
X72064Y-54799D01*
X72197Y-54745D01*
X72292Y-54650D01*
X72555Y-54650D01*
X73250Y-55344D01*
X73250Y-56948D01*
X73239Y-56958D01*
X73175Y-57115D01*
X73174Y-57284D01*
X73239Y-57440D01*
X73358Y-57560D01*
X73515Y-57624D01*
X73650Y-57625D01*
X73650Y-60238D01*
X73617Y-60238D01*
X73337Y-60353D01*
X73123Y-60567D01*
X73006Y-60847D01*
X73006Y-61150D01*
X73122Y-61430D01*
X73336Y-61645D01*
X73616Y-61761D01*
X73919Y-61761D01*
X74199Y-61646D01*
X74413Y-61432D01*
X74530Y-61152D01*
X74530Y-60849D01*
X74414Y-60569D01*
X74350Y-60504D01*
X74350Y-53944D01*
X74576Y-53718D01*
X74602Y-53744D01*
X74735Y-53800D01*
X74603Y-53854D01*
X74455Y-54002D01*
X74375Y-54195D01*
X74374Y-54403D01*
X74454Y-54597D01*
X74550Y-54692D01*
X74550Y-54907D01*
X74455Y-55002D01*
X74375Y-55195D01*
X74374Y-55403D01*
X74454Y-55597D01*
X74602Y-55744D01*
X74735Y-55800D01*
X74603Y-55854D01*
X74455Y-56002D01*
X74375Y-56195D01*
X74374Y-56403D01*
X74454Y-56597D01*
X74602Y-56744D01*
X74795Y-56824D01*
X75003Y-56825D01*
X75197Y-56745D01*
X75344Y-56597D01*
X75378Y-56516D01*
X76647Y-55247D01*
X76723Y-55133D01*
X76723Y-55133D01*
X76750Y-55000D01*
X76750Y-54764D01*
X76895Y-54824D01*
X77103Y-54825D01*
X77297Y-54745D01*
X77444Y-54597D01*
X77524Y-54404D01*
X77525Y-54196D01*
X77525Y-63320D01*
X72561Y-63320D01*
X72561Y-60849D01*
X72446Y-60569D01*
X72429Y-60552D01*
X72429Y-56375D01*
X72418Y-56167D01*
X72360Y-56027D01*
X72267Y-56002D01*
X71970Y-56300D01*
X72267Y-56597D01*
X72360Y-56572D01*
X72429Y-56375D01*
X72429Y-60552D01*
X72232Y-60354D01*
X72197Y-60340D01*
X72197Y-56667D01*
X71900Y-56370D01*
X71829Y-56441D01*
X71829Y-56300D01*
X71532Y-56002D01*
X71439Y-56027D01*
X71370Y-56224D01*
X71381Y-56432D01*
X71439Y-56572D01*
X71532Y-56597D01*
X71829Y-56300D01*
X71829Y-56441D01*
X71602Y-56667D01*
X71627Y-56760D01*
X71824Y-56829D01*
X72032Y-56818D01*
X72172Y-56760D01*
X72197Y-56667D01*
X72197Y-60340D01*
X71952Y-60238D01*
X71649Y-60238D01*
X71369Y-60353D01*
X71154Y-60567D01*
X71038Y-60847D01*
X71038Y-61150D01*
X71153Y-61430D01*
X71367Y-61645D01*
X71647Y-61761D01*
X71950Y-61761D01*
X72230Y-61646D01*
X72445Y-61432D01*
X72561Y-61152D01*
X72561Y-60849D01*
X72561Y-63320D01*
X70593Y-63320D01*
X70593Y-60849D01*
X70477Y-60569D01*
X70429Y-60521D01*
X70429Y-23075D01*
X70425Y-22987D01*
X70425Y-20896D01*
X70345Y-20703D01*
X70197Y-20555D01*
X70004Y-20475D01*
X69796Y-20474D01*
X69603Y-20554D01*
X69455Y-20702D01*
X69399Y-20835D01*
X69345Y-20703D01*
X69197Y-20555D01*
X69004Y-20475D01*
X68796Y-20474D01*
X68603Y-20554D01*
X68455Y-20702D01*
X68375Y-20895D01*
X68374Y-21103D01*
X68454Y-21297D01*
X68602Y-21444D01*
X68795Y-21524D01*
X69003Y-21525D01*
X69197Y-21445D01*
X69344Y-21297D01*
X69400Y-21164D01*
X69454Y-21297D01*
X69602Y-21444D01*
X69795Y-21524D01*
X70003Y-21525D01*
X70197Y-21445D01*
X70344Y-21297D01*
X70424Y-21104D01*
X70425Y-20896D01*
X70425Y-22987D01*
X70418Y-22867D01*
X70360Y-22727D01*
X70267Y-22702D01*
X70197Y-22773D01*
X70197Y-22632D01*
X70172Y-22539D01*
X69975Y-22470D01*
X69767Y-22481D01*
X69627Y-22539D01*
X69602Y-22632D01*
X69900Y-22929D01*
X70197Y-22632D01*
X70197Y-22773D01*
X69970Y-23000D01*
X70267Y-23297D01*
X70360Y-23272D01*
X70429Y-23075D01*
X70429Y-60521D01*
X70425Y-60516D01*
X70425Y-24896D01*
X70345Y-24703D01*
X70197Y-24555D01*
X70197Y-24554D01*
X70197Y-23367D01*
X69900Y-23070D01*
X69829Y-23141D01*
X69829Y-23000D01*
X69532Y-22702D01*
X69439Y-22727D01*
X69400Y-22837D01*
X69345Y-22703D01*
X69197Y-22555D01*
X69004Y-22475D01*
X68796Y-22474D01*
X68603Y-22554D01*
X68455Y-22702D01*
X68375Y-22895D01*
X68374Y-23103D01*
X68454Y-23297D01*
X68602Y-23444D01*
X68795Y-23524D01*
X69003Y-23525D01*
X69197Y-23445D01*
X69344Y-23297D01*
X69397Y-23171D01*
X69439Y-23272D01*
X69532Y-23297D01*
X69829Y-23000D01*
X69829Y-23141D01*
X69602Y-23367D01*
X69627Y-23460D01*
X69824Y-23529D01*
X70032Y-23518D01*
X70172Y-23460D01*
X70197Y-23367D01*
X70197Y-24554D01*
X70004Y-24475D01*
X69796Y-24474D01*
X69603Y-24554D01*
X69455Y-24702D01*
X69399Y-24835D01*
X69345Y-24703D01*
X69197Y-24555D01*
X69004Y-24475D01*
X68796Y-24474D01*
X68603Y-24554D01*
X68455Y-24702D01*
X68375Y-24895D01*
X68374Y-25103D01*
X68454Y-25297D01*
X68602Y-25444D01*
X68795Y-25524D01*
X69003Y-25525D01*
X69197Y-25445D01*
X69344Y-25297D01*
X69400Y-25164D01*
X69454Y-25297D01*
X69602Y-25444D01*
X69795Y-25524D01*
X70003Y-25525D01*
X70197Y-25445D01*
X70344Y-25297D01*
X70424Y-25104D01*
X70425Y-24896D01*
X70425Y-60516D01*
X70263Y-60354D01*
X70225Y-60338D01*
X70225Y-40715D01*
X70192Y-40637D01*
X70160Y-40559D01*
X70100Y-40499D01*
X70041Y-40439D01*
X69884Y-40375D01*
X69715Y-40374D01*
X69559Y-40439D01*
X69439Y-40558D01*
X69375Y-40715D01*
X69374Y-40884D01*
X69375Y-40884D01*
X69375Y-41423D01*
X68376Y-42422D01*
X68376Y-36637D01*
X68236Y-36299D01*
X67978Y-36040D01*
X67640Y-35900D01*
X67274Y-35900D01*
X66936Y-36039D01*
X66677Y-36298D01*
X66537Y-36636D01*
X66537Y-37001D01*
X66676Y-37339D01*
X66935Y-37598D01*
X67273Y-37738D01*
X67638Y-37739D01*
X67976Y-37599D01*
X68235Y-37341D01*
X68375Y-37003D01*
X68376Y-36637D01*
X68376Y-42422D01*
X68299Y-42499D01*
X68239Y-42558D01*
X68175Y-42715D01*
X68174Y-42884D01*
X68207Y-42962D01*
X68239Y-43040D01*
X68299Y-43100D01*
X68358Y-43160D01*
X68437Y-43192D01*
X68515Y-43224D01*
X68600Y-43225D01*
X68684Y-43225D01*
X68762Y-43192D01*
X68840Y-43160D01*
X68900Y-43100D01*
X68960Y-43041D01*
X68960Y-43040D01*
X70100Y-41900D01*
X70192Y-41762D01*
X70225Y-41600D01*
X70225Y-40800D01*
X70225Y-40800D01*
X70225Y-40715D01*
X70225Y-60338D01*
X69983Y-60238D01*
X69680Y-60238D01*
X69529Y-60300D01*
X69529Y-57175D01*
X69525Y-57087D01*
X69525Y-55996D01*
X69445Y-55803D01*
X69297Y-55655D01*
X69164Y-55599D01*
X69297Y-55545D01*
X69444Y-55397D01*
X69524Y-55204D01*
X69525Y-54996D01*
X69445Y-54803D01*
X69297Y-54655D01*
X69164Y-54599D01*
X69297Y-54545D01*
X69444Y-54397D01*
X69524Y-54204D01*
X69525Y-53996D01*
X69445Y-53803D01*
X69297Y-53655D01*
X69104Y-53575D01*
X68896Y-53574D01*
X68703Y-53654D01*
X68555Y-53802D01*
X68475Y-53995D01*
X68474Y-54203D01*
X68554Y-54397D01*
X68702Y-54544D01*
X68835Y-54600D01*
X68703Y-54654D01*
X68555Y-54802D01*
X68475Y-54995D01*
X68474Y-55203D01*
X68554Y-55397D01*
X68702Y-55544D01*
X68835Y-55600D01*
X68703Y-55654D01*
X68555Y-55802D01*
X68475Y-55995D01*
X68474Y-56203D01*
X68554Y-56397D01*
X68702Y-56544D01*
X68828Y-56597D01*
X68727Y-56639D01*
X68702Y-56732D01*
X69000Y-57029D01*
X69297Y-56732D01*
X69272Y-56639D01*
X69162Y-56600D01*
X69297Y-56545D01*
X69444Y-56397D01*
X69524Y-56204D01*
X69525Y-55996D01*
X69525Y-57087D01*
X69518Y-56967D01*
X69460Y-56827D01*
X69367Y-56802D01*
X69070Y-57100D01*
X69367Y-57397D01*
X69460Y-57372D01*
X69529Y-57175D01*
X69529Y-60300D01*
X69400Y-60353D01*
X69297Y-60457D01*
X69297Y-57467D01*
X69000Y-57170D01*
X68929Y-57241D01*
X68929Y-57100D01*
X68632Y-56802D01*
X68539Y-56827D01*
X68470Y-57024D01*
X68481Y-57232D01*
X68539Y-57372D01*
X68632Y-57397D01*
X68929Y-57100D01*
X68929Y-57241D01*
X68702Y-57467D01*
X68727Y-57560D01*
X68924Y-57629D01*
X69132Y-57618D01*
X69272Y-57560D01*
X69297Y-57467D01*
X69297Y-60457D01*
X69186Y-60567D01*
X69069Y-60847D01*
X69069Y-61150D01*
X69185Y-61430D01*
X69399Y-61645D01*
X69679Y-61761D01*
X69982Y-61761D01*
X70262Y-61646D01*
X70476Y-61432D01*
X70593Y-61152D01*
X70593Y-60849D01*
X70593Y-63320D01*
X68376Y-63320D01*
X68376Y-46637D01*
X68236Y-46299D01*
X67978Y-46040D01*
X67640Y-45900D01*
X67274Y-45900D01*
X66936Y-46039D01*
X66677Y-46298D01*
X66600Y-46485D01*
X66600Y-41681D01*
X66508Y-41460D01*
X66348Y-41299D01*
X66508Y-41140D01*
X66599Y-40919D01*
X66600Y-40681D01*
X66508Y-40460D01*
X66394Y-40346D01*
X66394Y-23666D01*
X66394Y-21698D01*
X66304Y-21479D01*
X66137Y-21312D01*
X65918Y-21221D01*
X65682Y-21221D01*
X65463Y-21311D01*
X65296Y-21478D01*
X65205Y-21696D01*
X65205Y-21933D01*
X65295Y-22152D01*
X65462Y-22319D01*
X65681Y-22410D01*
X65917Y-22410D01*
X66136Y-22320D01*
X66303Y-22152D01*
X66394Y-21934D01*
X66394Y-21698D01*
X66394Y-23666D01*
X66304Y-23447D01*
X66137Y-23280D01*
X65918Y-23189D01*
X65682Y-23189D01*
X65463Y-23279D01*
X65296Y-23447D01*
X65205Y-23665D01*
X65205Y-23901D01*
X65295Y-24120D01*
X65462Y-24287D01*
X65681Y-24378D01*
X65917Y-24378D01*
X66136Y-24288D01*
X66303Y-24121D01*
X66394Y-23903D01*
X66394Y-23666D01*
X66394Y-40346D01*
X66340Y-40291D01*
X66119Y-40200D01*
X65881Y-40199D01*
X65660Y-40291D01*
X65491Y-40459D01*
X65400Y-40680D01*
X65399Y-40918D01*
X65491Y-41139D01*
X65651Y-41300D01*
X65491Y-41459D01*
X65400Y-41680D01*
X65399Y-41918D01*
X65491Y-42139D01*
X65565Y-42214D01*
X65508Y-42238D01*
X65438Y-42308D01*
X65400Y-42400D01*
X65400Y-42499D01*
X65400Y-42798D01*
X62499Y-45699D01*
X62439Y-45758D01*
X62375Y-45915D01*
X62374Y-46084D01*
X62407Y-46162D01*
X62439Y-46240D01*
X62499Y-46300D01*
X62558Y-46360D01*
X62637Y-46392D01*
X62715Y-46424D01*
X62800Y-46425D01*
X62884Y-46425D01*
X62962Y-46392D01*
X63040Y-46360D01*
X63100Y-46300D01*
X63160Y-46241D01*
X63160Y-46240D01*
X66001Y-43400D01*
X66399Y-43400D01*
X66491Y-43361D01*
X66561Y-43291D01*
X66600Y-43199D01*
X66600Y-43100D01*
X66600Y-42400D01*
X66561Y-42308D01*
X66491Y-42238D01*
X66434Y-42214D01*
X66508Y-42140D01*
X66599Y-41919D01*
X66600Y-41681D01*
X66600Y-46485D01*
X66537Y-46636D01*
X66537Y-47001D01*
X66676Y-47339D01*
X66935Y-47598D01*
X67273Y-47738D01*
X67638Y-47739D01*
X67976Y-47599D01*
X68235Y-47341D01*
X68375Y-47003D01*
X68376Y-46637D01*
X68376Y-63320D01*
X67225Y-63320D01*
X67225Y-54824D01*
X67225Y-54725D01*
X67225Y-54175D01*
X67186Y-54083D01*
X67116Y-54013D01*
X67024Y-53975D01*
X66925Y-53975D01*
X66669Y-53975D01*
X66047Y-53352D01*
X65933Y-53276D01*
X65800Y-53250D01*
X62029Y-53250D01*
X62029Y-42275D01*
X62025Y-42187D01*
X62025Y-40096D01*
X61945Y-39903D01*
X61797Y-39755D01*
X61604Y-39675D01*
X61396Y-39674D01*
X61203Y-39754D01*
X61055Y-39902D01*
X60999Y-40035D01*
X60945Y-39903D01*
X60797Y-39755D01*
X60604Y-39675D01*
X60469Y-39674D01*
X60376Y-39581D01*
X60376Y-27637D01*
X60376Y-17637D01*
X60236Y-17299D01*
X59978Y-17040D01*
X59640Y-16900D01*
X59274Y-16900D01*
X58936Y-17039D01*
X58677Y-17298D01*
X58537Y-17636D01*
X58537Y-18001D01*
X58676Y-18339D01*
X58935Y-18598D01*
X59273Y-18738D01*
X59638Y-18739D01*
X59976Y-18599D01*
X60235Y-18341D01*
X60375Y-18003D01*
X60376Y-17637D01*
X60376Y-27637D01*
X60236Y-27299D01*
X59978Y-27040D01*
X59640Y-26900D01*
X59274Y-26900D01*
X58936Y-27039D01*
X58677Y-27298D01*
X58600Y-27485D01*
X58600Y-22681D01*
X58508Y-22460D01*
X58348Y-22299D01*
X58508Y-22140D01*
X58599Y-21919D01*
X58600Y-21681D01*
X58508Y-21460D01*
X58340Y-21291D01*
X58119Y-21200D01*
X57881Y-21199D01*
X57660Y-21291D01*
X57491Y-21459D01*
X57400Y-21680D01*
X57399Y-21918D01*
X57491Y-22139D01*
X57651Y-22300D01*
X57491Y-22459D01*
X57400Y-22680D01*
X57399Y-22918D01*
X57491Y-23139D01*
X57565Y-23214D01*
X57508Y-23238D01*
X57438Y-23308D01*
X57400Y-23400D01*
X57400Y-23499D01*
X57400Y-23798D01*
X54899Y-26299D01*
X54839Y-26358D01*
X54775Y-26515D01*
X54774Y-26684D01*
X54807Y-26762D01*
X54839Y-26840D01*
X54899Y-26900D01*
X54958Y-26960D01*
X55037Y-26992D01*
X55115Y-27024D01*
X55200Y-27025D01*
X55284Y-27025D01*
X55362Y-26992D01*
X55440Y-26960D01*
X55500Y-26900D01*
X55560Y-26841D01*
X55560Y-26840D01*
X58001Y-24400D01*
X58399Y-24400D01*
X58491Y-24361D01*
X58561Y-24291D01*
X58600Y-24199D01*
X58600Y-24100D01*
X58600Y-23400D01*
X58561Y-23308D01*
X58491Y-23238D01*
X58434Y-23214D01*
X58508Y-23140D01*
X58599Y-22919D01*
X58600Y-22681D01*
X58600Y-27485D01*
X58537Y-27636D01*
X58537Y-28001D01*
X58676Y-28339D01*
X58935Y-28598D01*
X59273Y-28738D01*
X59638Y-28739D01*
X59976Y-28599D01*
X60235Y-28341D01*
X60375Y-28003D01*
X60376Y-27637D01*
X60376Y-39581D01*
X54029Y-33234D01*
X54029Y-23075D01*
X54018Y-22867D01*
X53960Y-22727D01*
X53867Y-22702D01*
X53797Y-22773D01*
X53797Y-22632D01*
X53772Y-22539D01*
X53575Y-22470D01*
X53367Y-22481D01*
X53227Y-22539D01*
X53202Y-22632D01*
X53500Y-22929D01*
X53797Y-22632D01*
X53797Y-22773D01*
X53570Y-23000D01*
X53867Y-23297D01*
X53960Y-23272D01*
X54029Y-23075D01*
X54029Y-33234D01*
X54025Y-33230D01*
X54025Y-24896D01*
X53945Y-24703D01*
X53797Y-24555D01*
X53797Y-24554D01*
X53797Y-23367D01*
X53500Y-23070D01*
X53429Y-23141D01*
X53429Y-23000D01*
X53132Y-22702D01*
X53039Y-22727D01*
X53000Y-22837D01*
X52945Y-22703D01*
X52797Y-22555D01*
X52604Y-22475D01*
X52396Y-22474D01*
X52203Y-22554D01*
X52055Y-22702D01*
X51975Y-22895D01*
X51974Y-23103D01*
X52054Y-23297D01*
X52202Y-23444D01*
X52395Y-23524D01*
X52603Y-23525D01*
X52797Y-23445D01*
X52944Y-23297D01*
X52997Y-23171D01*
X53039Y-23272D01*
X53132Y-23297D01*
X53429Y-23000D01*
X53429Y-23141D01*
X53202Y-23367D01*
X53227Y-23460D01*
X53424Y-23529D01*
X53632Y-23518D01*
X53772Y-23460D01*
X53797Y-23367D01*
X53797Y-24554D01*
X53604Y-24475D01*
X53396Y-24474D01*
X53203Y-24554D01*
X53055Y-24702D01*
X52999Y-24835D01*
X52945Y-24703D01*
X52797Y-24555D01*
X52604Y-24475D01*
X52396Y-24474D01*
X52203Y-24554D01*
X52055Y-24702D01*
X51975Y-24895D01*
X51974Y-25103D01*
X52054Y-25297D01*
X52202Y-25444D01*
X52395Y-25524D01*
X52603Y-25525D01*
X52797Y-25445D01*
X52944Y-25297D01*
X53000Y-25164D01*
X53054Y-25297D01*
X53202Y-25444D01*
X53395Y-25524D01*
X53603Y-25525D01*
X53797Y-25445D01*
X53944Y-25297D01*
X54024Y-25104D01*
X54025Y-24896D01*
X54025Y-33230D01*
X51731Y-30936D01*
X51731Y-21581D01*
X51963Y-21350D01*
X52107Y-21350D01*
X52202Y-21444D01*
X52395Y-21524D01*
X52603Y-21525D01*
X52797Y-21445D01*
X52944Y-21297D01*
X53000Y-21164D01*
X53054Y-21297D01*
X53202Y-21444D01*
X53395Y-21524D01*
X53603Y-21525D01*
X53797Y-21445D01*
X53944Y-21297D01*
X54024Y-21104D01*
X54025Y-20896D01*
X53945Y-20703D01*
X53797Y-20555D01*
X53604Y-20475D01*
X53396Y-20474D01*
X53203Y-20554D01*
X53055Y-20702D01*
X52999Y-20835D01*
X52945Y-20703D01*
X52797Y-20555D01*
X52604Y-20475D01*
X52396Y-20474D01*
X52203Y-20554D01*
X52107Y-20650D01*
X51818Y-20650D01*
X51684Y-20676D01*
X51571Y-20752D01*
X51134Y-21189D01*
X51058Y-21303D01*
X51031Y-21437D01*
X51031Y-31081D01*
X51058Y-31215D01*
X51134Y-31329D01*
X59975Y-40170D01*
X59974Y-40303D01*
X60054Y-40497D01*
X60202Y-40644D01*
X60395Y-40724D01*
X60603Y-40725D01*
X60797Y-40645D01*
X60944Y-40497D01*
X61000Y-40364D01*
X61054Y-40497D01*
X61202Y-40644D01*
X61395Y-40724D01*
X61603Y-40725D01*
X61797Y-40645D01*
X61944Y-40497D01*
X62024Y-40304D01*
X62025Y-40096D01*
X62025Y-42187D01*
X62018Y-42067D01*
X61960Y-41927D01*
X61867Y-41902D01*
X61797Y-41973D01*
X61797Y-41832D01*
X61772Y-41739D01*
X61575Y-41670D01*
X61367Y-41681D01*
X61227Y-41739D01*
X61202Y-41832D01*
X61500Y-42129D01*
X61797Y-41832D01*
X61797Y-41973D01*
X61570Y-42200D01*
X61867Y-42497D01*
X61960Y-42472D01*
X62029Y-42275D01*
X62029Y-53250D01*
X62025Y-53250D01*
X62025Y-43896D01*
X61945Y-43703D01*
X61797Y-43555D01*
X61797Y-43554D01*
X61797Y-42567D01*
X61500Y-42270D01*
X61429Y-42341D01*
X61429Y-42200D01*
X61132Y-41902D01*
X61039Y-41927D01*
X61000Y-42037D01*
X60945Y-41903D01*
X60797Y-41755D01*
X60604Y-41675D01*
X60396Y-41674D01*
X60203Y-41754D01*
X60055Y-41902D01*
X59975Y-42095D01*
X59974Y-42303D01*
X60054Y-42497D01*
X60202Y-42644D01*
X60395Y-42724D01*
X60603Y-42725D01*
X60797Y-42645D01*
X60944Y-42497D01*
X60997Y-42371D01*
X61039Y-42472D01*
X61132Y-42497D01*
X61429Y-42200D01*
X61429Y-42341D01*
X61202Y-42567D01*
X61227Y-42660D01*
X61424Y-42729D01*
X61632Y-42718D01*
X61772Y-42660D01*
X61797Y-42567D01*
X61797Y-43554D01*
X61604Y-43475D01*
X61396Y-43474D01*
X61203Y-43554D01*
X61055Y-43702D01*
X60999Y-43835D01*
X60945Y-43703D01*
X60797Y-43555D01*
X60604Y-43475D01*
X60396Y-43474D01*
X60203Y-43554D01*
X60055Y-43702D01*
X59975Y-43895D01*
X59974Y-44103D01*
X60054Y-44297D01*
X60202Y-44444D01*
X60395Y-44524D01*
X60603Y-44525D01*
X60797Y-44445D01*
X60944Y-44297D01*
X61000Y-44164D01*
X61054Y-44297D01*
X61202Y-44444D01*
X61395Y-44524D01*
X61603Y-44525D01*
X61797Y-44445D01*
X61944Y-44297D01*
X62024Y-44104D01*
X62025Y-43896D01*
X62025Y-53250D01*
X60425Y-53250D01*
X60425Y-51624D01*
X60425Y-51525D01*
X60425Y-50975D01*
X60386Y-50883D01*
X60316Y-50813D01*
X60224Y-50775D01*
X60125Y-50775D01*
X59825Y-50775D01*
X59825Y-47115D01*
X59760Y-46959D01*
X59750Y-46949D01*
X59750Y-43651D01*
X59760Y-43641D01*
X59824Y-43484D01*
X59825Y-43315D01*
X59760Y-43159D01*
X59641Y-43039D01*
X59484Y-42975D01*
X59315Y-42974D01*
X59159Y-43039D01*
X59039Y-43158D01*
X58975Y-43315D01*
X58974Y-43484D01*
X59039Y-43640D01*
X59050Y-43650D01*
X59050Y-46948D01*
X59039Y-46958D01*
X58975Y-47115D01*
X58974Y-47284D01*
X59039Y-47440D01*
X59158Y-47560D01*
X59315Y-47624D01*
X59484Y-47625D01*
X59640Y-47560D01*
X59760Y-47441D01*
X59824Y-47284D01*
X59825Y-47115D01*
X59825Y-50775D01*
X59575Y-50775D01*
X59483Y-50813D01*
X59413Y-50883D01*
X59375Y-50975D01*
X59375Y-51074D01*
X59375Y-51074D01*
X59345Y-51003D01*
X59197Y-50855D01*
X59004Y-50775D01*
X58796Y-50774D01*
X58603Y-50854D01*
X58455Y-51002D01*
X58375Y-51195D01*
X58374Y-51403D01*
X58454Y-51597D01*
X58602Y-51744D01*
X58735Y-51800D01*
X58603Y-51854D01*
X58582Y-51875D01*
X58194Y-51875D01*
X58194Y-42666D01*
X58194Y-40698D01*
X58104Y-40479D01*
X57937Y-40312D01*
X57718Y-40221D01*
X57482Y-40221D01*
X57263Y-40311D01*
X57096Y-40478D01*
X57005Y-40696D01*
X57005Y-40933D01*
X57095Y-41152D01*
X57262Y-41319D01*
X57481Y-41410D01*
X57717Y-41410D01*
X57936Y-41320D01*
X58103Y-41152D01*
X58194Y-40934D01*
X58194Y-40698D01*
X58194Y-42666D01*
X58104Y-42447D01*
X57937Y-42280D01*
X57718Y-42189D01*
X57482Y-42189D01*
X57263Y-42279D01*
X57096Y-42447D01*
X57005Y-42665D01*
X57005Y-42901D01*
X57095Y-43120D01*
X57262Y-43287D01*
X57481Y-43378D01*
X57717Y-43378D01*
X57936Y-43288D01*
X58103Y-43121D01*
X58194Y-42903D01*
X58194Y-42666D01*
X58194Y-51875D01*
X54117Y-51875D01*
X54097Y-51855D01*
X53904Y-51775D01*
X53696Y-51774D01*
X53503Y-51854D01*
X53355Y-52002D01*
X53275Y-52195D01*
X53274Y-52403D01*
X53354Y-52597D01*
X53502Y-52744D01*
X53635Y-52800D01*
X53503Y-52854D01*
X53355Y-53002D01*
X53275Y-53195D01*
X53274Y-53403D01*
X53354Y-53597D01*
X53502Y-53744D01*
X53695Y-53824D01*
X53903Y-53825D01*
X54097Y-53745D01*
X54244Y-53597D01*
X54324Y-53404D01*
X54325Y-53196D01*
X54245Y-53003D01*
X54097Y-52855D01*
X53964Y-52799D01*
X54097Y-52745D01*
X54117Y-52725D01*
X58582Y-52725D01*
X58602Y-52744D01*
X58795Y-52824D01*
X59003Y-52825D01*
X59197Y-52745D01*
X59344Y-52597D01*
X59424Y-52404D01*
X59425Y-52196D01*
X59345Y-52003D01*
X59197Y-51855D01*
X59064Y-51799D01*
X59197Y-51745D01*
X59344Y-51597D01*
X59375Y-51525D01*
X59375Y-51624D01*
X59413Y-51716D01*
X59483Y-51786D01*
X59575Y-51825D01*
X59674Y-51825D01*
X60224Y-51825D01*
X60316Y-51786D01*
X60386Y-51716D01*
X60425Y-51624D01*
X60425Y-53250D01*
X60000Y-53250D01*
X59866Y-53276D01*
X59752Y-53352D01*
X59173Y-53931D01*
X59097Y-53855D01*
X58904Y-53775D01*
X58696Y-53774D01*
X58503Y-53854D01*
X58355Y-54002D01*
X58275Y-54195D01*
X58274Y-54403D01*
X58354Y-54597D01*
X58502Y-54744D01*
X58635Y-54800D01*
X58503Y-54854D01*
X58355Y-55002D01*
X58275Y-55195D01*
X58274Y-55403D01*
X58354Y-55597D01*
X58502Y-55744D01*
X58695Y-55824D01*
X58903Y-55825D01*
X59097Y-55745D01*
X59244Y-55597D01*
X59324Y-55404D01*
X59325Y-55196D01*
X59245Y-55003D01*
X59097Y-54855D01*
X58964Y-54799D01*
X59097Y-54745D01*
X59192Y-54650D01*
X59300Y-54650D01*
X59433Y-54623D01*
X59433Y-54623D01*
X59547Y-54547D01*
X59679Y-54415D01*
X59754Y-54597D01*
X59902Y-54744D01*
X60035Y-54800D01*
X59903Y-54854D01*
X59755Y-55002D01*
X59675Y-55195D01*
X59674Y-55403D01*
X59754Y-55597D01*
X59902Y-55744D01*
X60095Y-55824D01*
X60303Y-55825D01*
X60497Y-55745D01*
X60644Y-55597D01*
X60724Y-55404D01*
X60725Y-55196D01*
X60645Y-55003D01*
X60497Y-54855D01*
X60364Y-54799D01*
X60497Y-54745D01*
X60644Y-54597D01*
X60724Y-54404D01*
X60725Y-54196D01*
X60645Y-54003D01*
X60592Y-53950D01*
X62407Y-53950D01*
X62355Y-54002D01*
X62275Y-54195D01*
X62274Y-54403D01*
X62354Y-54597D01*
X62502Y-54744D01*
X62635Y-54800D01*
X62503Y-54854D01*
X62355Y-55002D01*
X62275Y-55195D01*
X62274Y-55403D01*
X62354Y-55597D01*
X62502Y-55744D01*
X62695Y-55824D01*
X62903Y-55825D01*
X63097Y-55745D01*
X63244Y-55597D01*
X63324Y-55404D01*
X63325Y-55196D01*
X63245Y-55003D01*
X63097Y-54855D01*
X62964Y-54799D01*
X63097Y-54745D01*
X63244Y-54597D01*
X63324Y-54404D01*
X63325Y-54196D01*
X63245Y-54003D01*
X63192Y-53950D01*
X65655Y-53950D01*
X65680Y-53974D01*
X65596Y-53974D01*
X65403Y-54054D01*
X65255Y-54202D01*
X65175Y-54395D01*
X65174Y-54603D01*
X65254Y-54797D01*
X65402Y-54944D01*
X65528Y-54997D01*
X65427Y-55039D01*
X65402Y-55132D01*
X65700Y-55429D01*
X65997Y-55132D01*
X65972Y-55039D01*
X65862Y-55000D01*
X65997Y-54945D01*
X66144Y-54797D01*
X66175Y-54725D01*
X66175Y-54824D01*
X66213Y-54916D01*
X66283Y-54986D01*
X66375Y-55025D01*
X66474Y-55025D01*
X67024Y-55025D01*
X67116Y-54986D01*
X67186Y-54916D01*
X67225Y-54824D01*
X67225Y-63320D01*
X66229Y-63320D01*
X66229Y-55575D01*
X66218Y-55367D01*
X66160Y-55227D01*
X66067Y-55202D01*
X65770Y-55500D01*
X66067Y-55797D01*
X66160Y-55772D01*
X66229Y-55575D01*
X66229Y-63320D01*
X65997Y-63320D01*
X65997Y-55867D01*
X65700Y-55570D01*
X65629Y-55641D01*
X65629Y-55500D01*
X65332Y-55202D01*
X65239Y-55227D01*
X65170Y-55424D01*
X65181Y-55632D01*
X65239Y-55772D01*
X65332Y-55797D01*
X65629Y-55500D01*
X65629Y-55641D01*
X65402Y-55867D01*
X65427Y-55960D01*
X65624Y-56029D01*
X65832Y-56018D01*
X65972Y-55960D01*
X65997Y-55867D01*
X65997Y-63320D01*
X65400Y-63320D01*
X65400Y-57481D01*
X65308Y-57260D01*
X65140Y-57091D01*
X64919Y-57000D01*
X64681Y-56999D01*
X64460Y-57091D01*
X64291Y-57259D01*
X64287Y-57270D01*
X64222Y-57248D01*
X64151Y-57319D01*
X63870Y-57600D01*
X64222Y-57951D01*
X64287Y-57929D01*
X64291Y-57939D01*
X64459Y-58108D01*
X64680Y-58199D01*
X64918Y-58200D01*
X65139Y-58108D01*
X65308Y-57940D01*
X65399Y-57719D01*
X65400Y-57481D01*
X65400Y-63320D01*
X64151Y-63320D01*
X64151Y-58022D01*
X63800Y-57670D01*
X63794Y-57676D01*
X63729Y-57611D01*
X63723Y-57605D01*
X63729Y-57600D01*
X63723Y-57594D01*
X63794Y-57523D01*
X63800Y-57529D01*
X64151Y-57177D01*
X64117Y-57077D01*
X63893Y-56995D01*
X63655Y-57005D01*
X63482Y-57077D01*
X63448Y-57177D01*
X63403Y-57132D01*
X63381Y-57154D01*
X63361Y-57108D01*
X63291Y-57038D01*
X63199Y-57000D01*
X63100Y-57000D01*
X62400Y-57000D01*
X62308Y-57038D01*
X62238Y-57108D01*
X62200Y-57200D01*
X62200Y-57299D01*
X62200Y-57999D01*
X62238Y-58091D01*
X62308Y-58161D01*
X62400Y-58200D01*
X62499Y-58200D01*
X63199Y-58200D01*
X63291Y-58161D01*
X63361Y-58091D01*
X63381Y-58045D01*
X63403Y-58067D01*
X63448Y-58022D01*
X63482Y-58122D01*
X63706Y-58204D01*
X63944Y-58194D01*
X64117Y-58122D01*
X64151Y-58022D01*
X64151Y-63320D01*
X60025Y-63320D01*
X60025Y-59115D01*
X59960Y-58959D01*
X59841Y-58839D01*
X59684Y-58775D01*
X59515Y-58774D01*
X59359Y-58839D01*
X59349Y-58850D01*
X58251Y-58850D01*
X58241Y-58839D01*
X58084Y-58775D01*
X57915Y-58774D01*
X57759Y-58839D01*
X57639Y-58958D01*
X57575Y-59115D01*
X57574Y-59284D01*
X57639Y-59440D01*
X57758Y-59560D01*
X57915Y-59624D01*
X58084Y-59625D01*
X58240Y-59560D01*
X58250Y-59550D01*
X59348Y-59550D01*
X59358Y-59560D01*
X59515Y-59624D01*
X59684Y-59625D01*
X59840Y-59560D01*
X59960Y-59441D01*
X60024Y-59284D01*
X60025Y-59115D01*
X60025Y-63320D01*
X58530Y-63320D01*
X58530Y-60849D01*
X58414Y-60569D01*
X58200Y-60354D01*
X57920Y-60238D01*
X57617Y-60238D01*
X57337Y-60353D01*
X57123Y-60567D01*
X57006Y-60847D01*
X57006Y-61150D01*
X57122Y-61430D01*
X57336Y-61645D01*
X57616Y-61761D01*
X57919Y-61761D01*
X58199Y-61646D01*
X58413Y-61432D01*
X58530Y-61152D01*
X58530Y-60849D01*
X58530Y-63320D01*
X56561Y-63320D01*
X56561Y-60849D01*
X56446Y-60569D01*
X56232Y-60354D01*
X55952Y-60238D01*
X55825Y-60238D01*
X55825Y-54515D01*
X55760Y-54359D01*
X55641Y-54239D01*
X55484Y-54175D01*
X55315Y-54174D01*
X55159Y-54239D01*
X55039Y-54358D01*
X54975Y-54515D01*
X54975Y-54529D01*
X54324Y-55180D01*
X54325Y-54996D01*
X54245Y-54803D01*
X54097Y-54655D01*
X53904Y-54575D01*
X53696Y-54574D01*
X53503Y-54654D01*
X53355Y-54802D01*
X53275Y-54995D01*
X53274Y-55203D01*
X53354Y-55397D01*
X53502Y-55544D01*
X53635Y-55600D01*
X53503Y-55654D01*
X53355Y-55802D01*
X53275Y-55995D01*
X53274Y-56203D01*
X53354Y-56397D01*
X53502Y-56544D01*
X53695Y-56624D01*
X53903Y-56625D01*
X54097Y-56545D01*
X54244Y-56397D01*
X54324Y-56204D01*
X54324Y-56170D01*
X55469Y-55025D01*
X55484Y-55025D01*
X55640Y-54960D01*
X55760Y-54841D01*
X55824Y-54684D01*
X55825Y-54515D01*
X55825Y-60238D01*
X55649Y-60238D01*
X55369Y-60353D01*
X55154Y-60567D01*
X55038Y-60847D01*
X55038Y-61150D01*
X55153Y-61430D01*
X55367Y-61645D01*
X55647Y-61761D01*
X55950Y-61761D01*
X56230Y-61646D01*
X56445Y-61432D01*
X56561Y-61152D01*
X56561Y-60849D01*
X56561Y-63320D01*
X54593Y-63320D01*
X54593Y-60849D01*
X54477Y-60569D01*
X54263Y-60354D01*
X53983Y-60238D01*
X53680Y-60238D01*
X53400Y-60353D01*
X53186Y-60567D01*
X53069Y-60847D01*
X53069Y-61150D01*
X53185Y-61430D01*
X53399Y-61645D01*
X53679Y-61761D01*
X53982Y-61761D01*
X54262Y-61646D01*
X54476Y-61432D01*
X54593Y-61152D01*
X54593Y-60849D01*
X54593Y-63320D01*
X52729Y-63320D01*
X52729Y-55175D01*
X52729Y-52375D01*
X52718Y-52167D01*
X52660Y-52027D01*
X52567Y-52002D01*
X52497Y-52073D01*
X52497Y-51932D01*
X52472Y-51839D01*
X52275Y-51770D01*
X52176Y-51775D01*
X52176Y-46637D01*
X52176Y-36637D01*
X52036Y-36299D01*
X51778Y-36040D01*
X51440Y-35900D01*
X51074Y-35900D01*
X50736Y-36039D01*
X50477Y-36298D01*
X50337Y-36636D01*
X50337Y-37001D01*
X50476Y-37339D01*
X50735Y-37598D01*
X51073Y-37738D01*
X51438Y-37739D01*
X51776Y-37599D01*
X52035Y-37341D01*
X52175Y-37003D01*
X52176Y-36637D01*
X52176Y-46637D01*
X52036Y-46299D01*
X51778Y-46040D01*
X51440Y-45900D01*
X51074Y-45900D01*
X50736Y-46039D01*
X50477Y-46298D01*
X50400Y-46485D01*
X50400Y-41681D01*
X50308Y-41460D01*
X50148Y-41299D01*
X50308Y-41140D01*
X50399Y-40919D01*
X50400Y-40681D01*
X50308Y-40460D01*
X50140Y-40291D01*
X49994Y-40231D01*
X49994Y-23666D01*
X49994Y-21698D01*
X49904Y-21479D01*
X49737Y-21312D01*
X49518Y-21221D01*
X49282Y-21221D01*
X49063Y-21311D01*
X48896Y-21478D01*
X48805Y-21696D01*
X48805Y-21933D01*
X48895Y-22152D01*
X49062Y-22319D01*
X49281Y-22410D01*
X49517Y-22410D01*
X49736Y-22320D01*
X49903Y-22152D01*
X49994Y-21934D01*
X49994Y-21698D01*
X49994Y-23666D01*
X49904Y-23447D01*
X49737Y-23280D01*
X49518Y-23189D01*
X49282Y-23189D01*
X49063Y-23279D01*
X48896Y-23447D01*
X48805Y-23665D01*
X48805Y-23901D01*
X48895Y-24120D01*
X49062Y-24287D01*
X49281Y-24378D01*
X49517Y-24378D01*
X49736Y-24288D01*
X49903Y-24121D01*
X49994Y-23903D01*
X49994Y-23666D01*
X49994Y-40231D01*
X49919Y-40200D01*
X49681Y-40199D01*
X49460Y-40291D01*
X49291Y-40459D01*
X49200Y-40680D01*
X49199Y-40918D01*
X49291Y-41139D01*
X49451Y-41300D01*
X49291Y-41459D01*
X49200Y-41680D01*
X49199Y-41918D01*
X49291Y-42139D01*
X49365Y-42214D01*
X49308Y-42238D01*
X49238Y-42308D01*
X49200Y-42400D01*
X49200Y-42499D01*
X49200Y-43199D01*
X49238Y-43291D01*
X49308Y-43361D01*
X49400Y-43400D01*
X49499Y-43400D01*
X50199Y-43400D01*
X50291Y-43361D01*
X50361Y-43291D01*
X50400Y-43199D01*
X50400Y-43100D01*
X50400Y-42400D01*
X50361Y-42308D01*
X50291Y-42238D01*
X50234Y-42214D01*
X50308Y-42140D01*
X50399Y-41919D01*
X50400Y-41681D01*
X50400Y-46485D01*
X50337Y-46636D01*
X50337Y-47001D01*
X50476Y-47339D01*
X50735Y-47598D01*
X51073Y-47738D01*
X51438Y-47739D01*
X51776Y-47599D01*
X52035Y-47341D01*
X52175Y-47003D01*
X52176Y-46637D01*
X52176Y-51775D01*
X52067Y-51781D01*
X51927Y-51839D01*
X51902Y-51932D01*
X52200Y-52229D01*
X52497Y-51932D01*
X52497Y-52073D01*
X52270Y-52300D01*
X52567Y-52597D01*
X52660Y-52572D01*
X52729Y-52375D01*
X52729Y-55175D01*
X52725Y-55087D01*
X52725Y-53196D01*
X52645Y-53003D01*
X52497Y-52855D01*
X52371Y-52802D01*
X52472Y-52760D01*
X52497Y-52667D01*
X52200Y-52370D01*
X52129Y-52441D01*
X52129Y-52300D01*
X51832Y-52002D01*
X51739Y-52027D01*
X51670Y-52224D01*
X51681Y-52432D01*
X51739Y-52572D01*
X51832Y-52597D01*
X52129Y-52300D01*
X52129Y-52441D01*
X51902Y-52667D01*
X51927Y-52760D01*
X52037Y-52799D01*
X51903Y-52854D01*
X51755Y-53002D01*
X51675Y-53195D01*
X51674Y-53403D01*
X51754Y-53597D01*
X51902Y-53744D01*
X52095Y-53824D01*
X52303Y-53825D01*
X52497Y-53745D01*
X52644Y-53597D01*
X52724Y-53404D01*
X52725Y-53196D01*
X52725Y-55087D01*
X52718Y-54967D01*
X52660Y-54827D01*
X52567Y-54802D01*
X52497Y-54873D01*
X52497Y-54732D01*
X52472Y-54639D01*
X52275Y-54570D01*
X52067Y-54581D01*
X51927Y-54639D01*
X51902Y-54732D01*
X52200Y-55029D01*
X52497Y-54732D01*
X52497Y-54873D01*
X52270Y-55100D01*
X52567Y-55397D01*
X52660Y-55372D01*
X52729Y-55175D01*
X52729Y-63320D01*
X52725Y-63320D01*
X52725Y-55996D01*
X52645Y-55803D01*
X52497Y-55655D01*
X52371Y-55602D01*
X52472Y-55560D01*
X52497Y-55467D01*
X52200Y-55170D01*
X52129Y-55241D01*
X52129Y-55100D01*
X51832Y-54802D01*
X51739Y-54827D01*
X51670Y-55024D01*
X51681Y-55232D01*
X51739Y-55372D01*
X51832Y-55397D01*
X52129Y-55100D01*
X52129Y-55241D01*
X51902Y-55467D01*
X51927Y-55560D01*
X52037Y-55599D01*
X51903Y-55654D01*
X51755Y-55802D01*
X51675Y-55995D01*
X51674Y-56203D01*
X51754Y-56397D01*
X51902Y-56544D01*
X52095Y-56624D01*
X52303Y-56625D01*
X52497Y-56545D01*
X52644Y-56397D01*
X52724Y-56204D01*
X52725Y-55996D01*
X52725Y-63320D01*
X49625Y-63320D01*
X49625Y-52515D01*
X49592Y-52437D01*
X49560Y-52359D01*
X49500Y-52299D01*
X49441Y-52239D01*
X49284Y-52175D01*
X49115Y-52174D01*
X48959Y-52239D01*
X48839Y-52358D01*
X48775Y-52515D01*
X48774Y-52684D01*
X48775Y-52684D01*
X48775Y-56223D01*
X48499Y-56499D01*
X48439Y-56558D01*
X48404Y-56644D01*
X48404Y-54493D01*
X48400Y-54387D01*
X48400Y-52799D01*
X48400Y-52700D01*
X48400Y-52000D01*
X48361Y-51908D01*
X48291Y-51838D01*
X48199Y-51800D01*
X48100Y-51800D01*
X47400Y-51800D01*
X47308Y-51838D01*
X47238Y-51908D01*
X47200Y-52000D01*
X47200Y-52099D01*
X47200Y-52799D01*
X47238Y-52891D01*
X47308Y-52961D01*
X47400Y-53000D01*
X47499Y-53000D01*
X48199Y-53000D01*
X48291Y-52961D01*
X48361Y-52891D01*
X48400Y-52799D01*
X48400Y-54387D01*
X48394Y-54255D01*
X48322Y-54082D01*
X48222Y-54048D01*
X48151Y-54119D01*
X48151Y-53977D01*
X48117Y-53877D01*
X47893Y-53795D01*
X47655Y-53805D01*
X47482Y-53877D01*
X47448Y-53977D01*
X47800Y-54329D01*
X48151Y-53977D01*
X48151Y-54119D01*
X47870Y-54400D01*
X48222Y-54751D01*
X48322Y-54717D01*
X48404Y-54493D01*
X48404Y-56644D01*
X48375Y-56715D01*
X48374Y-56884D01*
X48407Y-56962D01*
X48439Y-57040D01*
X48499Y-57100D01*
X48558Y-57160D01*
X48637Y-57192D01*
X48715Y-57224D01*
X48800Y-57225D01*
X48884Y-57225D01*
X48962Y-57192D01*
X49040Y-57160D01*
X49100Y-57100D01*
X49160Y-57041D01*
X49160Y-57040D01*
X49500Y-56700D01*
X49592Y-56562D01*
X49625Y-56400D01*
X49625Y-52600D01*
X49625Y-52600D01*
X49625Y-52515D01*
X49625Y-63320D01*
X49004Y-63320D01*
X49004Y-61179D01*
X49000Y-61073D01*
X49000Y-58523D01*
X49000Y-58423D01*
X49000Y-57723D01*
X48961Y-57632D01*
X48891Y-57561D01*
X48799Y-57523D01*
X48700Y-57523D01*
X48151Y-57523D01*
X48151Y-54822D01*
X47800Y-54470D01*
X47729Y-54541D01*
X47729Y-54400D01*
X47377Y-54048D01*
X47277Y-54082D01*
X47195Y-54306D01*
X47205Y-54544D01*
X47277Y-54717D01*
X47377Y-54751D01*
X47729Y-54400D01*
X47729Y-54541D01*
X47448Y-54822D01*
X47482Y-54922D01*
X47706Y-55004D01*
X47944Y-54994D01*
X48117Y-54922D01*
X48151Y-54822D01*
X48151Y-57523D01*
X48000Y-57523D01*
X47908Y-57561D01*
X47838Y-57632D01*
X47800Y-57723D01*
X47800Y-57823D01*
X47800Y-58523D01*
X47838Y-58615D01*
X47908Y-58685D01*
X48000Y-58723D01*
X48099Y-58723D01*
X48799Y-58723D01*
X48891Y-58685D01*
X48961Y-58615D01*
X49000Y-58523D01*
X49000Y-61073D01*
X48994Y-60941D01*
X48922Y-60768D01*
X48822Y-60734D01*
X48751Y-60805D01*
X48751Y-60664D01*
X48717Y-60563D01*
X48493Y-60481D01*
X48255Y-60491D01*
X48082Y-60563D01*
X48048Y-60664D01*
X48400Y-61015D01*
X48751Y-60664D01*
X48751Y-60805D01*
X48470Y-61086D01*
X48822Y-61437D01*
X48922Y-61404D01*
X49004Y-61179D01*
X49004Y-63320D01*
X48751Y-63320D01*
X48751Y-61508D01*
X48400Y-61156D01*
X48329Y-61227D01*
X48329Y-61086D01*
X47977Y-60734D01*
X47877Y-60768D01*
X47795Y-60992D01*
X47805Y-61230D01*
X47877Y-61404D01*
X47977Y-61437D01*
X48329Y-61086D01*
X48329Y-61227D01*
X48048Y-61508D01*
X48082Y-61608D01*
X48306Y-61690D01*
X48544Y-61680D01*
X48717Y-61608D01*
X48751Y-61508D01*
X48751Y-63320D01*
X45629Y-63320D01*
X45629Y-42275D01*
X45625Y-42187D01*
X45625Y-40096D01*
X45545Y-39903D01*
X45397Y-39755D01*
X45204Y-39675D01*
X44996Y-39674D01*
X44803Y-39754D01*
X44655Y-39902D01*
X44599Y-40035D01*
X44545Y-39903D01*
X44500Y-39857D01*
X44500Y-38199D01*
X44500Y-38100D01*
X44500Y-34600D01*
X44461Y-34508D01*
X44391Y-34438D01*
X44299Y-34400D01*
X44200Y-34400D01*
X43950Y-34400D01*
X43950Y-27593D01*
X43950Y-17593D01*
X43811Y-17255D01*
X43552Y-16996D01*
X43215Y-16856D01*
X42849Y-16856D01*
X42511Y-16995D01*
X42252Y-17254D01*
X42112Y-17591D01*
X42112Y-17957D01*
X42251Y-18295D01*
X42510Y-18554D01*
X42847Y-18694D01*
X43213Y-18695D01*
X43551Y-18555D01*
X43810Y-18297D01*
X43950Y-17959D01*
X43950Y-17593D01*
X43950Y-27593D01*
X43811Y-27255D01*
X43552Y-26996D01*
X43215Y-26856D01*
X42849Y-26856D01*
X42511Y-26995D01*
X42252Y-27254D01*
X42174Y-27441D01*
X42174Y-22637D01*
X42083Y-22416D01*
X41923Y-22255D01*
X42083Y-22096D01*
X42174Y-21875D01*
X42174Y-21637D01*
X42083Y-21416D01*
X41915Y-21247D01*
X41694Y-21156D01*
X41455Y-21155D01*
X41235Y-21246D01*
X41066Y-21415D01*
X40974Y-21636D01*
X40974Y-21874D01*
X41065Y-22095D01*
X41226Y-22256D01*
X41066Y-22415D01*
X40974Y-22636D01*
X40974Y-22874D01*
X41065Y-23095D01*
X41140Y-23170D01*
X41083Y-23193D01*
X41012Y-23264D01*
X40974Y-23356D01*
X40974Y-23455D01*
X40974Y-24155D01*
X41012Y-24247D01*
X41083Y-24317D01*
X41175Y-24355D01*
X41274Y-24355D01*
X41974Y-24355D01*
X42066Y-24317D01*
X42136Y-24247D01*
X42174Y-24155D01*
X42174Y-24056D01*
X42174Y-23356D01*
X42136Y-23264D01*
X42066Y-23193D01*
X42009Y-23170D01*
X42083Y-23096D01*
X42174Y-22875D01*
X42174Y-22637D01*
X42174Y-27441D01*
X42112Y-27591D01*
X42112Y-27957D01*
X42251Y-28295D01*
X42510Y-28554D01*
X42847Y-28694D01*
X43213Y-28695D01*
X43551Y-28555D01*
X43810Y-28297D01*
X43950Y-27959D01*
X43950Y-27593D01*
X43950Y-34400D01*
X40700Y-34400D01*
X40608Y-34438D01*
X40538Y-34508D01*
X40500Y-34600D01*
X40500Y-34699D01*
X40500Y-38199D01*
X40538Y-38291D01*
X40608Y-38361D01*
X40700Y-38400D01*
X40799Y-38400D01*
X44299Y-38400D01*
X44391Y-38361D01*
X44461Y-38291D01*
X44500Y-38199D01*
X44500Y-39857D01*
X44397Y-39755D01*
X44204Y-39675D01*
X43996Y-39674D01*
X43803Y-39754D01*
X43655Y-39902D01*
X43575Y-40095D01*
X43574Y-40303D01*
X43654Y-40497D01*
X43802Y-40644D01*
X43995Y-40724D01*
X44203Y-40725D01*
X44397Y-40645D01*
X44544Y-40497D01*
X44600Y-40364D01*
X44654Y-40497D01*
X44802Y-40644D01*
X44995Y-40724D01*
X45203Y-40725D01*
X45397Y-40645D01*
X45544Y-40497D01*
X45624Y-40304D01*
X45625Y-40096D01*
X45625Y-42187D01*
X45618Y-42067D01*
X45560Y-41927D01*
X45467Y-41902D01*
X45397Y-41973D01*
X45397Y-41832D01*
X45372Y-41739D01*
X45175Y-41670D01*
X44967Y-41681D01*
X44827Y-41739D01*
X44802Y-41832D01*
X45100Y-42129D01*
X45397Y-41832D01*
X45397Y-41973D01*
X45170Y-42200D01*
X45467Y-42497D01*
X45560Y-42472D01*
X45629Y-42275D01*
X45629Y-63320D01*
X45625Y-63320D01*
X45625Y-44096D01*
X45545Y-43903D01*
X45397Y-43755D01*
X45397Y-43754D01*
X45397Y-42567D01*
X45100Y-42270D01*
X45029Y-42341D01*
X45029Y-42200D01*
X44732Y-41902D01*
X44639Y-41927D01*
X44600Y-42037D01*
X44545Y-41903D01*
X44397Y-41755D01*
X44204Y-41675D01*
X43996Y-41674D01*
X43803Y-41754D01*
X43655Y-41902D01*
X43575Y-42095D01*
X43574Y-42303D01*
X43654Y-42497D01*
X43802Y-42644D01*
X43995Y-42724D01*
X44203Y-42725D01*
X44397Y-42645D01*
X44544Y-42497D01*
X44597Y-42371D01*
X44639Y-42472D01*
X44732Y-42497D01*
X45029Y-42200D01*
X45029Y-42341D01*
X44802Y-42567D01*
X44827Y-42660D01*
X45024Y-42729D01*
X45232Y-42718D01*
X45372Y-42660D01*
X45397Y-42567D01*
X45397Y-43754D01*
X45204Y-43675D01*
X44996Y-43674D01*
X44803Y-43754D01*
X44655Y-43902D01*
X44599Y-44035D01*
X44545Y-43903D01*
X44397Y-43755D01*
X44204Y-43675D01*
X43996Y-43674D01*
X43803Y-43754D01*
X43655Y-43902D01*
X43575Y-44095D01*
X43574Y-44303D01*
X43654Y-44497D01*
X43802Y-44644D01*
X43995Y-44724D01*
X44203Y-44725D01*
X44397Y-44645D01*
X44544Y-44497D01*
X44600Y-44364D01*
X44654Y-44497D01*
X44802Y-44644D01*
X44995Y-44724D01*
X45203Y-44725D01*
X45397Y-44645D01*
X45544Y-44497D01*
X45624Y-44304D01*
X45625Y-44096D01*
X45625Y-63320D01*
X45425Y-63320D01*
X45425Y-53915D01*
X45360Y-53759D01*
X45350Y-53749D01*
X45350Y-50251D01*
X45360Y-50241D01*
X45424Y-50084D01*
X45425Y-49915D01*
X45360Y-49759D01*
X45241Y-49639D01*
X45084Y-49575D01*
X44915Y-49574D01*
X44759Y-49639D01*
X44639Y-49758D01*
X44575Y-49915D01*
X44574Y-50084D01*
X44639Y-50240D01*
X44650Y-50250D01*
X44650Y-53748D01*
X44639Y-53758D01*
X44575Y-53915D01*
X44574Y-54084D01*
X44639Y-54240D01*
X44758Y-54360D01*
X44915Y-54424D01*
X45084Y-54425D01*
X45240Y-54360D01*
X45360Y-54241D01*
X45424Y-54084D01*
X45425Y-53915D01*
X45425Y-63320D01*
X44142Y-63320D01*
X44142Y-59045D01*
X44142Y-53021D01*
X44142Y-51053D01*
X44142Y-49084D01*
X44029Y-48811D01*
X43820Y-48602D01*
X43548Y-48489D01*
X43253Y-48489D01*
X42980Y-48601D01*
X42771Y-48810D01*
X42658Y-49083D01*
X42657Y-49378D01*
X42770Y-49651D01*
X42979Y-49860D01*
X43251Y-49973D01*
X43546Y-49973D01*
X43819Y-49861D01*
X44028Y-49652D01*
X44141Y-49379D01*
X44142Y-49084D01*
X44142Y-51053D01*
X44029Y-50780D01*
X43820Y-50571D01*
X43548Y-50458D01*
X43253Y-50457D01*
X42980Y-50570D01*
X42771Y-50779D01*
X42658Y-51051D01*
X42657Y-51346D01*
X42770Y-51619D01*
X42979Y-51828D01*
X43251Y-51941D01*
X43546Y-51942D01*
X43819Y-51829D01*
X44028Y-51620D01*
X44141Y-51348D01*
X44142Y-51053D01*
X44142Y-53021D01*
X44029Y-52748D01*
X43820Y-52539D01*
X43548Y-52426D01*
X43253Y-52426D01*
X42980Y-52538D01*
X42771Y-52747D01*
X42658Y-53020D01*
X42657Y-53315D01*
X42687Y-53386D01*
X42223Y-53850D01*
X41725Y-53850D01*
X41725Y-43596D01*
X41645Y-43403D01*
X41497Y-43255D01*
X41364Y-43199D01*
X41497Y-43145D01*
X41644Y-42997D01*
X41724Y-42804D01*
X41725Y-42596D01*
X41725Y-40796D01*
X41645Y-40603D01*
X41497Y-40455D01*
X41364Y-40399D01*
X41497Y-40345D01*
X41644Y-40197D01*
X41724Y-40004D01*
X41725Y-39796D01*
X41645Y-39603D01*
X41497Y-39455D01*
X41304Y-39375D01*
X41096Y-39374D01*
X41025Y-39404D01*
X41025Y-38915D01*
X40960Y-38759D01*
X40841Y-38639D01*
X40684Y-38575D01*
X40515Y-38574D01*
X40359Y-38639D01*
X40349Y-38650D01*
X39651Y-38650D01*
X39641Y-38639D01*
X39484Y-38575D01*
X39315Y-38574D01*
X39159Y-38639D01*
X39039Y-38758D01*
X38975Y-38915D01*
X38974Y-39084D01*
X39039Y-39240D01*
X39158Y-39360D01*
X39315Y-39424D01*
X39484Y-39425D01*
X39640Y-39360D01*
X39650Y-39350D01*
X40348Y-39350D01*
X40358Y-39360D01*
X40515Y-39424D01*
X40684Y-39425D01*
X40840Y-39360D01*
X40960Y-39241D01*
X41024Y-39084D01*
X41025Y-38915D01*
X41025Y-39404D01*
X40903Y-39454D01*
X40807Y-39550D01*
X39192Y-39550D01*
X39097Y-39455D01*
X38904Y-39375D01*
X38696Y-39374D01*
X38503Y-39454D01*
X38355Y-39602D01*
X38275Y-39795D01*
X38274Y-40003D01*
X38354Y-40197D01*
X38502Y-40344D01*
X38628Y-40397D01*
X38527Y-40439D01*
X38502Y-40532D01*
X38800Y-40829D01*
X39097Y-40532D01*
X39072Y-40439D01*
X38962Y-40400D01*
X39097Y-40345D01*
X39192Y-40250D01*
X40807Y-40250D01*
X40902Y-40344D01*
X41035Y-40400D01*
X40903Y-40454D01*
X40755Y-40602D01*
X40675Y-40795D01*
X40674Y-41003D01*
X40754Y-41197D01*
X40902Y-41344D01*
X41095Y-41424D01*
X41303Y-41425D01*
X41497Y-41345D01*
X41644Y-41197D01*
X41724Y-41004D01*
X41725Y-40796D01*
X41725Y-42596D01*
X41645Y-42403D01*
X41497Y-42255D01*
X41304Y-42175D01*
X41096Y-42174D01*
X40903Y-42254D01*
X40755Y-42402D01*
X40675Y-42595D01*
X40674Y-42803D01*
X40754Y-42997D01*
X40902Y-43144D01*
X41035Y-43200D01*
X40903Y-43254D01*
X40755Y-43402D01*
X40675Y-43595D01*
X40674Y-43803D01*
X40754Y-43997D01*
X40902Y-44144D01*
X41095Y-44224D01*
X41303Y-44225D01*
X41497Y-44145D01*
X41644Y-43997D01*
X41724Y-43804D01*
X41725Y-43596D01*
X41725Y-53850D01*
X40741Y-53850D01*
X40867Y-53798D01*
X41076Y-53589D01*
X41189Y-53316D01*
X41189Y-53021D01*
X41189Y-51053D01*
X41189Y-49084D01*
X41076Y-48811D01*
X40868Y-48602D01*
X40595Y-48489D01*
X40300Y-48489D01*
X40027Y-48601D01*
X39818Y-48810D01*
X39705Y-49083D01*
X39704Y-49378D01*
X39817Y-49651D01*
X40026Y-49860D01*
X40298Y-49973D01*
X40594Y-49973D01*
X40867Y-49861D01*
X41076Y-49652D01*
X41189Y-49379D01*
X41189Y-49084D01*
X41189Y-51053D01*
X41076Y-50780D01*
X40868Y-50571D01*
X40595Y-50458D01*
X40300Y-50457D01*
X40027Y-50570D01*
X39818Y-50779D01*
X39705Y-51051D01*
X39704Y-51346D01*
X39817Y-51619D01*
X40026Y-51828D01*
X40298Y-51941D01*
X40594Y-51942D01*
X40867Y-51829D01*
X41076Y-51620D01*
X41189Y-51348D01*
X41189Y-51053D01*
X41189Y-53021D01*
X41076Y-52748D01*
X40868Y-52539D01*
X40595Y-52426D01*
X40300Y-52426D01*
X40027Y-52538D01*
X39818Y-52747D01*
X39705Y-53020D01*
X39705Y-53210D01*
X39329Y-52834D01*
X39329Y-43775D01*
X39329Y-40975D01*
X39318Y-40767D01*
X39260Y-40627D01*
X39167Y-40602D01*
X38870Y-40900D01*
X39167Y-41197D01*
X39260Y-41172D01*
X39329Y-40975D01*
X39329Y-43775D01*
X39325Y-43687D01*
X39325Y-42596D01*
X39245Y-42403D01*
X39097Y-42255D01*
X39097Y-42254D01*
X39097Y-41267D01*
X38800Y-40970D01*
X38729Y-41041D01*
X38729Y-40900D01*
X38432Y-40602D01*
X38339Y-40627D01*
X38270Y-40824D01*
X38281Y-41032D01*
X38339Y-41172D01*
X38432Y-41197D01*
X38729Y-40900D01*
X38729Y-41041D01*
X38502Y-41267D01*
X38527Y-41360D01*
X38724Y-41429D01*
X38932Y-41418D01*
X39072Y-41360D01*
X39097Y-41267D01*
X39097Y-42254D01*
X38904Y-42175D01*
X38696Y-42174D01*
X38503Y-42254D01*
X38355Y-42402D01*
X38275Y-42595D01*
X38274Y-42803D01*
X38354Y-42997D01*
X38502Y-43144D01*
X38628Y-43197D01*
X38527Y-43239D01*
X38502Y-43332D01*
X38800Y-43629D01*
X39097Y-43332D01*
X39072Y-43239D01*
X38962Y-43200D01*
X39097Y-43145D01*
X39244Y-42997D01*
X39324Y-42804D01*
X39325Y-42596D01*
X39325Y-43687D01*
X39318Y-43567D01*
X39260Y-43427D01*
X39167Y-43402D01*
X38870Y-43700D01*
X39167Y-43997D01*
X39260Y-43972D01*
X39329Y-43775D01*
X39329Y-52834D01*
X39247Y-52752D01*
X39133Y-52676D01*
X39097Y-52669D01*
X39097Y-44067D01*
X38800Y-43770D01*
X38729Y-43841D01*
X38729Y-43700D01*
X38432Y-43402D01*
X38339Y-43427D01*
X38270Y-43624D01*
X38281Y-43832D01*
X38339Y-43972D01*
X38432Y-43997D01*
X38729Y-43700D01*
X38729Y-43841D01*
X38502Y-44067D01*
X38527Y-44160D01*
X38724Y-44229D01*
X38932Y-44218D01*
X39072Y-44160D01*
X39097Y-44067D01*
X39097Y-52669D01*
X39000Y-52650D01*
X37629Y-52650D01*
X37629Y-23075D01*
X37625Y-22987D01*
X37625Y-20896D01*
X37545Y-20703D01*
X37397Y-20555D01*
X37204Y-20475D01*
X36996Y-20474D01*
X36851Y-20534D01*
X36851Y-15401D01*
X36848Y-14983D01*
X36694Y-14611D01*
X36547Y-14523D01*
X36476Y-14594D01*
X36476Y-14452D01*
X36388Y-14305D01*
X36001Y-14148D01*
X35583Y-14151D01*
X35211Y-14305D01*
X35123Y-14452D01*
X35800Y-15129D01*
X36476Y-14452D01*
X36476Y-14594D01*
X35870Y-15200D01*
X36547Y-15876D01*
X36694Y-15788D01*
X36851Y-15401D01*
X36851Y-20534D01*
X36803Y-20554D01*
X36655Y-20702D01*
X36599Y-20835D01*
X36545Y-20703D01*
X36476Y-20634D01*
X36476Y-15947D01*
X35800Y-15270D01*
X35729Y-15341D01*
X35729Y-15200D01*
X35052Y-14523D01*
X34905Y-14611D01*
X34748Y-14998D01*
X34751Y-15416D01*
X34905Y-15788D01*
X35052Y-15876D01*
X35729Y-15200D01*
X35729Y-15341D01*
X35123Y-15947D01*
X35211Y-16094D01*
X35598Y-16251D01*
X36016Y-16248D01*
X36388Y-16094D01*
X36476Y-15947D01*
X36476Y-20634D01*
X36397Y-20555D01*
X36204Y-20475D01*
X35996Y-20474D01*
X35803Y-20554D01*
X35655Y-20702D01*
X35575Y-20895D01*
X35574Y-21103D01*
X35654Y-21297D01*
X35802Y-21444D01*
X35995Y-21524D01*
X36203Y-21525D01*
X36397Y-21445D01*
X36544Y-21297D01*
X36600Y-21164D01*
X36654Y-21297D01*
X36802Y-21444D01*
X36995Y-21524D01*
X37203Y-21525D01*
X37397Y-21445D01*
X37544Y-21297D01*
X37624Y-21104D01*
X37625Y-20896D01*
X37625Y-22987D01*
X37618Y-22867D01*
X37560Y-22727D01*
X37467Y-22702D01*
X37397Y-22773D01*
X37397Y-22632D01*
X37372Y-22539D01*
X37175Y-22470D01*
X36967Y-22481D01*
X36827Y-22539D01*
X36802Y-22632D01*
X37100Y-22929D01*
X37397Y-22632D01*
X37397Y-22773D01*
X37170Y-23000D01*
X37467Y-23297D01*
X37560Y-23272D01*
X37629Y-23075D01*
X37629Y-52650D01*
X37625Y-52650D01*
X37625Y-24896D01*
X37545Y-24703D01*
X37397Y-24555D01*
X37397Y-24554D01*
X37397Y-23367D01*
X37100Y-23070D01*
X37029Y-23141D01*
X37029Y-23000D01*
X36732Y-22702D01*
X36639Y-22727D01*
X36600Y-22837D01*
X36545Y-22703D01*
X36397Y-22555D01*
X36204Y-22475D01*
X35996Y-22474D01*
X35803Y-22554D01*
X35655Y-22702D01*
X35575Y-22895D01*
X35574Y-23103D01*
X35654Y-23297D01*
X35802Y-23444D01*
X35995Y-23524D01*
X36203Y-23525D01*
X36397Y-23445D01*
X36544Y-23297D01*
X36597Y-23171D01*
X36639Y-23272D01*
X36732Y-23297D01*
X37029Y-23000D01*
X37029Y-23141D01*
X36802Y-23367D01*
X36827Y-23460D01*
X37024Y-23529D01*
X37232Y-23518D01*
X37372Y-23460D01*
X37397Y-23367D01*
X37397Y-24554D01*
X37204Y-24475D01*
X36996Y-24474D01*
X36803Y-24554D01*
X36655Y-24702D01*
X36599Y-24835D01*
X36545Y-24703D01*
X36397Y-24555D01*
X36204Y-24475D01*
X35996Y-24474D01*
X35803Y-24554D01*
X35655Y-24702D01*
X35575Y-24895D01*
X35574Y-25103D01*
X35654Y-25297D01*
X35802Y-25444D01*
X35995Y-25524D01*
X36203Y-25525D01*
X36397Y-25445D01*
X36544Y-25297D01*
X36600Y-25164D01*
X36654Y-25297D01*
X36802Y-25444D01*
X36995Y-25524D01*
X37203Y-25525D01*
X37397Y-25445D01*
X37544Y-25297D01*
X37624Y-25104D01*
X37625Y-24896D01*
X37625Y-52650D01*
X37561Y-52650D01*
X37561Y-50880D01*
X37561Y-48433D01*
X37561Y-46464D01*
X37446Y-46184D01*
X37232Y-45970D01*
X37025Y-45884D01*
X37025Y-38896D01*
X37025Y-33296D01*
X36945Y-33103D01*
X36797Y-32955D01*
X36604Y-32875D01*
X36396Y-32874D01*
X36203Y-32954D01*
X36055Y-33102D01*
X36002Y-33228D01*
X35960Y-33127D01*
X35867Y-33102D01*
X35797Y-33173D01*
X35797Y-33032D01*
X35772Y-32939D01*
X35575Y-32870D01*
X35367Y-32881D01*
X35227Y-32939D01*
X35202Y-33032D01*
X35500Y-33329D01*
X35797Y-33032D01*
X35797Y-33173D01*
X35570Y-33400D01*
X35867Y-33697D01*
X35960Y-33672D01*
X35999Y-33562D01*
X36054Y-33697D01*
X36202Y-33844D01*
X36395Y-33924D01*
X36603Y-33925D01*
X36797Y-33845D01*
X36944Y-33697D01*
X37024Y-33504D01*
X37025Y-33296D01*
X37025Y-38896D01*
X36945Y-38703D01*
X36797Y-38555D01*
X36604Y-38475D01*
X36600Y-38475D01*
X36600Y-37281D01*
X36600Y-35281D01*
X36508Y-35060D01*
X36340Y-34891D01*
X36119Y-34800D01*
X35881Y-34799D01*
X35797Y-34834D01*
X35797Y-33767D01*
X35500Y-33470D01*
X35429Y-33541D01*
X35429Y-33400D01*
X35132Y-33102D01*
X35039Y-33127D01*
X34970Y-33324D01*
X34981Y-33532D01*
X35039Y-33672D01*
X35132Y-33697D01*
X35429Y-33400D01*
X35429Y-33541D01*
X35202Y-33767D01*
X35227Y-33860D01*
X35424Y-33929D01*
X35632Y-33918D01*
X35772Y-33860D01*
X35797Y-33767D01*
X35797Y-34834D01*
X35660Y-34891D01*
X35491Y-35059D01*
X35400Y-35280D01*
X35399Y-35518D01*
X35491Y-35739D01*
X35565Y-35814D01*
X35508Y-35838D01*
X35438Y-35908D01*
X35400Y-36000D01*
X35400Y-36099D01*
X35400Y-36287D01*
X35462Y-36350D01*
X35950Y-36350D01*
X35950Y-36342D01*
X36050Y-36342D01*
X36050Y-36350D01*
X36537Y-36350D01*
X36600Y-36287D01*
X36600Y-36099D01*
X36600Y-36000D01*
X36561Y-35908D01*
X36491Y-35838D01*
X36434Y-35814D01*
X36508Y-35740D01*
X36599Y-35519D01*
X36600Y-35281D01*
X36600Y-37281D01*
X36508Y-37060D01*
X36434Y-36985D01*
X36491Y-36961D01*
X36561Y-36891D01*
X36600Y-36799D01*
X36600Y-36700D01*
X36600Y-36512D01*
X36537Y-36450D01*
X36050Y-36450D01*
X36050Y-36457D01*
X35950Y-36457D01*
X35950Y-36450D01*
X35462Y-36450D01*
X35400Y-36512D01*
X35400Y-36700D01*
X35400Y-36799D01*
X35438Y-36891D01*
X35508Y-36961D01*
X35565Y-36985D01*
X35491Y-37059D01*
X35400Y-37280D01*
X35399Y-37518D01*
X35491Y-37739D01*
X35659Y-37908D01*
X35880Y-37999D01*
X36118Y-38000D01*
X36339Y-37908D01*
X36508Y-37740D01*
X36599Y-37519D01*
X36600Y-37281D01*
X36600Y-38475D01*
X36396Y-38474D01*
X36203Y-38554D01*
X36055Y-38702D01*
X36002Y-38828D01*
X35960Y-38727D01*
X35867Y-38702D01*
X35797Y-38773D01*
X35797Y-38632D01*
X35772Y-38539D01*
X35575Y-38470D01*
X35367Y-38481D01*
X35227Y-38539D01*
X35202Y-38632D01*
X35500Y-38929D01*
X35797Y-38632D01*
X35797Y-38773D01*
X35570Y-39000D01*
X35867Y-39297D01*
X35960Y-39272D01*
X35999Y-39162D01*
X36054Y-39297D01*
X36202Y-39444D01*
X36395Y-39524D01*
X36603Y-39525D01*
X36797Y-39445D01*
X36944Y-39297D01*
X37024Y-39104D01*
X37025Y-38896D01*
X37025Y-45884D01*
X36952Y-45854D01*
X36851Y-45853D01*
X36851Y-43801D01*
X36848Y-43383D01*
X36694Y-43011D01*
X36547Y-42923D01*
X36476Y-42994D01*
X36476Y-42852D01*
X36388Y-42705D01*
X36001Y-42548D01*
X35797Y-42549D01*
X35797Y-39367D01*
X35500Y-39070D01*
X35429Y-39141D01*
X35429Y-39000D01*
X35132Y-38702D01*
X35039Y-38727D01*
X34970Y-38924D01*
X34981Y-39132D01*
X35039Y-39272D01*
X35132Y-39297D01*
X35429Y-39000D01*
X35429Y-39141D01*
X35202Y-39367D01*
X35227Y-39460D01*
X35424Y-39529D01*
X35632Y-39518D01*
X35772Y-39460D01*
X35797Y-39367D01*
X35797Y-42549D01*
X35583Y-42551D01*
X35211Y-42705D01*
X35123Y-42852D01*
X35800Y-43529D01*
X36476Y-42852D01*
X36476Y-42994D01*
X35870Y-43600D01*
X36547Y-44276D01*
X36694Y-44188D01*
X36851Y-43801D01*
X36851Y-45853D01*
X36649Y-45853D01*
X36476Y-45925D01*
X36476Y-44347D01*
X35800Y-43670D01*
X35729Y-43741D01*
X35729Y-43600D01*
X35052Y-42923D01*
X34905Y-43011D01*
X34748Y-43398D01*
X34751Y-43816D01*
X34905Y-44188D01*
X35052Y-44276D01*
X35729Y-43600D01*
X35729Y-43741D01*
X35123Y-44347D01*
X35211Y-44494D01*
X35598Y-44651D01*
X36016Y-44648D01*
X36388Y-44494D01*
X36476Y-44347D01*
X36476Y-45925D01*
X36369Y-45969D01*
X36154Y-46183D01*
X36038Y-46463D01*
X36038Y-46766D01*
X36153Y-47046D01*
X36367Y-47261D01*
X36647Y-47377D01*
X36950Y-47377D01*
X37230Y-47261D01*
X37445Y-47047D01*
X37561Y-46767D01*
X37561Y-46464D01*
X37561Y-48433D01*
X37446Y-48153D01*
X37232Y-47938D01*
X36952Y-47822D01*
X36649Y-47822D01*
X36369Y-47938D01*
X36154Y-48152D01*
X36038Y-48432D01*
X36038Y-48735D01*
X36153Y-49015D01*
X36367Y-49229D01*
X36647Y-49345D01*
X36950Y-49346D01*
X37230Y-49230D01*
X37445Y-49016D01*
X37561Y-48736D01*
X37561Y-48433D01*
X37561Y-50880D01*
X37446Y-50600D01*
X37232Y-50386D01*
X36952Y-50269D01*
X36649Y-50269D01*
X36369Y-50385D01*
X36154Y-50599D01*
X36038Y-50879D01*
X36038Y-51182D01*
X36153Y-51462D01*
X36367Y-51676D01*
X36647Y-51793D01*
X36950Y-51793D01*
X37230Y-51677D01*
X37445Y-51463D01*
X37561Y-51183D01*
X37561Y-50880D01*
X37561Y-52650D01*
X37479Y-52650D01*
X37446Y-52569D01*
X37232Y-52354D01*
X36952Y-52238D01*
X36649Y-52238D01*
X36369Y-52353D01*
X36154Y-52567D01*
X36038Y-52847D01*
X36038Y-53150D01*
X36153Y-53430D01*
X36367Y-53645D01*
X36647Y-53761D01*
X36950Y-53761D01*
X37230Y-53646D01*
X37445Y-53432D01*
X37479Y-53350D01*
X38855Y-53350D01*
X39952Y-54447D01*
X40066Y-54523D01*
X40066Y-54523D01*
X40200Y-54550D01*
X42368Y-54550D01*
X42502Y-54523D01*
X42502Y-54523D01*
X42615Y-54447D01*
X43181Y-53881D01*
X43251Y-53910D01*
X43546Y-53910D01*
X43819Y-53798D01*
X44028Y-53589D01*
X44141Y-53316D01*
X44142Y-53021D01*
X44142Y-59045D01*
X44029Y-58772D01*
X43820Y-58563D01*
X43548Y-58450D01*
X43253Y-58449D01*
X42980Y-58562D01*
X42771Y-58771D01*
X42658Y-59043D01*
X42657Y-59339D01*
X42770Y-59611D01*
X42979Y-59820D01*
X43251Y-59934D01*
X43546Y-59934D01*
X43819Y-59821D01*
X44028Y-59613D01*
X44141Y-59340D01*
X44142Y-59045D01*
X44142Y-63320D01*
X43229Y-63320D01*
X43229Y-61475D01*
X43218Y-61267D01*
X43160Y-61127D01*
X43067Y-61102D01*
X42997Y-61173D01*
X42997Y-61032D01*
X42972Y-60939D01*
X42775Y-60870D01*
X42567Y-60881D01*
X42427Y-60939D01*
X42402Y-61032D01*
X42700Y-61329D01*
X42997Y-61032D01*
X42997Y-61173D01*
X42770Y-61400D01*
X43067Y-61697D01*
X43160Y-61672D01*
X43229Y-61475D01*
X43229Y-63320D01*
X42997Y-63320D01*
X42997Y-61767D01*
X42700Y-61470D01*
X42629Y-61541D01*
X42629Y-61400D01*
X42332Y-61102D01*
X42239Y-61127D01*
X42200Y-61237D01*
X42145Y-61103D01*
X41997Y-60955D01*
X41804Y-60875D01*
X41596Y-60874D01*
X41403Y-60954D01*
X41255Y-61102D01*
X41189Y-61260D01*
X41189Y-59045D01*
X41076Y-58772D01*
X40868Y-58563D01*
X40595Y-58450D01*
X40300Y-58449D01*
X40027Y-58562D01*
X39818Y-58771D01*
X39705Y-59043D01*
X39704Y-59339D01*
X39817Y-59611D01*
X40026Y-59820D01*
X40298Y-59934D01*
X40594Y-59934D01*
X40867Y-59821D01*
X41076Y-59613D01*
X41189Y-59340D01*
X41189Y-59045D01*
X41189Y-61260D01*
X41175Y-61295D01*
X41174Y-61503D01*
X41254Y-61697D01*
X41402Y-61844D01*
X41595Y-61924D01*
X41803Y-61925D01*
X41997Y-61845D01*
X42144Y-61697D01*
X42197Y-61571D01*
X42239Y-61672D01*
X42332Y-61697D01*
X42629Y-61400D01*
X42629Y-61541D01*
X42402Y-61767D01*
X42427Y-61860D01*
X42624Y-61929D01*
X42832Y-61918D01*
X42972Y-61860D01*
X42997Y-61767D01*
X42997Y-63320D01*
X37561Y-63320D01*
X37561Y-59233D01*
X37561Y-57264D01*
X37561Y-54817D01*
X37446Y-54537D01*
X37232Y-54323D01*
X36952Y-54206D01*
X36649Y-54206D01*
X36369Y-54322D01*
X36154Y-54536D01*
X36038Y-54816D01*
X36038Y-55119D01*
X36153Y-55399D01*
X36367Y-55613D01*
X36647Y-55730D01*
X36950Y-55730D01*
X37230Y-55614D01*
X37445Y-55400D01*
X37561Y-55120D01*
X37561Y-54817D01*
X37561Y-57264D01*
X37446Y-56984D01*
X37232Y-56770D01*
X36952Y-56654D01*
X36649Y-56653D01*
X36369Y-56769D01*
X36154Y-56983D01*
X36038Y-57263D01*
X36038Y-57566D01*
X36153Y-57846D01*
X36367Y-58061D01*
X36647Y-58177D01*
X36950Y-58177D01*
X37230Y-58061D01*
X37445Y-57847D01*
X37561Y-57567D01*
X37561Y-57264D01*
X37561Y-59233D01*
X37446Y-58953D01*
X37232Y-58738D01*
X36952Y-58622D01*
X36649Y-58622D01*
X36369Y-58738D01*
X36154Y-58952D01*
X36038Y-59232D01*
X36038Y-59535D01*
X36153Y-59815D01*
X36367Y-60029D01*
X36647Y-60145D01*
X36950Y-60146D01*
X37230Y-60030D01*
X37445Y-59816D01*
X37561Y-59536D01*
X37561Y-59233D01*
X37561Y-63320D01*
X36851Y-63320D01*
X36851Y-62201D01*
X36848Y-61783D01*
X36694Y-61411D01*
X36547Y-61323D01*
X36476Y-61394D01*
X36476Y-61252D01*
X36388Y-61105D01*
X36001Y-60948D01*
X35583Y-60951D01*
X35211Y-61105D01*
X35123Y-61252D01*
X35800Y-61929D01*
X36476Y-61252D01*
X36476Y-61394D01*
X35870Y-62000D01*
X36547Y-62676D01*
X36694Y-62588D01*
X36851Y-62201D01*
X36851Y-63320D01*
X36476Y-63320D01*
X36476Y-62747D01*
X35800Y-62070D01*
X35729Y-62141D01*
X35729Y-62000D01*
X35052Y-61323D01*
X34905Y-61411D01*
X34748Y-61798D01*
X34751Y-62216D01*
X34905Y-62588D01*
X35052Y-62676D01*
X35729Y-62000D01*
X35729Y-62141D01*
X35123Y-62747D01*
X35211Y-62894D01*
X35598Y-63051D01*
X36016Y-63048D01*
X36388Y-62894D01*
X36476Y-62747D01*
X36476Y-63320D01*
X34479Y-63320D01*
X34479Y-13879D01*
X83920Y-13879D01*
X83920Y-63320D01*
M02*
